<svg xmlns="http://www.w3.org/2000/svg" width="17" height="19" viewBox="0 0 17 19" fill="none"><path d="M13.5308 9.98672C13.5063 7.60437 15.4732 6.46427 15.5604 6.40706C14.4557 4.79295 12.7367 4.57092 12.1224 4.5464C10.6608 4.39657 9.26735 5.40726 8.52364 5.40726C7.78264 5.40726 6.63574 4.56683 5.42209 4.58863C3.82568 4.61315 2.35595 5.5176 1.53323 6.9451C-0.124471 9.8219 1.10825 14.0826 2.72372 16.4187C3.51375 17.5601 4.45634 18.8419 5.69179 18.7969C6.88228 18.7492 7.33178 18.026 8.77154 18.026C10.2113 18.026 10.6159 18.7969 11.8745 18.7738C13.1562 18.7492 13.9667 17.6091 14.7499 16.465C15.6571 15.1396 16.0303 13.8551 16.0534 13.7911C16.0235 13.7748 13.5567 12.8308 13.5308 9.98672Z" fill="#030104"></path><path d="M11.163 3.00212C11.8182 2.208 12.2622 1.10196 12.141 0C11.1943 0.0381394 10.0515 0.627938 9.3718 1.42342C8.76293 2.12763 8.23306 3.25138 8.37472 4.33155C9.42901 4.41464 10.5078 3.79487 11.163 3.00212Z" fill="#030104"></path></svg>