<svg xmlns="http://www.w3.org/2000/svg" width="127" height="127" viewBox="0 0 127 127" fill="none"><g filter="url(#filter0_b_31_155)"><path d="M28.9099 31.9849C42.332 10.791 59.957 6.83397 81.1509 20.2561L94.8144 28.9092C116.008 42.3313 119.965 59.9563 106.543 81.1502L97.8901 94.8136C84.468 116.008 66.843 119.965 45.6491 106.542L31.9857 97.8894C10.7918 84.4673 6.83473 66.8423 20.2568 45.6484L28.9099 31.9849Z" fill="url(#paint0_radial_31_155)" fill-opacity="0.25"></path><path d="M30.1772 32.7875C36.7608 22.3917 44.2316 16.447 52.4446 14.6031C60.6576 12.7591 69.9526 14.9397 80.3484 21.5233L94.0118 30.1764C104.408 36.7601 110.352 44.2309 112.196 52.4439C114.04 60.6568 111.86 69.9519 105.276 80.3476L96.6229 94.0111C90.0392 104.407 82.5684 110.352 74.3555 112.195C66.1425 114.039 56.8475 111.859 46.4517 105.275L32.7882 96.6221C22.3924 90.0385 16.4477 82.5677 14.6038 74.3547C12.7599 66.1417 14.9404 56.8467 21.5241 46.4509L30.1772 32.7875Z" stroke="url(#paint1_linear_31_155)" stroke-width="3"></path></g><g clip-path="url(#clip0_31_155)"><path d="M81.3702 71.2021C74.0254 78.1514 60.5505 78.1949 51.2744 71.3015C44.6511 66.3793 41.9582 59.2506 43.6367 53.0474L41.4859 61.004C39.8091 67.2073 42.5003 74.336 49.1236 79.2582C58.3996 86.1516 71.8728 86.1063 79.2194 79.1588C81.3197 77.1718 82.6914 74.838 83.3624 72.3543L85.5133 64.3976C84.8422 66.8796 83.4705 69.2152 81.3702 71.2021Z" fill="url(#paint2_linear_31_155)"></path><path d="M77.8742 46.1401C68.5982 39.2467 55.1268 39.292 47.7801 46.2412C40.4353 53.1904 42.0005 64.4082 51.2748 71.3016C60.5491 78.1951 74.024 78.1498 81.3706 71.2023C88.7173 64.2531 87.1503 53.0336 77.8742 46.1401Z" fill="url(#paint3_linear_31_155)"></path><path d="M77.8737 46.1401C68.5976 39.2467 55.1262 39.292 47.7796 46.2412C46.427 47.5205 45.3795 48.9428 44.623 50.4574C45.3586 49.0962 46.3381 47.8116 47.5669 46.6491C54.9135 39.7016 68.3867 39.6563 77.661 46.5497C85.2308 52.1743 87.664 60.68 84.314 67.3956C87.9742 60.619 85.5985 51.8797 77.8737 46.1401Z" fill="#FEDC9E"></path><path d="M77.9624 70.0152C74.8355 72.2828 70.6088 73.4245 66.0597 73.2293C61.3658 73.0271 56.7557 71.4114 53.078 68.6801C48.9698 65.6282 46.4739 61.4939 46.2264 57.3386C46.0294 54.0078 47.2652 50.9768 49.803 48.5767C50.2317 48.1706 50.6989 47.7854 51.1886 47.4298C54.3155 45.1622 58.5422 44.0206 63.0896 44.2158C67.7835 44.418 72.3936 46.032 76.0695 48.765C80.1777 51.8169 82.6754 55.953 82.9212 60.1082C83.1181 63.439 81.8823 66.47 79.3446 68.8701C78.9176 69.2745 78.4504 69.6597 77.9624 70.0152Z" fill="url(#paint4_linear_31_155)"></path><path d="M77.586 69.496C74.5759 71.6782 70.4921 72.778 66.0877 72.588C61.5211 72.3911 57.0364 70.8206 53.4616 68.1643C49.5068 65.2257 47.1032 61.2657 46.8679 57.2987C46.6814 54.1631 47.8492 51.3063 50.2458 49.0405C50.6554 48.6535 51.0999 48.2858 51.567 47.9459C54.5771 45.7619 58.6609 44.6639 63.0654 44.8539C67.6319 45.0491 72.1166 46.6212 75.6914 49.2775C79.648 52.2162 82.0515 56.1779 82.2868 60.1449C82.4733 63.2805 81.3055 66.1373 78.9089 68.4031C78.4976 68.7901 78.0531 69.1578 77.586 69.496Z" fill="url(#paint5_linear_31_155)"></path><path d="M75.5578 56.997L75.2772 57.2742C75.0157 56.8593 74.6793 56.4759 74.2593 56.1273C73.4523 55.458 72.5773 55.0745 71.6274 54.9734C70.6775 54.8741 69.7659 55.0466 68.8909 55.4981C68.9903 55.2523 69.0565 55.0798 69.0914 54.9804C69.1245 54.8811 69.1559 54.6789 69.182 54.3756C69.2239 53.9887 69.1541 53.6087 68.9868 53.2357L68.992 53.2322L68.8909 52.2283L68.6243 52.6344C68.4221 52.3694 68.1728 52.1062 67.8626 51.8483C67.0626 51.1807 66.0935 50.7886 64.9518 50.6683C64.3296 50.6108 63.6359 50.7223 62.8707 51.0029C62.2851 51.2173 61.6925 51.5311 61.0894 51.9459L59.1268 50.2709L57.4292 49.5249L57.729 51.3428L59.6794 53.023L58.5185 53.9329L56.5629 52.2352L54.8269 51.5189L55.1267 53.3368L57.0876 55.0536L55.7681 56.0889L52.8975 56.2859L53.1973 58.1038L55.5537 60.2215L57.3072 58.8097C57.7534 58.4507 58.475 58.4803 58.9229 58.8759L65.2743 64.49C65.7431 64.9049 65.771 65.5533 65.3318 65.9402L63.3047 65.6422L63.6045 67.4601L66.1388 69.7381L68.6452 67.4688L69.9315 66.3045L72.22 68.3106L73.6057 67.0243L73.3059 65.2064L71.3259 65.0443L72.4571 64.0212L74.7316 65.9803L76.0772 64.7306L75.7774 62.9127L73.8113 62.7959L73.8288 62.7802C75.3922 61.3649 76.0633 60.0455 75.8646 58.8132C75.8593 58.7818 75.8506 58.7522 75.8454 58.7208L75.8489 58.7226L75.5578 56.997ZM63.5644 58.3147L60.8471 55.9565L62.1369 54.9194C62.9178 54.2902 63.5575 53.9224 64.0612 53.8126C64.5614 53.7028 65.0878 53.8806 65.6403 54.3494C66.1946 54.82 66.3828 55.2715 66.2015 55.7037C66.0185 56.1377 65.5636 56.6571 64.8298 57.2654L63.5644 58.3147ZM71.969 59.5644C71.8069 60.0594 71.359 60.6329 70.6165 61.2865L68.8143 62.8726L65.8146 60.2703L67.3763 58.9404C68.2478 58.1997 68.9711 57.7448 69.5515 57.5722C70.1302 57.4014 70.7158 57.5652 71.3102 58.0689C71.9098 58.5727 72.1294 59.0712 71.969 59.5644Z" fill="#BF7200"></path><path d="M71.3252 53.1557C70.3753 53.0563 69.4637 53.2289 68.5888 53.6803C68.6881 53.4345 68.7544 53.262 68.7892 53.1626C68.8223 53.0633 68.8537 52.8628 68.8799 52.5578C68.9722 51.6811 68.5313 50.8393 67.5587 50.0305C66.7587 49.363 65.7896 48.9708 64.6479 48.8505C64.0257 48.793 63.332 48.9046 62.5668 49.1852C61.9812 49.3996 61.3886 49.7133 60.7855 50.1281L58.8229 48.4531L57.4251 49.5251L59.3754 51.2053L58.2146 52.1151L56.259 50.4175L54.8228 51.519L56.7837 53.2358L55.4642 54.2712L52.8916 56.2878L55.2481 58.4055L57.0015 56.9937C57.4477 56.6346 58.1693 56.6643 58.6173 57.0599L64.9686 62.674C65.4375 63.0888 65.4654 63.7372 65.0262 64.1242L63.2989 65.644L65.8331 67.9221L68.3395 65.6528L69.6258 64.4885L71.9144 66.4929L73.3 65.2066L71.0185 63.2265L72.1497 62.2034L74.4242 64.1625L75.7698 62.9128L73.5022 60.9781L73.5196 60.9624C75.0831 59.5471 75.7541 58.2277 75.5554 56.9954C75.3864 55.9462 74.853 55.052 73.9554 54.306C73.1501 53.6385 72.2752 53.2568 71.3252 53.1557ZM65.3381 52.5334C65.8924 53.004 66.0806 53.4555 65.8994 53.8877C65.7164 54.3217 65.2615 54.8411 64.5277 55.4494L63.2623 56.4987L60.545 54.1404L61.8348 53.1034C62.6156 52.4742 63.2553 52.1064 63.759 51.9966C64.261 51.885 64.7856 52.0646 65.3381 52.5334ZM71.6686 57.7466C71.5065 58.2416 71.0586 58.8151 70.3161 59.4687L68.5138 61.0548L65.5142 58.4525L67.0759 57.1227C67.9474 56.3819 68.6707 55.927 69.2511 55.7544C69.8298 55.5836 70.4154 55.7475 71.0098 56.2512C71.6093 56.7549 71.829 57.2534 71.6686 57.7466Z" fill="#FEC55E"></path><path d="M65.291 63.7161C65.2422 63.866 65.1586 64.0071 65.0261 64.1222L63.2988 65.642L63.4383 65.7675L64.9808 64.4115C65.1934 64.2233 65.2945 63.9723 65.291 63.7161Z" fill="#FEDC9E"></path><path d="M63.2192 56.786L64.4846 55.7367C65.2167 55.1284 65.6733 54.609 65.8564 54.175C65.9052 54.06 65.9243 53.9432 65.9209 53.8264C65.9139 53.8473 65.9104 53.8665 65.9017 53.8874C65.7187 54.3214 65.2638 54.8408 64.53 55.4491L63.2646 56.4984L60.6972 54.2709L60.502 54.4277L63.2192 56.786Z" fill="#FEDC9E"></path><path d="M71.6685 57.7446C71.6685 57.7464 71.6685 57.7464 71.6685 57.7446C71.5064 58.2414 71.0567 58.8148 70.3159 59.4667L68.5137 61.0528L65.6587 58.576L65.4687 58.7381L68.4684 61.3404L70.2706 59.7543C71.0114 59.1024 71.4611 58.529 71.6232 58.0322C71.6546 57.9381 71.6668 57.8422 71.6685 57.7446Z" fill="#FEDC9E"></path><path d="M58.7754 48.7388L60.738 50.4138C61.341 50.0007 61.9337 49.6869 62.5193 49.4708C63.2862 49.1902 63.9782 49.0786 64.6004 49.1362C65.742 49.2564 66.7111 49.6486 67.5112 50.3162C68.482 51.1266 68.9247 51.9685 68.8323 52.8435C68.8254 52.9323 68.8166 53.0108 68.8079 53.0822C68.8341 52.9707 68.8567 52.7964 68.8776 52.5559C68.97 51.6792 68.5291 50.8373 67.5565 50.0286C66.7565 49.361 65.7874 48.9688 64.6457 48.8486C64.0235 48.7911 63.3298 48.9026 62.5646 49.1832C61.979 49.3976 61.3864 49.7113 60.7833 50.1262L58.8207 48.4512L57.4229 49.5231L57.578 49.6573L58.7754 48.7388Z" fill="#FEDC9E"></path><path d="M73.4745 61.2516L73.457 61.2672L75.5869 63.0852L75.77 62.9144L73.64 61.0964C73.586 61.1487 73.532 61.1993 73.4745 61.2516Z" fill="#FEDC9E"></path><path d="M70.9736 63.5157L73.1192 65.3772L73.3005 65.2081L71.1584 63.3484L70.9736 63.5157Z" fill="#FEDC9E"></path><path d="M56.2124 50.7051L58.168 52.4027L59.3306 51.4912L59.1772 51.3604L58.2133 52.1151L56.2595 50.4175L54.8232 51.519L54.9766 51.6532L56.2124 50.7051Z" fill="#FEDC9E"></path><path d="M73.9574 54.3094C73.1504 53.6401 72.2754 53.2566 71.3255 53.1555C70.4052 53.0579 69.5233 53.2218 68.6727 53.6401C68.6379 53.729 68.596 53.8371 68.542 53.9678C69.417 53.5181 70.3285 53.3438 71.2785 53.4431C72.2284 53.5442 73.1033 53.9259 73.9103 54.597C74.808 55.3412 75.3413 56.2371 75.5104 57.2864C75.547 57.5182 75.554 57.7535 75.5296 57.9906C75.5975 57.6542 75.608 57.323 75.5557 56.9988C75.3884 55.9478 74.855 55.0536 73.9574 54.3094Z" fill="#FEDC9E"></path><path d="M55.4172 54.5584L56.7366 53.5248L56.585 53.3906L55.4625 54.2708L52.8916 56.2874L53.0415 56.4217L55.4172 54.5584Z" fill="#FEDC9E"></path></g><defs><filter id="filter0_b_31_155" x="0.473633" y="0.473389" width="125.853" height="125.852" filterUnits="userSpaceOnUse" color-interpolation-filters="sRGB"><feGaussianBlur stdDeviation="6"></feGaussianBlur></filter><radialGradient id="paint0_radial_31_155" cx="0" cy="0" r="1" gradientUnits="userSpaceOnUse" gradientTransform="translate(10.083 84.5322) rotate(32.3461) scale(119.962)"><stop offset="0.09" stop-color="#811EC3"></stop><stop offset="0.890625" stop-color="#FE47B5"></stop></radialGradient><linearGradient id="paint1_linear_31_155" x1="52.1346" y1="13.2223" x2="74.8938" y2="114.593" gradientUnits="userSpaceOnUse"><stop stop-color="white" stop-opacity="0.6"></stop><stop offset="0.395833" stop-color="white" stop-opacity="0"></stop><stop offset="0.586815" stop-color="#E04468" stop-opacity="0"></stop><stop offset="1" stop-color="#E04468" stop-opacity="0.5"></stop></linearGradient><linearGradient id="paint2_linear_31_155" x1="78.6324" y1="78.4061" x2="46.6389" y2="60.0931" gradientUnits="userSpaceOnUse"><stop stop-color="#BD6517"></stop><stop offset="0.2007" stop-color="#C0691A"></stop><stop offset="0.4064" stop-color="#C87523"></stop><stop offset="0.6143" stop-color="#D68A32"></stop><stop offset="0.8224" stop-color="#E9A647"></stop><stop offset="1" stop-color="#FEC55E"></stop></linearGradient><linearGradient id="paint3_linear_31_155" x1="49.0253" y1="69.9997" x2="80.126" y2="47.4435" gradientUnits="userSpaceOnUse"><stop stop-color="#F28F3B"></stop><stop offset="0.4878" stop-color="#F7A74B"></stop><stop offset="1" stop-color="#FEC55E"></stop></linearGradient><linearGradient id="paint4_linear_31_155" x1="69.6183" y1="75.4006" x2="60.9483" y2="46.7284" gradientUnits="userSpaceOnUse"><stop stop-color="#FEC55E"></stop><stop offset="0.5122" stop-color="#F7A74B"></stop><stop offset="1" stop-color="#F28F3B"></stop></linearGradient><linearGradient id="paint5_linear_31_155" x1="69.9924" y1="73.124" x2="57.7808" y2="40.6593" gradientUnits="userSpaceOnUse"><stop offset="0.1188" stop-color="#F28F3B"></stop><stop offset="0.36" stop-color="#F49941"></stop><stop offset="0.7643" stop-color="#FAB352"></stop><stop offset="1" stop-color="#FEC55E"></stop></linearGradient><clipPath id="clip0_31_155"><rect width="45" height="43.4" fill="white" transform="translate(41 41)"></rect></clipPath></defs></svg>