<svg xmlns="http://www.w3.org/2000/svg" width="60" height="60" viewBox="0 0 60 60" fill="none"><g filter="url(#filter0_b_31_158)"><path d="M0 24.4191C0 8.23849 8.23849 0 24.4191 0H34.8506C51.0312 0 59.2697 8.23849 59.2697 24.4191V34.8506C59.2697 51.0312 51.0312 59.2697 34.8506 59.2697H24.4191C8.23849 59.2697 0 51.0312 0 34.8506V24.4191Z" fill="url(#paint0_linear_31_158)"></path><path d="M1.5 24.4191C1.5 16.5669 3.49733 10.9076 7.20249 7.20249C10.9076 3.49733 16.5669 1.5 24.4191 1.5H34.8506C42.7028 1.5 48.3621 3.49733 52.0673 7.20249C55.7724 10.9076 57.7697 16.5669 57.7697 24.4191V34.8506C57.7697 42.7028 55.7724 48.3621 52.0673 52.0673C48.3621 55.7724 42.7028 57.7697 34.8506 57.7697H24.4191C16.5669 57.7697 10.9076 55.7724 7.20249 52.0673C3.49733 48.3621 1.5 42.7028 1.5 34.8506V24.4191Z" stroke="url(#paint1_linear_31_158)" stroke-width="3"></path></g><defs><filter id="filter0_b_31_158" x="-12" y="-12" width="83.2695" height="83.2698" filterUnits="userSpaceOnUse" color-interpolation-filters="sRGB"><feGaussianBlur stdDeviation="6"></feGaussianBlur></filter><linearGradient id="paint0_linear_31_158" x1="0" y1="0" x2="29.7933" y2="29.7933" gradientUnits="userSpaceOnUse"><stop stop-color="#FF29D0" stop-opacity="0.3"></stop><stop offset="1" stop-color="#FF869C" stop-opacity="0.1"></stop></linearGradient><linearGradient id="paint1_linear_31_158" x1="6.18053" y1="6.18053" x2="53.5646" y2="53.5646" gradientUnits="userSpaceOnUse"><stop stop-color="white" stop-opacity="0.6"></stop><stop offset="0.395833" stop-color="white" stop-opacity="0"></stop><stop offset="0.586815" stop-color="#DA9696" stop-opacity="0"></stop><stop offset="1" stop-color="#D97E7E" stop-opacity="0.3"></stop></linearGradient></defs></svg>