<svg xmlns="http://www.w3.org/2000/svg" width="90" height="98" viewBox="0 0 90 98" fill="none"><path d="M-7 12.8191V84.3856C11.2979 88.9742 26.4265 92.7678 44.1178 97.2044L49.7975 61.0341L44.1178 24.8638L19.3162 14.1572L-7 12.8191Z" fill="#5EBA3F"></path><path d="M44.1201 24.8635V97.2041C49.7586 95.7901 84.0007 87.2032 89.5582 85.8096V51.5902V14.1572C82.8515 14.4846 68.7309 15.1744 64.7566 15.3685C62.2503 16.5212 46.6355 23.7062 44.1201 24.8635Z" fill="#6BCD49"></path><path fill-rule="evenodd" clip-rule="evenodd" d="M44.1178 24.8636C37.8882 23.3959 -0.783319 14.2838 -7 12.8188L44.1178 0L44.1182 0.000818257V0.00012207C57.5014 4.16989 62.0782 5.59589 65.3148 6.60434C69.6916 7.96803 71.6178 8.5682 89.5562 14.157C86.0926 14.9733 71.2949 18.4601 59.3713 21.2696C52.2596 22.9453 46.1704 24.3801 44.1182 24.8637V24.8627L44.1178 24.8636Z" fill="#C9F87C"></path></svg>