<svg xmlns="http://www.w3.org/2000/svg" width="100" height="71" viewBox="0 0 100 71" fill="none"><path d="M16.3461 1.00614C12.8451 6.8189 7.87968 11.3725 4.43231 17.1801C3.84752 18.1647 1.25307 20.7754 1.31417 22.0767M1.31417 22.0767C1.39436 23.7663 5.37161 24.8734 6.29475 25.1605C10.9491 26.6075 19.0816 29.0493 24.2549 30.0185M1.31417 22.0767C16.9654 14.095 44.8093 18.1386 51.2274 34.944M51.2274 34.944C52.9266 39.3933 53.124 44.737 51.1957 50.989C47.5495 62.8097 33.5303 54.9729 36.6326 43.9922C38.346 37.9299 45.2687 35.5512 51.2274 34.944ZM51.2274 34.944C52.9388 34.7696 54.5708 34.7413 55.9769 34.8139C73.41 35.7138 91.6975 51.6183 98.3556 69.5914" stroke="#C6277C" stroke-width="2" stroke-miterlimit="1.5" stroke-linecap="round" stroke-linejoin="round"></path></svg>