<svg xmlns="http://www.w3.org/2000/svg" width="118" height="89" viewBox="0 0 118 89" fill="none"><path d="M115.991 0.0255843L87.1368 4.78026C85.7858 5.00347 85.2664 6.50807 86.2379 7.38803L91.4592 12.117L49.3998 50.2091C48.8413 50.7149 47.9353 50.7149 47.3768 50.2091L25.153 30.0807C24.013 29.0482 22.1638 29.0482 21.0238 30.0807L-30.145 76.4232C-31.285 77.4557 -31.285 79.1305 -30.145 80.1631L-21.2431 88.2256C-20.1031 89.2581 -18.2539 89.2581 -17.1139 88.2256L22.077 52.7333C22.6354 52.2275 23.5414 52.2275 24.0999 52.7333L46.3237 72.8616C47.4637 73.8941 49.3129 73.8941 50.4529 72.8616L104.49 23.9194L109.843 28.7672C110.814 29.6472 112.476 29.1767 112.722 27.9531L117.972 1.81923C118.185 0.757815 117.162 -0.167108 115.991 0.0255843Z" fill="url(#paint0_linear_31_169)"></path><defs><linearGradient id="paint0_linear_31_169" x1="-11.9915" y1="85.935" x2="93.5536" y2="-6.54493" gradientUnits="userSpaceOnUse"><stop stop-color="#7B1EC6"></stop><stop offset="0.2472" stop-color="#E0207B"></stop><stop offset="0.6882" stop-color="#FE4659"></stop><stop offset="1" stop-color="#F26066"></stop></linearGradient></defs></svg>