<svg xmlns="http://www.w3.org/2000/svg" width="24" height="24" viewBox="0 0 24 24" fill="none"><g clip-path="url(#clip0_63_10)"><path d="M21.081 16.3565C21.792 14.6673 21.9556 12.7978 21.549 11.0108C21.1423 9.22383 20.1859 7.60921 18.8141 6.39398C17.4422 5.17874 15.724 4.424 13.901 4.23588C12.078 4.04775 10.2419 4.43569 8.65084 5.34516L7.56395 3.44201C9.22675 2.49165 11.1097 1.99395 13.0249 1.99857C14.9401 2.00318 16.8207 2.50995 18.4789 3.4683C23.3983 6.30824 25.2829 12.3891 22.9897 17.4598L24.46 18.3078L19.8966 20.7336L19.7159 15.5687L21.081 16.3565ZM4.92013 9.55686C4.20921 11.246 4.04556 13.1155 4.4522 14.9025C4.85883 16.6895 5.8153 18.3041 7.18712 19.5194C8.55895 20.7346 10.2771 21.4893 12.1001 21.6775C13.9231 21.8656 15.7592 21.4777 17.3503 20.5682L18.4372 22.4713C16.7744 23.4217 14.8915 23.9194 12.9763 23.9148C11.061 23.9102 9.18052 23.4034 7.52231 22.445C2.60282 19.6051 0.718298 13.5242 3.0115 8.45353L1.54004 7.60659L6.10344 5.18081L6.28422 10.3457L4.91904 9.55795L4.92013 9.55686ZM14.5509 16.0552L11.4491 12.9567L8.35063 16.0552L6.80137 14.5059L11.4502 9.85816L14.5498 12.9567L17.6495 9.85816L19.1987 11.4074L14.5498 16.0552H14.5509Z" fill="#2DA82B"></path></g><defs><clipPath id="clip0_63_10"><rect width="24" height="24" fill="white"></rect></clipPath></defs></svg>