<svg xmlns="http://www.w3.org/2000/svg" width="23" height="23" viewBox="0 0 23 23" fill="none"><path d="M11.5 22.75C5.28663 22.75 0.25 17.7134 0.25 11.5C0.25 5.28663 5.28663 0.25 11.5 0.25C17.7134 0.25 22.75 5.28663 22.75 11.5C22.75 17.7134 17.7134 22.75 11.5 22.75ZM5.88963 18.538C7.48212 19.8112 9.46114 20.5032 11.5 20.5C13.7163 20.5 15.7446 19.699 17.3129 18.3715C16.5802 17.6197 15.7042 17.0225 14.7367 16.6152C13.7691 16.2078 12.7298 15.9986 11.68 16C10.5917 15.9987 9.51494 16.2237 8.51815 16.6606C7.52136 17.0975 6.62625 17.7368 5.88963 18.538ZM4.318 16.9225C5.26351 15.9191 6.4045 15.1199 7.67066 14.5743C8.93681 14.0287 10.3013 13.7482 11.68 13.75C13.0094 13.7483 14.326 14.0092 15.5542 14.5177C16.7825 15.0262 17.8982 15.7723 18.8373 16.7133C19.8003 15.3578 20.3691 13.762 20.4804 12.1029C20.5917 10.4438 20.2412 8.78637 19.4678 7.31439C18.6944 5.8424 17.5283 4.61345 16.099 3.76388C14.6696 2.9143 13.0328 2.47732 11.3702 2.50141C9.70756 2.5255 8.08412 3.00972 6.67996 3.90035C5.2758 4.79098 4.14583 6.0532 3.4154 7.54698C2.68498 9.04075 2.38266 10.7077 2.54198 12.3628C2.7013 14.018 3.31605 15.5966 4.318 16.9236V16.9225ZM11.5 12.625C10.3065 12.625 9.16193 12.1509 8.31802 11.307C7.47411 10.4631 7 9.31847 7 8.125C7 6.93153 7.47411 5.78693 8.31802 4.94302C9.16193 4.09911 10.3065 3.625 11.5 3.625C12.6935 3.625 13.8381 4.09911 14.682 4.94302C15.5259 5.78693 16 6.93153 16 8.125C16 9.31847 15.5259 10.4631 14.682 11.307C13.8381 12.1509 12.6935 12.625 11.5 12.625ZM11.5 10.375C12.0967 10.375 12.669 10.1379 13.091 9.71599C13.5129 9.29403 13.75 8.72174 13.75 8.125C13.75 7.52826 13.5129 6.95597 13.091 6.53401C12.669 6.11205 12.0967 5.875 11.5 5.875C10.9033 5.875 10.331 6.11205 9.90901 6.53401C9.48705 6.95597 9.25 7.52826 9.25 8.125C9.25 8.72174 9.48705 9.29403 9.90901 9.71599C10.331 10.1379 10.9033 10.375 11.5 10.375Z" fill="#FF9534"></path></svg>