<svg xmlns="http://www.w3.org/2000/svg" width="21" height="23" viewBox="0 0 21 23" fill="none"><path d="M1.32142 19.9543V13.3029C1.32142 10.9508 2.25578 8.69502 3.91897 7.03184C5.58215 5.36866 7.83791 4.43429 10.19 4.43429C12.5421 4.43429 14.7979 5.36866 16.461 7.03184C18.1242 8.69502 19.0586 10.9508 19.0586 13.3029V19.9543H20.1672V22.1715H0.212846V19.9543H1.32142ZM3.53856 19.9543H16.8414V13.3029C16.8414 11.5388 16.1407 9.84698 14.8933 8.5996C13.6459 7.35221 11.9541 6.65144 10.19 6.65144C8.42593 6.65144 6.73411 7.35221 5.48672 8.5996C4.23934 9.84698 3.53856 11.5388 3.53856 13.3029V19.9543ZM9.08143 0H11.2986V3.32572H9.08143V0ZM18.8125 3.11287L20.38 4.68039L18.0298 7.03168L16.4612 5.46415L18.8125 3.11287ZM0 4.68039L1.56752 3.11287L3.9188 5.46305L2.35239 7.03279L0 4.68039ZM4.64714 13.3029C4.64714 11.8328 5.23112 10.423 6.2706 9.38348C7.31009 8.34399 8.71994 7.76001 10.19 7.76001V9.97715C9.30796 9.97715 8.46206 10.3275 7.83836 10.9512C7.21467 11.5749 6.86428 12.4208 6.86428 13.3029H4.64714Z" fill="#FFDE2F"></path></svg>