<svg xmlns="http://www.w3.org/2000/svg" width="26" height="26" viewBox="0 0 26 26" fill="none"><path d="M13 25.5C6.09625 25.5 0.5 19.9038 0.5 13C0.5 6.09625 6.09625 0.5 13 0.5C19.9038 0.5 25.5 6.09625 25.5 13C25.5 19.9038 19.9038 25.5 13 25.5ZM13 23C15.6522 23 18.1957 21.9464 20.0711 20.0711C21.9464 18.1957 23 15.6522 23 13C23 10.3478 21.9464 7.8043 20.0711 5.92893C18.1957 4.05357 15.6522 3 13 3C10.3478 3 7.8043 4.05357 5.92893 5.92893C4.05357 7.8043 3 10.3478 3 13C3 15.6522 4.05357 18.1957 5.92893 20.0711C7.8043 21.9464 10.3478 23 13 23ZM9.25 14.25H8V11.75H9.25V10.5C9.24942 9.48408 9.60241 8.49963 10.2484 7.71555C10.8944 6.93148 11.7931 6.39665 12.7904 6.20285C13.7877 6.00904 14.8213 6.16834 15.7139 6.6534C16.6065 7.13847 17.3026 7.91906 17.6825 8.86125L15.2 9.48125C14.9809 9.14028 14.6571 8.87956 14.2772 8.73822C13.8973 8.59687 13.4818 8.58251 13.0931 8.6973C12.7044 8.81209 12.3633 9.04983 12.1212 9.37486C11.879 9.69989 11.7488 10.0947 11.75 10.5V11.75H15.5V14.25H11.75V16.75H18V19.25H8V16.75H9.25V14.25Z" fill="#00DF9C"></path></svg>