<svg xmlns="http://www.w3.org/2000/svg" width="21" height="21" viewBox="0 0 21 21" fill="none"><path d="M10.5007 9.46301C11.882 9.46301 13.2067 10.0117 14.1835 10.9885C15.1603 11.9653 15.709 13.29 15.709 14.6713V20.9213H5.29232V14.6713C5.29232 13.29 5.84105 11.9653 6.8178 10.9885C7.79456 10.0117 9.11932 9.46301 10.5007 9.46301ZM3.50898 12.5943C3.34321 13.1534 3.24529 13.7305 3.21732 14.313L3.20898 14.6713V20.9213H0.0839845V16.2338C0.0837794 15.3355 0.415264 14.4687 1.01485 13.7997C1.61444 13.1307 2.43992 12.7066 3.33294 12.6088L3.51003 12.5943H3.50898ZM17.4923 12.5943C18.4193 12.6508 19.2898 13.0588 19.9263 13.7351C20.5627 14.4115 20.9172 15.3051 20.9173 16.2338V20.9213H17.7923V14.6713C17.7923 13.9495 17.6882 13.2526 17.4923 12.5943ZM3.72982 6.33801C4.42049 6.33801 5.08287 6.61238 5.57124 7.10076C6.05962 7.58913 6.33398 8.25151 6.33398 8.94218C6.33398 9.63285 6.05962 10.2952 5.57124 10.7836C5.08287 11.272 4.42049 11.5463 3.72982 11.5463C3.03915 11.5463 2.37677 11.272 1.88839 10.7836C1.40002 10.2952 1.12565 9.63285 1.12565 8.94218C1.12565 8.25151 1.40002 7.58913 1.88839 7.10076C2.37677 6.61238 3.03915 6.33801 3.72982 6.33801ZM17.2715 6.33801C17.9622 6.33801 18.6245 6.61238 19.1129 7.10076C19.6013 7.58913 19.8757 8.25151 19.8757 8.94218C19.8757 9.63285 19.6013 10.2952 19.1129 10.7836C18.6245 11.272 17.9622 11.5463 17.2715 11.5463C16.5808 11.5463 15.9184 11.272 15.4301 10.7836C14.9417 10.2952 14.6673 9.63285 14.6673 8.94218C14.6673 8.25151 14.9417 7.58913 15.4301 7.10076C15.9184 6.61238 16.5808 6.33801 17.2715 6.33801ZM10.5007 0.0880127C11.6057 0.0880127 12.6655 0.527 13.4469 1.3084C14.2283 2.0898 14.6673 3.14961 14.6673 4.25468C14.6673 5.35975 14.2283 6.41956 13.4469 7.20096C12.6655 7.98236 11.6057 8.42135 10.5007 8.42135C9.39558 8.42135 8.33577 7.98236 7.55437 7.20096C6.77297 6.41956 6.33398 5.35975 6.33398 4.25468C6.33398 3.14961 6.77297 2.0898 7.55437 1.3084C8.33577 0.527 9.39558 0.0880127 10.5007 0.0880127Z" fill="#E0207B"></path></svg>