<svg xmlns="http://www.w3.org/2000/svg" width="18" height="20" viewBox="0 0 18 20" fill="none"><path d="M17.998 0.992L18.001 19.008C17.9989 19.2706 17.8936 19.5219 17.7078 19.7075C17.522 19.8931 17.2706 19.9982 17.008 20H0.993977C0.73079 20 0.478368 19.8955 0.292173 19.7095C0.105978 19.5235 0.0012416 19.2712 0.000976562 19.008V0.992C0.00307121 0.72938 0.108394 0.478126 0.294194 0.292513C0.479994 0.1069 0.731355 0.00183004 0.993977 0H17.004C17.553 0 17.998 0.444 17.998 0.992ZM6.00098 11V7C6.00098 6.73478 6.10633 6.48043 6.29387 6.29289C6.48141 6.10536 6.73576 6 7.00098 6C7.26619 6 7.52055 6.10536 7.70808 6.29289C7.89562 6.48043 8.00098 6.73478 8.00098 7V11C8.00098 11.2652 8.10633 11.5196 8.29387 11.7071C8.48141 11.8946 8.73576 12 9.00098 12C9.26619 12 9.52055 11.8946 9.70808 11.7071C9.89562 11.5196 10.001 11.2652 10.001 11V7C10.001 6.20435 9.68491 5.44129 9.1223 4.87868C8.55969 4.31607 7.79663 4 7.00098 4C6.20533 4 5.44227 4.31607 4.87966 4.87868C4.31705 5.44129 4.00098 6.20435 4.00098 7V11C4.00098 12.3261 4.52776 13.5979 5.46544 14.5355C6.40312 15.4732 7.67489 16 9.00098 16C10.3271 16 11.5988 15.4732 12.5365 14.5355C13.4742 13.5979 14.001 12.3261 14.001 11V6H12.001V11C12.001 11.7956 11.6849 12.5587 11.1223 13.1213C10.5597 13.6839 9.79663 14 9.00098 14C8.20533 14 7.44227 13.6839 6.87966 13.1213C6.31705 12.5587 6.00098 11.7956 6.00098 11Z" fill="#FF9029"></path></svg>