<svg xmlns="http://www.w3.org/2000/svg" width="23" height="18" viewBox="0 0 23 18" fill="none"><path d="M16.8348 3.41629C17.6042 4.38207 17.9888 5.43378 17.9888 6.57143C17.9888 7.70908 17.6042 8.76079 16.8348 9.72656C16.0655 10.6923 15.0138 11.4576 13.6797 12.0223C12.3538 12.5789 10.9092 12.8571 9.34598 12.8571C8.64211 12.8571 7.92188 12.7917 7.18527 12.6607C6.17039 13.381 5.03274 13.9048 3.77232 14.2321C3.47768 14.3058 3.12574 14.3713 2.71652 14.4286H2.67969C2.58966 14.4286 2.50372 14.3958 2.42188 14.3304C2.34821 14.2649 2.3032 14.1789 2.28683 14.0725C2.27865 14.048 2.27455 14.0234 2.27455 13.9989C2.27455 13.9661 2.27455 13.9375 2.27455 13.9129C2.28274 13.8884 2.29092 13.8638 2.29911 13.8393C2.31548 13.8147 2.32775 13.7943 2.33594 13.7779C2.34412 13.7615 2.3564 13.7411 2.37277 13.7165C2.39732 13.6838 2.41369 13.6633 2.42188 13.6551C2.43824 13.6388 2.45871 13.6183 2.48326 13.5937C2.50781 13.561 2.52418 13.5406 2.53237 13.5324C2.57329 13.4833 2.66741 13.381 2.81473 13.2254C2.96205 13.0699 3.06845 12.9513 3.13393 12.8694C3.1994 12.7794 3.28943 12.6607 3.40402 12.5134C3.52679 12.3579 3.62909 12.1983 3.71094 12.0346C3.80097 11.8709 3.8869 11.6908 3.96875 11.4944C2.95387 10.9051 2.15588 10.1808 1.57478 9.32143C0.993676 8.46205 0.703125 7.54539 0.703125 6.57143C0.703125 5.43378 1.0878 4.38207 1.85714 3.41629C2.62649 2.45052 3.67411 1.68936 5 1.13281C6.33408 0.56808 7.78274 0.285714 9.34598 0.285714C10.9092 0.285714 12.3538 0.56808 13.6797 1.13281C15.0138 1.68936 16.0655 2.45052 16.8348 3.41629ZM22.7031 9.71429C22.7031 10.6964 22.4126 11.6172 21.8315 12.4766C21.2504 13.3278 20.4524 14.048 19.4375 14.6373C19.5193 14.8337 19.6012 15.0138 19.683 15.1775C19.7731 15.3411 19.8754 15.5007 19.99 15.6562C20.1127 15.8036 20.2068 15.9182 20.2723 16C20.3378 16.09 20.4442 16.2128 20.5915 16.3683C20.7388 16.5238 20.833 16.6261 20.8739 16.6752C20.8821 16.6834 20.8984 16.6998 20.923 16.7243C20.9475 16.7571 20.9639 16.7775 20.9721 16.7857C20.9885 16.8021 21.0048 16.8225 21.0212 16.8471C21.0458 16.8798 21.0621 16.9044 21.0703 16.9208C21.0785 16.9371 21.0867 16.9576 21.0949 16.9821C21.1112 17.0067 21.1194 17.0313 21.1194 17.0558C21.1276 17.0804 21.1317 17.1049 21.1317 17.1295C21.1317 17.1622 21.1276 17.1908 21.1194 17.2154C21.0949 17.33 21.0417 17.42 20.9598 17.4855C20.878 17.551 20.7879 17.5796 20.6897 17.5714C20.2805 17.5141 19.9286 17.4487 19.6339 17.375C18.3735 17.0476 17.2359 16.5238 16.221 15.8036C15.4844 15.9345 14.7641 16 14.0603 16C11.8423 16 9.91072 15.4598 8.26563 14.3795C8.74033 14.4122 9.10045 14.4286 9.34598 14.4286C10.6637 14.4286 11.9282 14.2444 13.1395 13.8761C14.3508 13.5078 15.4312 12.9799 16.3806 12.2924C17.4036 11.5394 18.1894 10.6719 18.7377 9.68973C19.2861 8.70759 19.5603 7.66815 19.5603 6.57143C19.5603 5.94122 19.4661 5.3192 19.2779 4.70536C20.3337 5.28646 21.1685 6.01488 21.7824 6.89062C22.3962 7.76637 22.7031 8.70759 22.7031 9.71429Z" fill="url(#paint0_linear_67_2980)"></path><defs><linearGradient id="paint0_linear_67_2980" x1="11.4294" y1="-4" x2="11.4294" y2="21" gradientUnits="userSpaceOnUse"><stop stop-color="#54E471"></stop><stop offset="1" stop-color="#B3E14F"></stop></linearGradient></defs></svg>