<svg xmlns="http://www.w3.org/2000/svg" width="27" height="30" viewBox="0 0 27 30" fill="none"><path d="M25.3874 9.6875C25.7273 9.6875 26.0671 9.4043 26.0671 9.00781V6.74219C26.0671 6.40234 25.7273 6.0625 25.3874 6.0625H24.2546V3.34375C24.2546 1.87109 23.0085 0.625 21.5358 0.625H3.41085C1.88155 0.625 0.692096 1.87109 0.692096 3.34375V26.9062C0.692096 28.4355 1.88155 29.625 3.41085 29.625H21.5358C23.0085 29.625 24.2546 28.4355 24.2546 26.9062V24.1875H25.3874C25.7273 24.1875 26.0671 23.9043 26.0671 23.5078V21.2422C26.0671 20.9023 25.7273 20.5625 25.3874 20.5625H24.2546V16.9375H25.3874C25.7273 16.9375 26.0671 16.6543 26.0671 16.2578V13.9922C26.0671 13.6523 25.7273 13.3125 25.3874 13.3125H24.2546V9.6875H25.3874ZM21.5358 26.9062H3.41085V3.34375H21.5358V26.9062ZM12.4733 15.125C14.4558 15.125 16.0983 13.5391 16.0983 11.5C16.0983 9.51758 14.4558 7.875 12.4733 7.875C10.4343 7.875 8.84835 9.51758 8.84835 11.5C8.84835 13.5391 10.4343 15.125 12.4733 15.125ZM7.37569 22.375H17.5144C18.2507 22.375 18.8171 21.9219 18.8171 21.2988V20.2227C18.8171 18.4102 17.0612 16.9375 14.9655 16.9375C14.3991 16.9375 13.946 17.3906 12.4733 17.3906C10.944 17.3906 10.5476 16.9375 9.92452 16.9375C7.82881 16.9375 6.1296 18.4102 6.1296 20.2227V21.2988C6.1296 21.9219 6.696 22.375 7.37569 22.375Z" fill="url(#paint0_linear_67_2989)"></path><defs><linearGradient id="paint0_linear_67_2989" x1="13.3796" y1="2" x2="29.5924" y2="30.6543" gradientUnits="userSpaceOnUse"><stop stop-color="#52E472"></stop><stop offset="1" stop-color="#CCE146"></stop></linearGradient></defs></svg>