<svg xmlns="http://www.w3.org/2000/svg" width="38" height="40" viewBox="0 0 38 40" fill="none"><path d="M5.56641 40H17.9609V25.7812H13.5078V21.0938H17.9609V15.2344C17.9609 12.0035 20.458 9.375 23.5273 9.375H29.0938V14.0625H24.6406C23.4128 14.0625 22.4141 15.1138 22.4141 16.4062V21.0938H28.8928L28.1507 25.7812H22.4141V40H32.4336C35.5029 40 38 37.3715 38 34.1406V5.85938C38 2.62848 35.5029 0 32.4336 0H5.56641C2.49706 0 0 2.62848 0 5.85938V34.1406C0 37.3715 2.49706 40 5.56641 40ZM2.22656 5.85938C2.22656 3.9209 3.72485 2.34375 5.56641 2.34375H32.4336C34.2751 2.34375 35.7734 3.9209 35.7734 5.85938V34.1406C35.7734 36.0791 34.2751 37.6562 32.4336 37.6562H24.6406V28.125H30.0368L31.5212 18.75H24.6406V16.4062H31.3203V7.03125H23.5273C19.2302 7.03125 15.7344 10.7111 15.7344 15.2344V18.75H11.2812V28.125H15.7344V37.6562H5.56641C3.72485 37.6562 2.22656 36.0791 2.22656 34.1406V5.85938Z" fill="url(#paint0_linear_67_926)"></path><defs><linearGradient id="paint0_linear_67_926" x1="19" y1="0" x2="19" y2="40" gradientUnits="userSpaceOnUse"><stop stop-color="#D464FF"></stop><stop offset="1" stop-color="#FF60AA"></stop></linearGradient></defs></svg>