<svg xmlns="http://www.w3.org/2000/svg" width="48" height="47" viewBox="0 0 48 47" fill="none"><path d="M37.5198 29.0448C36.5706 28.0453 35.4258 27.5109 34.2124 27.5109C33.0088 27.5109 31.8541 28.0354 30.8658 29.0349L27.7737 32.1522C27.5193 32.0137 27.2649 31.885 27.0202 31.7564C26.668 31.5782 26.3353 31.41 26.0515 31.2319C23.1551 29.3714 20.5228 26.9468 17.9983 23.8097C16.7751 22.2461 15.9531 20.9299 15.3562 19.5939C16.1586 18.8517 16.9023 18.0798 17.6264 17.3376C17.9004 17.0605 18.1744 16.7735 18.4484 16.4964C20.5033 14.4182 20.5033 11.7264 18.4484 9.6482L15.777 6.94653C15.4737 6.63974 15.1605 6.32306 14.867 6.00638C14.2799 5.39282 13.6634 4.75946 13.0274 4.16568C12.0782 3.21565 10.9431 2.71094 9.7493 2.71094C8.5555 2.71094 7.40084 3.21565 6.42232 4.16568C6.41254 4.17558 6.41254 4.17558 6.40275 4.18548L3.07577 7.57988C1.82326 8.8466 1.10894 10.3904 0.952374 12.1816C0.717529 15.0713 1.55906 17.7631 2.20488 19.5246C3.79009 23.8493 6.15812 27.8573 9.69059 32.1522C13.9765 37.328 19.1333 41.4151 25.0241 44.2949C27.2747 45.3736 30.2787 46.6502 33.6351 46.8679C33.8405 46.8778 34.0558 46.8877 34.2515 46.8877C36.5119 46.8877 38.4103 46.0663 39.8976 44.4335C39.9074 44.4137 39.927 44.4038 39.9368 44.384C40.4456 43.7605 41.0327 43.1964 41.6492 42.5928C42.0699 42.187 42.5005 41.7615 42.9212 41.3161C43.89 40.2968 44.3988 39.1093 44.3988 37.892C44.3988 36.6649 43.8802 35.4873 42.8919 34.4976L37.5198 29.0448ZM41.0229 39.4655C41.0131 39.4655 41.0131 39.4754 41.0229 39.4655C40.6413 39.8812 40.2499 40.2572 39.8291 40.6729C39.1931 41.2864 38.5472 41.9297 37.9406 42.6521C36.9523 43.7209 35.7878 44.2256 34.2613 44.2256C34.1145 44.2256 33.958 44.2256 33.8112 44.2157C30.905 44.0277 28.2043 42.8797 26.1787 41.9C20.6403 39.1884 15.777 35.3388 11.7357 30.46C8.39894 26.3926 6.1679 22.6321 4.69033 18.5944C3.78031 16.1302 3.44761 14.2104 3.59439 12.3993C3.69224 11.2415 4.13258 10.2816 4.94475 9.46017L8.28152 6.08555C8.76099 5.63033 9.26982 5.38292 9.76887 5.38292C10.3853 5.38292 10.8844 5.75898 11.1975 6.07566C11.2073 6.08555 11.2171 6.09545 11.2269 6.10535C11.8238 6.66943 12.3913 7.25331 12.9882 7.87677C13.2916 8.19345 13.6047 8.51013 13.9178 8.83671L16.5892 11.5384C17.6264 12.5874 17.6264 13.5572 16.5892 14.6062C16.3054 14.8932 16.0314 15.1802 15.7476 15.4573C14.9257 16.3084 14.1429 17.1001 13.2916 17.872C13.272 17.8918 13.2524 17.9017 13.2426 17.9214C12.4011 18.7725 12.5577 19.6038 12.7338 20.1679C12.7436 20.1976 12.7534 20.2273 12.7632 20.257C13.4579 21.9591 14.4364 23.5623 15.9238 25.4723L15.9336 25.4822C18.6343 28.8469 21.4818 31.4694 24.6229 33.4783C25.0241 33.7356 25.435 33.9434 25.8264 34.1414C26.1787 34.3195 26.5114 34.4877 26.7952 34.6659C26.8343 34.6857 26.8735 34.7154 26.9126 34.7351C27.2453 34.9034 27.5584 34.9826 27.8813 34.9826C28.6935 34.9826 29.2023 34.4679 29.3687 34.2997L32.7152 30.9152C33.0479 30.5787 33.5763 30.173 34.1928 30.173C34.7995 30.173 35.2985 30.5589 35.6019 30.8954C35.6117 30.9053 35.6117 30.9053 35.6215 30.9152L41.0131 36.368C42.021 37.3774 42.021 38.4165 41.0229 39.4655Z" fill="url(#paint0_linear_67_913)"></path><path d="M25.935 11.1503C28.4987 11.5857 30.8276 12.8129 32.6868 14.6931C34.546 16.5734 35.7496 18.9287 36.1899 21.5215C36.2976 22.1747 36.8553 22.6299 37.4914 22.6299C37.5697 22.6299 37.6382 22.62 37.7164 22.6101C38.4405 22.4914 38.92 21.7986 38.8026 21.0663C38.2742 17.9292 36.8064 15.0692 34.5656 12.803C32.3248 10.5367 29.4968 9.05228 26.3949 8.51789C25.6708 8.39913 24.9956 8.88405 24.8684 9.60647C24.7412 10.3289 25.2109 11.0315 25.935 11.1503Z" fill="url(#paint1_linear_67_913)"></path><path d="M47.1886 20.6837C46.3177 15.5179 43.9106 10.8172 40.2117 7.07638C36.5129 3.33561 31.8649 0.901133 26.757 0.0203679C26.0427 -0.108283 25.3675 0.386529 25.2403 1.10895C25.1229 1.84127 25.6024 2.52412 26.3265 2.65277C30.8864 3.43457 35.0451 5.62164 38.3525 8.95667C41.66 12.3016 43.8127 16.5075 44.5857 21.1191C44.6934 21.7723 45.2511 22.2275 45.8872 22.2275C45.9655 22.2275 46.034 22.2176 46.1122 22.2077C46.8266 22.0989 47.3158 21.4061 47.1886 20.6837Z" fill="url(#paint2_linear_67_913)"></path><defs><linearGradient id="paint0_linear_67_913" x1="22.6555" y1="2.71094" x2="22.6555" y2="46.8877" gradientUnits="userSpaceOnUse"><stop stop-color="#D464FF"></stop><stop offset="1" stop-color="#FF60AA"></stop></linearGradient><linearGradient id="paint1_linear_67_913" x1="31.834" y1="8.5" x2="31.834" y2="22.6299" gradientUnits="userSpaceOnUse"><stop stop-color="#D464FF"></stop><stop offset="1" stop-color="#FF60AA"></stop></linearGradient><linearGradient id="paint2_linear_67_913" x1="36.2157" y1="0" x2="36.2157" y2="22.2275" gradientUnits="userSpaceOnUse"><stop stop-color="#D464FF"></stop><stop offset="1" stop-color="#FF60AA"></stop></linearGradient></defs></svg>