<svg xmlns="http://www.w3.org/2000/svg" width="20" height="18" viewBox="0 0 20 18" fill="none"><g clip-path="url(#clip0_67_2955)"><path d="M-0.226562 5.08933H4.30458V0H-0.226562V5.08933ZM0.97344 1.34783H3.10473V3.74168H0.97344V1.34783Z" fill="url(#paint0_linear_67_2955)"></path><path d="M5.74414 0V5.08933H20.2504V0H5.74414ZM19.0504 3.74168H6.94414V1.34783H19.0504V3.74168Z" fill="url(#paint1_linear_67_2955)"></path><path d="M-0.226562 11.6909H4.30458V6.60156H-0.226562V11.6909ZM0.97344 7.94922H3.10473V10.3431H0.97344V7.94922Z" fill="url(#paint2_linear_67_2955)"></path><path d="M5.74414 11.6909H20.2504V6.60156H5.74414V11.6909ZM6.94414 7.94922H19.0504V10.3431H6.94414V7.94922Z" fill="url(#paint3_linear_67_2955)"></path><path d="M-0.226562 18.3004H4.30458V13.2109H-0.226562V18.3004ZM0.97344 14.5588H3.10473V16.9526H0.97344V14.5588Z" fill="url(#paint4_linear_67_2955)"></path><path d="M5.74414 18.3004H20.2504V13.2109H5.74414V18.3004ZM6.94414 14.5588H19.0504V16.9526H6.94414V14.5588Z" fill="url(#paint5_linear_67_2955)"></path></g><defs><linearGradient id="paint0_linear_67_2955" x1="2.03901" y1="0" x2="2.03901" y2="5.08933" gradientUnits="userSpaceOnUse"><stop stop-color="#C45DFF"></stop><stop offset="1" stop-color="#FF58A9"></stop></linearGradient><linearGradient id="paint1_linear_67_2955" x1="12.9973" y1="0" x2="12.9973" y2="5.08933" gradientUnits="userSpaceOnUse"><stop stop-color="#C45DFF"></stop><stop offset="1" stop-color="#FF58A9"></stop></linearGradient><linearGradient id="paint2_linear_67_2955" x1="2.03901" y1="6.60156" x2="2.03901" y2="11.6909" gradientUnits="userSpaceOnUse"><stop stop-color="#C45DFF"></stop><stop offset="1" stop-color="#FF58A9"></stop></linearGradient><linearGradient id="paint3_linear_67_2955" x1="12.9973" y1="6.60156" x2="12.9973" y2="11.6909" gradientUnits="userSpaceOnUse"><stop stop-color="#C45DFF"></stop><stop offset="1" stop-color="#FF58A9"></stop></linearGradient><linearGradient id="paint4_linear_67_2955" x1="2.03901" y1="13.2109" x2="2.03901" y2="18.3004" gradientUnits="userSpaceOnUse"><stop stop-color="#C45DFF"></stop><stop offset="1" stop-color="#FF58A9"></stop></linearGradient><linearGradient id="paint5_linear_67_2955" x1="12.9973" y1="13.2109" x2="12.9973" y2="18.3004" gradientUnits="userSpaceOnUse"><stop stop-color="#C45DFF"></stop><stop offset="1" stop-color="#FF58A9"></stop></linearGradient><clipPath id="clip0_67_2955"><rect width="20" height="18" fill="white"></rect></clipPath></defs></svg>