<svg xmlns="http://www.w3.org/2000/svg" width="410" height="399" viewBox="0 0 410 399" fill="none"><path d="M409.5 199.5C409.5 309.392 317.955 398.5 205 398.5C92.0449 398.5 0.5 309.392 0.5 199.5C0.5 89.6081 92.0449 0.5 205 0.5C317.955 0.5 409.5 89.6081 409.5 199.5Z" stroke="#B9A595" stroke-opacity="0.6"></path><path d="M370.778 199.496C370.778 288.576 296.57 360.813 205 360.813C113.431 360.813 39.2227 288.576 39.2227 199.496C39.2227 110.416 113.431 38.1797 205 38.1797C296.57 38.1797 370.778 110.416 370.778 199.496Z" stroke="#B9A595" stroke-opacity="0.6"></path><path d="M325.678 199.277C325.678 262.76 271.571 314.266 204.773 314.266C137.975 314.266 83.8672 262.76 83.8672 199.277C83.8672 135.794 137.975 84.2891 204.773 84.2891C271.571 84.2891 325.678 135.794 325.678 199.277Z" stroke="#B9A595" stroke-opacity="0.6"></path><path d="M295.611 199.503C295.611 248.183 255.056 287.669 205 287.669C154.944 287.669 114.389 248.183 114.389 199.503C114.389 150.822 154.944 111.336 205 111.336C255.056 111.336 295.611 150.822 295.611 199.503Z" stroke="#B9A595" stroke-opacity="0.6"></path><path d="M247.323 199.06C247.323 223.256 227.164 242.893 202.268 242.893C177.371 242.893 157.212 223.256 157.212 199.06C157.212 174.864 177.371 155.227 202.268 155.227C227.164 155.227 247.323 174.864 247.323 199.06Z" stroke="url(#paint0_linear_67_355)" stroke-opacity="0.6"></path><defs><linearGradient id="paint0_linear_67_355" x1="202.268" y1="154.727" x2="202.268" y2="243.393" gradientUnits="userSpaceOnUse"><stop stop-color="#FC913C"></stop><stop offset="1" stop-color="#FD6862"></stop></linearGradient></defs></svg>