<svg xmlns="http://www.w3.org/2000/svg" width="38" height="38" viewBox="0 0 38 38" fill="none"><path d="M15.082 29.4219H22.9173V32.5158H15.082V29.4219Z" fill="#6E61B6"></path><path d="M19.8164 29.4219H22.9176V32.5158H19.8164V29.4219Z" fill="#6354B1"></path><path d="M2.04102 29.4232C0.956531 29.4232 0.0742188 28.5409 0.0742188 27.4564V3.88086C0.0742188 2.79637 0.956531 1.91406 2.04102 1.91406H35.959C37.0435 1.91406 37.9258 2.79637 37.9258 3.88086V27.4564C37.9258 28.5409 37.0435 29.4232 35.959 29.4232H2.04102ZM2.04102 2.87891C1.48853 2.87891 1.03906 3.32837 1.03906 3.88086V25.0298H36.9609V3.88086C36.9609 3.32837 36.5115 2.87891 35.959 2.87891H2.04102Z" fill="#978ECB"></path><path d="M2.04102 2.875C1.48853 2.875 1.03906 3.32447 1.03906 3.87695V25.0259H36.9609V3.87695C36.9609 3.32447 36.5115 2.875 35.959 2.875H2.04102Z" fill="#978ECB"></path><path d="M37.4434 25.5064H0.556641V3.875C0.556641 3.05518 1.2212 2.39062 2.04102 2.39062H35.959C36.7788 2.39062 37.4434 3.05518 37.4434 3.875V25.5064Z" fill="white"></path><path d="M35.959 2.39062H34.4375V25.5064H37.4434V3.875C37.4434 3.05525 36.7788 2.39062 35.959 2.39062V2.39062Z" fill="#F3F0F3"></path><path d="M35.959 1.83594H2.04102C0.915563 1.83594 0 2.7515 0 3.87695V27.4525C0 28.578 0.915563 29.4935 2.04102 29.4935H35.959C37.0844 29.4935 38 28.578 38 27.4525V3.87695C38 2.75157 37.0844 1.83594 35.959 1.83594V1.83594ZM36.8867 24.9517H1.11328V3.87695C1.11328 3.36536 1.52943 2.94922 2.04102 2.94922H35.959C36.4706 2.94922 36.8867 3.36536 36.8867 3.87695V24.9517Z" fill="#978ECB"></path><path d="M35.959 1.83594H34.4375V2.94922H35.959C36.4706 2.94922 36.8867 3.36536 36.8867 3.87695V24.9517H34.4375V28.0092C34.4375 28.829 33.7729 29.4935 32.9531 29.4935H35.959C37.0844 29.4935 38 28.578 38 27.4525V3.87695C38 2.75157 37.0844 1.83594 35.959 1.83594V1.83594Z" fill="#8379C1"></path><path d="M26.5843 32.4375H11.416C9.98948 32.4375 8.83301 33.594 8.83301 35.0205V35.7975C8.83301 36.0024 8.99918 36.1686 9.2041 36.1686H28.7962C29.0011 36.1686 29.1673 36.0024 29.1673 35.7975V35.0205C29.1673 33.594 28.0108 32.4375 26.5843 32.4375Z" fill="#978ECB"></path><path d="M26.5841 32.4375H23.4678C24.8943 32.4375 26.0508 33.594 26.0508 35.0205V35.7975C26.0508 36.0024 25.8846 36.1686 25.6797 36.1686H28.7961C29.001 36.1686 29.1672 36.0024 29.1672 35.7975V35.0205C29.1672 33.594 28.0107 32.4375 26.5841 32.4375Z" fill="#8379C1"></path><path d="M6.72764 12.672H4.27441C4.82437 15.6949 7.47042 17.9869 10.652 17.9869C10.6768 17.9869 10.7015 17.9862 10.7262 17.9859V15.5966C10.7015 15.597 10.677 15.5984 10.652 15.5984C8.79671 15.5985 7.23047 14.3641 6.72764 12.672Z" fill="#978ECB"></path><path d="M10.6522 5.02344C7.31974 5.02344 4.57505 7.53804 4.21094 10.7732H6.62453C6.97017 8.86195 8.64128 7.41187 10.6522 7.41187C12.9134 7.41187 14.7465 9.245 14.7465 11.5062C14.7465 11.5311 14.7451 11.5556 14.7447 11.5804H17.134C17.1343 11.5557 17.1349 11.531 17.1349 11.5062C17.1349 7.92583 14.2325 5.02344 10.6522 5.02344V5.02344Z" fill="#978ECB"></path><path d="M10.6523 15.6022V17.9905C14.2327 17.9905 17.1351 15.0881 17.1351 11.5078H14.7467C14.7467 13.7691 12.9136 15.6022 10.6523 15.6022Z" fill="#FFE177"></path><path d="M18.1876 18.2969L16.0195 20.465C16.3903 20.6018 16.6664 20.9336 16.7231 21.3358L19.0585 19.0005C18.6562 18.9438 18.3243 18.6677 18.1876 18.2969V18.2969Z" fill="#8AC9FE"></path><path d="M23.2732 18.5898C23.1271 18.4041 23.0392 18.1707 23.0392 17.9166C23.0392 17.76 23.073 17.6113 23.1326 17.4766H20.2089C20.2686 17.6113 20.3024 17.76 20.3024 17.9166C20.3024 18.1707 20.2144 18.4041 20.0684 18.5898H23.2732Z" fill="#8AC9FE"></path><path d="M14.7052 22.043C14.6079 21.8798 14.551 21.6898 14.551 21.4863C14.551 21.2829 14.6079 21.0929 14.7053 20.9297H6.76953C6.84843 21.0992 6.89377 21.2873 6.89377 21.4863C6.89377 21.6853 6.84843 21.8735 6.76953 22.043H14.7052Z" fill="#8AC9FE"></path><path d="M28.5139 12.6328L24.3037 16.843C24.703 16.907 25.0301 17.1875 25.1606 17.5606L29.2471 13.4742C28.8942 13.3163 28.6229 13.009 28.5139 12.6328V12.6328Z" fill="#8AC9FE"></path><path d="M33.8313 11.6484H30.958C31.0549 11.8324 31.1104 12.0414 31.1104 12.2634C31.1104 12.4397 31.075 12.6077 31.0123 12.7617H33.8313C34.1388 12.7617 34.388 12.5125 34.388 12.2051C34.388 11.8977 34.1388 11.6484 33.8313 11.6484Z" fill="#8AC9FE"></path><path d="M6.93732 21.7407C7.07333 20.9803 6.56717 20.2537 5.80679 20.1177C5.04642 19.9817 4.31976 20.4878 4.18375 21.2482C4.04775 22.0086 4.55391 22.7353 5.31428 22.8713C6.07466 23.0073 6.80132 22.5011 6.93732 21.7407Z" fill="#FD8087"></path><path d="M5.56888 20.0859C5.3391 20.0859 5.1229 20.1423 4.93164 20.2405C5.38363 20.4725 5.69357 20.9421 5.69357 21.4851C5.69357 22.0281 5.38363 22.4978 4.93164 22.7297C5.1229 22.8278 5.3391 22.8843 5.56888 22.8843C6.34165 22.8843 6.96806 22.2579 6.96806 21.4851C6.96806 20.7123 6.34165 20.0859 5.56888 20.0859V20.0859Z" fill="#FE646F"></path><path d="M16.5607 22.2031C16.9632 21.7002 16.8818 20.9662 16.3788 20.5637C15.8759 20.1613 15.1419 20.2427 14.7395 20.7456C14.337 21.2485 14.4184 21.9825 14.9214 22.385C15.4243 22.7875 16.1583 22.706 16.5607 22.2031Z" fill="#FFE177"></path><path d="M20.3487 18.1773C20.4955 17.5501 20.1061 16.9226 19.4789 16.7758C18.8517 16.629 18.2242 17.0184 18.0774 17.6456C17.9305 18.2728 18.32 18.9003 18.9472 19.0471C19.5744 19.1939 20.2019 18.8045 20.3487 18.1773Z" fill="#FFE177"></path><path d="M25.2683 18.1028C25.3707 17.4672 24.9384 16.869 24.3028 16.7666C23.6673 16.6642 23.069 17.0964 22.9666 17.732C22.8643 18.3676 23.2965 18.9658 23.9321 19.0682C24.5676 19.1706 25.1659 18.7384 25.2683 18.1028Z" fill="#FFE177"></path><path d="M24.1306 16.75C23.9376 16.75 23.756 16.7976 23.5957 16.8806C23.9703 17.0746 24.2268 17.4649 24.2268 17.9159C24.2268 18.3669 23.9703 18.7572 23.5957 18.9512C23.756 19.0342 23.9376 19.0818 24.1306 19.0818C24.7745 19.0818 25.2966 18.5598 25.2966 17.9158C25.2966 17.2721 24.7745 16.75 24.1306 16.75V16.75Z" fill="#FFD15B"></path><path d="M19.2107 16.75C19.0177 16.75 18.8361 16.7976 18.6758 16.8806C19.0504 17.0746 19.3069 17.4649 19.3069 17.9159C19.3069 18.3669 19.0504 18.7572 18.6758 18.9512C18.8361 19.0342 19.0176 19.0818 19.2107 19.0818C19.8546 19.0818 20.3767 18.5598 20.3767 17.9158C20.3767 17.2721 19.8546 16.75 19.2107 16.75V16.75Z" fill="#FFD15B"></path><path d="M15.6423 20.3203C15.4493 20.3203 15.2677 20.368 15.1074 20.4509C15.482 20.6449 15.7385 21.0353 15.7385 21.4862C15.7385 21.9372 15.482 22.3276 15.1074 22.5215C15.2677 22.6045 15.4493 22.6521 15.6423 22.6521C16.2862 22.6521 16.8083 22.1301 16.8083 21.4861C16.8083 20.8424 16.2862 20.3203 15.6423 20.3203V20.3203Z" fill="#FFD15B"></path><path d="M31.1549 12.5721C31.3311 11.8195 30.8638 11.0665 30.1112 10.8903C29.3585 10.7141 28.6055 11.1814 28.4294 11.9341C28.2532 12.6867 28.7205 13.4397 29.4731 13.6159C30.2258 13.7921 30.9788 13.3248 31.1549 12.5721Z" fill="#05E39C"></path><path d="M29.7855 10.8672C29.5558 10.8672 29.3396 10.9236 29.1484 11.0217C29.6006 11.2536 29.9105 11.7233 29.9105 12.2664C29.9105 12.8094 29.6005 13.2791 29.1484 13.511C29.3396 13.6091 29.5558 13.6655 29.7855 13.6655C30.5582 13.6655 31.1846 13.0391 31.1846 12.2663C31.1846 11.4936 30.5582 10.8672 29.7855 10.8672Z" fill="#0ED290"></path><path d="M33.4599 23.3086H28.7969C28.592 23.3086 28.4258 23.1424 28.4258 22.9375V16.6289C28.4258 16.424 28.592 16.2578 28.7969 16.2578H33.4599C33.6648 16.2578 33.831 16.424 33.831 16.6289V22.9375C33.831 23.1424 33.6649 23.3086 33.4599 23.3086Z" fill="#D8ECFE"></path><path d="M33.4599 16.2578H31.7656C31.9705 16.2578 32.1367 16.424 32.1367 16.6289V22.9375C32.1367 23.1424 31.9705 23.3086 31.7656 23.3086H33.4599C33.6648 23.3086 33.831 23.1424 33.831 22.9375V16.6289C33.831 16.424 33.6649 16.2578 33.4599 16.2578Z" fill="#C4E2FF"></path><path d="M33.831 20.3398V19.2266H28.4258V20.3398H33.831Z" fill="#8AC9FE"></path><path d="M33.6088 5.57031H20.3105V7.61957H33.6088C33.7317 7.61957 33.8314 7.51989 33.8314 7.39691V5.79297C33.8314 5.66999 33.7317 5.57031 33.6088 5.57031Z" fill="#05E39C"></path><path d="M33.608 5.57031H31.2959C31.4189 5.57031 31.5186 5.66999 31.5186 5.79297V7.39691C31.5186 7.51989 31.4189 7.61957 31.2959 7.61957H33.608C33.7309 7.61957 33.8306 7.51989 33.8306 7.39691V5.79297C33.8306 5.66999 33.7309 5.57031 33.608 5.57031Z" fill="#0ED290"></path><path d="M26.1551 9.79688H20.3105V11.8461H26.1551C26.2781 11.8461 26.3778 11.7465 26.3778 11.6235V10.0195C26.3778 9.89655 26.2781 9.79688 26.1551 9.79688Z" fill="#FD8087"></path><path d="M26.1548 9.79688H23.8428C23.9658 9.79688 24.0654 9.89655 24.0654 10.0195V11.6235C24.0654 11.7465 23.9658 11.8461 23.8428 11.8461H26.1548C26.2778 11.8461 26.3775 11.7465 26.3775 11.6235V10.0195C26.3775 9.89655 26.2778 9.79688 26.1548 9.79688Z" fill="#FE646F"></path><path d="M9.35141 12.7446H3.24707C3.12409 12.7446 3.02441 12.6449 3.02441 12.5219V10.918C3.02441 10.795 3.12409 10.6953 3.24707 10.6953H9.35141C9.47439 10.6953 9.57407 10.795 9.57407 10.918V12.5219C9.57407 12.6448 9.47439 12.7446 9.35141 12.7446Z" fill="#05E39C"></path><path d="M9.35171 10.6953H6.99512C7.1181 10.6953 7.21777 10.795 7.21777 10.918V12.5219C7.21777 12.6449 7.1181 12.7446 6.99512 12.7446H9.35171C9.47469 12.7446 9.57437 12.6449 9.57437 12.5219V10.918C9.57437 10.7951 9.47469 10.6953 9.35171 10.6953Z" fill="#0ED290"></path><path d="M19.8271 12.9516C19.5197 12.9516 19.2705 12.7023 19.2705 12.3949V5.01758C19.2705 4.71016 19.5197 4.46094 19.8271 4.46094C20.1346 4.46094 20.3838 4.71016 20.3838 5.01758V12.3949C20.3838 12.7023 20.1346 12.9516 19.8271 12.9516Z" fill="#8AC9FE"></path></svg>