<svg xmlns="http://www.w3.org/2000/svg" width="38" height="36" viewBox="0 0 38 36" fill="none"><g clip-path="url(#clip0_1_7803)"><path fill-rule="evenodd" clip-rule="evenodd" d="M21.1445 0.578979V15.3689H37.3499C37.5776 15.3689 37.7735 15.2795 37.9227 15.1076C38.0718 14.9357 38.133 14.7292 38.101 14.5039C36.9581 6.44976 30.214 0.198272 21.9374 -0.178795C21.7227 -0.188578 21.5345 -0.117897 21.379 0.0305941C21.2236 0.179009 21.1445 0.363978 21.1445 0.578979V0.578979Z" fill="#8AD93D"></path><path fill-rule="evenodd" clip-rule="evenodd" d="M22.707 18.5L32.7073 28.5002C32.8593 28.6522 33.0461 28.7271 33.261 28.7221C33.4759 28.7171 33.6591 28.6338 33.8039 28.475C36.0652 25.9953 37.6076 22.8487 38.1018 19.3649C38.1338 19.1395 38.0729 18.933 37.9237 18.7612C37.7745 18.5893 37.5786 18.5 37.351 18.5H22.707Z" fill="#FF3549"></path><path fill-rule="evenodd" clip-rule="evenodd" d="M29.5571 30.904C26.5129 33.6799 22.4637 35.3727 18.0192 35.3727C8.55928 35.3727 0.890625 27.7041 0.890625 18.2442C0.890625 9.05012 8.13444 1.54793 17.2262 1.1337C17.4409 1.12392 17.6291 1.19468 17.7846 1.34317C17.9401 1.49166 18.0192 1.67663 18.0192 1.89163V18.2443L29.5822 29.8073C29.7342 29.9593 29.8092 30.1462 29.8042 30.361C29.7992 30.576 29.7159 30.7591 29.5571 30.904V30.904Z" fill="#FFC432"></path><path fill-rule="evenodd" clip-rule="evenodd" d="M10.0762 25.1729C9.69125 25.0105 9.51096 24.5666 9.67344 24.1817C9.83592 23.7967 10.2798 23.6164 10.6647 23.7789C11.0252 23.9317 11.3301 24.0419 11.6137 24.074C11.8693 24.103 12.1421 24.0687 12.4817 23.9426C12.9736 23.76 13.3486 23.4246 13.5573 23.0299C13.7522 22.6615 13.8005 22.2393 13.6563 21.8508C13.5121 21.4623 13.1999 21.1739 12.8119 21.0218C12.3963 20.859 11.8932 20.8495 11.4013 21.0321C10.5535 21.3468 9.66371 21.3216 8.91035 21.0264C8.12946 20.7204 7.49644 20.1271 7.19657 19.3193L7.19935 19.3183C6.8989 18.5089 6.99046 17.6468 7.38139 16.9075C7.6491 16.4012 8.05701 15.9528 8.57325 15.6223L8.30269 14.9436C8.14833 14.5559 8.33741 14.1164 8.72518 13.962C9.11289 13.8077 9.55236 13.9968 9.70674 14.3845L9.99816 15.1156C10.3075 15.0784 10.6427 15.0708 10.9644 15.0965C11.5392 15.1425 12.1122 15.2973 12.5 15.5824C12.836 15.8294 12.9082 16.3021 12.6612 16.638C12.4143 16.974 11.9416 17.0462 11.6056 16.7993C11.4637 16.6949 11.1732 16.6319 10.8485 16.6059C10.4399 16.5732 10.033 16.6076 9.7922 16.697L9.79323 16.6998C9.3013 16.8824 8.92628 17.2177 8.71757 17.6124C8.52159 17.9829 8.47222 18.4056 8.61585 18.7926L8.61862 18.7915C8.76286 19.1801 9.07497 19.4684 9.463 19.6205C9.87857 19.7833 10.3817 19.7928 10.8736 19.6102C11.7214 19.2955 12.6112 19.3207 13.3646 19.616C14.1455 19.922 14.7785 20.5153 15.0783 21.323C15.3782 22.1308 15.2856 22.9933 14.8935 23.7348C14.626 24.2406 14.2186 24.6887 13.7032 25.019L13.9426 25.619C14.097 26.0067 13.9079 26.4462 13.5201 26.6006C13.1324 26.755 12.693 26.5659 12.5386 26.1781L12.2914 25.5583C11.9992 25.6054 11.7219 25.6088 11.4451 25.5775C10.9803 25.5249 10.5558 25.3762 10.0762 25.1729V25.1729Z" fill="white" fill-opacity="0.29"></path></g><defs><clipPath id="clip0_1_7803"><rect width="38" height="36" fill="white"></rect></clipPath></defs></svg>