<svg xmlns="http://www.w3.org/2000/svg" width="25" height="20" viewBox="0 0 25 20" fill="none"><path d="M24.8055 5.3298C24.8048 5.12185 24.7228 4.92827 24.5963 4.79334L20.3113 0.223285C20.1744 0.0772892 19.9882 0 19.806 0C19.6828 0 8.52993 0 8.28387 0C7.88944 0 7.56968 0.341047 7.56968 0.761719V1.84052C6.98537 2.01754 6.42216 2.26809 5.88589 2.58959L5.16717 1.82305C4.88831 1.52557 4.43608 1.52557 4.15716 1.82305L2.13704 3.97759C1.85831 4.27482 1.85817 4.75739 2.13704 5.05482L2.85571 5.82126C2.55437 6.39321 2.31944 6.99395 2.15342 7.61719H1.14193C0.747503 7.61719 0.427734 7.95823 0.427734 8.37891V11.4258C0.427734 11.8465 0.747503 12.1875 1.14193 12.1875H2.15342C2.31944 12.8107 2.55432 13.4114 2.85576 13.9833L2.13704 14.7499C1.85827 15.0472 1.85817 15.5297 2.13704 15.8271L4.15711 17.9815C4.43603 18.279 4.88821 18.279 5.16713 17.9815L5.88575 17.2151C6.42206 17.5366 6.98527 17.7871 7.56963 17.9642V19.043C7.56963 19.4636 7.8894 19.8047 8.28382 19.8047H24.0913C24.4857 19.8047 24.8055 19.4636 24.8055 19.043V5.33203C24.8056 5.33127 24.8055 5.33056 24.8055 5.3298V5.3298ZM20.5204 2.60066L22.3672 4.57031H20.5204V2.60066ZM10.4265 9.90275C10.4262 10.3226 10.1059 10.664 9.71226 10.664C9.31845 10.664 8.99806 10.3223 8.99806 9.90229C8.99806 9.48228 9.31845 9.14057 9.71226 9.14057C10.1059 9.14057 10.4262 9.48203 10.4265 9.90179V9.90275ZM10.4265 7.74815C10.2029 7.6636 9.96261 7.61714 9.71226 7.61714C8.53084 7.61714 7.56968 8.64226 7.56968 9.90229C7.56968 11.1623 8.53084 12.1874 9.71226 12.1874C9.96261 12.1874 10.2029 12.141 10.4265 12.0564V13.6343C10.1928 13.6848 9.95404 13.7109 9.71226 13.7109C7.74323 13.7109 6.14129 12.0024 6.14129 9.90234C6.14129 7.80229 7.74323 6.09375 9.71226 6.09375C9.95404 6.09375 10.1928 6.1199 10.4265 6.17043V7.74815ZM8.42595 16.6195C7.62719 16.4466 6.86896 16.1095 6.17233 15.6176C5.88923 15.4177 5.51323 15.458 5.27307 15.7141L4.66214 16.3657L3.65208 15.2885L4.2631 14.6368C4.50321 14.3807 4.54106 13.9797 4.35356 13.6776C3.89239 12.9348 3.57633 12.1261 3.41416 11.2742C3.3466 10.9192 3.05392 10.6641 2.71425 10.6641H1.85612V9.14062H2.71425C3.05392 9.14062 3.3466 8.8855 3.41416 8.53044C3.57633 7.67843 3.89239 6.86974 4.35356 6.12686C4.54106 5.82486 4.50321 5.42379 4.26305 5.1677L3.65208 4.51613L4.6621 3.43891L5.27311 4.09058C5.51323 4.34672 5.88923 4.38699 6.17238 4.18707C6.869 3.69515 7.62719 3.35806 8.4259 3.18515C8.75881 3.11309 8.99802 2.80094 8.99802 2.43867V1.52344H10.4264V4.62546C10.191 4.58951 9.95261 4.57031 9.71221 4.57031C6.95556 4.57031 4.71285 6.96226 4.71285 9.90234C4.71285 12.8424 6.95556 15.2344 9.71221 15.2344C9.95261 15.2344 10.191 15.2152 10.4264 15.1792V18.2812H8.99802V17.366C8.99806 17.0037 8.75886 16.6916 8.42595 16.6195V16.6195ZM23.3772 18.2812H11.8548V1.52344H19.092V5.33203C19.092 5.7527 19.4118 6.09375 19.8062 6.09375H23.3772V18.2812Z" fill="url(#paint0_linear_344_2)"></path><path d="M13.9974 6.09375H16.9494C17.3438 6.09375 17.6636 5.7527 17.6636 5.33203C17.6636 4.91136 17.3438 4.57031 16.9494 4.57031H13.9974C13.603 4.57031 13.2832 4.91136 13.2832 5.33203C13.2832 5.7527 13.603 6.09375 13.9974 6.09375Z" fill="url(#paint1_linear_344_2)"></path><path d="M13.2832 8.37891C13.2832 8.79958 13.603 9.14062 13.9974 9.14062H21.2346C21.629 9.14062 21.9488 8.79958 21.9488 8.37891C21.9488 7.95823 21.629 7.61719 21.2346 7.61719H13.9974C13.603 7.61719 13.2832 7.95823 13.2832 8.37891Z" fill="url(#paint2_linear_344_2)"></path><path d="M21.2346 10.6641H13.9974C13.603 10.6641 13.2832 11.0051 13.2832 11.4258C13.2832 11.8465 13.603 12.1875 13.9974 12.1875H21.2346C21.629 12.1875 21.9488 11.8465 21.9488 11.4258C21.9488 11.0051 21.629 10.6641 21.2346 10.6641Z" fill="url(#paint3_linear_344_2)"></path><path d="M21.2346 13.7109H13.9974C13.603 13.7109 13.2832 14.052 13.2832 14.4727C13.2832 14.8933 13.603 15.2344 13.9974 15.2344H21.2346C21.629 15.2344 21.9488 14.8933 21.9488 14.4727C21.9488 14.052 21.629 13.7109 21.2346 13.7109Z" fill="url(#paint4_linear_344_2)"></path><defs><linearGradient id="paint0_linear_344_2" x1="12.6166" y1="0" x2="12.6166" y2="19.8047" gradientUnits="userSpaceOnUse"><stop stop-color="#C45DFF"></stop><stop offset="1" stop-color="#FF58A9"></stop></linearGradient><linearGradient id="paint1_linear_344_2" x1="15.4734" y1="4.57031" x2="15.4734" y2="6.09375" gradientUnits="userSpaceOnUse"><stop stop-color="#C45DFF"></stop><stop offset="1" stop-color="#FF58A9"></stop></linearGradient><linearGradient id="paint2_linear_344_2" x1="17.616" y1="7.61719" x2="17.616" y2="9.14062" gradientUnits="userSpaceOnUse"><stop stop-color="#C45DFF"></stop><stop offset="1" stop-color="#FF58A9"></stop></linearGradient><linearGradient id="paint3_linear_344_2" x1="17.616" y1="10.6641" x2="17.616" y2="12.1875" gradientUnits="userSpaceOnUse"><stop stop-color="#C45DFF"></stop><stop offset="1" stop-color="#FF58A9"></stop></linearGradient><linearGradient id="paint4_linear_344_2" x1="17.616" y1="13.7109" x2="17.616" y2="15.2344" gradientUnits="userSpaceOnUse"><stop stop-color="#C45DFF"></stop><stop offset="1" stop-color="#FF58A9"></stop></linearGradient></defs></svg>