<svg xmlns="http://www.w3.org/2000/svg" width="37" height="37" viewBox="0 0 37 37" fill="none"><g clip-path="url(#clip0_1_9045)"><path d="M27.1481 8.91097C27.1481 11.3598 26.2699 13.4795 24.5375 15.2122C22.8051 16.9446 20.6851 17.8228 18.2362 17.8228H18.232C15.7863 17.8219 13.6677 16.9437 11.9353 15.2122C10.2026 13.4795 9.32471 11.3598 9.32471 8.91097C9.32471 6.46297 10.2026 4.34299 11.9353 2.6106C13.6669 0.878761 15.7854 0.000846866 18.232 0H18.2362C20.6842 0 22.8042 0.878197 24.5375 2.6106C26.2699 4.34299 27.1481 6.46297 27.1481 8.91097Z" fill="#FFBB85"></path><path d="M33.9047 30.6389C33.9047 32.5709 33.2902 34.135 32.0797 35.2871C30.8834 36.4255 29.3012 37.0022 27.3774 37.0022H9.56165C7.63786 37.0022 6.05563 36.4255 4.86015 35.2871C3.64885 34.1342 3.03516 32.5703 3.03516 30.6389C3.03516 29.8959 3.05972 29.1609 3.10883 28.454C3.1588 27.7314 3.25986 26.9449 3.40891 26.1153C3.55908 25.2788 3.75217 24.4882 3.98336 23.7655C4.2233 23.0174 4.54794 22.2795 4.94963 21.5727C5.36685 20.839 5.8569 20.1999 6.40623 19.6737C6.9821 19.123 7.68613 18.6806 8.49996 18.3583C9.31097 18.0376 10.2101 17.875 11.1721 17.875C11.5495 17.875 11.9151 18.0294 12.6197 18.4884C13.0606 18.7761 13.5687 19.1035 14.1296 19.462C14.614 19.7708 15.2701 20.0605 16.0811 20.3222C16.7939 20.5528 17.5174 20.6815 18.2321 20.7038C18.3109 20.7066 18.3896 20.708 18.4684 20.708C19.2622 20.708 20.065 20.5779 20.8565 20.3222C21.6675 20.0605 22.3244 19.7708 22.8086 19.462C23.3754 19.0998 23.8835 18.7727 24.3179 18.4893C25.0231 18.0294 25.3881 17.875 25.7664 17.875C26.7276 17.875 27.6266 18.0376 28.4382 18.3583C29.2521 18.6806 29.9561 19.1238 30.5314 19.6737C31.0816 20.1999 31.5716 20.839 31.9885 21.5727C32.3905 22.2801 32.7157 23.0174 32.9548 23.7646C33.1863 24.4882 33.3799 25.2788 33.5301 26.1158C33.6783 26.9463 33.7797 27.7328 33.8293 28.4534C33.8793 29.158 33.9039 29.8931 33.9047 30.6389Z" fill="#6AA9FF"></path><path d="M18.2362 17.8228H18.2319V0H18.2362C20.6842 0 22.8041 0.878197 24.5374 2.6106C26.2698 4.34299 27.148 6.46297 27.148 8.91097C27.148 11.3598 26.2698 13.4795 24.5374 15.2122C22.805 16.9446 20.685 17.8228 18.2362 17.8228Z" fill="#F5A86C"></path><path d="M33.905 30.6389C33.905 32.5709 33.2905 34.135 32.08 35.2871C30.8837 36.4255 29.3015 37.0022 27.3777 37.0022H18.2324V20.7038C18.3112 20.7066 18.3899 20.708 18.4687 20.708C19.2625 20.708 20.0653 20.5779 20.8568 20.3222C21.6679 20.0605 22.3247 19.7708 22.8089 19.462C23.3757 19.0998 23.8838 18.7727 24.3183 18.4893C25.0234 18.0294 25.3884 17.875 25.7667 17.875C26.7279 17.875 27.627 18.0376 28.4385 18.3583C29.2524 18.6806 29.9564 19.1238 30.5317 19.6737C31.0819 20.1999 31.5719 20.839 31.9889 21.5727C32.3908 22.2801 32.716 23.0174 32.9551 23.7646C33.1866 24.4882 33.3803 25.2788 33.5304 26.1158C33.6786 26.9463 33.78 27.7328 33.8297 28.4534C33.8796 29.158 33.9042 29.8931 33.905 30.6389Z" fill="#2682FF"></path></g><defs><clipPath id="clip0_1_9045"><rect width="37" height="37" fill="white"></rect></clipPath></defs></svg>