<svg xmlns="http://www.w3.org/2000/svg" width="41" height="37" viewBox="0 0 41 37" fill="none"><path d="M38.2974 14.4472H24.4524C23.6626 14.4472 23.0877 13.6981 23.2922 12.9352L24.6866 7.7309C25.0729 6.28918 24.2173 4.80717 22.7756 4.42087C21.3339 4.03458 19.8519 4.89021 19.4656 6.33194L18.8019 8.80876C17.9108 12.1346 14.8969 14.4472 11.4537 14.4472H5.60547V32.8652H10.21L10.8105 33.666C11.9448 35.1782 13.7248 36.0683 15.6152 36.0683H26.0254H26.1255C27.6181 36.0683 28.8281 34.8583 28.8281 33.3657C28.8281 31.873 27.6181 30.663 26.1255 30.663H27.7271C29.2197 30.663 30.4297 29.4531 30.4297 27.9604C30.4297 26.4677 29.2197 25.2578 27.7271 25.2578H29.3286C30.8213 25.2578 32.0312 24.0478 32.0312 22.5551C32.0312 21.0625 30.8213 19.8525 29.3286 19.8525H38.2974C39.79 19.8525 41 18.6425 41 17.1499C41 15.6572 39.79 14.4472 38.2974 14.4472Z" fill="#FFDECF"></path><path d="M27.7271 25.1875H5.60547V32.7949H10.21L10.8105 33.5957C11.9448 35.108 13.7248 35.998 15.6152 35.998H26.0254H26.1255C27.6181 35.998 28.8281 34.7881 28.8281 33.2954C28.8281 31.8028 27.6181 30.5928 26.1255 30.5928H27.7271C29.2197 30.5928 30.4297 29.3828 30.4297 27.8901C30.4297 26.3975 29.2197 25.1875 27.7271 25.1875Z" fill="#FFCDBE"></path><path d="M31.6214 7.68637C31.1523 7.21727 31.1523 6.45669 31.6214 5.98767L34.4525 3.15651C34.9216 2.68741 35.6821 2.68741 36.1512 3.15651C36.6203 3.62561 36.6203 4.38611 36.1512 4.85521L33.3201 7.68637C32.851 8.15547 32.0905 8.15547 31.6214 7.68637Z" fill="#FFF36C"></path><path d="M33.0109 11.1189C32.8393 10.4782 33.2196 9.81951 33.8603 9.64783L37.7277 8.61153C38.3685 8.43985 39.0271 8.82014 39.1988 9.46084C39.3705 10.1016 38.9902 10.7603 38.3494 10.932L34.482 11.9682C33.8413 12.14 33.1826 11.7597 33.0109 11.1189Z" fill="#FFF36C"></path><path d="M28.1962 6.22913C27.5554 6.05745 27.1752 5.3988 27.3469 4.75802L28.3832 0.890563C28.5549 0.249778 29.2135 -0.130513 29.8543 0.0412544C30.4951 0.212942 30.8754 0.871585 30.7036 1.51237L29.6673 5.37982C29.4957 6.02053 28.837 6.40082 28.1962 6.22913Z" fill="#FFF36C"></path><path d="M6.80664 35.3164H1.20117C0.537805 35.3164 0 34.7786 0 34.1152V13.2949C0 12.6316 0.537805 12.0938 1.20117 12.0938H6.80664C7.47001 12.0938 8.00781 12.6316 8.00781 13.2949V34.1152C8.00781 34.7786 7.47001 35.3164 6.80664 35.3164Z" fill="#FF7D47"></path><path d="M0 25.2266V34.0352C0 34.6985 0.537805 35.2363 1.20117 35.2363H6.80664C7.47001 35.2363 8.00781 34.6985 8.00781 34.0352V25.2266H0Z" fill="#FF405C"></path></svg>