<svg xmlns="http://www.w3.org/2000/svg" width="34" height="38" viewBox="0 0 34 38" fill="none"><path d="M33.01 16.505C33.01 7.34968 25.5557 -0.0646136 16.3854 0.00042464C7.2986 0.0648 -0.0772437 7.56269 0.000610717 16.6494C0.0646915 24.1293 5.10482 30.4212 11.9719 32.3785C12.5931 32.5556 13.1239 32.9614 13.4465 33.5209L15.5424 37.1558C15.97 37.8973 17.04 37.8973 17.4676 37.1558L19.5635 33.5208C19.886 32.9616 20.4164 32.5556 21.0373 32.3787C27.9489 30.4091 33.01 24.0485 33.01 16.505Z" fill="#5490F9"></path><path d="M16.385 0.000423686C15.8327 0.00432746 15.2869 0.0362205 14.7486 0.0937459C23.0377 0.971136 29.4965 7.98319 29.4965 16.505C29.4965 24.0486 24.4354 30.4091 17.5238 32.3787C16.9029 32.5556 16.3725 32.9616 16.05 33.5208L14.748 35.7788L15.542 37.1558C15.9696 37.8973 17.0397 37.8973 17.4672 37.1558L19.5631 33.5208C19.8856 32.9616 20.416 32.5556 21.0369 32.3787C27.9485 30.4091 33.0096 24.0486 33.0096 16.505C33.0096 7.34967 25.5553 -0.0645409 16.385 0.000423686Z" fill="#4A81F6"></path><path d="M16.8313 19.0465H16.179C15.3316 19.0465 14.6317 18.3849 14.5841 17.5389L14.121 9.31112C14.044 7.94178 15.1336 6.78906 16.5051 6.78906C17.8767 6.78906 18.9663 7.94178 18.8892 9.31112L18.4262 17.5389C18.3786 18.3849 17.6786 19.0465 16.8313 19.0465Z" fill="#F1F1F4"></path><path d="M16.5056 6.78906C16.2856 6.78906 16.073 6.81904 15.8711 6.8745C16.9275 7.16478 17.6854 8.16142 17.6206 9.31105L17.1576 17.5388C17.1159 18.2796 16.5741 18.8789 15.8711 19.0166C15.971 19.0361 16.0741 19.0465 16.1795 19.0465H16.8318C17.6791 19.0465 18.3791 18.3848 18.4267 17.5388L18.8897 9.31105C18.9668 7.94178 17.8772 6.78906 16.5056 6.78906Z" fill="#E2DFE2"></path><path d="M17.0222 24.845H15.9871C15.3152 24.845 14.7705 24.3003 14.7705 23.6284V22.7947C14.7705 22.1228 15.3152 21.5781 15.9871 21.5781H17.0222C17.6941 21.5781 18.2387 22.1228 18.2387 22.7947V23.6284C18.2387 24.3003 17.6941 24.845 17.0222 24.845Z" fill="#F1F1F4"></path><path d="M17.0222 21.5781H15.9872C15.9477 21.5781 15.9087 21.5803 15.8701 21.584C16.4871 21.6429 16.9697 22.1623 16.9697 22.7947V23.6284C16.9697 24.2608 16.4871 24.7801 15.8701 24.839C15.9086 24.8427 15.9476 24.8449 15.9872 24.8449H17.0222C17.6941 24.8449 18.2387 24.3002 18.2387 23.6283V22.7946C18.2388 22.1228 17.6941 21.5781 17.0222 21.5781Z" fill="#E2DFE2"></path></svg>