<svg xmlns="http://www.w3.org/2000/svg" width="83" height="59" viewBox="0 0 83 59" fill="none"><path d="M43.1446 3.68312H18.1114C17.4365 3.68312 16.8896 3.15078 16.8896 2.49391C16.8896 1.83703 17.4367 1.30469 18.1114 1.30469H43.1446C43.8195 1.30469 44.3665 1.83703 44.3665 2.49391C44.3665 3.15078 43.8196 3.68312 43.1446 3.68312Z" fill="#78C2A4"></path><path d="M19.2185 12.4019H6.33304C5.65822 12.4019 5.11133 11.8695 5.11133 11.2127C5.11133 10.5558 5.65838 10.0234 6.33304 10.0234H19.2185C19.8934 10.0234 20.4403 10.5558 20.4403 11.2127C20.4403 11.8695 19.8934 12.4019 19.2185 12.4019Z" fill="#78C2A4"></path><path d="M18.7756 20.5034H13.6856C13.0108 20.5034 12.4639 19.9711 12.4639 19.3142C12.4639 18.6573 13.0109 18.125 13.6856 18.125H18.7758C19.4506 18.125 19.9975 18.6573 19.9975 19.3142C19.9975 19.9711 19.4505 20.5034 18.7756 20.5034Z" fill="#78C2A4"></path><path d="M13.686 26.355H1.22171C0.546889 26.355 0 25.8227 0 25.1658C0 24.5089 0.547049 23.9766 1.22171 23.9766H13.6859C14.3607 23.9766 14.9076 24.5089 14.9076 25.1658C14.9076 25.8227 14.3607 26.355 13.686 26.355Z" fill="#78C2A4"></path><path d="M44.7738 57.363H18.1114C17.4365 57.363 16.8896 56.8306 16.8896 56.1736C16.8896 55.5166 17.4367 54.9844 18.1114 54.9844H44.7738C45.4486 54.9844 45.9955 55.5167 45.9955 56.1736C45.9955 56.8305 45.4486 57.363 44.7738 57.363Z" fill="#78C2A4"></path><path d="M19.2176 48.6442H6.33206C5.65724 48.6442 5.11035 48.1119 5.11035 47.455C5.11035 46.7981 5.6574 46.2656 6.33206 46.2656H19.2176C19.8924 46.2656 20.4393 46.798 20.4393 47.455C20.4393 48.112 19.8924 48.6442 19.2176 48.6442Z" fill="#78C2A4"></path><path d="M18.7756 40.5427H13.6856C13.0108 40.5427 12.4639 40.0103 12.4639 39.3533C12.4639 38.6963 13.0109 38.1641 13.6856 38.1641H18.7758C19.4506 38.1641 19.9975 38.6964 19.9975 39.3533C19.9975 40.0102 19.4505 40.5427 18.7756 40.5427Z" fill="#78C2A4"></path><path d="M13.686 34.6911H1.22171C0.546889 34.6911 0 34.1587 0 33.5019C0 32.845 0.547049 32.3125 1.22171 32.3125H13.6859C14.3607 32.3125 14.9076 32.8448 14.9076 33.5019C14.9076 34.1589 14.3607 34.6911 13.686 34.6911Z" fill="#78C2A4"></path><path d="M52.0527 58.6628C68.6946 58.6628 82.1856 45.5307 82.1856 29.3314C82.1856 13.1321 68.6946 0 52.0527 0C35.4108 0 21.9199 13.1321 21.9199 29.3314C21.9199 45.5307 35.4108 58.6628 52.0527 58.6628Z" fill="#95D6A4"></path><path d="M52.0523 0C51.2895 0 50.5337 0.0281251 49.7852 0.0823439C65.368 1.21078 77.6508 13.8745 77.6508 29.3314C77.6508 44.7883 65.368 57.4521 49.7852 58.5805C50.5337 58.6347 51.2895 58.6628 52.0523 58.6628C68.6943 58.6628 82.1853 45.5308 82.1853 29.3314C82.1853 13.132 68.6943 0 52.0523 0Z" fill="#78C2A4"></path><path d="M52.0529 51.8497C64.8316 51.8497 75.1908 41.766 75.1908 29.3272C75.1908 16.8884 64.8316 6.80469 52.0529 6.80469C39.2742 6.80469 28.915 16.8884 28.915 29.3272C28.915 41.766 39.2742 51.8497 52.0529 51.8497Z" fill="#F4FBFF"></path><path d="M52.0529 6.80469C51.3488 6.80469 50.6528 6.83703 49.9648 6.89703C61.7649 7.92469 71.0147 17.5738 71.0147 29.3273C71.0147 41.0809 61.7649 50.7299 49.9648 51.7575C50.6528 51.8174 51.3488 51.8497 52.0529 51.8497C64.8316 51.8497 75.1907 41.7661 75.1907 29.3272C75.1909 16.8884 64.8316 6.80469 52.0529 6.80469Z" fill="#DAF1F4"></path><path d="M52.0539 15.0142C51.3791 15.0142 50.832 14.4819 50.832 13.825V12.0095C50.832 11.3527 51.3789 10.8203 52.0539 10.8203C52.7289 10.8203 53.2756 11.3527 53.2756 12.0095V13.8248C53.2756 14.4817 52.7287 15.0142 52.0539 15.0142Z" fill="#365E7D"></path><path d="M63.3039 19.5527C62.9914 19.5527 62.6785 19.4366 62.4398 19.2044C61.9628 18.7399 61.9628 17.9869 62.4398 17.5224L63.7585 16.2388C64.2357 15.7746 65.0093 15.7746 65.4865 16.2388C65.9635 16.7033 65.9635 17.4563 65.4865 17.9208L64.1678 19.2044C63.9293 19.4366 63.6166 19.5527 63.3039 19.5527Z" fill="#365E7D"></path><path d="M69.8288 30.527H67.9641C67.2892 30.527 66.7422 29.9947 66.7422 29.3377C66.7422 28.6806 67.2891 28.1484 67.9641 28.1484H69.8288C70.5036 28.1484 71.0507 28.6808 71.0507 29.3377C71.0507 29.9945 70.5036 30.527 69.8288 30.527Z" fill="#365E7D"></path><path d="M64.6226 42.7714C64.31 42.7714 63.9972 42.6554 63.7585 42.4232L62.4398 41.1396C61.9628 40.675 61.9628 39.9221 62.4398 39.4575C62.9171 38.9933 63.6906 38.9933 64.1678 39.4575L65.4865 40.7411C65.9635 41.2057 65.9635 41.9586 65.4865 42.4232C65.248 42.6554 64.9353 42.7714 64.6226 42.7714Z" fill="#365E7D"></path><path d="M52.0519 47.8188C51.3771 47.8188 50.8301 47.2864 50.8301 46.6294V44.8142C50.8301 44.1573 51.377 43.625 52.0519 43.625C52.7269 43.625 53.2737 44.1573 53.2737 44.8142V46.6294C53.2737 47.2864 52.7268 47.8188 52.0519 47.8188Z" fill="#365E7D"></path><path d="M39.4836 42.7714C39.1709 42.7714 38.8582 42.6554 38.6196 42.4232C38.1424 41.9586 38.1424 41.2057 38.6196 40.7411L39.9383 39.4575C40.4154 38.9933 41.1891 38.9933 41.6661 39.4575C42.1434 39.9221 42.1434 40.675 41.6661 41.1396L40.3475 42.4232C40.1089 42.6554 39.7962 42.7714 39.4836 42.7714Z" fill="#365E7D"></path><path d="M36.1413 30.527H34.2764C33.6016 30.527 33.0547 29.9947 33.0547 29.3377C33.0547 28.6806 33.6017 28.1484 34.2764 28.1484H36.1413C36.8161 28.1484 37.363 28.6808 37.363 29.3377C37.363 29.9945 36.816 30.527 36.1413 30.527Z" fill="#365E7D"></path><path d="M40.8022 19.5527C40.4895 19.5527 40.1768 19.4366 39.9383 19.2044L38.6196 17.9208C38.1424 17.4563 38.1424 16.7033 38.6196 16.2388C39.0967 15.7746 39.8704 15.7746 40.3475 16.2388L41.6661 17.5224C42.1434 17.9869 42.1434 18.7399 41.6661 19.2044C41.4276 19.4366 41.1149 19.5527 40.8022 19.5527Z" fill="#365E7D"></path><path d="M57.4021 30.5228H52.0539C51.3791 30.5228 50.832 29.9905 50.832 29.3334V19.3142C50.832 18.6573 51.3789 18.125 52.0539 18.125C52.7289 18.125 53.2756 18.6573 53.2756 19.3142V28.1441H57.4021C58.0769 28.1441 58.624 28.6764 58.624 29.3333C58.624 29.9901 58.0769 30.5228 57.4021 30.5228Z" fill="#2B4D66"></path></svg>