<svg xmlns="http://www.w3.org/2000/svg" width="65" height="65" viewBox="0 0 65 65" fill="none"><path d="M34.2747 45.3201L36.168 49.6136L34.2747 53.6787L28.4844 53.9072V46.2646L34.2747 45.3201Z" fill="#FFBDA9"></path><path d="M55.9361 41.5167C55.9361 42.6986 55.3852 43.8653 54.353 44.6092L47.3706 53.0186L34.2754 53.68V45.3215L42.7292 43.5543L49.9071 38.4254C51.6159 37.199 53.995 37.59 55.2214 39.2988C55.7038 39.9716 55.9361 40.7473 55.9361 41.5167Z" fill="#FFA68C"></path><path d="M64.8242 6.64754L45.4324 21.6975L16.0997 28.6586C15.875 28.1876 15.8331 27.629 16.0426 27.1326C20.4644 16.0497 26.9098 8.5531 35.1985 4.84736C35.7622 4.57441 36.4477 4.60615 36.9885 4.92099L38.8535 6.01786L39.1785 4.49189C39.3283 3.78096 39.9034 3.19443 40.613 3.0332C52.7205 0.237707 63.4937 5.51513 63.9469 5.7411C64.3468 5.94042 64.649 6.26415 64.8242 6.64754Z" fill="#F2E6E9"></path><path d="M64.9338 7.93676C64.803 8.42553 61.614 19.9909 51.4959 27.2044C50.9068 27.6309 50.0841 27.6728 49.4532 27.311L48.0948 26.5442L47.6797 28.6669C47.5654 29.2635 47.1528 29.784 46.6006 30.0341C42.6041 31.8559 38.228 32.7674 33.5054 32.7674C28.4451 32.7674 22.9861 31.7213 17.1653 29.6304C16.6854 29.4679 16.3097 29.1023 16.0977 28.6592L64.8221 6.64819C65.0049 7.04048 65.0519 7.4937 64.9338 7.93676Z" fill="#D9B9C3"></path><path d="M53.369 11.8231L48.9198 15.0048L14.7293 30.397L11.0874 30.9245C10.6545 29.966 11.0798 28.8374 12.0383 28.4045L50.8489 10.8724C51.8074 10.4393 52.936 10.8646 53.369 11.8231Z" fill="#D9B9C3"></path><path d="M52.4154 14.3401L13.6059 31.8722C13.3508 31.9878 13.0842 32.0424 12.8226 32.0424C12.0965 32.0424 11.4046 31.6259 11.0859 30.9214L53.3675 11.8201C53.8004 12.7786 53.3739 13.9072 52.4154 14.3401Z" fill="#BF8F9F"></path><path d="M29.5191 48.1154C29.1751 48.4608 28.9618 48.9368 28.9618 49.4624C28.9618 50.5136 29.8149 51.3667 30.8661 51.3667H34.2761L37.9647 56.0626L34.2761 62.7773C30.7362 62.8393 27.2485 61.9088 24.1896 60.1265C21.4398 58.5281 17.3888 56.7673 12.6953 56.6048V39.1576C16.2614 38.9799 19.5622 38.095 21.7674 37.3549C24.9806 36.2771 28.5022 36.465 31.5301 37.9859C32.6105 38.5292 33.5639 39.1868 34.2761 39.9409L36.8676 42.9963L34.2761 47.5581H30.8661C30.3405 47.5581 29.8645 47.7714 29.5191 48.1154Z" fill="#FFCCBD"></path><path d="M13.3301 38.8337V57.4958C13.3301 58.547 12.4782 59.4001 11.4258 59.4001H1.9043C0.853125 59.4001 0 58.547 0 57.4958V38.8337C0 37.7826 0.853125 36.9294 1.9043 36.9294H11.4258C12.4782 36.9294 13.3301 37.7826 13.3301 38.8337Z" fill="#66CCFF"></path><path d="M43.7461 43.84C43.7004 45.922 41.9446 47.5623 39.8626 47.5623H34.2754V39.9451H39.9388C40.5799 39.9451 41.1842 40.1038 41.7136 40.3843C42.0538 40.5621 42.3623 40.7918 42.6314 41.061C43.3398 41.7681 43.7702 42.7533 43.7461 43.84Z" fill="#FFBDA9"></path><path d="M63.4111 47.4265L55.2925 53.2206C52.1377 55.4715 48.8509 57.5307 45.4498 59.388C42.0706 61.4191 38.2538 62.8162 34.2754 62.784V51.3734H39.94C43.1824 51.3734 46.2306 50.3286 48.7049 48.5525H48.7062L58.9678 41.2388C60.6778 40.0111 63.0569 40.4021 64.2846 42.1122C65.5135 43.8261 65.1174 46.2014 63.4111 47.4265Z" fill="#FFBDA9"></path></svg>