<svg xmlns="http://www.w3.org/2000/svg" width="61" height="61" viewBox="0 0 61 61" fill="none"><g clip-path="url(#clip0_67_1450)"><path d="M53.8488 40.7354C52.2092 45.179 49.7296 49.0427 46.4779 52.218C42.7766 55.8323 37.93 58.7042 32.0726 60.7529C31.8804 60.8199 31.6798 60.8748 31.4783 60.9153C31.2121 60.9679 30.9412 60.9963 30.6727 61H30.6201C30.3339 61 30.0462 60.9712 29.761 60.9153C29.5594 60.8748 29.3617 60.8199 29.1704 60.7543C23.306 58.7089 18.4533 55.8383 14.7483 52.2241C11.4952 49.0487 9.01605 45.1874 7.37879 40.7438C4.40167 32.6645 4.57107 23.7644 4.70743 16.6122L4.70976 16.5024C4.73722 15.9118 4.7549 15.2914 4.76468 14.6063C4.81447 11.2429 7.48863 8.46036 10.8525 8.2728C17.866 7.88141 23.2915 5.594 27.9273 1.07549L27.9678 1.03826C28.7376 0.332258 29.7074 -0.0139944 30.6727 0.000432827C31.6035 0.0125331 32.5305 0.35832 33.2728 1.03826L33.3124 1.07549C37.9491 5.594 43.3746 7.88141 50.3881 8.2728C53.752 8.46036 56.4261 11.2429 56.4759 14.6063C56.4857 15.2961 56.5034 15.9155 56.5309 16.5024L56.5323 16.5489C56.6681 23.7146 56.8366 32.6324 53.8488 40.7354Z" fill="#00DD80"></path><path d="M53.849 40.735C52.2094 45.1785 49.7298 49.0422 46.4781 52.2176C42.7768 55.8319 37.9302 58.7038 32.0728 60.7525C31.8805 60.8195 31.68 60.8744 31.4784 60.9149C31.2122 60.9675 30.9414 60.9959 30.6729 60.9996V0C31.6036 0.0121003 32.5307 0.357887 33.273 1.03783L33.3126 1.07506C37.9493 5.59356 43.3748 7.88097 50.3883 8.27237C53.7522 8.45992 56.4263 11.2425 56.4761 14.6059C56.4859 15.2956 56.5036 15.9151 56.531 16.5019L56.5324 16.5485C56.6683 23.7141 56.8368 32.632 53.849 40.735Z" fill="#00AA63"></path><path d="M45.8216 30.4994C45.8216 38.8639 39.0301 45.6726 30.6725 45.7024H30.619C22.2368 45.7024 15.416 38.8821 15.416 30.4994C15.416 22.1172 22.2368 15.2969 30.619 15.2969H30.6725C39.0301 15.3267 45.8216 22.1354 45.8216 30.4994Z" fill="white"></path><path d="M45.8219 30.4994C45.8219 38.8639 39.0304 45.6726 30.6729 45.7024V15.2969C39.0304 15.3267 45.8219 22.1354 45.8219 30.4994Z" fill="#E1EBF0"></path><path d="M37.5198 28.3132L30.673 35.161L29.1935 36.6405C28.844 36.99 28.3856 37.1646 27.9276 37.1646C27.4692 37.1646 27.0113 36.99 26.6613 36.6405L23.4803 33.4582C22.7813 32.7591 22.7813 31.6268 23.4803 30.9274C24.1784 30.2283 25.3121 30.2283 26.0111 30.9274L27.9276 32.8438L34.989 25.7824C35.6881 25.0829 36.8218 25.0829 37.5198 25.7824C38.2189 26.4814 38.2189 27.6151 37.5198 28.3132Z" fill="#B4D2D7"></path><path d="M37.5197 28.3132L30.6729 35.161V30.098L34.9889 25.7824C35.6879 25.0829 36.8216 25.0829 37.5197 25.7824C38.2187 26.4814 38.2187 27.6151 37.5197 28.3132Z" fill="#6FA5AA"></path></g><defs><clipPath id="clip0_67_1450"><rect width="61" height="61" fill="white"></rect></clipPath></defs></svg>