<svg xmlns="http://www.w3.org/2000/svg" width="64" height="62" viewBox="0 0 64 62" fill="none"><g clip-path="url(#clip0_67_1487)"><path d="M33.1661 62H2.79421C1.25107 62 0 60.7822 0 59.2801V51.4847L1.28157 28.9373L0 6.38987V2.71989C0 1.21779 1.25107 0 2.79421 0H33.1661C34.7094 0 35.9603 1.21779 35.9603 2.71989V6.38987L34.6788 28.9373L35.9603 51.4847V59.2801C35.9603 60.7822 34.7094 62 33.1661 62Z" fill="#6B46CF"></path><path d="M35.9595 2.71989C35.9595 1.21779 34.7086 0 33.1653 0H28.0391C29.5823 0 30.8333 1.21767 30.8333 2.71989V6.38987L29.5517 28.9373L30.8333 51.4847V59.2801C30.8333 60.7823 29.5822 62 28.0391 62H33.1653C34.7086 62 35.9595 60.7822 35.9595 59.2801V51.4847L34.678 28.9373L35.9595 6.38987V2.71989Z" fill="#5F36CF"></path><path d="M0 6.39062H35.9603V51.4854H0V6.39062Z" fill="#E1F3FF"></path><path d="M30.834 6.39062H35.9603V51.4854H30.834V6.39062Z" fill="#CCEBFF"></path><path d="M20.8251 58.3094H15.1369C14.249 58.3094 13.5293 57.6088 13.5293 56.7445C13.5293 55.8803 14.249 55.1797 15.1369 55.1797H20.8251C21.713 55.1797 22.4327 55.8803 22.4327 56.7445C22.4326 57.6088 21.7129 58.3094 20.8251 58.3094Z" fill="#5ED8F6"></path><path d="M30.4116 21.2907H5.54915C4.84134 21.2907 4.26758 20.7322 4.26758 20.0433V13.3569C4.26758 12.6679 4.84134 12.1094 5.54915 12.1094H30.4116C31.1194 12.1094 31.6931 12.6679 31.6931 13.3569V20.0433C31.6931 20.7322 31.1194 21.2907 30.4116 21.2907Z" fill="#FE75A7"></path><path d="M17.9797 44.42C23.1741 44.42 27.3851 40.321 27.3851 35.2647C27.3851 30.2083 23.1741 26.1094 17.9797 26.1094C12.7852 26.1094 8.57422 30.2083 8.57422 35.2647C8.57422 40.321 12.7852 44.42 17.9797 44.42Z" fill="#D0EE7F"></path><path d="M17.9811 26.1094C17.0922 26.1094 16.2332 26.232 15.418 26.4563C19.3661 27.5429 22.2603 31.0736 22.2603 35.2645C22.2603 39.4555 19.3661 42.9862 15.418 44.0728C16.2332 44.2971 17.0922 44.4197 17.9811 44.4197C23.1756 44.4197 27.3865 40.3207 27.3865 35.2644C27.3865 30.2081 23.1756 26.1094 17.9811 26.1094Z" fill="#AEE617"></path><path d="M15.9326 39.581C15.6867 39.581 15.4406 39.4897 15.2529 39.307L12.4046 36.5345C12.0292 36.169 12.0292 35.5767 12.4046 35.2113C12.7801 34.846 13.3886 34.846 13.7639 35.2113L15.9325 37.3223L22.1941 31.2271C22.5696 30.8618 23.1781 30.8618 23.5535 31.2271C23.9288 31.5926 23.9288 32.1849 23.5535 32.5503L16.6121 39.307C16.4246 39.4895 16.1785 39.581 15.9326 39.581Z" fill="#27A372"></path><path d="M50.3468 20.406C49.0388 21.073 48.3748 22.4628 48.5955 23.8079C47.5851 22.8656 46.0333 22.6058 44.7253 23.2728C43.4173 23.9398 42.7534 25.3297 42.974 26.6747C41.9637 25.7325 40.4118 25.4726 39.1038 26.1397C37.6327 26.8899 36.9766 28.5542 37.4782 30.0409L30.9796 17.9668C30.1211 16.3717 28.0968 15.7561 26.4582 16.5918C24.8196 17.4275 24.1871 19.3979 25.0457 20.9929L34.2614 38.1156L34.3951 38.364L29.084 35.6425C27.4135 34.8689 25.4151 35.5602 24.6204 37.1863C23.8259 38.8124 24.5359 40.7576 26.2064 41.5311L40.7822 48.549C41.8252 49.0512 42.669 49.8743 43.1828 50.8906C44.4956 53.4877 47.749 54.5212 50.3828 53.178L60.8581 47.8359C63.4454 46.5165 64.4442 43.405 63.0885 40.8864C62.6921 40.1499 62.3911 39.3682 62.1924 38.5595L62.1449 38.3661C61.2251 34.6218 59.8315 31.003 57.9961 27.5927L54.8682 21.7811C54.0096 20.1859 51.9854 19.5703 50.3468 20.406Z" fill="#FFF1AB"></path><path d="M63.089 40.8846C62.6925 40.1481 62.3916 39.3664 62.1929 38.5577L62.1454 38.3643C61.2256 34.62 59.832 31.0012 57.9965 27.5909L54.8686 21.7793C54.0101 20.1842 51.9858 19.5686 50.3472 20.4043C49.9488 20.6075 49.611 20.8785 49.3389 21.1941C49.4915 21.3711 49.6276 21.5662 49.7423 21.7793L52.8703 27.5909C54.7057 31.0012 56.0993 34.62 57.0191 38.3643L57.0666 38.5577C57.2653 39.3664 57.5663 40.148 57.9627 40.8846C59.3182 43.4033 58.3196 46.5146 55.7323 47.8341L45.3672 53.1199C46.8685 53.9271 48.7455 54.0114 50.3832 53.1762L60.8585 47.8341C63.4459 46.5146 64.4445 43.4032 63.089 40.8846Z" fill="#FFEA80"></path><path d="M37.4785 30.0391L39.176 33.193L37.4785 30.0391Z" fill="#FFF1AB"></path><path d="M42.9863 26.6641L44.9218 30.2601L42.9863 26.6641Z" fill="#FFF1AB"></path><path d="M48.5957 23.8047L50.5278 27.3946L48.5957 23.8047Z" fill="#FFF1AB"></path></g><defs><clipPath id="clip0_67_1487"><rect width="63.694" height="62" fill="white"></rect></clipPath></defs></svg>