<svg xmlns="http://www.w3.org/2000/svg" width="38" height="26" viewBox="0 0 38 26" fill="none"><path d="M37.3447 25.4512H0.655202C0.293386 25.4512 0 25.1579 0 24.796V1.20989C0 0.848073 0.293386 0.554688 0.655202 0.554688H37.3448C37.7066 0.554688 38 0.848073 38 1.20989V24.796C37.9999 25.1579 37.7065 25.4512 37.3447 25.4512Z" fill="#41479B"></path><path d="M18.3448 0.554688H17.2067L11.1378 4.53088V0.554688H7.86198V4.53088L1.79312 0.554688H0.655202C0.293386 0.554688 0 0.847999 0 1.20981V1.72949L5.20681 5.1408H0V8.41667H5.20681L0 11.8281V12.3477C0 12.7095 0.293386 13.0029 0.655202 13.0029H1.79327L7.86212 9.02674V13.0029H11.138V9.02674L17.2068 13.0029H18.3448C18.7066 13.0029 19 12.7095 19 12.3477V11.8281L13.7932 8.41674H19V5.14088H13.7932L19 1.72957V1.20989C19 0.848 18.7066 0.554688 18.3448 0.554688Z" fill="#F5F5F5"></path><path d="M19 5.79608H10.4827V0.554688H8.51725V5.79608H0V7.76154H8.51725V13.0029H10.4827V7.76154H19V5.79608Z" fill="#FF4B55"></path><path d="M7.20685 5.13952L0.312238 0.664062C0.128769 0.78014 0 0.975261 0 1.20846V1.24245L6.00347 5.13952H7.20685Z" fill="#FF4B55"></path><path d="M12.3411 5.14088L18.9001 0.883253C18.7861 0.690359 18.5849 0.554688 18.3445 0.554688H18.2029L11.1377 5.14088H12.3411Z" fill="#FF4B55"></path><path d="M6.6402 8.41406L0.09375 12.6635C0.206636 12.8611 0.410886 13.0003 0.654768 13.0003H0.778342L7.84365 8.41406H6.6402Z" fill="#FF4B55"></path><path d="M18.9891 12.3965L12.8538 8.41406H11.6504L18.6176 12.9366C18.8263 12.8397 18.9695 12.6367 18.9891 12.3965Z" fill="#FF4B55"></path><path d="M9.69868 16.5732L10.1932 18.2058L11.778 17.5746C11.9132 17.5207 12.0361 17.6749 11.9536 17.7947L10.9855 19.1992L12.467 20.0447C12.5934 20.1168 12.5496 20.309 12.4044 20.3192L10.7026 20.438L10.9654 22.1235C10.9879 22.2674 10.8102 22.3529 10.7118 22.2457L9.55781 20.9893L8.40386 22.2457C8.30545 22.3529 8.12777 22.2673 8.15018 22.1235L8.41299 20.438L6.71123 20.3192C6.56606 20.309 6.52219 20.1168 6.64859 20.0447L8.13014 19.1992L7.16203 17.7947C7.0795 17.6749 7.20241 17.5207 7.33763 17.5746L8.92242 18.2058L9.41694 16.5732C9.45932 16.4339 9.65652 16.4339 9.69868 16.5732Z" fill="#F5F5F5"></path><path d="M29.1886 4.96511L29.4302 5.76259L30.2043 5.45428C30.2703 5.42801 30.3304 5.50327 30.29 5.56182L29.8172 6.24797L30.5409 6.661C30.6026 6.69618 30.5812 6.79014 30.5102 6.79504L29.679 6.85308L29.8073 7.67639C29.8183 7.74667 29.7314 7.78846 29.6833 7.73606L29.1196 7.12234L28.556 7.73606C28.5079 7.78838 28.4211 7.7466 28.432 7.67639L28.5603 6.85308L27.7291 6.79504C27.6581 6.79014 27.6367 6.69618 27.6984 6.661L28.4221 6.24797L27.9493 5.56182C27.9089 5.50327 27.969 5.42801 28.035 5.45428L28.8091 5.76259L29.0507 4.96511C29.0716 4.89705 29.168 4.89705 29.1886 4.96511Z" fill="#F5F5F5"></path><path d="M23.8019 11.0901L24.0435 11.8876L24.8176 11.5793C24.8835 11.553 24.9437 11.6283 24.9033 11.6868L24.4304 12.373L25.1541 12.786C25.2159 12.8212 25.1944 12.9151 25.1235 12.92L24.2922 12.9781L24.4206 13.8014C24.4315 13.8717 24.3447 13.9135 24.2966 13.8611L23.7329 13.2473L23.1692 13.8611C23.1211 13.9134 23.0344 13.8716 23.0453 13.8014L23.1736 12.9781L22.3424 12.92C22.2714 12.9151 22.25 12.8212 22.3117 12.786L23.0354 12.373L22.5626 11.6868C22.5222 11.6283 22.5823 11.553 22.6483 11.5793L23.4224 11.8876L23.664 11.0901C23.6849 11.022 23.7812 11.022 23.8019 11.0901Z" fill="#F5F5F5"></path><path d="M34.2852 8.46511L34.5268 9.26258L35.3009 8.95428C35.3669 8.92801 35.427 9.00327 35.3866 9.06182L34.9138 9.74797L35.6375 10.161C35.6992 10.1962 35.6778 10.2901 35.6068 10.295L34.7756 10.3531L34.9039 11.1764C34.9149 11.2467 34.828 11.2885 34.78 11.2361L34.2163 10.6223L33.6526 11.2361C33.6045 11.2884 33.5178 11.2466 33.5287 11.1764L33.657 10.3531L32.8258 10.295C32.7548 10.2901 32.7334 10.1962 32.7951 10.161L33.5188 9.74797L33.046 9.06182C33.0056 9.00327 33.0657 8.92801 33.1317 8.95428L33.9058 9.26258L34.1474 8.46511C34.1682 8.39705 34.2646 8.39705 34.2852 8.46511Z" fill="#F5F5F5"></path><path d="M29.1886 18.9495L29.4302 19.747L30.2043 19.4386C30.2703 19.4123 30.3304 19.4876 30.29 19.5461L29.8172 20.2323L30.5409 20.6453C30.6026 20.6805 30.5812 20.7744 30.5102 20.7793L29.679 20.8374L29.8073 21.6607C29.8183 21.731 29.7314 21.7728 29.6833 21.7204L29.1196 21.1066L28.556 21.7204C28.5079 21.7727 28.4211 21.7309 28.432 21.6607L28.5603 20.8374L27.7291 20.7793C27.6581 20.7744 27.6367 20.6805 27.6984 20.6453L28.4221 20.2323L27.9493 19.5461C27.9089 19.4876 27.969 19.4123 28.035 19.4386L28.8091 19.747L29.0507 18.9495C29.0716 18.8814 29.168 18.8814 29.1886 18.9495Z" fill="#F5F5F5"></path><path d="M31.058 12.5174L30.864 13.099L30.2511 13.1038C30.1717 13.1044 30.1388 13.2057 30.2027 13.2528L30.6958 13.617L30.5108 14.2015C30.4869 14.2772 30.5731 14.3397 30.6376 14.2936L31.1363 13.9371L31.6351 14.2936C31.6997 14.3397 31.7857 14.2771 31.7618 14.2015L31.5769 13.617L32.07 13.2528C32.1339 13.2056 32.101 13.1044 32.0216 13.1038L31.4086 13.099L31.2147 12.5174C31.1895 12.4421 31.083 12.4421 31.058 12.5174Z" fill="#F5F5F5"></path></svg>