<svg xmlns="http://www.w3.org/2000/svg" width="185" height="71" viewBox="0 0 185 71" fill="none"><path d="M176.5 34.5C176.5 39.0767 174.123 43.491 169.706 47.5613C165.29 51.632 158.871 55.321 150.897 58.4293C134.953 64.6448 112.893 68.5 88.5 68.5C64.1074 68.5 42.0468 64.6448 26.1027 58.4293C18.129 55.321 11.7104 51.632 7.29363 47.5613C2.87737 43.491 0.5 39.0767 0.5 34.5C0.5 29.9233 2.87737 25.509 7.29363 21.4387C11.7104 17.368 18.129 13.679 26.1027 10.5707C42.0468 4.35516 64.1074 0.5 88.5 0.5C112.893 0.5 134.953 4.35516 150.897 10.5707C158.871 13.679 165.29 17.368 169.706 21.4387C174.123 25.509 176.5 29.9233 176.5 34.5Z" stroke="#D11F87"></path><path d="M184.5 36.5C184.5 41.0767 182.123 45.491 177.706 49.5613C173.29 53.632 166.871 57.321 158.897 60.4293C142.953 66.6448 120.893 70.5 96.5 70.5C72.1074 70.5 50.0468 66.6448 34.1027 60.4293C26.129 57.321 19.7104 53.632 15.2936 49.5613C10.8774 45.491 8.5 41.0767 8.5 36.5C8.5 31.9233 10.8774 27.509 15.2936 23.4387C19.7104 19.368 26.129 15.679 34.1027 12.5707C50.0468 6.35516 72.1074 2.5 96.5 2.5C120.893 2.5 142.953 6.35516 158.897 12.5707C166.871 15.679 173.29 19.368 177.706 23.4387C182.123 27.509 184.5 31.9233 184.5 36.5Z" stroke="#D11F87"></path></svg>