<svg xmlns="http://www.w3.org/2000/svg" width="156" height="58" viewBox="0 0 156 58" fill="none"><path d="M155.5 29C155.5 32.808 153.426 36.4969 149.54 39.9126C145.655 43.3275 140.005 46.4256 132.98 49.0374C118.934 54.2598 99.4954 57.5 78 57.5C56.5046 57.5 37.0663 54.2598 23.0199 49.0374C15.9948 46.4256 10.3446 43.3275 6.45973 39.9126C2.57401 36.4969 0.5 32.808 0.5 29C0.5 25.192 2.57401 21.5031 6.45973 18.0874C10.3446 14.6725 15.9948 11.5744 23.0199 8.96256C37.0663 3.7402 56.5046 0.5 78 0.5C99.4954 0.5 118.934 3.7402 132.98 8.96256C140.005 11.5744 145.655 14.6725 149.54 18.0874C153.426 21.5031 155.5 25.192 155.5 29Z" stroke="#F51B75"></path></svg>