<svg xmlns="http://www.w3.org/2000/svg" width="51" height="53" viewBox="0 0 51 53" fill="none"><path d="M31.2178 25C30.6987 25 30.2773 25.448 30.2773 26C30.2773 26.552 30.6987 27 31.2178 27C31.7368 27 32.1582 26.552 32.1582 26C32.1582 25.448 31.7368 25 31.2178 25Z" fill="url(#paint0_linear_67_904)"></path><path d="M11.4473 36.8341L2.2635 49.3848C2.0443 49.6841 2.00269 50.093 2.15587 50.437C2.30906 50.7813 2.63049 51 2.98278 51H48.1673C48.5195 51 48.841 50.7813 48.9942 50.437C49.1477 50.093 49.1057 49.6841 48.8865 49.3848L39.7027 36.8341C39.5287 36.5959 39.2636 36.457 38.9834 36.457H30.9386L37.8067 24.7732C39.4179 22.1534 40.2692 19.0982 40.2692 15.9375C40.2692 7.1497 33.6776 0 25.575 0C17.4724 0 10.8809 7.1497 10.8809 15.9375C10.8809 19.0982 11.7322 22.153 13.3433 24.7732L20.2114 36.457H12.1666C11.8864 36.457 11.6217 36.5959 11.4473 36.8341ZM8.01846 44.7246H13.5715L10.4375 49.0078H4.88412L8.01846 44.7246ZM21.3827 38.4492L23.9004 42.7324H17.3741L20.5085 38.4492H21.3827ZM29.7677 38.4492H30.6419L33.7759 42.7324H27.25L29.7677 38.4492ZM35.2338 44.7246L38.3678 49.0078H12.7822L15.9166 44.7246H35.2338ZM40.7129 49.0078L37.5786 44.7246H43.1319L46.2659 49.0078H40.7129ZM41.674 42.7324H36.121L32.9867 38.4492H38.54L41.674 42.7324ZM14.8766 23.6759C13.4642 21.3826 12.7176 18.7067 12.7176 15.9375C12.7176 8.24812 18.4855 1.99219 25.575 1.99219C32.6645 1.99219 38.4324 8.24812 38.4324 15.9375C38.4324 18.7067 37.6858 21.3826 36.2738 23.6759C36.2699 23.6817 36.2667 23.6876 36.2631 23.6934C35.66 24.7195 26.0396 41.0858 25.575 41.8756C24.4066 39.8877 16.0769 25.7175 14.887 23.6934C14.8837 23.6876 14.8801 23.6817 14.8766 23.6759ZM18.1634 38.4492L15.0294 42.7324H9.47604L12.6104 38.4492H18.1634Z" fill="url(#paint1_linear_67_904)"></path><path d="M25.5742 25C30.737 25 34.9784 20.7766 34.9784 15.5C34.9784 10.2616 30.7597 6 25.5742 6C20.3886 6 16.1699 10.2616 16.1699 15.5C16.1699 20.7781 20.4129 25 25.5742 25ZM25.5742 7.9C29.7227 7.9 33.0976 11.3092 33.0976 15.5C33.0976 19.7297 29.6955 23.1 25.5742 23.1C21.4517 23.1 18.0508 19.7297 18.0508 15.5C18.0508 11.3092 21.4257 7.9 25.5742 7.9Z" fill="url(#paint2_linear_67_904)"></path><path d="M29.7979 29.1414C29.3298 28.8609 28.7207 29.0107 28.4383 29.4761L24.7771 35.5082C24.4947 35.9736 24.6456 36.578 25.1141 36.8585C25.5847 37.1402 26.1925 36.9873 26.4738 36.5238L30.135 30.4917C30.4174 30.0263 30.2665 29.4219 29.7979 29.1414Z" fill="url(#paint3_linear_67_904)"></path><defs><linearGradient id="paint0_linear_67_904" x1="31.2178" y1="25" x2="31.2178" y2="27" gradientUnits="userSpaceOnUse"><stop stop-color="#D464FF"></stop><stop offset="1" stop-color="#FF60AA"></stop></linearGradient><linearGradient id="paint1_linear_67_904" x1="25.5751" y1="0" x2="25.5751" y2="51" gradientUnits="userSpaceOnUse"><stop stop-color="#D464FF"></stop><stop offset="1" stop-color="#FF60AA"></stop></linearGradient><linearGradient id="paint2_linear_67_904" x1="25.5742" y1="6" x2="25.5742" y2="25" gradientUnits="userSpaceOnUse"><stop stop-color="#D464FF"></stop><stop offset="1" stop-color="#FF60AA"></stop></linearGradient><linearGradient id="paint3_linear_67_904" x1="27.456" y1="29" x2="27.456" y2="37" gradientUnits="userSpaceOnUse"><stop stop-color="#D464FF"></stop><stop offset="1" stop-color="#FF60AA"></stop></linearGradient></defs></svg>