<svg xmlns="http://www.w3.org/2000/svg" width="54" height="49" viewBox="0 0 54 49" fill="none"><path d="M53.1118 15.7317L45.3842 9.9935V1.61182C45.3067 0.781537 44.6983 0.115139 43.9123 0H10.0582C9.27225 0.115262 8.6637 0.781537 8.58622 1.61182V9.92896L0.551966 15.7316C0.233723 15.9744 0.0321647 16.3512 0 16.7631V47.3882C0.104477 48.2287 0.733685 48.8903 1.53322 49H52.4372C53.1118 49 53.3572 48.1618 53.3572 47.3882V16.7632C53.3572 16.3764 53.4185 15.9895 53.1118 15.7317ZM45.3842 13.0882L50.6586 16.8921L45.3842 21.0829V13.0882ZM11.0394 2.57896H42.931V23.0817L26.9852 35.7186L11.0393 23.0817V2.57896H11.0394ZM8.58622 13.0238V21.1475L3.31179 16.8922L8.58622 13.0238ZM2.45321 19.5356L19.6257 33.204L2.45321 45.3896V19.5356ZM5.3971 46.4212L21.7108 34.8804L26.0653 38.3619C26.3118 38.5622 26.6124 38.6751 26.9239 38.6843C27.1692 38.6843 27.2919 38.5553 27.5371 38.3619L32.0755 34.6869L48.5733 46.4212H5.3971ZM50.904 44.9383L34.0995 33.0751L50.904 19.5356V44.9383Z" fill="url(#paint0_linear_67_890)"></path><path d="M17.1739 10.9618H22.6935C23.371 10.9618 23.9201 10.3845 23.9201 9.67229C23.9201 8.96011 23.371 8.38281 22.6935 8.38281H17.1739C16.4964 8.38281 15.9473 8.96011 15.9473 9.67229C15.9473 10.3845 16.4964 10.9618 17.1739 10.9618Z" fill="url(#paint1_linear_67_890)"></path><path d="M17.1739 16.7665H36.7995C37.477 16.7665 38.0261 16.1892 38.0261 15.477C38.0261 14.7648 37.477 14.1875 36.7995 14.1875H17.1739C16.4964 14.1875 15.9473 14.7648 15.9473 15.477C15.9473 16.1892 16.4964 16.7665 17.1739 16.7665Z" fill="url(#paint2_linear_67_890)"></path><path d="M38.026 21.2739C38.026 20.5617 37.4769 19.9844 36.7994 19.9844H17.1739C16.4964 19.9844 15.9473 20.5617 15.9473 21.2739C15.9473 21.986 16.4964 22.5633 17.1739 22.5633H36.7995C37.4769 22.5633 38.026 21.986 38.026 21.2739Z" fill="url(#paint3_linear_67_890)"></path><defs><linearGradient id="paint0_linear_67_890" x1="26.6811" y1="0" x2="26.6811" y2="49" gradientUnits="userSpaceOnUse"><stop stop-color="#D464FF"></stop><stop offset="1" stop-color="#FF60AA"></stop></linearGradient><linearGradient id="paint1_linear_67_890" x1="19.9337" y1="8.38281" x2="19.9337" y2="10.9618" gradientUnits="userSpaceOnUse"><stop stop-color="#D464FF"></stop><stop offset="1" stop-color="#FF60AA"></stop></linearGradient><linearGradient id="paint2_linear_67_890" x1="26.9867" y1="14.1875" x2="26.9867" y2="16.7665" gradientUnits="userSpaceOnUse"><stop stop-color="#D464FF"></stop><stop offset="1" stop-color="#FF60AA"></stop></linearGradient><linearGradient id="paint3_linear_67_890" x1="26.9866" y1="19.9844" x2="26.9866" y2="22.5633" gradientUnits="userSpaceOnUse"><stop stop-color="#D464FF"></stop><stop offset="1" stop-color="#FF60AA"></stop></linearGradient></defs></svg>