<svg xmlns="http://www.w3.org/2000/svg" width="366" height="156" viewBox="0 0 366 156" fill="none"><path fill-rule="evenodd" clip-rule="evenodd" d="M72.1644 139.545C63.6355 136.765 55.5056 133.608 48.0181 130.105C40.5255 126.603 33.6701 122.758 27.6539 118.633C21.6428 114.508 16.471 110.103 12.3196 105.506C8.15777 100.911 5.01123 96.1276 2.95757 91.2625C-1.16012 81.5302 -0.87006 71.5157 3.52173 62.0388C5.70985 57.3004 8.92341 52.7025 13.007 48.3361C17.0905 43.9697 22.0493 39.8349 27.676 35.9959C32.396 32.7764 37.7064 29.7795 43.2082 27.067C48.7048 24.3501 54.3878 21.9177 59.8168 19.7496C68.5821 16.2434 78.5435 13.1244 88.6393 10.5987C98.7351 8.0642 108.934 6.12079 118.05 4.68121C125.4 3.52068 132.248 2.64653 139.044 1.959C145.839 1.2737 152.593 0.772792 159.808 0.461012C174.787 -0.182268 190.056 0.0100824 205.06 1.04666C220.063 2.08323 234.777 3.97515 248.635 6.65098C262.499 9.3246 275.502 12.7755 287.211 16.85C298.924 20.9224 309.348 25.6141 318.191 30.7337C329.075 37.0188 336.944 43.9067 341.866 50.7308C346.814 57.5617 348.83 64.3132 348.765 70.4926C348.423 70.4636 348.221 69.8369 348.092 70.5145C348.22 72.9166 347.794 74.8028 347.13 76.2446C346.701 75.8222 346.235 75.5175 345.883 74.833C345.785 73.8752 345.775 73.193 345.749 72.5175C345.724 71.842 345.688 71.1732 345.466 70.2509C345.134 71.2751 344.326 70.1281 343.949 68.8969C342.998 64.2502 341.478 59.8343 338.725 55.391C334.926 49.2785 329.129 43.3227 321.451 37.7526C313.783 32.1824 304.235 27.0002 293.081 22.4259C281.932 17.8517 269.173 13.8876 255.195 10.7407C241.223 7.59149 226.034 5.25936 210.186 3.90016C194.343 2.53873 177.837 2.13688 161.35 2.76606C144.864 3.39301 128.393 5.07097 112.683 7.80036C96.9728 10.5253 82.0234 14.2994 68.5651 19.0031C55.1068 23.7046 43.1449 29.3357 33.3475 35.6945C20.7316 43.8761 12.0464 53.0418 7.71671 62.532C3.38707 72.0223 3.30948 81.8213 7.4739 91.3182C11.6383 100.815 20.1173 109.992 32.4449 118.226C44.7571 126.463 60.9024 133.764 80.0421 139.556C88.5814 142.14 97.8978 144.48 107.872 146.47C117.841 148.459 128.468 150.093 139.536 151.288C161.671 153.684 185.563 154.274 209.021 152.833C220.747 152.114 232.354 150.887 243.532 149.175C254.71 147.466 265.464 145.276 275.528 142.675C285.593 140.076 294.974 137.065 303.48 133.748C311.992 130.43 319.628 126.806 326.28 122.987C329.617 121.069 331.86 119.502 334.207 118.245C332.554 119.026 334.295 117.999 334.958 117.528C337.476 115.749 340.031 113.797 342.445 111.759C344.86 109.72 347.119 107.595 349.125 105.485C353.157 101.268 356.059 97.1118 357.884 93.9686C358.61 91.9736 359.777 89.3433 360.664 86.5951C361.566 83.8492 362.179 80.9831 362.299 78.5856C362.407 80.0811 362.313 81.8364 361.991 83.7116C361.669 85.5868 361.114 87.5819 360.367 89.5525C359.625 91.5252 358.697 93.4735 357.723 95.2683C356.753 97.0655 355.737 98.707 354.897 100.082C354.276 100.475 354.67 99.8352 353.53 101.121C352.913 102.194 354.151 101.057 353.146 102.299C349.85 106.103 346.445 109.43 344.18 112.149C346.875 109.961 348.745 108.056 350.518 106.121C352.28 104.182 353.943 102.212 355.949 99.8137C356.234 99.0806 355.182 100.271 355.975 98.996C356.897 98.421 357.903 96.9327 358.774 95.3933C359.66 93.8517 360.402 92.2611 361.205 91.4816C360.967 91.3682 361.371 90.2285 361.745 89.2488C362.129 88.2691 362.507 87.4471 362.486 87.9893C363.358 84.6989 363.753 82.306 364.059 80.4685C364.35 78.6288 364.517 77.3424 364.538 76.2603C365.025 76.5094 365.164 77.4849 365.117 78.6493C365.07 79.8136 364.826 81.16 364.701 82.162C364.373 84.9994 364.232 87.9213 362.682 89.9981C362.92 90.4737 362.516 91.2312 362.106 91.9287C361.702 92.6284 361.287 93.2682 361.582 93.5327C361.111 93.9369 360.727 94.7188 360.276 95.5319C359.83 96.3449 359.322 97.1868 358.695 97.7042C358.876 97.7621 359.187 97.7067 358.57 98.5129C356.798 101.01 354.73 103.762 352.258 106.433C349.796 109.105 346.936 111.695 343.884 113.871C344.646 113.573 343.024 114.899 341.262 116.133C339.511 117.37 337.636 118.516 338.413 118.003C335.864 119.728 332.48 122.175 328.729 124.288C327.051 125.241 324.807 126.48 322.518 127.652C320.233 128.824 317.902 129.929 316.208 130.659C312.467 132.277 308.142 134.206 302.889 136.181C290.751 140.745 277.19 144.595 263.142 147.537C249.099 150.489 234.596 152.533 220.705 153.741C212.573 154.708 204.011 155.225 195.677 155.448C187.333 155.674 179.228 155.61 171.749 155.52C167.414 155.453 173.054 155.407 169.926 155.297C168.098 155.431 164.338 155.294 162.473 155.188C163.478 155.22 164.721 155.192 163.431 155.115C159.262 154.809 162.105 155.288 158.754 155.058C156.289 154.916 156.802 154.763 154.207 154.606L154.145 154.777C146.055 154.187 137.846 153.376 129.731 152.325C121.61 151.274 113.588 149.986 105.867 148.473C98.1555 146.958 90.7396 145.225 83.8107 143.326C76.8817 141.427 70.4397 139.364 64.6245 137.215C65.8104 137.54 67.1826 138.092 68.5238 138.574C69.865 139.057 71.17 139.476 72.1644 139.545ZM341.263 114.591C342.014 114.021 342.745 113.448 343.465 112.868C343.434 112.644 342.678 113.134 342.02 113.647C341.367 114.163 340.807 114.7 341.263 114.591Z" fill="#FFC01C"></path></svg>