<svg xmlns="http://www.w3.org/2000/svg" width="366" height="156" viewBox="0 0 366 156" fill="none"><path fill-rule="evenodd" clip-rule="evenodd" d="M72.1644 139.547C63.6355 136.767 55.5056 133.61 48.0181 130.106C40.5255 126.605 33.6701 122.76 27.6539 118.635C21.6428 114.51 16.471 110.105 12.3196 105.508C8.15777 100.913 5.01123 96.1293 2.95757 91.2642C-1.16012 81.5319 -0.87006 71.5174 3.52173 62.0405C5.70985 57.3021 8.92341 52.7042 13.007 48.3378C17.0905 43.9714 22.0493 39.8366 27.676 35.9976C32.396 32.7782 37.7064 29.7812 43.2082 27.0687C48.7048 24.3518 54.3878 21.9194 59.8168 19.7513C68.5821 16.2451 78.5435 13.1261 88.6393 10.6004C98.7351 8.06591 108.934 6.1225 118.05 4.68292C125.4 3.52239 132.248 2.64824 139.044 1.96071C145.839 1.27541 152.593 0.774501 159.808 0.462721C174.787 -0.180559 190.056 0.0117914 205.06 1.04837C220.063 2.08494 234.777 3.97686 248.635 6.65269C262.499 9.3263 275.502 12.7772 287.211 16.8518C298.924 20.9241 309.348 25.6158 318.191 30.7354C329.075 37.0205 336.944 43.9084 341.866 50.7326C346.814 57.5634 348.83 64.3149 348.765 70.4943C348.423 70.4653 348.221 69.8386 348.092 70.5162C348.22 72.9183 347.794 74.8045 347.13 76.2463C346.701 75.8239 346.235 75.5192 345.883 74.8347C345.785 73.8769 345.775 73.1948 345.749 72.5193C345.724 71.8437 345.688 71.1749 345.466 70.2526C345.134 71.2768 344.326 70.1298 343.949 68.8987C342.998 64.2519 341.478 59.836 338.725 55.3927C334.926 49.2802 329.129 43.3244 321.451 37.7543C313.783 32.1841 304.235 27.0019 293.081 22.4276C281.932 17.8534 269.173 13.8893 255.195 10.7424C241.223 7.5932 226.034 5.26107 210.186 3.90187C194.343 2.54044 177.837 2.13859 161.35 2.76777C144.864 3.39472 128.393 5.07268 112.683 7.80207C96.9728 10.527 82.0234 14.3011 68.5651 19.0048C55.1068 23.7063 43.1449 29.3374 33.3475 35.6962C20.7316 43.8778 12.0464 53.0435 7.71671 62.5338C3.38707 72.024 3.30948 81.823 7.4739 91.3199C11.6383 100.817 20.1173 109.994 32.4449 118.228C44.7571 126.465 60.9024 133.766 80.0421 139.558C88.5814 142.142 97.8978 144.482 107.872 146.471C117.841 148.461 128.468 150.095 139.536 151.29C161.671 153.685 185.563 154.275 209.021 152.834C220.747 152.116 232.354 150.889 243.532 149.177C254.71 147.467 265.464 145.278 275.528 142.676C285.593 140.077 294.974 137.067 303.48 133.75C311.992 130.432 319.628 126.807 326.28 122.989C329.617 121.071 331.86 119.503 334.207 118.247C332.554 119.028 334.295 118 334.958 117.53C337.476 115.751 340.031 113.799 342.445 111.761C344.86 109.722 347.119 107.597 349.125 105.487C353.157 101.269 356.059 97.1135 357.884 93.9703C358.61 91.9753 359.777 89.345 360.664 86.5968C361.566 83.8509 362.179 80.9848 362.299 78.5873C362.407 80.0828 362.313 81.8381 361.991 83.7133C361.669 85.5885 361.114 87.5836 360.367 89.5542C359.625 91.5269 358.697 93.4752 357.723 95.2701C356.753 97.0672 355.737 98.7087 354.897 100.084C354.276 100.477 354.67 99.8369 353.53 101.123C352.913 102.196 354.151 101.059 353.146 102.3C349.85 106.105 346.445 109.432 344.18 112.15C346.875 109.963 348.745 108.058 350.518 106.123C352.28 104.184 353.943 102.214 355.949 99.8154C356.234 99.0823 355.182 100.273 355.975 98.9977C356.897 98.4227 357.903 96.9344 358.774 95.395C359.66 93.8534 360.402 92.2628 361.205 91.4833C360.967 91.3699 361.371 90.2302 361.745 89.2505C362.129 88.2708 362.507 87.4488 362.486 87.991C363.358 84.7006 363.753 82.3077 364.059 80.4702C364.35 78.6306 364.517 77.3441 364.538 76.262C365.025 76.5111 365.164 77.4866 365.117 78.651C365.07 79.8153 364.826 81.1617 364.701 82.1638C364.373 85.0011 364.232 87.923 362.682 89.9998C362.92 90.4754 362.516 91.2329 362.106 91.9304C361.702 92.6301 361.287 93.2699 361.582 93.5344C361.111 93.9386 360.727 94.7206 360.276 95.5336C359.83 96.3466 359.322 97.1885 358.695 97.7059C358.876 97.7638 359.187 97.7084 358.57 98.5146C356.798 101.011 354.73 103.763 352.258 106.435C349.796 109.107 346.936 111.696 343.884 113.872C344.646 113.575 343.024 114.901 341.262 116.135C339.511 117.372 337.636 118.518 338.413 118.005C335.864 119.73 332.48 122.177 328.729 124.29C327.051 125.243 324.807 126.481 322.518 127.653C320.233 128.825 317.902 129.931 316.208 130.661C312.467 132.279 308.142 134.207 302.889 136.182C290.751 140.747 277.19 144.597 263.142 147.538C249.099 150.491 234.596 152.534 220.705 153.743C212.573 154.709 204.011 155.227 195.677 155.449C187.333 155.676 179.228 155.612 171.749 155.521C167.414 155.455 173.054 155.409 169.926 155.298C168.098 155.433 164.338 155.295 162.473 155.19C163.478 155.222 164.721 155.193 163.431 155.117C159.262 154.811 162.105 155.29 158.754 155.059C156.289 154.918 156.802 154.765 154.207 154.608L154.145 154.779C146.055 154.188 137.846 153.377 129.731 152.327C121.61 151.276 113.588 149.987 105.867 148.475C98.1555 146.96 90.7396 145.227 83.8107 143.328C76.8817 141.429 70.4397 139.366 64.6245 137.216C65.8104 137.541 67.1826 138.093 68.5238 138.576C69.865 139.059 71.17 139.477 72.1644 139.547ZM341.263 114.593C342.014 114.022 342.745 113.45 343.465 112.87C343.434 112.646 342.678 113.136 342.02 113.649C341.367 114.164 340.807 114.702 341.263 114.593Z" fill="url(#paint0_linear_54_2630)"></path><defs><linearGradient id="paint0_linear_54_2630" x1="396" y1="167.5" x2="182.623" y2="0.094605" gradientUnits="userSpaceOnUse"><stop stop-color="#FF29AA"></stop><stop offset="1" stop-color="#A9317D"></stop></linearGradient></defs></svg>