<svg xmlns="http://www.w3.org/2000/svg" width="34" height="33" viewBox="0 0 34 33" fill="none"><path d="M20.0789 30.0553C19.8056 30.1231 19.5268 30.1833 19.2502 30.234C18.527 30.3679 18.0488 31.0602 18.1826 31.7807C18.2487 32.1352 18.4509 32.4305 18.7255 32.6232C19.0085 32.8215 19.3687 32.911 19.7357 32.843C20.0652 32.7822 20.3972 32.7106 20.7231 32.6297C21.4372 32.4527 21.8723 31.7326 21.6942 31.0221C21.5164 30.3109 20.7935 29.8782 20.0789 30.0553Z" fill="url(#paint0_linear_67_2995)"></path><path d="M29.9356 12.2694C30.029 12.5494 30.2072 12.778 30.4324 12.936C30.7662 13.17 31.203 13.2488 31.6198 13.1116C32.3187 12.8806 32.6973 12.1305 32.4661 11.4353C32.3608 11.1183 32.2439 10.8004 32.1194 10.4908C31.846 9.81054 31.0708 9.47933 30.387 9.75144C29.7039 10.0234 29.371 10.7953 29.6446 11.4758C29.7492 11.736 29.8472 12.0031 29.9356 12.2694Z" fill="url(#paint1_linear_67_2995)"></path><path d="M24.4107 28.1575C24.1756 28.312 23.933 28.4616 23.6885 28.6017C23.0507 28.9678 22.8323 29.7793 23.2 30.4138C23.2999 30.5864 23.4329 30.7275 23.586 30.8353C23.9972 31.1233 24.5556 31.1664 25.0204 30.8998C25.3111 30.733 25.6001 30.5555 25.8801 30.3712C26.494 29.9675 26.6629 29.1444 26.2571 28.5331C25.8514 27.9215 25.0249 27.7535 24.4107 28.1575Z" fill="url(#paint2_linear_67_2995)"></path><path d="M33.2954 15.9777C33.2664 15.2455 32.6468 14.6756 31.9109 14.7042C31.176 14.733 30.603 15.35 30.6319 16.0819C30.643 16.3617 30.6458 16.6458 30.6393 16.9253C30.629 17.3845 30.8546 17.7938 31.2053 18.0398C31.4141 18.1863 31.6676 18.2749 31.9425 18.2811C32.6781 18.2973 33.2878 17.7166 33.3041 16.984C33.3114 16.65 33.3086 16.3115 33.2954 15.9777Z" fill="url(#paint3_linear_67_2995)"></path><path d="M29.7177 24.6721C29.1278 24.2316 28.2933 24.3512 27.8515 24.9373C27.6823 25.1617 27.5041 25.3834 27.3217 25.5968C26.8449 26.1544 26.9123 26.9919 27.4724 27.4668C27.5043 27.4938 27.5366 27.5185 27.5701 27.5418C28.127 27.9326 28.901 27.8428 29.3513 27.3168C29.5691 27.0622 29.7815 26.7974 29.9837 26.5293C30.4255 25.9432 30.306 25.112 29.7177 24.6721Z" fill="url(#paint4_linear_67_2995)"></path><path d="M31.677 19.8736C30.9746 19.6544 30.2267 20.0436 30.0066 20.7427C29.9224 21.0097 29.829 21.2781 29.7282 21.5409C29.507 22.1195 29.719 22.7561 30.205 23.0972C30.2942 23.1596 30.3924 23.2124 30.4991 23.2526C31.1867 23.5138 31.9568 23.1704 32.2189 22.4856C32.3386 22.1731 32.4496 21.8538 32.55 21.5363C32.7699 20.8371 32.3792 20.0928 31.677 19.8736Z" fill="url(#paint5_linear_67_2995)"></path><path d="M14.2652 30.2452C13.0736 30.0323 11.9306 29.6697 10.8467 29.1639C10.8338 29.1572 10.8224 29.1496 10.8089 29.1435C10.5535 29.0239 10.2985 28.8957 10.0513 28.7617C10.0505 28.7607 10.0489 28.7601 10.0475 28.7595C9.59406 28.511 9.15149 28.2359 8.72153 27.9347C2.45195 23.5387 0.944488 14.8852 5.36125 8.64479C6.32165 7.28833 7.48389 6.15667 8.77961 5.25974C8.79558 5.24867 8.81154 5.23767 8.82736 5.22654C13.3933 2.09508 19.5931 1.88405 24.4414 5.1019L23.4001 6.59946C23.1106 7.01628 23.2887 7.32004 23.7955 7.27464L28.3186 6.87157C28.8261 6.82617 29.1295 6.38927 28.9931 5.9015L27.7784 1.54553C27.6425 1.0572 27.2943 0.998749 27.0045 1.4155L25.9608 2.91661C22.4028 0.539288 18.1354 -0.367219 13.8997 0.36386C13.4731 0.437351 13.0525 0.5273 12.6376 0.632003C12.6344 0.632571 12.6319 0.632925 12.6293 0.633493C12.6133 0.637394 12.597 0.642573 12.5814 0.6469C8.92892 1.5805 5.74217 3.70089 3.46823 6.72622C3.44906 6.74885 3.42932 6.77098 3.41121 6.7956C3.3356 6.89697 3.26055 7.00068 3.18708 7.10439C3.06692 7.27435 2.94847 7.44857 2.83516 7.6228C2.82097 7.64379 2.81014 7.66515 2.79774 7.68636C0.921255 10.5807 0.0161526 13.9268 0.171374 17.3333C0.17173 17.3445 0.171089 17.3558 0.171374 17.3673C0.186412 17.7001 0.212923 18.0374 0.248914 18.3696C0.250838 18.391 0.255613 18.4113 0.259248 18.4327C0.296449 18.7667 0.34313 19.1014 0.401641 19.4361C0.9963 22.8509 2.61465 25.9237 5.03969 28.3146C5.04532 28.3202 5.05116 28.3263 5.05686 28.3321C5.05886 28.3343 5.06107 28.3355 5.06299 28.3375C5.71452 28.9772 6.42321 29.5688 7.18628 30.1037C9.1832 31.5043 11.4068 32.4301 13.7949 32.8567C14.5195 32.9863 15.2116 32.5062 15.3416 31.7853C15.4715 31.0639 14.9896 30.3744 14.2652 30.2452Z" fill="url(#paint6_linear_67_2995)"></path><path d="M15.9128 5.89844C15.3168 5.89844 14.834 6.37939 14.834 6.97179V17.6654L24.6597 22.7211C24.8178 22.8026 24.9872 22.841 25.1538 22.841C25.5441 22.841 25.921 22.6295 26.1126 22.2604C26.3859 21.7336 26.1791 21.0865 25.6499 20.8144L16.9903 16.3583V6.97179C16.9903 6.37939 16.5081 5.89844 15.9128 5.89844Z" fill="url(#paint7_linear_67_2995)"></path><defs><linearGradient id="paint0_linear_67_2995" x1="19.9471" y1="30.0156" x2="19.9471" y2="32.8655" gradientUnits="userSpaceOnUse"><stop stop-color="#52E472"></stop><stop offset="1" stop-color="#B2E14F"></stop></linearGradient><linearGradient id="paint1_linear_67_2995" x1="31.0414" y1="9.65625" x2="31.0414" y2="13.1791" gradientUnits="userSpaceOnUse"><stop stop-color="#52E472"></stop><stop offset="1" stop-color="#B2E14F"></stop></linearGradient><linearGradient id="paint2_linear_67_2995" x1="24.7498" y1="27.9375" x2="24.7498" y2="31.0775" gradientUnits="userSpaceOnUse"><stop stop-color="#52E472"></stop><stop offset="1" stop-color="#B2E14F"></stop></linearGradient><linearGradient id="paint3_linear_67_2995" x1="31.9695" y1="14.7031" x2="31.9695" y2="18.2814" gradientUnits="userSpaceOnUse"><stop stop-color="#52E472"></stop><stop offset="1" stop-color="#B2E14F"></stop></linearGradient><linearGradient id="paint4_linear_67_2995" x1="28.6272" y1="24.4062" x2="28.6272" y2="27.7832" gradientUnits="userSpaceOnUse"><stop stop-color="#52E472"></stop><stop offset="1" stop-color="#B2E14F"></stop></linearGradient><linearGradient id="paint5_linear_67_2995" x1="31.126" y1="19.8125" x2="31.126" y2="23.3401" gradientUnits="userSpaceOnUse"><stop stop-color="#52E472"></stop><stop offset="1" stop-color="#B2E14F"></stop></linearGradient><linearGradient id="paint6_linear_67_2995" x1="14.59" y1="0.117187" x2="14.59" y2="32.8778" gradientUnits="userSpaceOnUse"><stop stop-color="#52E472"></stop><stop offset="1" stop-color="#B2E14F"></stop></linearGradient><linearGradient id="paint7_linear_67_2995" x1="20.5336" y1="5.89844" x2="20.5336" y2="22.841" gradientUnits="userSpaceOnUse"><stop stop-color="#52E472"></stop><stop offset="1" stop-color="#B2E14F"></stop></linearGradient></defs></svg>