<svg xmlns="http://www.w3.org/2000/svg" width="44" height="44" viewBox="0 0 44 44" fill="none"><path d="M0.494991 39.8498C0.496493 40.6453 0.813263 41.4078 1.3759 41.9701C1.93853 42.5325 2.70114 42.8489 3.49665 42.8501C6.18115 41.5119 35.9105 46.0279 34.9973 39.8517C34.8935 33.1816 34.9669 27.1623 34.9669 27.1623C34.9669 27.1623 38.6502 23.4903 43.118 19.3958C46.3098 15.6102 38.5477 8.64683 34.9966 14.7895C34.2102 12.1152 37.2412 0.581376 31.9972 0.850401L3.49665 0.850086C-2.64147 -0.839665 1.7391 37.6694 0.494991 39.8498ZM39.1909 21.2004L27.6921 32.6992C27.2787 31.9764 26.8045 31.2901 26.2748 30.6476C30.5903 27.2929 34.6162 22.8049 38.5539 18.9481C38.9443 19.6258 39.1847 20.3794 39.2588 21.158C39.2354 21.1697 39.215 21.1906 39.1909 21.2004ZM21.7968 31.8584L22.3217 29.5841C24.1883 30.457 25.6933 31.9518 26.5789 33.8124L24.2867 34.3461C23.7232 33.2872 22.8562 32.421 21.7968 31.8584ZM41.032 19.3702C40.944 19.5005 40.8328 19.6136 40.7039 19.7038C40.6838 19.6263 40.6555 19.5511 40.6316 19.4746C41.1521 18.4681 41.6191 17.4348 42.0306 16.3791C42.585 17.3793 42.548 18.4301 41.032 19.3702ZM37.4553 15.862C37.6764 15.4816 37.9783 14.6626 37.5166 14.3721C38.2373 13.735 39.1318 13.2832 39.9339 14.093C40.5032 14.5629 41.0326 15.079 41.5168 15.6361C40.9816 16.4877 40.5115 17.3785 40.1105 18.3008C39.972 18.0685 39.8163 17.8469 39.6446 17.638C41.3759 14.6866 40.4475 12.8794 39.0545 17.0255C38.88 16.8688 38.6946 16.7247 38.4997 16.5942C38.9991 15.8563 39.2786 14.9917 39.3058 14.1011C39.3037 14.0327 39.2796 13.9668 39.2372 13.9131C39.1948 13.8594 39.1362 13.8208 39.0702 13.8029C39.0041 13.785 38.9341 13.7888 38.8703 13.8137C38.8066 13.8386 38.7526 13.8834 38.7162 13.9414C38.2824 14.6281 37.954 15.376 37.7419 16.16C37.6155 16.0998 37.4871 16.0461 37.3561 15.9975C37.3932 15.9554 37.4263 15.91 37.4553 15.862ZM36.4097 15.5335C36.525 15.406 36.6546 15.2922 36.7958 15.1942L36.7545 15.1529C36.8584 15.0343 36.9737 14.9066 37.0967 14.7778C37.0931 14.7779 37.0595 15.0298 37.0733 14.9082C37.0232 15.2248 36.9724 15.5429 36.9295 15.8607C36.6812 15.7995 36.4275 15.7626 36.1721 15.7508C36.2508 15.6778 36.329 15.6042 36.4097 15.5335V15.5335ZM35.092 16.8154C35.8915 17.0105 36.6615 17.3111 37.3819 17.7092C33.5564 21.8111 29.248 25.4655 25.528 29.6483C25.5191 29.628 25.5083 29.6083 25.4999 29.588L25.3257 29.7621C24.7503 29.2597 24.1213 28.8221 23.4502 28.4571L35.092 16.8154ZM1.99665 3.85009C0.969329 0.418085 31.0071 3.21018 31.9967 2.34859C32.3945 2.34958 32.7757 2.50814 33.0568 2.78956C33.3379 3.07098 33.4961 3.45231 33.4966 3.85009V16.2895C32.7283 17.1317 21.3705 28.2163 20.9094 29.0363C17.9449 38.8919 19.4622 37.7534 28.005 34.5075L33.4966 29.0157C32.8515 30.3605 35.0165 41.6905 31.9972 41.3501L3.49665 41.3501C-0.123406 42.4683 2.98005 4.79752 1.99665 3.85009Z" fill="white"></path><path d="M6.49645 39.1001C8.46231 38.7198 14.8652 40.4252 14.7462 36.8503C14.3662 34.8842 16.0716 28.4813 12.4966 28.6003C10.5306 28.9803 4.12766 27.2749 4.24668 30.8499C4.62676 32.8159 2.92135 39.2189 6.49645 39.1001ZM5.74645 30.8501C5.53061 29.3465 11.8554 30.3957 12.4965 30.0997C14 29.8842 12.9508 36.209 13.2469 36.85C13.4623 38.3536 7.1375 37.3044 6.4965 37.6005C4.99292 37.8159 6.04211 31.4911 5.74645 30.8501Z" fill="white"></path><path d="M7.2035 13.6788C9.35225 13.6596 11.5331 13.7038 13.6629 13.5454C14.1576 13.3858 14.2547 12.8973 14.2772 12.441C14.3255 11.6425 14.3613 10.8408 14.332 10.0411C15.6769 8.32915 17.6697 6.60676 18.8148 5.06273C18.8628 4.97486 18.8842 4.87494 18.8764 4.77514C18.8686 4.67533 18.8319 4.57993 18.7709 4.50057C18.7099 4.4212 18.6271 4.36129 18.5327 4.32812C18.4382 4.29495 18.3362 4.28995 18.2389 4.31374C16.6084 4.99457 15.5437 6.63377 14.2942 7.82547C14.1888 6.82228 14.7167 5.28259 13.4503 4.85317C12.289 4.69255 11.1106 4.70192 9.95202 4.881C8.97222 5.0094 7.73475 5.43329 6.79615 4.95049C6.57981 4.87606 6.24592 4.59599 5.9302 5.00974C5.12632 7.00426 5.72095 9.29536 5.73647 11.3954C5.80705 12.5605 5.60833 13.7967 7.2035 13.6788ZM9.36602 6.40156C10.5399 6.13487 11.7405 6.00311 12.9443 6.00884C13.1501 6.01928 13.1416 6.00059 13.157 6.19501C13.1944 7.17325 13.0785 8.15227 13.0469 9.1301C12.6984 9.4786 12.3488 9.82669 11.9838 10.1581C11.1681 9.36297 10.6573 8.15621 9.67222 7.55608C9.58643 7.50817 9.48968 7.48328 9.39141 7.48386C9.29314 7.48443 9.19669 7.51044 9.11146 7.55935C9.02623 7.60826 8.95511 7.67841 8.90504 7.76297C8.85497 7.84753 8.82764 7.94361 8.82573 8.04187C8.96681 9.34201 10.0419 10.3586 10.7679 11.3825C10.8674 11.5795 11.0155 11.748 11.1981 11.8719C11.3807 11.9959 11.5919 12.0713 11.8118 12.091C12.0316 12.1107 12.2528 12.0741 12.4546 11.9846C12.6564 11.8951 12.832 11.7557 12.965 11.5795C12.9651 11.7756 12.9689 12.1378 12.9706 12.3355C11.0691 12.1981 9.17582 12.2517 7.27116 12.2202C7.11598 10.311 6.86279 8.40464 6.81285 6.49064C7.66119 6.63365 8.52971 6.60334 9.36602 6.40155V6.40156ZM11.7203 10.393C11.6307 10.4761 11.6189 10.4797 11.695 10.393H11.7203Z" fill="white"></path><path d="M21.0862 7.71379C22.9937 7.77224 24.8954 7.76029 26.8004 7.63747C27.4832 7.70786 28.1688 7.53331 28.7348 7.14496C29.2464 6.53935 28.3544 6.06281 27.8019 6.07741C25.5035 6.09969 23.2142 6.37048 20.974 6.88505C20.4973 6.9886 20.6224 7.70115 21.0862 7.71379Z" fill="white"></path><path d="M19.8904 10.6832C22.6515 11.1003 25.4444 10.781 28.2226 10.6475C29.0405 10.5973 30.3444 10.7534 30.9514 10.12C31.017 10.0515 31.0664 9.96927 31.096 9.87925C31.1256 9.78923 31.1347 9.69372 31.1225 9.59973C31.1104 9.50574 31.0774 9.41566 31.026 9.33608C30.9745 9.25651 30.9059 9.18946 30.8251 9.13986C30.412 8.9125 29.9282 8.84961 29.4706 8.9638C28.0845 9.0949 26.6971 9.21237 25.3085 9.31619C23.455 9.3775 21.6103 9.59806 19.7947 9.97544C19.3681 10.0413 19.5137 10.6522 19.8904 10.6832Z" fill="white"></path><path d="M16.5487 17.2441C15.8619 17.9429 15.2115 18.6765 14.6001 19.4421C14.8168 15.4087 13.1552 16.8112 10.3239 16.9249C9.13553 17.01 7.94343 17.0298 6.75293 16.9842C6.64737 16.9783 6.54184 16.9963 6.44414 17.0367C6.34644 17.0771 6.25908 17.1389 6.18851 17.2177C6.11794 17.2964 6.06598 17.39 6.03645 17.4915C6.00692 17.593 6.0006 17.6999 6.01793 17.8042C5.85506 17.6803 5.55968 17.7384 5.5896 17.991C5.75684 19.9762 5.75333 21.9722 5.5791 23.9568C5.67107 25.0961 7.05013 24.9247 7.87364 24.9807C8.9183 25.0519 9.96159 25.1172 11.0077 25.1627C14.4957 25.3824 14.7476 25.505 14.6164 21.8431C15.8061 20.3282 17.1337 18.9268 18.5821 17.6569C19.0732 17.2276 19.8712 16.8157 19.848 16.0881C19.8456 15.9232 19.7904 15.7634 19.6906 15.6323C19.5907 15.5011 19.4514 15.4054 19.2931 15.3592C18.6039 15.2025 18.1984 15.6854 17.7299 16.111C17.326 16.4779 16.9322 16.8556 16.5487 17.2441ZM13.0975 21.2114C13.0972 21.3046 13.0968 21.3977 13.0963 21.4909C12.4583 22.5529 12.066 22.021 11.462 21.3353C11.0221 20.8998 10.5822 20.4643 10.1424 20.0287C9.72017 19.6106 9.16358 20.2205 9.50846 20.6626C10.4841 21.6433 11.3709 24.0593 13.0755 23.3338C13.0595 23.4628 13.061 23.5935 13.08 23.7221C10.9923 23.6985 8.93016 23.603 6.84766 23.591C6.8504 23.5469 6.8526 23.5131 6.85223 23.5185C7.02092 21.7519 6.80521 19.9697 6.21992 18.2943C6.2875 18.3686 6.36979 18.428 6.46155 18.4687C6.55331 18.5095 6.65254 18.5307 6.75295 18.5311C8.87463 18.5763 10.9961 18.4329 13.0924 18.1025C13.1093 19.139 13.0976 20.1749 13.0975 21.2114Z" fill="white"></path><path d="M27.5119 16.5931C25.2701 16.3732 22.8884 17.2981 20.7056 17.807C20.209 17.9467 20.2829 18.7925 20.8317 18.7394C21.9268 18.6334 23.02 18.5407 24.1114 18.4013C25.1884 18.2969 26.2538 18.0925 27.3252 17.9724C27.4921 17.9673 27.6518 17.9031 27.7758 17.7913C27.8999 17.6795 27.9802 17.5273 28.0026 17.3618C28.025 17.1963 27.988 17.0283 27.8981 16.8875C27.8083 16.7468 27.6714 16.6424 27.5119 16.5931Z" fill="white"></path><path d="M25.3866 19.4115C23.7903 19.6868 22.1916 19.9455 20.595 20.2191C20.4994 20.2489 20.4175 20.3117 20.3637 20.3962C20.3099 20.4807 20.2878 20.5815 20.3012 20.6807C20.3146 20.78 20.3628 20.8713 20.4371 20.9385C20.5114 21.0056 20.6071 21.0443 20.7072 21.0477C21.7673 21.1408 27.2165 21.5488 27.0067 19.963C26.9087 19.2385 25.906 19.3255 25.3866 19.4115Z" fill="white"></path></svg>