<svg xmlns="http://www.w3.org/2000/svg" width="56" height="56" viewBox="0 0 56 56" fill="none"><path d="M16.5687 26.7619C17.386 27.3697 18.5394 26.7169 19.1652 26.6166C20.051 26.4738 20.5988 27.2361 22.3446 27.2361C23.176 27.2361 24.0685 26.9945 24.3694 26.8241C25.574 27.1439 26.7449 27.0946 27.8697 26.627C29.1494 27.1083 30.8403 26.4329 31.4317 26.4241C31.9683 26.443 32.437 26.6167 32.9652 26.6743C33.6162 26.7417 34.5369 26.5125 35.0224 25.8375C35.6704 24.9363 35.6067 23.5631 35.5602 22.5615C35.5249 22.0632 35.579 20.682 34.9864 17.1467C34.4575 13.9883 33.7331 9.66273 29.9312 8.35697C27.8148 7.62955 25.3621 8.1562 23.717 9.66123C21.9034 9.2477 20.1047 10.2441 19.0746 11.4787C17.5433 13.3133 17.1418 15.6888 16.9627 17.5535C16.319 24.2262 15.1939 25.735 16.5687 26.7619ZM21.3078 23.2919C20.2011 21.7114 19.6533 19.1946 19.5195 17.5091L19.9915 16.656C20.5122 17.4126 21.1834 18.0921 21.9693 18.654C22.0712 18.7259 22.188 18.7611 22.3034 18.7611C22.8425 18.7611 22.6622 18.397 25.1412 15.7256C25.4063 16.456 25.8079 17.1504 26.3285 17.7707C26.4394 17.9026 26.6207 17.9827 26.775 17.976C27.3501 17.9685 27.2362 17.39 29.7559 15.0229C30.1335 15.7173 30.6162 16.3619 31.1897 16.9523C31.0887 18.5865 30.9954 20.9545 30.3762 22.4057C29.595 24.2332 28.2196 25.3665 27.0005 25.7214C24.8138 26.3514 22.4802 24.9797 21.3078 23.2919ZM33.0896 25.5296C32.8903 25.5086 32.694 25.4637 32.4977 25.421C30.8175 25.0533 30.7522 25.4926 29.4757 25.6103C32.1377 23.2778 32.1217 20.2247 32.3566 16.724L33.5355 15.5665C34.2543 19.1497 34.3234 21.3834 34.4111 22.6147C34.4773 24.0599 34.5172 25.6895 33.0896 25.5296ZM23.702 10.8501C23.9103 10.9198 24.141 10.8621 24.2939 10.704C25.6079 9.35033 27.7699 8.83193 29.5581 9.44473C31.6833 10.1749 32.6615 12.1289 33.2304 14.2536L31.6722 15.7832C31.165 15.1922 30.7612 14.5449 30.4676 13.8534C30.3949 13.6826 30.2451 13.5575 30.0645 13.5171C29.8832 13.4759 29.6945 13.5253 29.5559 13.6482C28.5647 14.5277 27.6373 15.4746 26.7923 16.4695C25.7688 14.9019 26.2529 14.2399 25.5989 14.0377C25.3944 13.9748 25.1689 14.031 25.0175 14.1861C24.0257 15.2034 23.0803 16.2762 22.203 17.3812C20.3951 15.8737 20.7157 14.9403 19.9885 14.9225C19.4077 14.9339 19.4248 15.4516 18.8049 16.4238C18.6194 16.1729 18.5316 16.0503 18.3789 15.7988C19.2431 11.5787 21.9136 10.2625 23.702 10.8501ZM18.1306 17.4525C18.2153 17.5728 18.2926 17.6892 18.3479 17.7924C18.3595 17.8143 18.3831 17.8247 18.3972 17.8445C18.7139 21.1444 19.8167 24.3797 22.6379 26.0759C20.5089 26.2321 20.5398 24.9555 18.2498 25.6742C16.1742 26.3176 17.266 25.7528 18.1306 17.4525Z" fill="white"></path><path d="M49.9051 34.6736C48.5162 34.5411 47.1185 34.4673 45.7211 34.4256C52.0337 20.3791 41.6762 4.32507 26.1819 4.32507C23.9057 4.32507 21.7129 4.68579 19.6535 5.34728C18.9454 5.22049 16.023 6.46837 15.422 6.77178C9.41856 9.80309 4.91339 15.5384 3.58717 21.9456C1.84546 30.3603 5.61061 39.6511 12.7191 44.4792C19.2978 48.9474 28.3698 49.336 35.3775 45.6282C35.3741 45.8784 35.3709 46.1284 35.3675 46.3786C35.3177 50.1373 36.1895 51.6588 40.3842 51.8927C43.391 52.0604 46.4179 52.059 49.3998 51.6277C50.3093 51.4962 51.1757 51.296 51.6875 50.5532C52.2883 50.0337 52.6762 49.2813 52.6754 48.4436C52.8881 45.1055 52.8881 41.4212 52.6769 37.5256C52.6769 35.9712 51.4123 34.6909 49.9051 34.6736ZM35.7667 36.8035C35.4862 37.6112 35.4719 38.4871 35.4605 39.3446C35.4412 40.8089 35.4218 42.2733 35.4025 43.7376C32.5654 45.1959 29.4035 45.9662 26.1819 45.9662C20.1866 45.9662 14.7943 43.3442 11.084 39.1895C12.7448 36.1981 13.774 34.4498 17.0416 31.5677C17.9388 30.7877 19.0234 30.2951 19.1003 30.2514C20.7018 29.4911 20.1025 30.1935 23.0702 31.6533C25.4524 32.825 27.1205 32.6167 29.8969 31.4149C32.1889 30.412 32.2435 29.643 33.8157 30.7032C35.4732 31.815 36.6115 33.3201 37.6926 35.008C36.703 35.1008 35.9378 36.3107 35.7667 36.8035ZM51.527 37.5563C51.7367 41.4384 51.7367 45.077 51.5262 48.4069C51.5262 49.3464 50.7621 50.1105 49.8226 50.1105C49.8092 50.1105 49.7949 50.1112 49.7814 50.112C46.2934 50.3607 42.3185 50.5555 39.2829 50.1165C39.256 50.1127 39.2282 50.1105 39.2005 50.1105C38.2944 50.1105 37.4924 49.3974 37.4955 48.3538C37.2483 44.6253 37.2715 40.9492 37.5682 37.3848C37.5755 36.269 38.2982 35.8828 39.3406 35.691C42.8137 35.4453 46.3309 35.488 49.8429 35.8221C50.7711 35.8341 51.5262 36.5982 51.527 37.5563ZM44.47 34.3893C42.9599 34.3735 39.5722 34.4577 38.7902 34.5885C37.5866 32.6675 36.2898 30.9774 34.4577 29.748C32.2366 28.2545 31.4844 29.4639 29.4377 30.3593C26.4891 31.6364 25.3683 31.4798 23.5172 30.5743C20.8318 29.2722 20.8845 28.1287 18.6073 29.2116C18.5306 29.2551 17.3249 29.7962 16.2835 30.7024C13.0173 33.5825 11.849 35.4556 10.293 38.2444C7.56901 34.7957 5.93705 30.4466 5.93705 25.7206C5.93705 14.5576 15.0189 5.47576 26.1819 5.47576C41.0878 5.47576 50.824 21.1036 44.47 34.3893Z" fill="white"></path><path d="M44.4971 38.9767C44.4971 38.6591 44.2394 38.4014 43.9217 38.4014C43.6041 38.4014 43.3464 38.6591 43.3464 38.9767V42.649H39.8322C39.0712 42.649 39.0707 43.7997 39.8322 43.7997H43.3464V47.472C43.3464 47.7896 43.6041 48.0473 43.9217 48.0473C44.2394 48.0473 44.4971 47.7896 44.4971 47.472V43.7997H48.0121C48.3297 43.7997 48.5874 43.542 48.5874 43.2244C48.5874 42.9067 48.3297 42.649 48.0121 42.649H44.4971V38.9767Z" fill="white"></path><path d="M25.9201 34.8498L26.0857 34.5908C25.3118 35.2783 25.5683 36.2087 26.1961 36.3303C26.9335 36.4731 27.4647 35.362 26.8255 34.8259C26.5707 34.6122 26.1494 34.609 25.9201 34.8498Z" fill="white"></path><path d="M25.8732 39.1359L26.0388 38.8769C25.2649 39.5644 25.5215 40.4948 26.1492 40.6164C26.8851 40.7589 27.4195 39.6494 26.7786 39.1119C26.5238 38.8982 26.1025 38.8951 25.8732 39.1359Z" fill="white"></path><path d="M25.8733 42.6213L26.0388 42.3622C25.7687 42.6022 25.5612 42.9368 25.5567 43.2981C25.5523 43.6594 25.7945 44.033 26.1492 44.1018C26.5279 44.175 26.9104 43.8766 27.0217 43.5073C27.1176 43.1889 27.0335 42.8109 26.7786 42.5972C26.5238 42.3836 26.1025 42.3803 25.8733 42.6213Z" fill="white"></path><path d="M42.9022 7.82205C42.9989 6.79123 43.3075 5.76491 43.793 4.85245C44.1493 4.18091 43.1356 3.63971 42.7771 4.31157C42.2205 5.35662 41.8677 6.53353 41.756 7.71418C41.6858 8.47384 42.83 8.57888 42.9022 7.82205Z" fill="white"></path><path d="M45.2018 10.2747L47.7511 7.40701C48.2564 6.83903 47.3978 6.07352 46.8911 6.64288L44.3418 9.51061C43.8365 10.0786 44.6954 10.8444 45.2018 10.2747Z" fill="white"></path><path d="M46.7257 13.8482C47.8419 13.5507 48.9903 13.4496 50.141 13.547C50.8985 13.6118 50.9976 12.4654 50.2384 12.4008C48.9536 12.2914 47.6741 12.4053 46.4298 12.7364C45.7033 12.9296 45.9788 14.0488 46.7257 13.8482Z" fill="white"></path></svg>