<svg xmlns="http://www.w3.org/2000/svg" width="46" height="46" viewBox="0 0 46 46" fill="none"><path d="M3.07567 23C1.62662 24.9019 0.811523 27.3472 0.811523 29.7925C0.811523 30.2453 1.17379 30.6981 1.71718 30.6076H1.98888C3.98133 36.7661 8.8719 42.0189 15.8455 44.3736C18.2002 45.1887 20.5549 45.551 23.0002 45.551C25.4455 45.4604 27.8908 45.1887 30.1549 44.3736C36.9474 42.0189 41.9285 36.8566 44.0115 30.6076H44.2832C44.736 30.6076 45.1889 30.2453 45.1889 29.7019C45.1889 27.3472 44.4643 24.9019 43.0153 23C41.8379 21.4604 40.3889 20.1925 38.5776 19.3774C39.3927 18.4717 40.0266 17.3849 40.2983 16.2076C40.6606 14.5774 40.4794 12.7661 39.6643 11.317C38.8493 9.86795 37.4908 8.78116 35.9511 8.23777C34.6832 7.78493 33.3247 7.78494 32.1474 8.1472C32.0568 7.78494 31.9662 7.33211 31.8757 6.96984C30.7889 3.25663 27.4379 0.449087 23.1813 0.358521C22.1851 0.358521 21.1889 0.539653 20.2832 0.811351C17.5662 1.71701 15.3021 3.8906 14.3059 6.78871C14.1247 7.24154 14.0342 7.69437 14.0342 8.1472C12.8568 7.78494 11.4983 7.78494 10.2304 8.1472C8.69077 8.60003 7.33228 9.68682 6.51718 11.1359C5.70209 12.5849 5.43039 14.3057 5.79265 16.0264C6.06435 17.2038 6.60775 18.3812 7.51341 19.2868C5.79265 20.1019 4.25303 21.3698 3.07567 23ZM2.17001 30.6981C5.24926 30.6981 8.3285 30.6076 11.4077 30.517C12.0417 35.1359 13.5813 39.8453 16.9323 43.0151C10.2304 41.1132 5.15869 36.5849 2.17001 30.6981ZM12.5851 30.4264C14.3964 30.3359 16.2077 30.2453 18.0191 30.1547C19.6493 30.0642 21.2794 29.9736 23.0002 29.7925C21.9134 32.8717 22.004 37.7623 22.2757 40.9321C22.3662 41.8378 22.5474 42.834 22.7285 43.7397C22.4568 43.7397 22.0945 43.6491 21.8228 43.6491C21.4606 43.5585 21.0983 43.468 20.736 43.3774C20.0115 43.1057 19.287 42.7434 18.653 42.2C15.0304 39.5736 12.9474 34.5019 11.5889 30.4264H12.5851ZM27.2568 42.2906C26.6228 42.7434 25.8983 43.1963 25.1738 43.468C24.8115 43.6491 24.4493 43.6491 24.087 43.7397C23.8153 43.7397 23.453 43.8302 23.1813 43.8302C23.3625 42.9246 23.5436 41.9283 23.6342 41.0227C23.9964 37.8529 23.9964 32.9623 22.9096 29.883C24.5398 29.9736 26.17 30.1547 27.8908 30.2453C29.7021 30.3359 31.5134 30.4264 33.3247 30.517H34.2304C32.9625 34.683 30.8794 39.6642 27.2568 42.2906ZM29.0681 43.0151C32.4191 39.8453 34.0493 35.1359 34.5926 30.517C36.0417 30.6076 37.4002 30.6076 38.8493 30.6076C40.4794 30.6076 42.1096 30.6981 43.8304 30.6981C40.9323 36.4944 35.77 41.1132 29.0681 43.0151ZM35.77 8.87173C37.0379 9.50569 38.1247 10.5925 38.6681 11.8604C39.2115 13.1283 39.3021 14.5774 38.9398 15.8453C38.5776 17.1132 37.6719 18.2906 36.5851 19.0151C36.404 19.1057 36.3134 19.2868 36.2228 19.3774C36.0417 19.8302 36.3134 20.283 36.6757 20.4642C38.5776 21.1887 40.2983 22.4566 41.4757 24.1774C42.4719 25.6264 43.1059 27.2566 43.287 28.9774C41.7474 28.9774 40.2983 29.068 38.7587 29.068C38.3964 29.068 38.0342 29.068 37.6719 29.068C37.5813 26.351 36.6757 23.5434 35.0455 21.2793C33.5964 19.1963 31.5134 17.3849 29.1587 16.2981C30.2455 15.3019 31.1511 14.1246 31.604 12.6755C32.1474 11.317 32.3285 9.77739 32.1474 8.32833C33.5059 8.1472 34.6832 8.32833 35.77 8.87173ZM16.1172 7.3321C16.9323 4.88682 18.7436 3.25663 20.9172 2.53211C21.6417 2.26041 22.4568 2.16984 23.2719 2.16984C26.4417 2.16984 29.4304 4.43399 30.336 7.51324C30.7889 9.05286 30.7889 10.683 30.2455 12.1321C29.7021 13.6717 28.7059 14.9397 27.3474 15.8453C27.2568 15.9359 27.0757 16.117 27.0757 16.2076C26.8945 16.5698 27.1662 17.0227 27.5285 17.2038C30.1549 18.1095 32.5096 19.7397 34.1398 22.0038C35.6794 24.0868 36.5851 26.5321 36.8568 29.068C35.77 29.068 34.5926 29.1585 33.5059 29.1585C31.6945 29.2491 29.8832 29.3396 28.0719 29.4302C26.4417 29.5208 24.721 29.6113 23.0908 29.7925C21.4606 29.7019 19.7398 29.5208 18.1096 29.4302C16.2983 29.3396 14.487 29.2491 12.6757 29.1585C11.5889 29.1585 10.4115 29.068 9.32473 29.068C9.50586 26.4415 10.5021 23.9057 12.0417 21.9132C13.7625 19.6491 16.1172 17.9283 18.8342 17.1132C19.0153 17.0227 19.1059 16.9321 19.1964 16.8415C19.4681 16.4793 19.3776 16.0264 19.0153 15.7547C17.7474 14.8491 16.7511 13.4906 16.2077 11.951C15.6644 10.5019 15.6644 8.78116 16.1172 7.3321ZM9.4153 20.3736C9.59643 20.283 9.77756 20.1925 9.86813 20.0114C10.1398 19.6491 9.95869 19.1057 9.59643 18.9246C8.50963 18.2 7.69454 17.0227 7.24171 15.7547C6.87945 14.4868 6.97001 13.0378 7.60397 11.7698C8.23794 10.5019 9.23416 9.41512 10.5927 8.87173C11.6794 8.4189 12.8568 8.23776 14.1247 8.4189C13.7625 11.4076 14.8493 14.3057 16.9323 16.2076C14.487 17.2944 12.404 19.0151 10.8644 21.1887C9.23416 23.5434 8.3285 26.351 8.23794 29.1585C6.33605 29.068 4.52473 29.068 2.62284 29.068C2.80398 27.2566 3.43794 25.6264 4.52473 24.1774C5.70209 22.3661 7.42284 21.0981 9.4153 20.3736Z" fill="white"></path></svg>