<svg xmlns="http://www.w3.org/2000/svg" width="61" height="61" viewBox="0 0 61 61" fill="none"><g clip-path="url(#clip0_67_251)"><path d="M48.0019 46.7051C44.1366 46.7051 40.9932 43.499 40.9932 39.5566C40.9932 35.6143 44.1366 32.2891 48.0019 32.2891C51.8671 32.2891 55.0106 35.6143 55.0106 39.5566C55.0106 43.499 51.8671 46.7051 48.0019 46.7051Z" fill="#F6A96C"></path><path d="M48.0014 46.7031C45.3339 46.7031 42.8836 47.5944 40.8709 49.0692L38.2979 54.9974L42.7449 61H60.3834V59.2129C60.3834 52.3041 54.7751 46.7031 48.0014 46.7031Z" fill="#32DDF9"></path><path d="M9.45385 15.0969L4.02622 17.9902L5.05653 11.6437L0.576172 7.30341L6.78817 6.40986L9.45385 0L12.1848 6.40986L18.2147 7.30341L13.8512 11.6437L14.8815 17.9902L9.45385 15.0969Z" fill="#FFDA2D"></path><path d="M34.8601 11.6278L35.9114 17.9902L30.4796 15.095L25.0479 17.9902L26.0992 11.6278L21.7188 7.30341L27.8162 6.40986L30.4796 0L33.2133 6.40986L39.2405 7.30341L34.8601 11.6278Z" fill="#FFDA2D"></path><path d="M51.506 15.0969L46.0784 17.9902L47.1087 11.6437L42.7451 7.30341L48.8403 6.40986L51.506 0L54.2369 6.40986L60.3837 7.30341L55.9033 11.6437L56.9336 17.9902L51.506 15.0969Z" fill="#FDBF00"></path><path d="M12.9579 46.7051C9.09264 46.7051 5.94922 43.499 5.94922 39.5566C5.94922 35.6143 9.09264 32.2891 12.9579 32.2891C16.8232 32.2891 19.9666 35.6143 19.9666 39.5566C19.9666 43.499 16.8232 46.7051 12.9579 46.7051Z" fill="#FFBD86"></path><path d="M12.9582 46.7031C6.1845 46.7031 0.576172 52.3041 0.576172 59.2129V61H18.2147L22.5614 55.6387L20.0887 49.0696C18.076 47.5944 15.6257 46.7031 12.9582 46.7031Z" fill="#84ECF7"></path><path d="M35.9112 17.9902L30.4795 15.095V0L33.2132 6.40986L39.2404 7.30341L34.8599 11.6278L35.9112 17.9902Z" fill="#FDBF00"></path><path d="M30.4794 28.7109C26.6246 28.7109 23.4707 31.9277 23.4707 35.8594C23.4707 39.791 26.6246 43.127 30.4794 43.127C34.3342 43.127 37.4881 39.791 37.4881 35.8594C37.4881 31.9277 34.3342 28.7109 30.4794 28.7109Z" fill="#FED2A4"></path><path d="M42.7453 55.6348V60.9961H18.2148V55.6348C18.2148 53.2045 18.9157 50.9883 20.0724 49.0583C22.2448 45.5194 26.0996 43.125 30.4801 43.125C34.8605 43.125 38.7153 45.5194 40.8877 49.0583C42.0444 50.9883 42.7453 53.2045 42.7453 55.6348Z" fill="#FF637B"></path><path d="M30.4805 43.127V28.7109C34.3353 28.7109 37.4892 31.9277 37.4892 35.8594C37.4892 39.791 34.3353 43.127 30.4805 43.127Z" fill="#F6A96C"></path><path d="M42.7457 55.6348V60.9961H30.4805V43.125C34.8609 43.125 38.7157 45.5194 40.8881 49.0583C42.0448 50.9883 42.7457 53.2045 42.7457 55.6348Z" fill="#E63950"></path></g><defs><clipPath id="clip0_67_251"><rect width="59.8075" height="61" fill="white" transform="translate(0.576172)"></rect></clipPath></defs></svg>