<svg xmlns="http://www.w3.org/2000/svg" width="62" height="61" viewBox="0 0 62 61" fill="none"><g clip-path="url(#clip0_67_295)"><path d="M54.7626 40.7354C53.1112 45.179 50.6136 49.0427 47.3383 52.218C43.6103 55.8323 38.7286 58.7042 32.8287 60.7529C32.6351 60.8199 32.4331 60.8748 32.2301 60.9153C31.962 60.9679 31.6892 60.9963 31.4187 61H31.3657C31.0774 61 30.7877 60.9712 30.5004 60.9153C30.2974 60.8748 30.0982 60.8199 29.9055 60.7543C23.9987 58.7089 19.1109 55.8383 15.379 52.2241C12.1024 49.0487 9.6053 45.1874 7.95619 40.7438C4.95752 32.6645 5.12815 23.7644 5.26549 16.6122L5.26784 16.5024C5.29549 15.9118 5.31331 15.2914 5.32315 14.6063C5.37331 11.2429 8.06682 8.46036 11.455 8.2728C18.5193 7.88141 23.9841 5.594 28.6535 1.07549L28.6943 1.03826C29.4696 0.332258 30.4465 -0.0139944 31.4187 0.000432827C32.3562 0.0125331 33.29 0.35832 34.0377 1.03826L34.0775 1.07549C38.7478 5.594 44.2126 7.88141 51.2769 8.2728C54.6651 8.46036 57.3586 11.2429 57.4088 14.6063C57.4186 15.2961 57.4364 15.9155 57.4641 16.5024L57.4655 16.5489C57.6024 23.7146 57.7721 32.6324 54.7626 40.7354Z" fill="#00DD80"></path><path d="M54.7629 40.735C53.1114 45.1785 50.6138 49.0422 47.3386 52.2176C43.6105 55.8319 38.7288 58.7038 32.829 60.7525C32.6354 60.8195 32.4333 60.8744 32.2304 60.9149C31.9622 60.9675 31.6894 60.9959 31.4189 60.9996V0C32.3565 0.0121003 33.2902 0.357887 34.0379 1.03783L34.0778 1.07506C38.748 5.59356 44.2129 7.88097 51.2771 8.27237C54.6654 8.45992 57.3589 11.2425 57.409 14.6059C57.4189 15.2956 57.4367 15.9151 57.4643 16.5019L57.4657 16.5485C57.6026 23.7141 57.7723 32.632 54.7629 40.735Z" fill="#00AA63"></path><path d="M46.6774 30.4994C46.6774 38.8639 39.8368 45.6726 31.4187 45.7024H31.3648C22.9219 45.7024 16.0518 38.8821 16.0518 30.4994C16.0518 22.1172 22.9219 15.2969 31.3648 15.2969H31.4187C39.8368 15.3267 46.6774 22.1354 46.6774 30.4994Z" fill="white"></path><path d="M46.6776 30.4994C46.6776 38.8639 39.837 45.6726 31.4189 45.7024V15.2969C39.837 15.3267 46.6776 22.1354 46.6776 30.4994Z" fill="#E1EBF0"></path><path d="M38.3147 28.3132L31.4183 35.161L29.9281 36.6405C29.5761 36.99 29.1143 37.1646 28.6531 37.1646C28.1913 37.1646 27.7301 36.99 27.3776 36.6405L24.1736 33.4582C23.4695 32.7591 23.4695 31.6268 24.1736 30.9274C24.8767 30.2283 26.0186 30.2283 26.7227 30.9274L28.6531 32.8438L35.7656 25.7824C36.4697 25.0829 37.6116 25.0829 38.3147 25.7824C39.0188 26.4814 39.0188 27.6151 38.3147 28.3132Z" fill="#B4D2D7"></path><path d="M38.3154 28.3132L31.4189 35.161V30.098L35.7663 25.7824C36.4703 25.0829 37.6122 25.0829 38.3154 25.7824C39.0195 26.4814 39.0195 27.6151 38.3154 28.3132Z" fill="#6FA5AA"></path></g><defs><clipPath id="clip0_67_295"><rect width="61.4416" height="61" fill="white" transform="translate(0.524414)"></rect></clipPath></defs></svg>