<svg xmlns="http://www.w3.org/2000/svg" width="66" height="65" viewBox="0 0 66 65" fill="none"><g clip-path="url(#clip0_67_273)"><path d="M34.674 45.3201L36.581 49.6136L34.674 53.6787L28.8418 53.9072V46.2646L34.674 45.3201Z" fill="#FFBDA9"></path><path d="M56.4924 41.5167C56.4924 42.6986 55.9374 43.8653 54.8978 44.6092L47.8648 53.0186L34.6748 53.68V45.3215L43.1898 43.5543L50.4197 38.4254C52.1409 37.199 54.5372 37.59 55.7724 39.2988C56.2584 39.9716 56.4924 40.7473 56.4924 41.5167Z" fill="#FFA68C"></path><path d="M65.4429 6.64754L45.9108 21.6975L16.3658 28.6586C16.1395 28.1876 16.0973 27.629 16.3082 27.1326C20.762 16.0497 27.2541 8.5531 35.6028 4.84736C36.1706 4.57441 36.8611 4.60615 37.4058 4.92099L39.2842 6.01786L39.6116 4.49189C39.7625 3.78096 40.3417 3.19443 41.0565 3.0332C53.2517 0.237707 64.1029 5.51513 64.5594 5.7411C64.9622 5.94042 65.2665 6.26415 65.4429 6.64754Z" fill="#F2E6E9"></path><path d="M65.5559 7.93676C65.4242 8.42553 62.2121 19.9909 52.0207 27.2044C51.4274 27.6309 50.5987 27.6728 49.9632 27.311L48.595 26.5442L48.1769 28.6669C48.0618 29.2635 47.6462 29.784 47.0899 30.0341C43.0645 31.8559 38.6568 32.7674 33.9 32.7674C28.803 32.7674 23.3045 31.7213 17.4416 29.6304C16.9583 29.4679 16.5798 29.1023 16.3662 28.6592L65.4434 6.64819C65.6275 7.04048 65.6748 7.4937 65.5559 7.93676Z" fill="#D9B9C3"></path><path d="M53.9048 11.8231L49.4234 15.0048L14.9854 30.397L11.3171 30.9245C10.8811 29.966 11.3094 28.8374 12.2749 28.4045L51.3665 10.8724C52.332 10.4393 53.4687 10.8646 53.9048 11.8231Z" fill="#D9B9C3"></path><path d="M52.946 14.3401L13.8556 31.8722C13.5986 31.9878 13.3301 32.0424 13.0667 32.0424C12.3352 32.0424 11.6383 31.6259 11.3174 30.9214L53.9051 11.8201C54.3411 12.7786 53.9114 13.9072 52.946 14.3401Z" fill="#BF8F9F"></path><path d="M29.8831 48.1154C29.5366 48.4608 29.3218 48.9368 29.3218 49.4624C29.3218 50.5136 30.1811 51.3667 31.2398 51.3667H34.6745L38.3898 56.0626L34.6745 62.7773C31.109 62.8393 27.596 61.9088 24.515 60.1265C21.7453 58.5281 17.6649 56.7673 12.9375 56.6048V39.1576C16.5294 38.9799 19.8541 38.095 22.0752 37.3549C25.3117 36.2771 28.8589 36.465 31.9086 37.9859C32.9968 38.5292 33.9571 39.1868 34.6745 39.9409L37.2847 42.9963L34.6745 47.5581H31.2398C30.7105 47.5581 30.2309 47.7714 29.8831 48.1154Z" fill="#FFCCBD"></path><path d="M13.577 38.8337V57.4958C13.577 58.547 12.7189 59.4001 11.6589 59.4001H2.06847C1.00969 59.4001 0.150391 58.547 0.150391 57.4958V38.8337C0.150391 37.7826 1.00969 36.9294 2.06847 36.9294H11.6589C12.7189 36.9294 13.577 37.7826 13.577 38.8337Z" fill="#66CCFF"></path><path d="M44.2141 43.84C44.168 45.922 42.3996 47.5623 40.3025 47.5623H34.6748V39.9451H40.3792C41.0249 39.9451 41.6336 40.1038 42.1668 40.3843C42.5095 40.5621 42.8203 40.7918 43.0914 41.061C43.8049 41.7681 44.2384 42.7533 44.2141 43.84Z" fill="#FFBDA9"></path><path d="M64.0215 47.4265L55.844 53.2206C52.6664 55.4715 49.3558 57.5307 45.9301 59.388C42.5264 61.4191 38.6821 62.8162 34.6748 62.784V51.3734H40.3805C43.6463 51.3734 46.7165 50.3286 49.2088 48.5525H49.21L59.5459 41.2388C61.2684 40.0111 63.6647 40.4021 64.9012 42.1122C66.139 43.8261 65.7401 46.2014 64.0215 47.4265Z" fill="#FFBDA9"></path></g><defs><clipPath id="clip0_67_273"><rect width="65.4706" height="65" fill="white" transform="translate(0.150391)"></rect></clipPath></defs></svg>