<svg xmlns="http://www.w3.org/2000/svg" width="68" height="68" viewBox="0 0 68 68" fill="none"><path d="M8.21667 59.786L48.45 19.5526C43.35 14.4526 36.2667 11.3359 28.3333 11.3359C12.75 11.3359 0 24.0859 0 39.6693C0 47.6026 3.11667 54.686 8.21667 59.786Z" fill="#FD3C65"></path><path d="M8.2168 59.7802C13.3168 64.8802 20.4001 67.9969 28.3335 67.9969C43.9168 67.9969 56.6668 55.2469 56.6668 39.6635C56.6668 31.7302 53.5501 24.6469 48.4501 19.5469L8.2168 59.7802Z" fill="#FD003A"></path><path d="M14.45 53.5526L42.5 25.5026C38.8167 22.1026 33.7167 19.8359 28.3333 19.8359C17.2833 19.8359 8.5 28.6193 8.5 39.6693C8.5 45.0526 10.7667 50.1526 14.45 53.5526Z" fill="#F0F0F0"></path><path d="M14.4502 53.5479C18.1335 57.2312 22.9502 59.4979 28.3335 59.4979C39.3835 59.4979 48.1669 50.7146 48.1669 39.6646C48.1669 34.2812 45.9002 29.1813 42.2169 25.7812L14.4502 53.5479Z" fill="#CFD3D4"></path><path d="M20.4 47.6026L36.55 31.4526C34.2833 29.4693 31.45 28.3359 28.3333 28.3359C22.1 28.3359 17 33.4359 17 39.6693C17 42.7859 18.1333 45.6193 20.4 47.6026Z" fill="#FD3C65"></path><path d="M20.4004 47.601C22.3837 49.8677 25.2171 51.001 28.3337 51.001C34.5671 51.001 39.6671 45.901 39.6671 39.6677C39.6671 36.551 38.5337 33.7177 36.2671 31.7344L20.4004 47.601Z" fill="#FD003A"></path><path d="M26.35 41.6526L30.3167 37.6859C29.75 37.1193 29.1833 36.8359 28.3333 36.8359C26.6333 36.8359 25.5 37.9693 25.5 39.6693C25.5 40.5193 25.7833 41.0859 26.35 41.6526Z" fill="#F0F0F0"></path><path d="M26.3496 41.6464C26.9163 42.213 27.4829 42.4964 28.3329 42.4964C30.0329 42.4964 31.1663 41.363 31.1663 39.663C31.1663 38.813 30.8829 38.2464 30.3163 37.6797L26.3496 41.6464Z" fill="#CFD3D4"></path><path d="M27.2004 40.8L50.4337 17.5667C50.4337 17 49.8671 17 49.5837 17C49.3004 17 48.7337 17 48.4504 17.2833L27.2004 38.5333C26.6677 39.066 26.5856 40.1852 27.2004 40.8Z" fill="#787780"></path><path d="M27.2002 40.8037C27.7669 41.3703 28.6169 41.3703 29.1835 40.8037L50.4335 19.5536C51.0002 18.987 51.0002 18.137 50.4335 17.5703L27.2002 40.8037Z" fill="#57555C"></path><path d="M48.4503 19.55L62.0503 5.95L60.917 1.13333C60.917 0.566667 60.3503 0.283333 59.7837 0C59.217 0 58.6503 0 58.367 0.283333L48.4503 10.2C48.4503 10.4833 48.167 11.05 48.167 11.3333V18.4167C48.167 18.7 48.4503 19.2667 48.4503 19.55Z" fill="#FEDB41"></path><path d="M66.8669 7.08646L62.0502 5.95312L48.4502 19.5531C48.7335 19.5531 49.3002 19.8365 49.5835 19.8365H56.6669C56.9502 19.8365 57.5169 19.5531 57.8002 19.5531L67.7169 9.63646C68.0002 9.06979 68.0002 8.50313 68.0002 8.21979C67.7169 7.65313 67.4335 7.36979 66.8669 7.08646Z" fill="#FCBF29"></path></svg>