<svg xmlns="http://www.w3.org/2000/svg" width="22" height="22" viewBox="0 0 22 22" fill="none"><g clip-path="url(#clip0_67_2945)"><path d="M15.4009 11.0391C14.9887 10.8381 14.5681 10.665 14.1401 10.52C15.5262 9.45295 16.4245 7.75393 16.4245 5.84375C16.4245 2.62152 13.8683 0 10.7262 0C7.58415 0 5.02791 2.62152 5.02791 5.84375C5.02791 7.75603 5.92824 9.45673 7.317 10.5235C6.0446 10.9531 4.85067 11.6216 3.8057 12.503C1.88956 14.1194 0.557287 16.3739 0.0543692 18.8514C-0.103256 19.6277 0.0855843 20.425 0.572371 21.0388C1.05677 21.6497 1.77505 22 2.54298 22H12.8631C13.3259 22 13.7011 21.6153 13.7011 21.1406C13.7011 20.666 13.3259 20.2812 12.8631 20.2812H2.54298C2.18525 20.2812 1.96942 20.0765 1.87263 19.9544C1.7055 19.7437 1.64081 19.4693 1.69515 19.2017C2.56477 14.9179 6.24923 11.7886 10.5041 11.6831C10.5778 11.686 10.6518 11.6875 10.7262 11.6875C10.8013 11.6875 10.8761 11.686 10.9506 11.683C12.2545 11.7144 13.5085 12.0196 14.6814 12.5914C15.0995 12.7951 15.5993 12.6128 15.798 12.1841C15.9967 11.7555 15.819 11.2428 15.4009 11.0391ZM10.9306 9.96346C10.8626 9.96222 10.7945 9.96157 10.7262 9.96157C10.6586 9.96157 10.591 9.96226 10.5234 9.96355C8.39934 9.85488 6.70388 8.04856 6.70388 5.84375C6.70388 3.5692 8.50828 1.71875 10.7262 1.71875C12.9442 1.71875 14.7486 3.5692 14.7486 5.84375C14.7486 8.048 13.0539 9.85398 10.9306 9.96346Z" fill="url(#paint0_linear_67_2945)"></path><path d="M20.6151 17.0586H18.3106V14.6953C18.3106 14.2207 17.9355 13.8359 17.4726 13.8359C17.0098 13.8359 16.6346 14.2207 16.6346 14.6953V17.0586H14.3302C13.8674 17.0586 13.4922 17.4433 13.4922 17.918C13.4922 18.3926 13.8674 18.7773 14.3302 18.7773H16.6346V21.1406C16.6346 21.6153 17.0098 22 17.4726 22C17.9355 22 18.3106 21.6153 18.3106 21.1406V18.7773H20.6151C21.0779 18.7773 21.4531 18.3926 21.4531 17.918C21.4531 17.4433 21.0779 17.0586 20.6151 17.0586Z" fill="url(#paint1_linear_67_2945)"></path></g><defs><linearGradient id="paint0_linear_67_2945" x1="8.21227" y1="0" x2="8.21227" y2="22" gradientUnits="userSpaceOnUse"><stop stop-color="#C45DFF"></stop><stop offset="1" stop-color="#FF58A9"></stop></linearGradient><linearGradient id="paint1_linear_67_2945" x1="17.4726" y1="13.8359" x2="17.4726" y2="22" gradientUnits="userSpaceOnUse"><stop stop-color="#C45DFF"></stop><stop offset="1" stop-color="#FF58A9"></stop></linearGradient><clipPath id="clip0_67_2945"><rect width="21.4525" height="22" fill="white"></rect></clipPath></defs></svg>