<svg xmlns="http://www.w3.org/2000/svg" width="20" height="20" viewBox="0 0 20 20" fill="none"><g clip-path="url(#clip0_1_7348)"><path d="M12.1366 1.94051L19.6366 2.91469C19.8457 2.94168 20.0017 3.12055 20 3.33137V9.16469C20 9.39481 19.8134 9.58137 19.5833 9.58137H12.0833C11.8532 9.58137 11.6666 9.39481 11.6666 9.16469V2.35301C11.6668 2.23333 11.7184 2.1195 11.8083 2.04051C11.8989 1.96262 12.018 1.92633 12.1366 1.94051Z" fill="#F44336"></path><path d="M0.14135 0.521187C0.230647 0.440718 0.350334 0.402749 0.46967 0.417007L10.4697 1.72119C10.6787 1.74818 10.8348 1.92705 10.833 2.13787V9.16705C10.833 9.39717 10.6464 9.58373 10.4163 9.58373H0.416311C0.186193 9.58373 -0.000370026 9.39717 -0.000370026 9.16705V0.833687C-0.000174522 0.713999 0.0514669 0.600171 0.14135 0.521187Z" fill="#4CAF50"></path><path d="M12.0833 10.4141H19.5833C19.8134 10.4141 20 10.6006 20 10.8307V16.6641C20.0017 16.8749 19.8457 17.0537 19.6367 17.0807L12.1367 18.0591C12.1189 18.0603 12.1011 18.0603 12.0833 18.0591C11.8532 18.0591 11.6667 17.8725 11.6667 17.6424V10.8307C11.6666 10.6006 11.8532 10.4141 12.0833 10.4141Z" fill="#2196F3"></path><path d="M0.41631 10.4141H10.4163C10.6464 10.4141 10.833 10.6006 10.833 10.8307V17.8599C10.8347 18.0707 10.6787 18.2496 10.4697 18.2766L0.46967 19.5808C0.451898 19.582 0.434084 19.582 0.416349 19.5808C0.186233 19.5808 -0.000329971 19.3942 -0.000329971 19.1641V10.8307C-0.000329971 10.6006 0.186193 10.4141 0.41631 10.4141Z" fill="#FFC107"></path></g><defs><clipPath id="clip0_1_7348"><rect width="20" height="20" fill="white" transform="matrix(-1 0 0 1 20 0)"></rect></clipPath></defs></svg>