<svg xmlns="http://www.w3.org/2000/svg" width="52" height="54" viewBox="0 0 52 54" fill="none"><g clip-path="url(#clip0_168_522)"><path d="M5.03418 52.9177L8.76944 53.8318L12.5046 52.9177V51.0859L8.76944 50.1719L5.03418 51.0859V52.9177Z" fill="#F9CF58"></path><path d="M16.5212 52.9177L20.2565 53.8318L23.9918 52.9177V51.0859L20.2565 50.1719L16.5212 51.0859V52.9177Z" fill="#FFAC3E"></path><path d="M28.0083 52.9177L31.7436 53.8318L35.4788 52.9177V51.0859L31.7436 50.1719L28.0083 51.0859V52.9177Z" fill="#82D361"></path><path d="M39.4954 52.9177L43.2306 53.8318L46.9659 52.9177V51.0859L43.2306 50.1719L39.4954 51.0859V52.9177Z" fill="#6CC4FF"></path><path d="M12.5046 51.0877H5.03418V43.6973C5.03418 43.1353 5.48979 42.6797 6.05184 42.6797H11.4872C12.0492 42.6797 12.5048 43.1353 12.5048 43.6973V51.0877H12.5046Z" fill="#FFE27A"></path><path d="M23.9918 51.0873H16.5212V38.1427C16.5212 37.5806 16.9769 37.125 17.5389 37.125H22.9741C23.5362 37.125 23.9918 37.5806 23.9918 38.1427V51.0873Z" fill="#FFBA57"></path><path d="M35.4788 51.087H28.0083V32.588C28.0083 32.0259 28.4639 31.5703 29.026 31.5703H34.4613C35.0233 31.5703 35.4789 32.0259 35.4789 32.588V51.087H35.4788Z" fill="#98DB7C"></path><path d="M46.9659 51.0866H39.4954V27.0333C39.4954 26.4712 39.951 26.0156 40.513 26.0156H45.9483C46.5104 26.0156 46.966 26.4712 46.966 27.0333V51.0866H46.9659Z" fill="#8BCAFF"></path><path d="M42.8548 16.9506L41.9584 8.02072C41.9272 7.71004 41.626 7.50042 41.3239 7.57913L32.6325 9.84275C32.2118 9.95234 32.1134 10.5047 32.4703 10.7529L34.7407 12.3314C34.7407 12.3314 28.9178 23.687 7.87915 30.1797V30.7473C13.6517 30.7788 28.7415 29.1279 38.2056 16.4104L39.7866 15.8398L42.0581 17.4191C42.4148 17.6671 42.8982 17.3829 42.8548 16.9506Z" fill="#FF4755"></path><path d="M38.8753 15.1945C38.6488 15.0346 38.3374 15.0864 38.1719 15.3088C28.7078 28.0263 16.5661 29.6279 8.22355 30.2074C8.10066 30.2159 7.98823 30.2036 7.88565 30.1762L7.87824 30.1786C6.80218 30.518 7.10362 32.1171 8.22924 32.0388C16.6595 31.4523 30.5754 28.4416 39.7866 15.8383L38.8753 15.1945Z" fill="#FC2B3A"></path><path d="M51.2368 54.4484H0.763242C0.341758 54.4484 0 54.1066 0 53.6851C0 53.2636 0.341656 52.9219 0.763242 52.9219H51.2369C51.6584 52.9219 52.0001 53.2636 52.0001 53.6851C52 54.1066 51.6583 54.4484 51.2368 54.4484Z" fill="#407093"></path></g><defs><clipPath id="clip0_168_522"><rect width="52" height="53.3448" fill="white" transform="translate(0 0.117188)"></rect></clipPath></defs></svg>