<svg xmlns="http://www.w3.org/2000/svg" width="55" height="56" viewBox="0 0 55 56" fill="none"><g clip-path="url(#clip0_168_539)"><path d="M35.6174 3.17969H19.3825C15.3579 3.17969 11.6389 5.32684 9.62659 8.81225L1.50925 22.8721C-0.503084 26.3575 -0.503084 30.6518 1.50925 34.1372L9.62669 48.197C11.639 51.6824 15.358 53.8295 19.3826 53.8295H35.6175C39.6422 53.8295 43.3611 51.6824 45.3735 48.197L53.4909 34.1372C55.5033 30.6518 55.5033 26.3575 53.4909 22.8721L45.3733 8.81225C43.361 5.32684 39.6421 3.17969 35.6174 3.17969Z" fill="#F9F7F8"></path><path d="M22.7736 53.8286H19.3828C15.3579 53.8286 11.6396 51.6818 9.62664 48.1969L1.50942 34.137C-0.502488 30.651 -0.502488 26.3573 1.50942 22.8713L9.62664 8.81139C11.6396 5.32662 15.3579 3.17969 19.3828 3.17969H22.7736C18.7487 3.17969 15.0304 5.32651 13.0174 8.81139L4.90019 22.8713C2.88828 26.3573 2.88828 30.651 4.90019 34.137L13.0174 48.1969C15.0304 51.6818 18.7487 53.8286 22.7736 53.8286Z" fill="#DEDBEE"></path><path d="M19.3825 49.406C16.9471 49.406 14.6777 48.0958 13.4601 45.9868L5.34274 31.927C4.12501 29.8179 4.12501 27.1975 5.34274 25.0884L13.4602 11.0286C14.6778 8.9196 16.9472 7.60938 19.3826 7.60938H35.6173C38.0527 7.60938 40.3221 8.9196 41.5397 11.0286L49.6572 25.0884C50.8749 27.1975 50.8749 29.8179 49.6572 31.927L41.5397 45.9868C40.3221 48.0958 38.0527 49.406 35.6173 49.406H19.3825Z" fill="#FE646F"></path><path d="M22.2092 49.405H19.3828C16.9482 49.405 14.6785 48.0948 13.4612 45.9866L5.34291 31.9267C4.12561 29.8175 4.12561 27.1969 5.34291 25.0877L13.4612 11.0278C14.6785 8.9196 16.9482 7.60938 19.3828 7.60938H22.2092C19.7735 7.60938 17.5049 8.9196 16.2864 11.0278L8.16918 25.0876C6.95188 27.1968 6.95188 29.8174 8.16918 31.9266L16.2864 45.9865C17.5049 48.0948 19.7735 49.405 22.2092 49.405Z" fill="#FD4755"></path><path d="M37.4879 17.5661C36.749 17.5469 36.0782 17.8384 35.5974 18.3199C35.1309 18.7857 34.8427 19.4298 34.8427 20.1414V16.2748C34.8427 14.8521 33.6892 13.6985 32.2664 13.6985C30.8437 13.6985 29.6901 14.852 29.6901 16.2748V15.0529C29.6901 13.6302 28.5372 12.4766 27.1145 12.4766C25.6911 12.4766 24.5382 13.6301 24.5382 15.0529V16.4919C24.5382 15.7802 24.25 15.1361 23.7835 14.6703C23.317 14.2038 22.673 13.9156 21.9619 13.9156C20.5392 13.9156 19.3856 15.0691 19.3856 16.4919L19.3859 33.3917L16.6468 30.6527C15.4684 29.4743 13.5583 29.4743 12.3799 30.6527C11.7907 31.2419 11.4956 32.0147 11.4956 32.7866C11.4956 33.5584 11.7907 34.3313 12.3799 34.9205L18.8173 41.357C20.3666 42.9063 22.4154 43.6501 24.4443 43.5883H24.4471L24.4446 43.5879H32.3656C36.5792 43.5879 39.995 40.1721 39.995 35.9586V20.1832C39.9953 18.7802 38.8904 17.6026 37.4879 17.5661Z" fill="#FFDFCF"></path><path d="M22.8383 14.0663C22.4783 14.1968 22.157 14.4035 21.8924 14.6681C21.4258 15.1347 21.1373 15.7785 21.1373 16.4905V33.8523C20.7933 33.9034 20.4526 33.9965 20.1268 34.1305L19.3865 33.3902V16.4905C19.3865 15.7785 19.6737 15.1347 20.1405 14.6681C20.606 14.2025 21.251 13.9141 21.9618 13.9141C22.2704 13.9142 22.5646 13.9675 22.8383 14.0663Z" fill="#FFCEBF"></path><path d="M27.9913 12.6289C27.6313 12.7594 27.31 12.9661 27.0455 13.2307C26.5788 13.6973 26.2904 14.3411 26.2904 15.0531L26.2903 26.3938C26.2902 27.1489 25.6781 27.761 24.923 27.761H24.5393L24.5395 15.053C24.5395 14.341 24.8268 13.6972 25.2935 13.2306C25.7591 12.765 26.404 12.4766 27.1149 12.4766C27.4235 12.4767 27.7176 12.5301 27.9913 12.6289Z" fill="#FFCEBF"></path><path d="M33.1422 13.8475C32.7822 13.978 32.4609 14.1847 32.1963 14.4493C31.7297 14.9159 31.4413 15.5597 31.4413 16.2717L31.4412 26.3907C31.4411 27.1458 30.829 27.7579 30.0739 27.7579H29.6902L29.6904 16.2717C29.6904 15.5597 29.9776 14.9159 30.4444 14.4493C30.91 13.9837 31.5549 13.6953 32.2657 13.6953C32.5745 13.6954 32.8685 13.7487 33.1422 13.8475Z" fill="#FFCEBF"></path><path d="M38.2945 17.7147C37.9346 17.8452 37.6133 18.0519 37.3487 18.3165C36.882 18.7831 36.5936 19.4269 36.5936 20.1389L36.5935 27.3369C36.5934 28.092 35.9813 28.7041 35.2262 28.7041H34.8425L34.8427 20.1389C34.8427 19.4269 35.13 18.7831 35.5967 18.3165C36.0623 17.8509 36.7073 17.5625 37.4181 17.5625C37.7268 17.5625 38.0208 17.6159 38.2945 17.7147Z" fill="#FFCEBF"></path><path d="M24.3847 43.5858C22.3749 43.6312 20.3515 42.8874 18.8175 41.3534L12.3806 34.9165C11.7913 34.3272 11.4961 33.5551 11.4961 32.783C11.4961 32.0108 11.7913 31.2376 12.3806 30.6483C13.2833 29.7456 14.6164 29.5355 15.72 30.017C15.3828 30.1623 15.0671 30.3735 14.7913 30.6495C14.2019 31.2388 13.9067 32.0109 13.9067 32.783C13.9067 33.5551 14.2019 34.3272 14.7913 34.9165L21.2282 41.3534C22.1421 42.2663 23.2299 43.0827 24.3847 43.5858Z" fill="#FFCEBF"></path></g><defs><clipPath id="clip0_168_539"><rect width="55" height="56" fill="white"></rect></clipPath></defs></svg>