<svg xmlns="http://www.w3.org/2000/svg" width="52" height="51" viewBox="0 0 52 51" fill="none"><path d="M20.8781 31.5975C20.8781 31.3297 20.6603 31.1119 20.3924 31.1119H7.7745C7.25111 29.3514 6.96875 27.4872 6.96875 25.5566L8.27393 25.4375H26.5525V43.7415L26.4333 45.0214C24.5028 45.0214 22.6386 44.739 20.8781 44.2156V31.5975Z" fill="#FD4755"></path><path d="M26.4333 25.5547V45.0194C25.0445 45.0194 23.69 44.8729 22.3835 44.5963V25.5547H26.4333Z" fill="#FB2B3A"></path><path d="M8.44194 7.56162C13.2476 2.75596 19.6371 0.109375 26.4334 0.109375C28.3964 0.109375 30.3251 0.331572 32.1919 0.761431V2.60668C30.3478 2.1437 28.4191 1.89648 26.4334 1.89648C13.3891 1.89648 2.77681 12.5088 2.77681 25.553C2.77681 26.0465 2.37685 26.4466 1.88325 26.4466C1.38965 26.4466 0.989697 26.0465 0.989697 25.553C0.989697 18.7567 3.63628 12.3673 8.44194 7.56162V7.56162Z" fill="#C8EFFE"></path><path d="M26.4333 49.2065C39.4775 49.2065 50.0898 38.5943 50.0898 25.55C50.0898 24.322 49.9956 23.1156 49.8144 21.9375H51.6226C51.7902 23.1241 51.877 24.3303 51.877 25.55C51.877 32.3462 49.2304 38.7356 44.4247 43.5413C39.6191 48.347 33.2296 50.9936 26.4333 50.9936C25.9397 50.9936 25.5397 50.5936 25.5397 50.1001C25.5397 49.6066 25.9397 49.2065 26.4333 49.2065V49.2065Z" fill="#C8EFFE"></path><path d="M26.5525 25.5507H6.96863C6.96863 14.8006 15.6833 6.08594 26.4333 6.08594L26.5525 6.87274V25.5507Z" fill="#8BC727"></path><path d="M26.4333 6.08594V25.5507H22.3835V6.50913C23.69 6.2326 25.0445 6.08594 26.4333 6.08594Z" fill="#81B823"></path><path d="M32.1918 6.95221V21.4526C32.1918 21.7204 32.4096 21.9382 32.6774 21.9382H45.562C45.7817 23.1089 45.8979 24.3161 45.8979 25.5507C45.8979 36.3007 37.1833 45.0154 26.4332 45.0154V6.08594C28.438 6.08594 30.3719 6.38939 32.1918 6.95221Z" fill="#FAC600"></path><path d="M41.8577 25.55C41.8577 24.3154 41.7416 23.1082 41.5219 21.9375H45.562C45.7817 23.1082 45.8979 24.3154 45.8979 25.55C45.8979 36.3 37.1833 45.0147 26.4332 45.0147V44.5937C35.2442 42.7335 41.8577 34.9147 41.8577 25.55V25.55Z" fill="#E8B800"></path><path d="M32.1919 6.95221V8.73003C30.4298 7.70137 28.4916 6.94161 26.4334 6.50698V6.08594C28.4381 6.08594 30.372 6.38939 32.1919 6.95221Z" fill="#E8B800"></path><path d="M20.3737 50.4471C10.1192 50.1245 1.86487 41.8702 1.54224 31.6157C1.53151 31.2746 1.80649 30.9922 2.14771 30.9922H20.3923C20.7264 30.9922 20.9971 31.263 20.9971 31.5969V49.8415C20.9971 50.1828 20.7147 50.4579 20.3737 50.4471V50.4471Z" fill="#01D0FB"></path><path d="M17.1917 49.8415V31.5969C17.1917 31.2629 16.9209 30.9922 16.587 30.9922H20.3923C20.7264 30.9922 20.9971 31.263 20.9971 31.5969V49.8415C20.9971 50.1828 20.7147 50.4577 20.3737 50.447C19.2717 50.4124 18.1929 50.2855 17.1444 50.0749C17.1744 50.0031 17.1917 49.9245 17.1917 49.8415V49.8415Z" fill="#01C0FA"></path><path d="M39.6899 28.3027H31.4648C30.9712 28.3027 30.5713 27.9027 30.5713 27.4092C30.5713 26.9157 30.9712 26.5156 31.4648 26.5156H39.6899C40.1835 26.5156 40.5835 26.9157 40.5835 27.4092C40.5835 27.9027 40.1834 28.3027 39.6899 28.3027Z" fill="white"></path><path d="M31.4648 29.7812H39.6899C40.1835 29.7812 40.5835 30.1813 40.5835 30.6748C40.5835 31.1683 40.1835 31.5684 39.6899 31.5684H31.4648C30.9712 31.5684 30.5713 31.1683 30.5713 30.6748C30.5713 30.1813 30.9713 29.7812 31.4648 29.7812Z" fill="white"></path><path d="M31.4646 33.0469H35.8191C36.3127 33.0469 36.7126 33.4469 36.7126 33.9404C36.7126 34.4339 36.3127 34.834 35.8191 34.834H31.4646C30.971 34.834 30.5711 34.4339 30.5711 33.9404C30.5711 33.4469 30.9711 33.0469 31.4646 33.0469Z" fill="white"></path></svg>