<svg xmlns="http://www.w3.org/2000/svg" width="53" height="55" viewBox="0 0 53 55" fill="none"><g clip-path="url(#clip0_168_1149)"><path d="M26.5 29.8516C24.327 29.8516 22.2989 29.2396 20.559 28.1953H3.3125V54.6953H49.6875V28.1953H32.441C30.7011 29.2396 28.673 29.8516 26.5 29.8516Z" fill="#F0F0F0"></path><path d="M15.3948 21.5703H3.3125V28.1953H20.559C18.102 26.7204 16.2313 24.3702 15.3948 21.5703Z" fill="#22C0FF"></path><path d="M37.6052 21.5703C36.7688 24.3702 34.8981 26.7204 32.4402 28.1953H49.6875V21.5703H37.6052Z" fill="#22C0FF"></path><path d="M26.5 31.5078H43.0625V33.1641H26.5V31.5078Z" fill="#D2D2D2"></path><path d="M26.5 34.8203H39.75V36.4766H26.5V34.8203Z" fill="#D2D2D2"></path><path d="M26.5 38.1328H33.125V39.7891H26.5V38.1328Z" fill="#D2D2D2"></path><path d="M3.3125 28.1953H6.625V54.6953H3.3125V28.1953Z" fill="#D2D2D2"></path><path d="M3.3125 21.5703H6.625V28.1953H3.3125V21.5703Z" fill="#46AAD2"></path><path d="M6.625 24.8828H8.28125V26.5391H6.625V24.8828Z" fill="#505050"></path><path d="M9.9375 24.8828H11.5938V26.5391H9.9375V24.8828Z" fill="#505050"></path><path d="M13.25 24.8828H14.9062V26.5391H13.25V24.8828Z" fill="#505050"></path><path d="M16.5625 44.7578C12.9038 44.7578 9.9375 41.7915 9.9375 38.1328C9.9375 34.4742 12.9038 31.5078 16.5625 31.5078C20.2212 31.5078 23.1875 34.4742 23.1875 38.1328C23.1875 41.7915 20.2212 44.7578 16.5625 44.7578Z" fill="#FA6450"></path><path d="M21.7325 42.2693L16.5625 38.1328H9.9375C9.9375 41.7915 12.9038 44.7578 16.5625 44.7578C18.6552 44.7578 20.5185 43.7848 21.7325 42.2693Z" fill="#22C0FF"></path><path d="M21.7325 42.2689C22.6409 41.1344 23.1875 39.6984 23.1875 38.1324C23.1875 37.0675 22.93 36.0638 22.4828 35.1719L16.5625 38.1324L21.7325 42.2689Z" fill="#FAB400"></path><path d="M26.5 41.4453H29.8125V49.7266H26.5V41.4453Z" fill="#FA6450"></path><path d="M31.4688 43.1016H34.7812V49.7266H31.4688V43.1016Z" fill="#64C8F0"></path><path d="M36.4375 46.4141H39.75V49.7266H36.4375V46.4141Z" fill="#FAB400"></path><path d="M12.4219 48.0703H14.0781V49.7266H12.4219V48.0703Z" fill="#D2D2D2"></path><path d="M15.7344 48.0703H17.3906V49.7266H15.7344V48.0703Z" fill="#D2D2D2"></path><path d="M19.0469 48.0703H20.7031V49.7266H19.0469V48.0703Z" fill="#D2D2D2"></path><path d="M26.5 28.1953C21.012 28.1953 16.5625 23.7458 16.5625 18.2578C16.5625 12.7698 21.012 8.32031 26.5 8.32031C31.988 8.32031 36.4375 12.7698 36.4375 18.2578C36.4375 23.7458 31.988 28.1953 26.5 28.1953Z" fill="#FA6450"></path><path d="M18.2188 18.2578C18.2188 13.0489 22.2285 8.78406 27.3281 8.36172C27.054 8.33936 26.7799 8.32031 26.5 8.32031C21.012 8.32031 16.5625 12.7698 16.5625 18.2578C16.5625 23.7458 21.012 28.1953 26.5 28.1953C26.7799 28.1953 27.054 28.1763 27.3281 28.1539C22.2285 27.7316 18.2188 23.4667 18.2188 18.2578Z" fill="#DC4632"></path><path d="M26.5 24.8828C22.8413 24.8828 19.875 21.9165 19.875 18.2578C19.875 14.5992 22.8413 11.6328 26.5 11.6328C30.1587 11.6328 33.125 14.5992 33.125 18.2578C33.125 21.9165 30.1587 24.8828 26.5 24.8828Z" fill="#F0F0F0"></path><path d="M26.5 13.2891C23.7597 13.2891 21.5312 15.5175 21.5312 18.2578H23.1875C23.1875 16.431 24.6732 14.9453 26.5 14.9453C28.3268 14.9453 29.8125 16.431 29.8125 18.2578H31.4688C31.4688 15.5175 29.2403 13.2891 26.5 13.2891Z" fill="#64C8F0"></path><path d="M26.5 13.2891V14.9453C28.3268 14.9453 29.8125 16.431 29.8125 18.2578H31.4688C31.4688 15.5175 29.2403 13.2891 26.5 13.2891Z" fill="#3CC8B4"></path><path d="M26.5 19.9141C27.4147 19.9141 28.1562 19.1725 28.1562 18.2578C28.1562 17.3431 27.4147 16.6016 26.5 16.6016C25.5853 16.6016 24.8438 17.3431 24.8438 18.2578C24.8438 19.1725 25.5853 19.9141 26.5 19.9141Z" fill="#505050"></path><path d="M26.4999 18.6719C26.3475 18.6719 26.2018 18.5874 26.1289 18.4433C26.0262 18.2388 26.1098 17.9904 26.3144 17.8877L29.6269 16.2314C29.8314 16.1287 30.0799 16.2124 30.1826 16.4169C30.2844 16.6215 30.2016 16.8699 29.9971 16.9726L26.6846 18.6288C26.6258 18.6578 26.5628 18.6719 26.4999 18.6719Z" fill="#505050"></path></g><defs><clipPath id="clip0_168_1149"><rect width="53" height="54.3707" fill="white" transform="translate(0 0.117188)"></rect></clipPath></defs></svg>