<svg xmlns="http://www.w3.org/2000/svg" width="48" height="48" viewBox="0 0 48 48" fill="none"><g clip-path="url(#clip0_266_166)"><path d="M46.9995 39.9039H32.2251C31.9427 39.9039 31.7137 39.675 31.7137 39.3925V37.027C31.7137 36.7445 31.9426 36.5156 32.2251 36.5156H46.9995C47.2818 36.5156 47.5108 36.7445 47.5108 37.027V39.3925C47.5108 39.6749 47.2819 39.9039 46.9995 39.9039Z" fill="url(#paint0_linear_266_166)"></path><path d="M45.1241 39.9039H34.1007C33.8555 39.9039 33.6566 39.7051 33.6566 39.4598V36.9597C33.6566 36.7144 33.8554 36.5156 34.1007 36.5156H45.1241C45.3693 36.5156 45.5681 36.7144 45.5681 36.9597V39.4598C45.5681 39.705 45.3694 39.9039 45.1241 39.9039Z" fill="url(#paint1_linear_266_166)"></path><path d="M41.5103 39.9039H37.7143C37.5664 39.9039 37.4465 39.784 37.4465 39.6361V36.7834C37.4465 36.6355 37.5664 36.5156 37.7143 36.5156H41.5103C41.6581 36.5156 41.778 36.6355 41.778 36.7834V39.6361C41.778 39.784 41.6581 39.9039 41.5103 39.9039Z" fill="url(#paint2_linear_266_166)"></path><path d="M32.671 36.9297C32.3887 36.9297 32.1597 37.1586 32.1597 37.441V39.8066C32.1597 39.8394 32.1631 39.8714 32.169 39.9025C32.1874 39.9045 32.2062 39.9057 32.2252 39.9057H46.9995C47.2818 39.9057 47.5108 39.6768 47.5108 39.3943V37.0288C47.5108 36.9959 47.5074 36.9639 47.5015 36.9329C47.4831 36.9309 47.4643 36.9297 47.4453 36.9297H32.671Z" fill="url(#paint3_linear_266_166)"></path><path d="M46.9995 36.5132H32.2251C31.9427 36.5132 31.7137 36.2843 31.7137 36.0019V33.6363C31.7137 33.3539 31.9426 33.125 32.2251 33.125H46.9995C47.2818 33.125 47.5108 33.3539 47.5108 33.6363V36.0019C47.5108 36.2842 47.2819 36.5132 46.9995 36.5132Z" fill="url(#paint4_linear_266_166)"></path><path d="M45.1241 36.5132H34.1007C33.8555 36.5132 33.6566 36.3145 33.6566 36.0692V33.569C33.6566 33.3239 33.8554 33.125 34.1007 33.125H45.1241C45.3693 33.125 45.5681 33.3238 45.5681 33.569V36.0693C45.5681 36.3145 45.3694 36.5132 45.1241 36.5132Z" fill="url(#paint5_linear_266_166)"></path><path d="M41.5103 36.5132H37.7143C37.5664 36.5132 37.4465 36.3933 37.4465 36.2455V33.3928C37.4465 33.2449 37.5664 33.125 37.7143 33.125H41.5103C41.6581 33.125 41.778 33.2449 41.778 33.3928V36.2455C41.778 36.3933 41.6581 36.5132 41.5103 36.5132Z" fill="url(#paint6_linear_266_166)"></path><path d="M32.671 33.5391C32.3887 33.5391 32.1597 33.768 32.1597 34.0504V36.416C32.1597 36.4488 32.1631 36.4807 32.169 36.5119C32.1874 36.5139 32.2062 36.5151 32.2252 36.5151H46.9995C47.2818 36.5151 47.5108 36.2862 47.5108 36.0037V33.6382C47.5108 33.6053 47.5074 33.5734 47.5015 33.5423C47.4831 33.5402 47.4643 33.5391 47.4453 33.5391H32.671Z" fill="url(#paint7_linear_266_166)"></path><path d="M46.9995 33.1226H32.2251C31.9427 33.1226 31.7137 32.8937 31.7137 32.6113V30.2457C31.7137 29.9633 31.9426 29.7344 32.2251 29.7344H46.9995C47.2818 29.7344 47.5108 29.9633 47.5108 30.2457V32.6113C47.5108 32.8937 47.2819 33.1226 46.9995 33.1226Z" fill="url(#paint8_linear_266_166)"></path><path d="M45.1241 33.1226H34.1007C33.8555 33.1226 33.6566 32.9238 33.6566 32.6786V30.1784C33.6566 29.9332 33.8554 29.7344 34.1007 29.7344H45.1241C45.3693 29.7344 45.5681 29.9332 45.5681 30.1784V32.6786C45.5681 32.9238 45.3694 33.1226 45.1241 33.1226Z" fill="url(#paint9_linear_266_166)"></path><path d="M41.5103 33.1226H37.7143C37.5664 33.1226 37.4465 33.0027 37.4465 32.8548V30.0021C37.4465 29.8543 37.5664 29.7344 37.7143 29.7344H41.5103C41.6581 29.7344 41.778 29.8543 41.778 30.0021V32.8548C41.778 33.0027 41.6581 33.1226 41.5103 33.1226Z" fill="url(#paint10_linear_266_166)"></path><path d="M32.671 30.1484C32.3887 30.1484 32.1597 30.3773 32.1597 30.6598V33.0253C32.1597 33.0582 32.1631 33.0902 32.169 33.1212C32.1874 33.1232 32.2062 33.1244 32.2252 33.1244H46.9995C47.2818 33.1244 47.5108 32.8955 47.5108 32.6131V30.2475C47.5108 30.2147 47.5074 30.1827 47.5015 30.1516C47.4831 30.1497 47.4643 30.1484 47.4453 30.1484H32.671Z" fill="url(#paint11_linear_266_166)"></path><path d="M46.9995 29.7398H32.2251C31.9427 29.7398 31.7137 29.5109 31.7137 29.2285V26.8629C31.7137 26.5805 31.9426 26.3516 32.2251 26.3516H46.9995C47.2818 26.3516 47.5108 26.5805 47.5108 26.8629V29.2285C47.5108 29.5109 47.2819 29.7398 46.9995 29.7398Z" fill="url(#paint12_linear_266_166)"></path><path d="M45.1241 29.7398H34.1007C33.8555 29.7398 33.6566 29.541 33.6566 29.2957V26.7956C33.6566 26.5504 33.8554 26.3516 34.1007 26.3516H45.1241C45.3693 26.3516 45.5681 26.5503 45.5681 26.7956V29.2958C45.5681 29.541 45.3694 29.7398 45.1241 29.7398Z" fill="url(#paint13_linear_266_166)"></path><path d="M41.5103 29.7398H37.7143C37.5664 29.7398 37.4465 29.6199 37.4465 29.472V26.6193C37.4465 26.4715 37.5664 26.3516 37.7143 26.3516H41.5103C41.6581 26.3516 41.778 26.4715 41.778 26.6193V29.472C41.778 29.6199 41.6581 29.7398 41.5103 29.7398Z" fill="url(#paint14_linear_266_166)"></path><path d="M32.671 26.7578C32.3887 26.7578 32.1597 26.9867 32.1597 27.2692V29.6347C32.1597 29.6676 32.1631 29.6996 32.169 29.7306C32.1874 29.7327 32.2062 29.7338 32.2252 29.7338H46.9995C47.2818 29.7338 47.5108 29.5049 47.5108 29.2225V26.8569C47.5108 26.8241 47.5074 26.7922 47.5015 26.761C47.4831 26.7589 47.4643 26.7578 47.4453 26.7578H32.671Z" fill="url(#paint15_linear_266_166)"></path><path d="M46.9995 26.3492H32.2251C31.9427 26.3492 31.7137 26.1203 31.7137 25.8378V23.4723C31.7137 23.1898 31.9426 22.9609 32.2251 22.9609H46.9995C47.2818 22.9609 47.5108 23.1898 47.5108 23.4723V25.8378C47.5108 26.1203 47.2819 26.3492 46.9995 26.3492Z" fill="url(#paint16_linear_266_166)"></path><path d="M45.1241 26.3492H34.1007C33.8555 26.3492 33.6566 26.1504 33.6566 25.9051V23.405C33.6566 23.1597 33.8554 22.9609 34.1007 22.9609H45.1241C45.3693 22.9609 45.5681 23.1597 45.5681 23.405V25.9051C45.5681 26.1504 45.3694 26.3492 45.1241 26.3492Z" fill="url(#paint17_linear_266_166)"></path><path d="M41.5103 26.3492H37.7143C37.5664 26.3492 37.4465 26.2293 37.4465 26.0814V23.2287C37.4465 23.0808 37.5664 22.9609 37.7143 22.9609H41.5103C41.6581 22.9609 41.778 23.0808 41.778 23.2287V26.0814C41.778 26.2294 41.6581 26.3492 41.5103 26.3492Z" fill="url(#paint18_linear_266_166)"></path><path d="M32.671 23.375C32.3887 23.375 32.1597 23.6039 32.1597 23.8863V26.2519C32.1597 26.2847 32.1631 26.3167 32.169 26.3478C32.1874 26.3498 32.2062 26.351 32.2252 26.351H46.9995C47.2818 26.351 47.5108 26.1221 47.5108 25.8397V23.4741C47.5108 23.4413 47.5074 23.4093 47.5015 23.3782C47.4831 23.3762 47.4643 23.375 47.4453 23.375H32.671Z" fill="url(#paint19_linear_266_166)"></path><path d="M46.9995 22.9585H32.2251C31.9427 22.9585 31.7137 22.7297 31.7137 22.4472V20.0817C31.7137 19.7992 31.9426 19.5703 32.2251 19.5703H46.9995C47.2818 19.5703 47.5108 19.7992 47.5108 20.0817V22.4472C47.5108 22.7297 47.2819 22.9585 46.9995 22.9585Z" fill="url(#paint20_linear_266_166)"></path><path d="M45.1241 22.9585H34.1007C33.8555 22.9585 33.6566 22.7598 33.6566 22.5145V20.0144C33.6566 19.7692 33.8554 19.5703 34.1007 19.5703H45.1241C45.3693 19.5703 45.5681 19.7691 45.5681 20.0144V22.5145C45.5681 22.7598 45.3694 22.9585 45.1241 22.9585Z" fill="url(#paint21_linear_266_166)"></path><path d="M41.5103 22.9585H37.7143C37.5664 22.9585 37.4465 22.8386 37.4465 22.6908V19.8381C37.4465 19.6902 37.5664 19.5703 37.7143 19.5703H41.5103C41.6581 19.5703 41.778 19.6902 41.778 19.8381V22.6908C41.778 22.8387 41.6581 22.9585 41.5103 22.9585Z" fill="url(#paint22_linear_266_166)"></path><path d="M32.671 19.9844C32.3887 19.9844 32.1597 20.2133 32.1597 20.4957V22.8613C32.1597 22.8941 32.1631 22.926 32.169 22.9572C32.1874 22.9592 32.2062 22.9604 32.2252 22.9604H46.9995C47.2818 22.9604 47.5108 22.7315 47.5108 22.449V20.0835C47.5108 20.0506 47.5074 20.0187 47.5015 19.9876C47.4831 19.9856 47.4643 19.9844 47.4453 19.9844H32.671Z" fill="url(#paint23_linear_266_166)"></path><path d="M46.9995 19.5757H32.2251C31.9427 19.5757 31.7137 19.3468 31.7137 19.0644V16.6988C31.7137 16.4164 31.9426 16.1875 32.2251 16.1875H46.9995C47.2818 16.1875 47.5108 16.4164 47.5108 16.6988V19.0644C47.5108 19.3467 47.2819 19.5757 46.9995 19.5757Z" fill="url(#paint24_linear_266_166)"></path><path d="M45.1241 19.5758H34.1007C33.8555 19.5758 33.6566 19.3771 33.6566 19.1318V16.6315C33.6566 16.3864 33.8554 16.1875 34.1007 16.1875H45.1241C45.3693 16.1875 45.5681 16.3863 45.5681 16.6315V19.1317C45.5681 19.377 45.3694 19.5758 45.1241 19.5758Z" fill="url(#paint25_linear_266_166)"></path><path d="M41.5103 19.5757H37.7143C37.5664 19.5757 37.4465 19.4558 37.4465 19.308V16.4553C37.4465 16.3074 37.5664 16.1875 37.7143 16.1875H41.5103C41.6581 16.1875 41.778 16.3074 41.778 16.4553V19.308C41.778 19.4558 41.6581 19.5757 41.5103 19.5757Z" fill="url(#paint26_linear_266_166)"></path><path d="M32.671 16.5938C32.3887 16.5938 32.1597 16.8226 32.1597 17.1051V19.4706C32.1597 19.5035 32.1631 19.5355 32.169 19.5666C32.1874 19.5685 32.2062 19.5698 32.2252 19.5698H46.9995C47.2818 19.5698 47.5108 19.3409 47.5108 19.0584V16.6929C47.5108 16.66 47.5074 16.628 47.5015 16.597C47.4831 16.595 47.4643 16.5938 47.4453 16.5938H32.671Z" fill="url(#paint27_linear_266_166)"></path><path d="M46.9995 16.1851H32.2251C31.9427 16.1851 31.7137 15.9562 31.7137 15.6738V13.3082C31.7137 13.0258 31.9426 12.7969 32.2251 12.7969H46.9995C47.2818 12.7969 47.5108 13.0258 47.5108 13.3082V15.6738C47.5108 15.9561 47.2819 16.1851 46.9995 16.1851Z" fill="url(#paint28_linear_266_166)"></path><path d="M45.1241 16.1851H34.1007C33.8555 16.1851 33.6566 15.9863 33.6566 15.7411V13.2409C33.6566 12.9957 33.8554 12.7969 34.1007 12.7969H45.1241C45.3693 12.7969 45.5681 12.9957 45.5681 13.2409V15.7411C45.5681 15.9863 45.3694 16.1851 45.1241 16.1851Z" fill="url(#paint29_linear_266_166)"></path><path d="M41.5103 16.1851H37.7143C37.5664 16.1851 37.4465 16.0652 37.4465 15.9173V13.0646C37.4465 12.9168 37.5664 12.7969 37.7143 12.7969H41.5103C41.6581 12.7969 41.778 12.9168 41.778 13.0646V15.9173C41.778 16.0652 41.6581 16.1851 41.5103 16.1851Z" fill="url(#paint30_linear_266_166)"></path><path d="M32.671 13.2109C32.3887 13.2109 32.1597 13.4398 32.1597 13.7223V16.0878C32.1597 16.1207 32.1631 16.1526 32.169 16.1837C32.1874 16.1857 32.2062 16.1869 32.2252 16.1869H46.9995C47.2818 16.1869 47.5108 15.958 47.5108 15.6756V13.31C47.5108 13.2772 47.5074 13.2452 47.5015 13.2141C47.4831 13.2122 47.4643 13.2109 47.4453 13.2109H32.671Z" fill="url(#paint31_linear_266_166)"></path><path d="M39.3123 25.1954L37.9545 18.075C36.9418 12.7639 32.298 8.92188 26.8912 8.92188H21.7972C16.3904 8.92188 11.7465 12.7639 10.7338 18.075L9.96403 22.112C9.22427 25.9915 8.04177 29.7869 6.2733 33.3183C5.75622 34.3508 5.48469 35.5274 5.53561 36.7722C5.68272 40.3737 8.85232 43.4726 12.4561 43.5431C12.4825 43.5435 12.5089 43.5439 12.5352 43.5442C14.1702 43.5583 15.7445 44.1955 16.8911 45.3611C18.1726 46.6639 19.9552 47.4719 21.9272 47.4719C24.3206 47.4719 26.4354 46.2821 27.7139 44.4619C28.1255 43.876 28.8005 43.543 29.5166 43.5444H29.529C29.8367 43.5444 30.139 43.5216 30.4344 43.4777C30.9916 43.3952 31.5553 43.5374 32.0152 43.8627C33.2592 44.7426 34.7995 45.2311 36.4577 45.1471C40.0063 44.9675 42.901 42.1269 43.1421 38.5819C43.2289 37.3064 42.9766 36.0975 42.4666 35.0357C40.97 31.9191 39.9598 28.5914 39.3123 25.1954Z" fill="url(#paint32_radial_266_166)"></path><path d="M12.5977 43.5425C16.5013 43.5425 19.6658 40.378 19.6658 36.4744C19.6658 32.5708 16.5013 29.4062 12.5977 29.4062C8.69406 29.4062 5.52954 32.5708 5.52954 36.4744C5.52954 40.378 8.69406 43.5425 12.5977 43.5425Z" fill="url(#paint33_linear_266_166)"></path><path d="M21.9273 47.4722C25.8309 47.4722 28.9954 44.3077 28.9954 40.4041C28.9954 36.5005 25.8309 33.3359 21.9273 33.3359C18.0236 33.3359 14.8591 36.5005 14.8591 40.4041C14.8591 44.3077 18.0236 47.4722 21.9273 47.4722Z" fill="url(#paint34_linear_266_166)"></path><path d="M36.0907 45.1519C39.9944 45.1519 43.1589 41.9874 43.1589 38.0838C43.1589 34.1801 39.9944 31.0156 36.0907 31.0156C32.1871 31.0156 29.0226 34.1801 29.0226 38.0838C29.0226 41.9874 32.1871 45.1519 36.0907 45.1519Z" fill="url(#paint35_linear_266_166)"></path><path d="M43.142 38.5793C43.2288 37.3038 42.9765 36.0949 42.4666 35.0331C40.9699 31.9165 39.9598 28.5888 39.3123 25.1927L37.9546 18.0723C37.5871 16.1452 36.7397 14.4131 35.5532 12.9861C33.5893 11.36 31.0754 10.3984 28.3705 10.3984H23.2764C17.8697 10.3984 13.2257 14.2405 12.213 19.5516L11.4432 23.5886C10.7035 27.4681 9.52097 31.2635 7.7525 34.7948C7.23542 35.8272 6.96389 37.0039 7.01471 38.2487C7.0726 39.6656 7.59975 41.0037 8.4357 42.1112C9.5861 42.9776 10.9847 43.5115 12.456 43.5403C12.4825 43.5407 12.5088 43.5411 12.5352 43.5414C14.1702 43.5555 15.7445 44.1927 16.8911 45.3583C18.1726 46.6611 19.9552 47.4691 21.9273 47.4691C24.3206 47.4691 26.4354 46.2793 27.7139 44.4591C28.1255 43.8732 28.8005 43.5402 29.5166 43.5416H29.5291C29.8367 43.5416 30.139 43.5188 30.4345 43.4749C30.9917 43.3924 31.5553 43.5346 32.0153 43.8599C33.2592 44.7398 34.7996 45.2283 36.4577 45.1443C40.0062 44.9649 42.901 42.1243 43.142 38.5793Z" fill="url(#paint36_linear_266_166)"></path><path d="M28.4508 17.2417C27.9391 17.0834 27.4529 16.9695 26.9923 16.8992C26.7702 16.8652 26.5458 16.8377 26.3197 16.8161C26.3178 16.815 26.316 16.814 26.3142 16.8129L25.2781 15.7398C25.0735 15.6063 24.8515 15.5391 24.6129 15.5391C24.3397 15.5391 24.1095 15.6027 23.922 15.729C23.7342 15.8557 23.6406 16.0061 23.6406 16.1795V16.8439C22.1567 17.0526 20.9327 17.6007 19.9692 18.4878C19.0052 19.3748 18.5236 20.5921 18.5236 22.1401C18.5236 22.7713 18.6344 23.3471 18.8561 23.8672C19.0777 24.3876 19.3336 24.8138 19.6239 25.1464L23.6407 29.1669V31.5555C22.9755 31.4364 22.2503 31.0993 21.466 30.5449C20.6812 29.9908 20.1267 29.7134 19.8029 29.7134C19.3424 29.7134 18.9371 29.9524 18.5875 30.4298C18.2378 30.9075 18.0631 31.3853 18.0631 31.8626C18.0631 32.4848 18.3683 33.0594 18.9777 33.587L28.9943 43.6035C29.1637 43.5639 29.339 43.5435 29.5169 43.5439H29.5293C29.8369 43.5439 30.1393 43.5211 30.4347 43.4772C30.9919 43.3947 31.5555 43.5369 32.0155 43.8622C33.2594 44.7421 34.7998 45.2305 36.4579 45.1466C40.0065 44.967 42.9012 42.1264 43.1424 38.5814C43.2291 37.3059 42.9768 36.097 42.4669 35.0352C41.4253 32.8661 40.6199 30.5947 40.0078 28.2692L29.6916 17.9534C29.3758 17.6371 28.9625 17.4001 28.4508 17.2417Z" fill="url(#paint37_linear_266_166)"></path><path d="M30.3057 27.6923C30.0921 27.1466 29.8364 26.6944 29.5381 26.3362C29.2394 25.978 28.8429 25.637 28.3483 25.3128C27.8534 24.9889 27.4101 24.7416 27.0178 24.5709C26.6254 24.4005 26.148 24.2043 25.5852 23.9824V20.2468C26.1991 20.298 26.7917 20.4687 27.3633 20.7585C27.9346 21.0488 28.3396 21.1936 28.5787 21.1936C29.0732 21.1936 29.4614 20.9508 29.7428 20.4656C30.0242 19.9802 30.1649 19.5117 30.1649 19.0608C30.1649 18.639 30.0071 18.2701 29.6916 17.9534C29.3758 17.6371 28.9625 17.4001 28.4508 17.2417C27.9391 17.0834 27.4529 16.9695 26.9923 16.8992C26.5318 16.8288 26.0625 16.7848 25.5852 16.7672V16.1767C25.5852 16.0192 25.4828 15.8737 25.2781 15.7397C25.0735 15.6062 24.8515 15.5391 24.6129 15.5391C24.3397 15.5391 24.1095 15.6027 23.922 15.729C23.7342 15.8557 23.6406 16.0061 23.6406 16.1795V16.8439C22.1567 17.0526 20.9327 17.6007 19.9692 18.4878C19.0052 19.3748 18.5236 20.5921 18.5236 22.1401C18.5236 22.7713 18.6343 23.3471 18.8561 23.8672C19.0777 24.3876 19.3336 24.8138 19.6239 25.1464C19.9137 25.479 20.3231 25.8033 20.8519 26.1186C21.3804 26.4345 21.8242 26.6688 22.1824 26.8222C22.5406 26.9757 23.0267 27.172 23.6407 27.4107V31.5555C22.9755 31.4364 22.2503 31.0993 21.466 30.5449C20.6812 29.9908 20.1267 29.7134 19.8029 29.7134C19.3424 29.7134 18.9371 29.9524 18.5875 30.4298C18.2378 30.9075 18.0631 31.3853 18.0631 31.8626C18.0631 32.6986 18.6132 33.4489 19.7134 34.1142C20.8136 34.7794 22.1224 35.1377 23.6407 35.1888V35.8284C23.6407 36.0159 23.7344 36.1777 23.9221 36.3145C24.1096 36.4508 24.3398 36.5192 24.6129 36.5192C24.8515 36.5192 25.0736 36.4465 25.2782 36.3017C25.483 36.1566 25.5853 35.9986 25.5853 35.8284V35.0864C27.1204 34.8305 28.3441 34.2253 29.2567 33.2698C30.1691 32.3147 30.6256 31.061 30.6256 29.5087C30.6255 28.8435 30.5188 28.2383 30.3057 27.6923ZM23.8965 23.3682C22.8048 22.9077 22.259 22.3704 22.259 21.7564C22.259 21.0232 22.8047 20.5455 23.8965 20.3235V23.3682ZM25.3293 31.53V28.1016C26.3695 28.5965 26.89 29.2017 26.89 29.9182C26.89 30.754 26.3695 31.2913 25.3293 31.53Z" fill="url(#paint38_linear_266_166)"></path><path d="M27.8157 8.91922H20.8725L17.7138 2.86369C17.2474 1.96976 17.7798 0.879694 18.7716 0.697859L20.8402 0.318565C23.1569 -0.106188 25.5315 -0.106188 27.8481 0.318565L29.9167 0.697859C30.9084 0.879694 31.4408 1.96967 30.9745 2.86369L27.8157 8.91922Z" fill="url(#paint39_linear_266_166)"></path><path d="M25.4987 8.91922H23.1895L22.139 2.86369C21.9839 1.96976 22.161 0.879694 22.4908 0.697859L23.1788 0.318565C23.9493 -0.106188 24.739 -0.106188 25.5095 0.318565L26.1975 0.697859C26.5274 0.879694 26.7045 1.96967 26.5493 2.86369L25.4987 8.91922Z" fill="url(#paint40_linear_266_166)"></path><path d="M30.8703 1.30696C31.0056 1.49953 30.9375 1.76786 30.7275 1.87431C29.7424 2.37529 28.5775 2.37529 27.5924 1.87431L26.7216 1.43214C25.7365 0.931153 24.5715 0.931153 23.5865 1.43214L22.7168 1.87431C21.7316 2.37529 20.5667 2.37529 19.5816 1.87431L18.6706 1.41096C18.3515 1.24861 18.411 0.765882 18.7629 0.699812C18.7659 0.699247 18.7688 0.698682 18.7718 0.698118L20.8404 0.318071C23.1567 -0.106024 25.5317 -0.106024 27.8481 0.318071L29.9167 0.698118C30.3251 0.772565 30.6552 1.00108 30.8703 1.30696Z" fill="url(#paint41_linear_266_166)"></path><path d="M30.9946 2.15602C31.0411 2.04318 31.0748 1.92741 31.0995 1.81071C30.9635 1.26727 30.5279 0.809953 29.9168 0.697859L27.8482 0.318565C25.5315 -0.106188 23.1569 -0.106188 20.8403 0.318565L19.2974 0.601482C19.1041 1.06464 19.0794 1.63913 19.2925 2.15602L22.08 8.91922H27.8158L29.6804 5.34454L30.9946 2.15602Z" fill="url(#paint42_linear_266_166)"></path><path d="M24.3442 9.59603C22.8392 9.59603 21.4146 9.49881 20.2472 9.31914C19.8627 9.25994 19.6048 8.89344 19.6824 8.51227C19.7545 8.15782 20.0912 7.92187 20.4488 7.97664C21.5452 8.14474 22.9245 8.23885 24.3442 8.23885C25.7638 8.23885 27.1431 8.14474 28.2396 7.97664C28.5972 7.92187 28.9339 8.15772 29.006 8.51227C29.0836 8.89344 28.8257 9.26003 28.4412 9.31914C27.2738 9.49881 25.8492 9.59603 24.3442 9.59603Z" fill="url(#paint43_linear_266_166)"></path><path d="M16.2701 28.0642C16.2161 27.8395 16.016 27.6719 15.7749 27.6719H13.8994H10.2857H8.55881C7.93914 29.6071 7.1845 31.4972 6.27326 33.3168C5.75617 34.3492 5.48464 35.5259 5.53547 36.7707C5.68257 40.3721 8.85227 43.471 12.456 43.5415C12.4825 43.542 12.5088 43.5424 12.5352 43.5426C14.1702 43.5568 15.7445 44.1939 16.8911 45.3596C18.1726 46.6624 19.9552 47.4704 21.9273 47.4704C24.3206 47.4704 26.4354 46.2805 27.7139 44.4604C28.1255 43.8744 28.8005 43.5414 29.5166 43.5428H29.5291C29.8367 43.5428 30.139 43.5201 30.4345 43.4762C30.9917 43.3937 31.5553 43.5359 32.0153 43.8611C32.0681 43.8985 32.1221 43.9342 32.176 43.97L16.2701 28.0642Z" fill="url(#paint44_linear_266_166)"></path><path d="M15.7749 47.9976H1.00048C0.718124 47.9976 0.489136 47.7687 0.489136 47.4863V45.1207C0.489136 44.8383 0.71803 44.6094 1.00048 44.6094H15.7749C16.0572 44.6094 16.2862 44.8383 16.2862 45.1207V47.4863C16.2862 47.7687 16.0572 47.9976 15.7749 47.9976Z" fill="url(#paint45_linear_266_166)"></path><path d="M13.8994 47.9976H2.87593C2.63066 47.9976 2.43188 47.7988 2.43188 47.5536V45.0534C2.43188 44.8082 2.63066 44.6094 2.87593 44.6094H13.8994C14.1445 44.6094 14.3434 44.8082 14.3434 45.0534V47.5536C14.3434 47.7988 14.1446 47.9976 13.8994 47.9976Z" fill="url(#paint46_linear_266_166)"></path><path d="M10.2856 47.9976H6.48969C6.34183 47.9976 6.22192 47.8777 6.22192 47.7298V44.8771C6.22192 44.7293 6.34183 44.6094 6.48969 44.6094H10.2856C10.4335 44.6094 10.5534 44.7293 10.5534 44.8771V47.7298C10.5534 47.8777 10.4335 47.9976 10.2856 47.9976Z" fill="url(#paint47_linear_266_166)"></path><path d="M1.44628 45.0234C1.16383 45.0234 0.934937 45.2523 0.934937 45.5348V47.9003C0.934937 47.9332 0.938325 47.9652 0.944254 47.9962C0.962701 47.9982 0.981431 47.9994 1.00044 47.9994H15.7748C16.0573 47.9994 16.2862 47.7705 16.2862 47.4881V45.1225C16.2862 45.0897 16.2828 45.0577 16.2769 45.0266C16.2584 45.0247 16.2397 45.0234 16.2207 45.0234H1.44628Z" fill="url(#paint48_linear_266_166)"></path><path d="M15.7749 44.6148H1.00048C0.718124 44.6148 0.489136 44.3859 0.489136 44.1035V41.7379C0.489136 41.4555 0.71803 41.2266 1.00048 41.2266H15.7749C16.0572 41.2266 16.2862 41.4555 16.2862 41.7379V44.1035C16.2862 44.3859 16.0572 44.6148 15.7749 44.6148Z" fill="url(#paint49_linear_266_166)"></path><path d="M13.8994 44.6149H2.87593C2.63066 44.6149 2.43188 44.4161 2.43188 44.1708V41.6706C2.43188 41.4254 2.63066 41.2266 2.87593 41.2266H13.8994C14.1445 41.2266 14.3434 41.4253 14.3434 41.6706V44.1708C14.3434 44.4161 14.1446 44.6149 13.8994 44.6149Z" fill="url(#paint50_linear_266_166)"></path><path d="M10.2856 44.6148H6.48969C6.34183 44.6148 6.22192 44.4949 6.22192 44.347V41.4943C6.22192 41.3465 6.34183 41.2266 6.48969 41.2266H10.2856C10.4335 41.2266 10.5534 41.3465 10.5534 41.4943V44.347C10.5534 44.4949 10.4335 44.6148 10.2856 44.6148Z" fill="url(#paint51_linear_266_166)"></path><path d="M1.44628 41.6328C1.16383 41.6328 0.934937 41.8617 0.934937 42.1442V44.5097C0.934937 44.5426 0.938325 44.5745 0.944254 44.6056C0.962701 44.6077 0.981431 44.6088 1.00044 44.6088H15.7748C16.0573 44.6088 16.2862 44.3799 16.2862 44.0975V41.7319C16.2862 41.6991 16.2828 41.6671 16.2769 41.636C16.2584 41.6339 16.2397 41.6328 16.2207 41.6328H1.44628Z" fill="url(#paint52_linear_266_166)"></path><path d="M15.7749 41.2242H1.00048C0.718124 41.2242 0.489136 40.9953 0.489136 40.7128V38.3473C0.489136 38.0649 0.71803 37.8359 1.00048 37.8359H15.7749C16.0572 37.8359 16.2862 38.0648 16.2862 38.3473V40.7128C16.2862 40.9953 16.0572 41.2242 15.7749 41.2242Z" fill="url(#paint53_linear_266_166)"></path><path d="M13.8994 41.2242H2.87593C2.63066 41.2242 2.43188 41.0254 2.43188 40.7801V38.28C2.43188 38.0347 2.63066 37.8359 2.87593 37.8359H13.8994C14.1445 37.8359 14.3434 38.0347 14.3434 38.28V40.7801C14.3434 41.0254 14.1446 41.2242 13.8994 41.2242Z" fill="url(#paint54_linear_266_166)"></path><path d="M10.2856 41.2242H6.48969C6.34183 41.2242 6.22192 41.1043 6.22192 40.9564V38.1037C6.22192 37.9558 6.34183 37.8359 6.48969 37.8359H10.2856C10.4335 37.8359 10.5534 37.9558 10.5534 38.1037V40.9564C10.5534 41.1044 10.4335 41.2242 10.2856 41.2242Z" fill="url(#paint55_linear_266_166)"></path><path d="M1.44628 38.25C1.16383 38.25 0.934937 38.4789 0.934937 38.7613V41.1269C0.934937 41.1597 0.938325 41.1917 0.944254 41.2228C0.962701 41.2248 0.981431 41.226 1.00044 41.226H15.7748C16.0573 41.226 16.2862 40.9971 16.2862 40.7147V38.3491C16.2862 38.3163 16.2828 38.2844 16.2769 38.2532C16.2584 38.2512 16.2397 38.25 16.2207 38.25H1.44628Z" fill="url(#paint56_linear_266_166)"></path><path d="M15.7749 37.8335H1.00048C0.718124 37.8335 0.489136 37.6047 0.489136 37.3222V34.9567C0.489136 34.6742 0.71803 34.4453 1.00048 34.4453H15.7749C16.0572 34.4453 16.2862 34.6742 16.2862 34.9567V37.3222C16.2862 37.6047 16.0572 37.8335 15.7749 37.8335Z" fill="url(#paint57_linear_266_166)"></path><path d="M13.8994 37.8336H2.87593C2.63066 37.8336 2.43188 37.6349 2.43188 37.3896V34.8894C2.43188 34.6442 2.63066 34.4453 2.87593 34.4453H13.8994C14.1445 34.4453 14.3434 34.6441 14.3434 34.8894V37.3896C14.3434 37.6349 14.1446 37.8336 13.8994 37.8336Z" fill="url(#paint58_linear_266_166)"></path><path d="M10.2856 37.8335H6.48969C6.34183 37.8335 6.22192 37.7136 6.22192 37.5658V34.7131C6.22192 34.5652 6.34183 34.4453 6.48969 34.4453H10.2856C10.4335 34.4453 10.5534 34.5652 10.5534 34.7131V37.5658C10.5534 37.7137 10.4335 37.8335 10.2856 37.8335Z" fill="url(#paint59_linear_266_166)"></path><path d="M1.44628 34.8594C1.16383 34.8594 0.934937 35.0883 0.934937 35.3707V37.7363C0.934937 37.7691 0.938325 37.801 0.944254 37.8322C0.962701 37.8342 0.981431 37.8354 1.00044 37.8354H15.7748C16.0573 37.8354 16.2862 37.6065 16.2862 37.324V34.9585C16.2862 34.9256 16.2828 34.8937 16.2769 34.8626C16.2584 34.8605 16.2397 34.8594 16.2207 34.8594H1.44628Z" fill="url(#paint60_linear_266_166)"></path><path d="M15.7749 34.4507H1.00048C0.718124 34.4507 0.489136 34.2218 0.489136 33.9394V31.5738C0.489136 31.2915 0.71803 31.0625 1.00048 31.0625H15.7749C16.0572 31.0625 16.2862 31.2914 16.2862 31.5738V33.9394C16.2862 34.2217 16.0572 34.4507 15.7749 34.4507Z" fill="url(#paint61_linear_266_166)"></path><path d="M13.8994 34.4507H2.87593C2.63066 34.4507 2.43188 34.252 2.43188 34.0067V31.5065C2.43188 31.2614 2.63066 31.0625 2.87593 31.0625H13.8994C14.1445 31.0625 14.3434 31.2613 14.3434 31.5065V34.0067C14.3434 34.2519 14.1446 34.4507 13.8994 34.4507Z" fill="url(#paint62_linear_266_166)"></path><path d="M10.2856 34.4507H6.48969C6.34183 34.4507 6.22192 34.3308 6.22192 34.183V31.3303C6.22192 31.1824 6.34183 31.0625 6.48969 31.0625H10.2856C10.4335 31.0625 10.5534 31.1824 10.5534 31.3303V34.183C10.5534 34.3308 10.4335 34.4507 10.2856 34.4507Z" fill="url(#paint63_linear_266_166)"></path><path d="M1.44628 31.4688C1.16383 31.4688 0.934937 31.6976 0.934937 31.9801V34.3456C0.934937 34.3785 0.938325 34.4105 0.944254 34.4416C0.962701 34.4435 0.981431 34.4448 1.00044 34.4448H15.7748C16.0573 34.4448 16.2862 34.2159 16.2862 33.9334V31.5679C16.2862 31.535 16.2828 31.5031 16.2769 31.4719C16.2584 31.47 16.2397 31.4688 16.2207 31.4688H1.44628Z" fill="url(#paint64_linear_266_166)"></path><path d="M15.7749 31.0601H1.00048C0.718124 31.0601 0.489136 30.8312 0.489136 30.5488V28.1832C0.489136 27.9008 0.71803 27.6719 1.00048 27.6719H15.7749C16.0572 27.6719 16.2862 27.9008 16.2862 28.1832V30.5488C16.2862 30.8311 16.0572 31.0601 15.7749 31.0601Z" fill="url(#paint65_linear_266_166)"></path><path d="M13.8994 31.0602H2.87593C2.63066 31.0602 2.43188 30.8614 2.43188 30.6162V28.1159C2.43188 27.8707 2.63066 27.6719 2.87593 27.6719H13.8994C14.1445 27.6719 14.3434 27.8707 14.3434 28.1159V30.6162C14.3434 30.8614 14.1446 31.0602 13.8994 31.0602Z" fill="url(#paint66_linear_266_166)"></path><path d="M10.2856 31.0601H6.48969C6.34183 31.0601 6.22192 30.9402 6.22192 30.7923V27.9396C6.22192 27.7918 6.34183 27.6719 6.48969 27.6719H10.2856C10.4335 27.6719 10.5534 27.7918 10.5534 27.9396V30.7923C10.5534 30.9402 10.4335 31.0601 10.2856 31.0601Z" fill="url(#paint67_linear_266_166)"></path><path d="M1.44628 28.0859C1.16383 28.0859 0.934937 28.3148 0.934937 28.5973V30.9628C0.934937 30.9957 0.938325 31.0276 0.944254 31.0587C0.962701 31.0607 0.981431 31.0619 1.00044 31.0619H15.7748C16.0573 31.0619 16.2862 30.833 16.2862 30.5506V28.185C16.2862 28.1522 16.2828 28.1203 16.2769 28.0891C16.2584 28.0872 16.2397 28.0859 16.2207 28.0859H1.44628Z" fill="url(#paint68_linear_266_166)"></path><path d="M43.4779 47.9976H28.7035C28.421 47.9976 28.1921 47.7687 28.1921 47.4863V45.1207C28.1921 44.8383 28.421 44.6094 28.7035 44.6094H43.4779C43.7602 44.6094 43.9892 44.8383 43.9892 45.1207V47.4863C43.9892 47.7687 43.7602 47.9976 43.4779 47.9976Z" fill="url(#paint69_linear_266_166)"></path><path d="M41.6025 47.9976H30.5791C30.3339 47.9976 30.135 47.7988 30.135 47.5536V45.0534C30.135 44.8082 30.3338 44.6094 30.5791 44.6094H41.6025C41.8477 44.6094 42.0465 44.8082 42.0465 45.0534V47.5536C42.0465 47.7988 41.8477 47.9976 41.6025 47.9976Z" fill="url(#paint70_linear_266_166)"></path><path d="M37.9888 47.9976H34.1928C34.045 47.9976 33.925 47.8777 33.925 47.7298V44.8771C33.925 44.7293 34.045 44.6094 34.1928 44.6094H37.9888C38.1366 44.6094 38.2565 44.7293 38.2565 44.8771V47.7298C38.2565 47.8777 38.1366 47.9976 37.9888 47.9976Z" fill="url(#paint71_linear_266_166)"></path><path d="M29.1494 45.0234C28.8671 45.0234 28.6381 45.2523 28.6381 45.5348V47.9003C28.6381 47.9332 28.6414 47.9652 28.6474 47.9962C28.6658 47.9982 28.6846 47.9994 28.7036 47.9994H43.478C43.7603 47.9994 43.9893 47.7705 43.9893 47.4881V45.1225C43.9893 45.0897 43.9859 45.0577 43.98 45.0266C43.9615 45.0247 43.9428 45.0234 43.9238 45.0234H29.1494Z" fill="url(#paint72_linear_266_166)"></path><path d="M43.4779 44.6148H28.7035C28.421 44.6148 28.1921 44.3859 28.1921 44.1035V41.7379C28.1921 41.4555 28.421 41.2266 28.7035 41.2266H43.4779C43.7602 41.2266 43.9892 41.4555 43.9892 41.7379V44.1035C43.9892 44.3859 43.7602 44.6148 43.4779 44.6148Z" fill="url(#paint73_linear_266_166)"></path><path d="M41.6025 44.6149H30.5791C30.3339 44.6149 30.135 44.4161 30.135 44.1708V41.6706C30.135 41.4254 30.3338 41.2266 30.5791 41.2266H41.6025C41.8477 41.2266 42.0465 41.4253 42.0465 41.6706V44.1708C42.0465 44.4161 41.8477 44.6149 41.6025 44.6149Z" fill="url(#paint74_linear_266_166)"></path><path d="M37.9888 44.6148H34.1928C34.045 44.6148 33.925 44.4949 33.925 44.347V41.4943C33.925 41.3465 34.045 41.2266 34.1928 41.2266H37.9888C38.1366 41.2266 38.2565 41.3465 38.2565 41.4943V44.347C38.2565 44.4949 38.1366 44.6148 37.9888 44.6148Z" fill="url(#paint75_linear_266_166)"></path><path d="M29.1494 41.6328C28.8671 41.6328 28.6381 41.8617 28.6381 42.1442V44.5097C28.6381 44.5426 28.6414 44.5745 28.6474 44.6056C28.6658 44.6077 28.6846 44.6088 28.7036 44.6088H43.478C43.7603 44.6088 43.9893 44.3799 43.9893 44.0975V41.7319C43.9893 41.6991 43.9859 41.6671 43.98 41.636C43.9615 41.6339 43.9428 41.6328 43.9238 41.6328H29.1494Z" fill="url(#paint76_linear_266_166)"></path><path d="M8.75811 19.7378C7.34503 20.6586 6.13938 21.8715 5.22635 23.2905C5.02098 23.6096 4.54719 23.6088 4.34305 23.2889C3.43519 21.8667 2.23397 20.6494 0.824277 19.7234C0.511336 19.5178 0.512183 19.0505 0.825877 18.8461C2.23896 17.9253 3.44461 16.7124 4.35764 15.2935C4.56291 14.9744 5.0368 14.9753 5.24094 15.2951C6.1488 16.7173 7.35002 17.9346 8.75981 18.8606C9.07265 19.0661 9.07181 19.5335 8.75811 19.7378Z" fill="url(#paint77_linear_266_166)"></path><path d="M14.3867 6.91338C13.3875 7.56458 12.5349 8.42227 11.8892 9.42575C11.744 9.65135 11.4089 9.65079 11.2646 9.42462C10.6226 8.41888 9.77309 7.55808 8.7762 6.90321C8.55493 6.75789 8.55549 6.42735 8.77733 6.28279C9.77657 5.63159 10.6292 4.77389 11.2748 3.77041C11.4201 3.54481 11.7551 3.54537 11.8995 3.77154C12.5415 4.77728 13.391 5.63808 14.3879 6.29295C14.6091 6.43836 14.6086 6.76881 14.3867 6.91338Z" fill="url(#paint78_linear_266_166)"></path><path d="M41.5275 9.23369C40.5282 9.88489 39.6756 10.7426 39.03 11.7461C38.8848 11.9717 38.5497 11.9711 38.4053 11.7449C37.7633 10.7392 36.9138 9.87839 35.9169 9.22352C35.6957 9.07821 35.6962 8.74766 35.9181 8.6031C36.9173 7.9519 37.7699 7.09421 38.4156 6.09072C38.5608 5.86512 38.8959 5.86569 39.0402 6.09185C39.6823 7.09759 40.5317 7.95839 41.5286 8.61326C41.7499 8.75868 41.7493 9.08912 41.5275 9.23369Z" fill="url(#paint79_linear_266_166)"></path></g><defs><linearGradient id="paint0_linear_266_166" x1="39.6123" y1="36.5855" x2="39.6123" y2="40.9784" gradientUnits="userSpaceOnUse"><stop stop-color="#E4F2FF"></stop><stop offset="1" stop-color="#B2CBFF"></stop></linearGradient><linearGradient id="paint1_linear_266_166" x1="39.6124" y1="36.6491" x2="39.6124" y2="44.0371" gradientUnits="userSpaceOnUse"><stop stop-color="#3F3CED" stop-opacity="0"></stop><stop offset="0.2796" stop-color="#3C3DE4" stop-opacity="0.28"></stop><stop offset="0.7305" stop-color="#3541CC" stop-opacity="0.731"></stop><stop offset="1" stop-color="#2F43BB"></stop></linearGradient><linearGradient id="paint2_linear_266_166" x1="39.6123" y1="36.6491" x2="39.6123" y2="44.0371" gradientUnits="userSpaceOnUse"><stop stop-color="#3F3CED" stop-opacity="0"></stop><stop offset="0.2796" stop-color="#3C3DE4" stop-opacity="0.28"></stop><stop offset="0.7305" stop-color="#3541CC" stop-opacity="0.731"></stop><stop offset="1" stop-color="#2F43BB"></stop></linearGradient><linearGradient id="paint3_linear_266_166" x1="39.5941" y1="37.8345" x2="37.8424" y2="33.5986" gradientUnits="userSpaceOnUse"><stop stop-color="white" stop-opacity="0"></stop><stop offset="1" stop-color="white"></stop></linearGradient><linearGradient id="paint4_linear_266_166" x1="39.6123" y1="33.1948" x2="39.6123" y2="37.5878" gradientUnits="userSpaceOnUse"><stop stop-color="#E4F2FF"></stop><stop offset="1" stop-color="#B2CBFF"></stop></linearGradient><linearGradient id="paint5_linear_266_166" x1="39.6124" y1="33.2586" x2="39.6124" y2="40.6465" gradientUnits="userSpaceOnUse"><stop stop-color="#3F3CED" stop-opacity="0"></stop><stop offset="0.2796" stop-color="#3C3DE4" stop-opacity="0.28"></stop><stop offset="0.7305" stop-color="#3541CC" stop-opacity="0.731"></stop><stop offset="1" stop-color="#2F43BB"></stop></linearGradient><linearGradient id="paint6_linear_266_166" x1="39.6123" y1="33.2586" x2="39.6123" y2="40.6465" gradientUnits="userSpaceOnUse"><stop stop-color="#3F3CED" stop-opacity="0"></stop><stop offset="0.2796" stop-color="#3C3DE4" stop-opacity="0.28"></stop><stop offset="0.7305" stop-color="#3541CC" stop-opacity="0.731"></stop><stop offset="1" stop-color="#2F43BB"></stop></linearGradient><linearGradient id="paint7_linear_266_166" x1="39.5941" y1="34.4439" x2="37.8424" y2="30.208" gradientUnits="userSpaceOnUse"><stop stop-color="white" stop-opacity="0"></stop><stop offset="1" stop-color="white"></stop></linearGradient><linearGradient id="paint8_linear_266_166" x1="39.6123" y1="29.8042" x2="39.6123" y2="34.1972" gradientUnits="userSpaceOnUse"><stop stop-color="#E4F2FF"></stop><stop offset="1" stop-color="#B2CBFF"></stop></linearGradient><linearGradient id="paint9_linear_266_166" x1="39.6124" y1="29.8679" x2="39.6124" y2="37.2559" gradientUnits="userSpaceOnUse"><stop stop-color="#3F3CED" stop-opacity="0"></stop><stop offset="0.2796" stop-color="#3C3DE4" stop-opacity="0.28"></stop><stop offset="0.7305" stop-color="#3541CC" stop-opacity="0.731"></stop><stop offset="1" stop-color="#2F43BB"></stop></linearGradient><linearGradient id="paint10_linear_266_166" x1="39.6123" y1="29.8679" x2="39.6123" y2="37.2559" gradientUnits="userSpaceOnUse"><stop stop-color="#3F3CED" stop-opacity="0"></stop><stop offset="0.2796" stop-color="#3C3DE4" stop-opacity="0.28"></stop><stop offset="0.7305" stop-color="#3541CC" stop-opacity="0.731"></stop><stop offset="1" stop-color="#2F43BB"></stop></linearGradient><linearGradient id="paint11_linear_266_166" x1="39.5941" y1="31.0533" x2="37.8424" y2="26.8173" gradientUnits="userSpaceOnUse"><stop stop-color="white" stop-opacity="0"></stop><stop offset="1" stop-color="white"></stop></linearGradient><linearGradient id="paint12_linear_266_166" x1="39.6123" y1="26.4214" x2="39.6123" y2="30.8143" gradientUnits="userSpaceOnUse"><stop stop-color="#E4F2FF"></stop><stop offset="1" stop-color="#B2CBFF"></stop></linearGradient><linearGradient id="paint13_linear_266_166" x1="39.6124" y1="26.4851" x2="39.6124" y2="33.8731" gradientUnits="userSpaceOnUse"><stop stop-color="#3F3CED" stop-opacity="0"></stop><stop offset="0.2796" stop-color="#3C3DE4" stop-opacity="0.28"></stop><stop offset="0.7305" stop-color="#3541CC" stop-opacity="0.731"></stop><stop offset="1" stop-color="#2F43BB"></stop></linearGradient><linearGradient id="paint14_linear_266_166" x1="39.6123" y1="26.4851" x2="39.6123" y2="33.8731" gradientUnits="userSpaceOnUse"><stop stop-color="#3F3CED" stop-opacity="0"></stop><stop offset="0.2796" stop-color="#3C3DE4" stop-opacity="0.28"></stop><stop offset="0.7305" stop-color="#3541CC" stop-opacity="0.731"></stop><stop offset="1" stop-color="#2F43BB"></stop></linearGradient><linearGradient id="paint15_linear_266_166" x1="39.5941" y1="27.6627" x2="37.8424" y2="23.4268" gradientUnits="userSpaceOnUse"><stop stop-color="white" stop-opacity="0"></stop><stop offset="1" stop-color="white"></stop></linearGradient><linearGradient id="paint16_linear_266_166" x1="39.6123" y1="23.0308" x2="39.6123" y2="27.4237" gradientUnits="userSpaceOnUse"><stop stop-color="#E4F2FF"></stop><stop offset="1" stop-color="#B2CBFF"></stop></linearGradient><linearGradient id="paint17_linear_266_166" x1="39.6124" y1="23.0945" x2="39.6124" y2="30.4824" gradientUnits="userSpaceOnUse"><stop stop-color="#3F3CED" stop-opacity="0"></stop><stop offset="0.2796" stop-color="#3C3DE4" stop-opacity="0.28"></stop><stop offset="0.7305" stop-color="#3541CC" stop-opacity="0.731"></stop><stop offset="1" stop-color="#2F43BB"></stop></linearGradient><linearGradient id="paint18_linear_266_166" x1="39.6123" y1="23.0945" x2="39.6123" y2="30.4824" gradientUnits="userSpaceOnUse"><stop stop-color="#3F3CED" stop-opacity="0"></stop><stop offset="0.2796" stop-color="#3C3DE4" stop-opacity="0.28"></stop><stop offset="0.7305" stop-color="#3541CC" stop-opacity="0.731"></stop><stop offset="1" stop-color="#2F43BB"></stop></linearGradient><linearGradient id="paint19_linear_266_166" x1="39.5941" y1="24.2798" x2="37.8424" y2="20.044" gradientUnits="userSpaceOnUse"><stop stop-color="white" stop-opacity="0"></stop><stop offset="1" stop-color="white"></stop></linearGradient><linearGradient id="paint20_linear_266_166" x1="39.6123" y1="19.6401" x2="39.6123" y2="24.0332" gradientUnits="userSpaceOnUse"><stop stop-color="#E4F2FF"></stop><stop offset="1" stop-color="#B2CBFF"></stop></linearGradient><linearGradient id="paint21_linear_266_166" x1="39.6124" y1="19.7039" x2="39.6124" y2="27.0919" gradientUnits="userSpaceOnUse"><stop stop-color="#3F3CED" stop-opacity="0"></stop><stop offset="0.2796" stop-color="#3C3DE4" stop-opacity="0.28"></stop><stop offset="0.7305" stop-color="#3541CC" stop-opacity="0.731"></stop><stop offset="1" stop-color="#2F43BB"></stop></linearGradient><linearGradient id="paint22_linear_266_166" x1="39.6123" y1="19.7039" x2="39.6123" y2="27.0919" gradientUnits="userSpaceOnUse"><stop stop-color="#3F3CED" stop-opacity="0"></stop><stop offset="0.2796" stop-color="#3C3DE4" stop-opacity="0.28"></stop><stop offset="0.7305" stop-color="#3541CC" stop-opacity="0.731"></stop><stop offset="1" stop-color="#2F43BB"></stop></linearGradient><linearGradient id="paint23_linear_266_166" x1="39.5941" y1="20.8892" x2="37.8424" y2="16.6534" gradientUnits="userSpaceOnUse"><stop stop-color="white" stop-opacity="0"></stop><stop offset="1" stop-color="white"></stop></linearGradient><linearGradient id="paint24_linear_266_166" x1="39.6123" y1="16.2573" x2="39.6123" y2="20.6503" gradientUnits="userSpaceOnUse"><stop stop-color="#E4F2FF"></stop><stop offset="1" stop-color="#B2CBFF"></stop></linearGradient><linearGradient id="paint25_linear_266_166" x1="39.6124" y1="16.3211" x2="39.6124" y2="23.7091" gradientUnits="userSpaceOnUse"><stop stop-color="#3F3CED" stop-opacity="0"></stop><stop offset="0.2796" stop-color="#3C3DE4" stop-opacity="0.28"></stop><stop offset="0.7305" stop-color="#3541CC" stop-opacity="0.731"></stop><stop offset="1" stop-color="#2F43BB"></stop></linearGradient><linearGradient id="paint26_linear_266_166" x1="39.6123" y1="16.321" x2="39.6123" y2="23.709" gradientUnits="userSpaceOnUse"><stop stop-color="#3F3CED" stop-opacity="0"></stop><stop offset="0.2796" stop-color="#3C3DE4" stop-opacity="0.28"></stop><stop offset="0.7305" stop-color="#3541CC" stop-opacity="0.731"></stop><stop offset="1" stop-color="#2F43BB"></stop></linearGradient><linearGradient id="paint27_linear_266_166" x1="39.5941" y1="17.4987" x2="37.8424" y2="13.2627" gradientUnits="userSpaceOnUse"><stop stop-color="white" stop-opacity="0"></stop><stop offset="1" stop-color="white"></stop></linearGradient><linearGradient id="paint28_linear_266_166" x1="39.6123" y1="12.8667" x2="39.6123" y2="17.2597" gradientUnits="userSpaceOnUse"><stop stop-color="#E4F2FF"></stop><stop offset="1" stop-color="#B2CBFF"></stop></linearGradient><linearGradient id="paint29_linear_266_166" x1="39.6124" y1="12.9304" x2="39.6124" y2="20.3184" gradientUnits="userSpaceOnUse"><stop stop-color="#3F3CED" stop-opacity="0"></stop><stop offset="0.2796" stop-color="#3C3DE4" stop-opacity="0.28"></stop><stop offset="0.7305" stop-color="#3541CC" stop-opacity="0.731"></stop><stop offset="1" stop-color="#2F43BB"></stop></linearGradient><linearGradient id="paint30_linear_266_166" x1="39.6123" y1="12.9304" x2="39.6123" y2="20.3184" gradientUnits="userSpaceOnUse"><stop stop-color="#3F3CED" stop-opacity="0"></stop><stop offset="0.2796" stop-color="#3C3DE4" stop-opacity="0.28"></stop><stop offset="0.7305" stop-color="#3541CC" stop-opacity="0.731"></stop><stop offset="1" stop-color="#2F43BB"></stop></linearGradient><linearGradient id="paint31_linear_266_166" x1="39.5941" y1="14.1158" x2="37.8424" y2="9.87983" gradientUnits="userSpaceOnUse"><stop stop-color="white" stop-opacity="0"></stop><stop offset="1" stop-color="white"></stop></linearGradient><radialGradient id="paint32_radial_266_166" cx="0" cy="0" r="1" gradientUnits="userSpaceOnUse" gradientTransform="translate(18.6892 19.4877) scale(31.772 31.772)"><stop stop-color="#4AB272"></stop><stop offset="0.3386" stop-color="#47B071"></stop><stop offset="0.5502" stop-color="#3FA870"></stop><stop offset="0.727" stop-color="#309B6D"></stop><stop offset="0.8837" stop-color="#1C8869"></stop><stop offset="1" stop-color="#077565"></stop></radialGradient><linearGradient id="paint33_linear_266_166" x1="12.6711" y1="34.1859" x2="11.6533" y2="65.9087" gradientUnits="userSpaceOnUse"><stop stop-color="#005A01" stop-opacity="0"></stop><stop offset="1" stop-color="#005A01"></stop></linearGradient><linearGradient id="paint34_linear_266_166" x1="21.9362" y1="40.4382" x2="26.4603" y2="57.7047" gradientUnits="userSpaceOnUse"><stop stop-color="#005A01" stop-opacity="0"></stop><stop offset="1" stop-color="#005A01"></stop></linearGradient><linearGradient id="paint35_linear_266_166" x1="35.9338" y1="40.0941" x2="34.2751" y2="61.3568" gradientUnits="userSpaceOnUse"><stop stop-color="#005A01" stop-opacity="0"></stop><stop offset="1" stop-color="#005A01"></stop></linearGradient><linearGradient id="paint36_linear_266_166" x1="22.137" y1="27.6798" x2="0.874383" y2="-10.3215" gradientUnits="userSpaceOnUse"><stop stop-color="#91F27F" stop-opacity="0"></stop><stop offset="1" stop-color="#FFED82"></stop></linearGradient><linearGradient id="paint37_linear_266_166" x1="36.969" y1="35.0407" x2="10.0253" y2="19.7953" gradientUnits="userSpaceOnUse"><stop stop-color="#005A01" stop-opacity="0"></stop><stop offset="1" stop-color="#005A01"></stop></linearGradient><linearGradient id="paint38_linear_266_166" x1="21.2566" y1="23.1125" x2="36.0152" y2="35.8354" gradientUnits="userSpaceOnUse"><stop stop-color="#FFC738"></stop><stop offset="0.1876" stop-color="#FDBF3C"></stop><stop offset="0.4837" stop-color="#F7A848"></stop><stop offset="0.8493" stop-color="#ED835B"></stop><stop offset="1" stop-color="#E97264"></stop></linearGradient><linearGradient id="paint39_linear_266_166" x1="22.6412" y1="-1.42835" x2="27.6176" y2="9.08986" gradientUnits="userSpaceOnUse"><stop stop-color="#4AB272"></stop><stop offset="0.3386" stop-color="#47B071"></stop><stop offset="0.5502" stop-color="#3FA870"></stop><stop offset="0.727" stop-color="#309B6D"></stop><stop offset="0.8837" stop-color="#1C8869"></stop><stop offset="1" stop-color="#077565"></stop></linearGradient><linearGradient id="paint40_linear_266_166" x1="24.2757" y1="4.12384" x2="30.9862" y2="14.5289" gradientUnits="userSpaceOnUse"><stop stop-color="#005A01" stop-opacity="0"></stop><stop offset="1" stop-color="#005A01"></stop></linearGradient><linearGradient id="paint41_linear_266_166" x1="24.6047" y1="0.350918" x2="24.944" y2="3.68729" gradientUnits="userSpaceOnUse"><stop stop-color="#005A01" stop-opacity="0"></stop><stop offset="1" stop-color="#005A01"></stop></linearGradient><linearGradient id="paint42_linear_266_166" x1="23.1325" y1="4.45673" x2="10.2957" y2="4.23056" gradientUnits="userSpaceOnUse"><stop stop-color="#91F27F" stop-opacity="0"></stop><stop offset="1" stop-color="#FFED82"></stop></linearGradient><linearGradient id="paint43_linear_266_166" x1="24.3442" y1="8.24864" x2="24.3442" y2="9.84808" gradientUnits="userSpaceOnUse"><stop stop-color="#FFC738"></stop><stop offset="0.1876" stop-color="#FDBF3C"></stop><stop offset="0.4837" stop-color="#F7A848"></stop><stop offset="0.8493" stop-color="#ED835B"></stop><stop offset="1" stop-color="#E97264"></stop></linearGradient><linearGradient id="paint44_linear_266_166" x1="23.1032" y1="37.937" x2="13.1505" y2="37.1076" gradientUnits="userSpaceOnUse"><stop stop-color="#005A01" stop-opacity="0"></stop><stop offset="1" stop-color="#005A01"></stop></linearGradient><linearGradient id="paint45_linear_266_166" x1="8.38768" y1="44.6792" x2="8.38768" y2="49.0722" gradientUnits="userSpaceOnUse"><stop stop-color="#FFD945"></stop><stop offset="0.3043" stop-color="#FFCD3E"></stop><stop offset="0.8558" stop-color="#FFAD2B"></stop><stop offset="1" stop-color="#FFA325"></stop></linearGradient><linearGradient id="paint46_linear_266_166" x1="8.38765" y1="44.7429" x2="8.38765" y2="52.1309" gradientUnits="userSpaceOnUse"><stop stop-color="#E87264" stop-opacity="0"></stop><stop offset="1" stop-color="#FF7044"></stop></linearGradient><linearGradient id="paint47_linear_266_166" x1="8.38766" y1="44.7429" x2="8.38766" y2="52.1309" gradientUnits="userSpaceOnUse"><stop stop-color="#E87264" stop-opacity="0"></stop><stop offset="1" stop-color="#FF7044"></stop></linearGradient><linearGradient id="paint48_linear_266_166" x1="8.36938" y1="45.9283" x2="6.61776" y2="41.6923" gradientUnits="userSpaceOnUse"><stop stop-color="#FFD945" stop-opacity="0"></stop><stop offset="1" stop-color="#FBED21"></stop></linearGradient><linearGradient id="paint49_linear_266_166" x1="8.38768" y1="41.2964" x2="8.38768" y2="45.6893" gradientUnits="userSpaceOnUse"><stop stop-color="#FFD945"></stop><stop offset="0.3043" stop-color="#FFCD3E"></stop><stop offset="0.8558" stop-color="#FFAD2B"></stop><stop offset="1" stop-color="#FFA325"></stop></linearGradient><linearGradient id="paint50_linear_266_166" x1="8.38765" y1="41.3602" x2="8.38765" y2="48.7482" gradientUnits="userSpaceOnUse"><stop stop-color="#E87264" stop-opacity="0"></stop><stop offset="1" stop-color="#FF7044"></stop></linearGradient><linearGradient id="paint51_linear_266_166" x1="8.38766" y1="41.3601" x2="8.38766" y2="48.7481" gradientUnits="userSpaceOnUse"><stop stop-color="#E87264" stop-opacity="0"></stop><stop offset="1" stop-color="#FF7044"></stop></linearGradient><linearGradient id="paint52_linear_266_166" x1="8.36938" y1="42.5377" x2="6.61776" y2="38.3018" gradientUnits="userSpaceOnUse"><stop stop-color="#FFD945" stop-opacity="0"></stop><stop offset="1" stop-color="#FBED21"></stop></linearGradient><linearGradient id="paint53_linear_266_166" x1="8.38768" y1="37.9058" x2="8.38768" y2="42.2987" gradientUnits="userSpaceOnUse"><stop stop-color="#FFD945"></stop><stop offset="0.3043" stop-color="#FFCD3E"></stop><stop offset="0.8558" stop-color="#FFAD2B"></stop><stop offset="1" stop-color="#FFA325"></stop></linearGradient><linearGradient id="paint54_linear_266_166" x1="8.38765" y1="37.9695" x2="8.38765" y2="45.3574" gradientUnits="userSpaceOnUse"><stop stop-color="#E87264" stop-opacity="0"></stop><stop offset="1" stop-color="#FF7044"></stop></linearGradient><linearGradient id="paint55_linear_266_166" x1="8.38766" y1="37.9695" x2="8.38766" y2="45.3574" gradientUnits="userSpaceOnUse"><stop stop-color="#E87264" stop-opacity="0"></stop><stop offset="1" stop-color="#FF7044"></stop></linearGradient><linearGradient id="paint56_linear_266_166" x1="8.36938" y1="39.1548" x2="6.61776" y2="34.919" gradientUnits="userSpaceOnUse"><stop stop-color="#FFD945" stop-opacity="0"></stop><stop offset="1" stop-color="#FBED21"></stop></linearGradient><linearGradient id="paint57_linear_266_166" x1="8.38768" y1="34.5151" x2="8.38768" y2="38.9082" gradientUnits="userSpaceOnUse"><stop stop-color="#FFD945"></stop><stop offset="0.3043" stop-color="#FFCD3E"></stop><stop offset="0.8558" stop-color="#FFAD2B"></stop><stop offset="1" stop-color="#FFA325"></stop></linearGradient><linearGradient id="paint58_linear_266_166" x1="8.38765" y1="34.579" x2="8.38765" y2="41.967" gradientUnits="userSpaceOnUse"><stop stop-color="#E87264" stop-opacity="0"></stop><stop offset="1" stop-color="#FF7044"></stop></linearGradient><linearGradient id="paint59_linear_266_166" x1="8.38767" y1="34.5789" x2="8.38767" y2="41.9669" gradientUnits="userSpaceOnUse"><stop stop-color="#E87264" stop-opacity="0"></stop><stop offset="1" stop-color="#FF7044"></stop></linearGradient><linearGradient id="paint60_linear_266_166" x1="8.36938" y1="35.7642" x2="6.61776" y2="31.5284" gradientUnits="userSpaceOnUse"><stop stop-color="#FFD945" stop-opacity="0"></stop><stop offset="1" stop-color="#FBED21"></stop></linearGradient><linearGradient id="paint61_linear_266_166" x1="8.38768" y1="31.1323" x2="8.38768" y2="35.5253" gradientUnits="userSpaceOnUse"><stop stop-color="#FFD945"></stop><stop offset="0.3043" stop-color="#FFCD3E"></stop><stop offset="0.8558" stop-color="#FFAD2B"></stop><stop offset="1" stop-color="#FFA325"></stop></linearGradient><linearGradient id="paint62_linear_266_166" x1="8.38765" y1="31.196" x2="8.38765" y2="38.584" gradientUnits="userSpaceOnUse"><stop stop-color="#E87264" stop-opacity="0"></stop><stop offset="1" stop-color="#FF7044"></stop></linearGradient><linearGradient id="paint63_linear_266_166" x1="8.38767" y1="31.196" x2="8.38767" y2="38.584" gradientUnits="userSpaceOnUse"><stop stop-color="#E87264" stop-opacity="0"></stop><stop offset="1" stop-color="#FF7044"></stop></linearGradient><linearGradient id="paint64_linear_266_166" x1="8.36938" y1="32.3737" x2="6.61776" y2="28.1377" gradientUnits="userSpaceOnUse"><stop stop-color="#FFD945" stop-opacity="0"></stop><stop offset="1" stop-color="#FBED21"></stop></linearGradient><linearGradient id="paint65_linear_266_166" x1="8.38768" y1="27.7417" x2="8.38768" y2="32.1347" gradientUnits="userSpaceOnUse"><stop stop-color="#FFD945"></stop><stop offset="0.3043" stop-color="#FFCD3E"></stop><stop offset="0.8558" stop-color="#FFAD2B"></stop><stop offset="1" stop-color="#FFA325"></stop></linearGradient><linearGradient id="paint66_linear_266_166" x1="8.38765" y1="27.8054" x2="8.38765" y2="35.1935" gradientUnits="userSpaceOnUse"><stop stop-color="#E87264" stop-opacity="0"></stop><stop offset="1" stop-color="#FF7044"></stop></linearGradient><linearGradient id="paint67_linear_266_166" x1="8.38767" y1="27.8053" x2="8.38767" y2="35.1934" gradientUnits="userSpaceOnUse"><stop stop-color="#E87264" stop-opacity="0"></stop><stop offset="1" stop-color="#FF7044"></stop></linearGradient><linearGradient id="paint68_linear_266_166" x1="8.36938" y1="28.9908" x2="6.61776" y2="24.7548" gradientUnits="userSpaceOnUse"><stop stop-color="#FFD945" stop-opacity="0"></stop><stop offset="1" stop-color="#FBED21"></stop></linearGradient><linearGradient id="paint69_linear_266_166" x1="36.0907" y1="44.6792" x2="36.0907" y2="49.0722" gradientUnits="userSpaceOnUse"><stop stop-color="#FFD945"></stop><stop offset="0.3043" stop-color="#FFCD3E"></stop><stop offset="0.8558" stop-color="#FFAD2B"></stop><stop offset="1" stop-color="#FFA325"></stop></linearGradient><linearGradient id="paint70_linear_266_166" x1="36.0908" y1="44.7429" x2="36.0908" y2="52.1309" gradientUnits="userSpaceOnUse"><stop stop-color="#E87264" stop-opacity="0"></stop><stop offset="1" stop-color="#FF7044"></stop></linearGradient><linearGradient id="paint71_linear_266_166" x1="36.0908" y1="44.7429" x2="36.0908" y2="52.1309" gradientUnits="userSpaceOnUse"><stop stop-color="#E87264" stop-opacity="0"></stop><stop offset="1" stop-color="#FF7044"></stop></linearGradient><linearGradient id="paint72_linear_266_166" x1="36.0725" y1="45.9283" x2="34.3209" y2="41.6923" gradientUnits="userSpaceOnUse"><stop stop-color="#FFD945" stop-opacity="0"></stop><stop offset="1" stop-color="#FBED21"></stop></linearGradient><linearGradient id="paint73_linear_266_166" x1="36.0907" y1="41.2964" x2="36.0907" y2="45.6893" gradientUnits="userSpaceOnUse"><stop stop-color="#FFD945"></stop><stop offset="0.3043" stop-color="#FFCD3E"></stop><stop offset="0.8558" stop-color="#FFAD2B"></stop><stop offset="1" stop-color="#FFA325"></stop></linearGradient><linearGradient id="paint74_linear_266_166" x1="36.0908" y1="41.3602" x2="36.0908" y2="48.7482" gradientUnits="userSpaceOnUse"><stop stop-color="#E87264" stop-opacity="0"></stop><stop offset="1" stop-color="#FF7044"></stop></linearGradient><linearGradient id="paint75_linear_266_166" x1="36.0908" y1="41.3601" x2="36.0908" y2="48.7481" gradientUnits="userSpaceOnUse"><stop stop-color="#E87264" stop-opacity="0"></stop><stop offset="1" stop-color="#FF7044"></stop></linearGradient><linearGradient id="paint76_linear_266_166" x1="36.0725" y1="42.5377" x2="34.3209" y2="38.3018" gradientUnits="userSpaceOnUse"><stop stop-color="#FFD945" stop-opacity="0"></stop><stop offset="1" stop-color="#FBED21"></stop></linearGradient><linearGradient id="paint77_linear_266_166" x1="3.41852" y1="17.459" x2="7.86442" y2="23.4118" gradientUnits="userSpaceOnUse"><stop stop-color="#FFD945"></stop><stop offset="0.3043" stop-color="#FFCD3E"></stop><stop offset="0.8558" stop-color="#FFAD2B"></stop><stop offset="1" stop-color="#FFA325"></stop></linearGradient><linearGradient id="paint78_linear_266_166" x1="10.6122" y1="5.30354" x2="13.7561" y2="9.51305" gradientUnits="userSpaceOnUse"><stop stop-color="#FFD945"></stop><stop offset="0.3043" stop-color="#FFCD3E"></stop><stop offset="0.8558" stop-color="#FFAD2B"></stop><stop offset="1" stop-color="#FFA325"></stop></linearGradient><linearGradient id="paint79_linear_266_166" x1="37.7524" y1="7.6293" x2="40.8965" y2="11.8388" gradientUnits="userSpaceOnUse"><stop stop-color="#FFD945"></stop><stop offset="0.3043" stop-color="#FFCD3E"></stop><stop offset="0.8558" stop-color="#FFAD2B"></stop><stop offset="1" stop-color="#FFA325"></stop></linearGradient><clipPath id="clip0_266_166"><rect width="48" height="48" fill="white"></rect></clipPath></defs></svg>