<svg xmlns="http://www.w3.org/2000/svg" width="55" height="55" viewBox="0 0 55 55" fill="none"><path d="M21.8297 42.5781H33.1702V47.0561H21.8297V42.5781Z" fill="#6E61B6"></path><path d="M28.6816 42.5781H33.1703V47.0561H28.6816V42.5781Z" fill="#6354B1"></path><path d="M2.9541 42.5815C1.38445 42.5815 0.107422 41.3045 0.107422 39.7349V5.6123C0.107422 4.04266 1.38445 2.76562 2.9541 2.76562H52.0459C53.6155 2.76562 54.8926 4.04266 54.8926 5.6123V39.7349C54.8926 41.3045 53.6155 42.5815 52.0459 42.5815H2.9541ZM2.9541 4.16211C2.15445 4.16211 1.50391 4.81266 1.50391 5.6123V36.2226H53.4961V5.6123C53.4961 4.81266 52.8455 4.16211 52.0459 4.16211H2.9541Z" fill="#978ECB"></path><path d="M2.9541 4.16406C2.15445 4.16406 1.50391 4.81461 1.50391 5.61426V36.2246H53.4961V5.61426C53.4961 4.81461 52.8455 4.16406 52.0459 4.16406H2.9541Z" fill="#978ECB"></path><path d="M54.1943 36.9179H0.805664V5.60938C0.805664 4.42279 1.76752 3.46094 2.9541 3.46094H52.0459C53.2325 3.46094 54.1943 4.42279 54.1943 5.60938V36.9179Z" fill="white"></path><path d="M52.0459 3.46094H49.8438V36.9179H54.1943V5.60938C54.1943 4.4229 53.2325 3.46094 52.0459 3.46094Z" fill="#F3F0F3"></path><path d="M52.0459 2.65625H2.9541C1.32516 2.65625 0 3.98141 0 5.61035V39.7329C0 41.3619 1.32516 42.687 2.9541 42.687H52.0459C53.6748 42.687 55 41.3619 55 39.7329V5.61035C55 3.98151 53.6748 2.65625 52.0459 2.65625ZM53.3887 36.1132H1.61133V5.61035C1.61133 4.86989 2.21364 4.26758 2.9541 4.26758H52.0459C52.7864 4.26758 53.3887 4.86989 53.3887 5.61035V36.1132Z" fill="#978ECB"></path><path d="M52.0459 2.65625H49.8438V4.26758H52.0459C52.7864 4.26758 53.3887 4.86989 53.3887 5.61035V36.1132H49.8438V40.5386C49.8438 41.7252 48.8819 42.687 47.6953 42.687H52.0459C53.6748 42.687 55 41.3619 55 39.7329V5.61035C55 3.98151 53.6748 2.65625 52.0459 2.65625Z" fill="#8379C1"></path><path d="M38.4771 46.9531H16.523C14.4583 46.9531 12.7844 48.627 12.7844 50.6917V51.8162C12.7844 52.1129 13.0249 52.3533 13.3215 52.3533H41.6785C41.9751 52.3533 42.2157 52.1129 42.2157 51.8162V50.6917C42.2157 48.627 40.5418 46.9531 38.4771 46.9531Z" fill="#978ECB"></path><path d="M38.477 46.9531H33.9664C36.0312 46.9531 37.705 48.627 37.705 50.6917V51.8162C37.705 52.1129 37.4645 52.3533 37.1679 52.3533H41.6785C41.9751 52.3533 42.2156 52.1129 42.2156 51.8162V50.6917C42.2156 48.627 40.5417 46.9531 38.477 46.9531Z" fill="#8379C1"></path><path d="M9.737 18.3359H6.18628C6.98228 22.7111 10.8121 26.0285 15.417 26.0285C15.4529 26.0285 15.4886 26.0276 15.5245 26.0271V22.5689C15.4886 22.5695 15.4531 22.5716 15.417 22.5716C12.7317 22.5717 10.4648 20.785 9.737 18.3359Z" fill="#978ECB"></path><path d="M15.4171 7.26562C10.5938 7.26562 6.62125 10.9052 6.09424 15.5877H9.5876C10.0879 12.8214 12.5066 10.7226 15.4171 10.7226C18.6899 10.7226 21.3431 13.3758 21.3431 16.6486C21.3431 16.6846 21.3411 16.7201 21.3404 16.756H24.7986C24.7991 16.7203 24.8 16.6845 24.8 16.6486C24.7999 11.4665 20.5991 7.26562 15.4171 7.26562Z" fill="#978ECB"></path><path d="M15.4171 22.5745V26.0313C20.5991 26.0313 24.8 21.8305 24.8 16.6484H21.3431C21.3431 19.9214 18.6899 22.5745 15.4171 22.5745Z" fill="#FFE177"></path><path d="M26.3223 26.4688L23.1843 29.6069C23.721 29.8048 24.1206 30.285 24.2027 30.8672L27.5828 27.4871C27.0005 27.405 26.5202 27.0054 26.3223 26.4688Z" fill="#8AC9FE"></path><path d="M33.6839 26.9004C33.4725 26.6316 33.3452 26.2937 33.3452 25.926C33.3452 25.6993 33.394 25.4841 33.4804 25.2891H29.2487C29.3351 25.4841 29.384 25.6993 29.384 25.926C29.384 26.2937 29.2567 26.6316 29.0453 26.9004H33.6839Z" fill="#8AC9FE"></path><path d="M21.2829 31.8926C21.142 31.6564 21.0596 31.3814 21.0596 31.0869C21.0596 30.7925 21.142 30.5175 21.283 30.2812H9.797C9.91119 30.5266 9.97682 30.7989 9.97682 31.0869C9.97682 31.3749 9.91119 31.6472 9.797 31.8926H21.2829Z" fill="#8AC9FE"></path><path d="M41.2693 18.2734L35.1755 24.3672C35.7535 24.4598 36.2269 24.8657 36.4158 25.4057L42.3304 19.4912C41.8197 19.2627 41.4271 18.818 41.2693 18.2734Z" fill="#8AC9FE"></path><path d="M48.9659 16.8516H44.8071C44.9473 17.1179 45.0277 17.4204 45.0277 17.7417C45.0277 17.9968 44.9765 18.24 44.8857 18.4629H48.9659C49.4109 18.4629 49.7715 18.1022 49.7715 17.6572C49.7715 17.2123 49.4109 16.8516 48.9659 16.8516Z" fill="#8AC9FE"></path><path d="M10.0405 31.4623C10.2373 30.3618 9.50471 29.31 8.40416 29.1132C7.30362 28.9163 6.25187 29.6489 6.05503 30.7495C5.85818 31.85 6.59078 32.9018 7.69132 33.0986C8.79187 33.2955 9.84362 32.5629 10.0405 31.4623Z" fill="#FD8087"></path><path d="M8.05917 29.0703C7.72659 29.0703 7.41367 29.152 7.13684 29.2941C7.79104 29.6298 8.23963 30.3095 8.23963 31.0954C8.23963 31.8813 7.79104 32.5611 7.13684 32.8968C7.41367 33.0388 7.72659 33.1205 8.05917 33.1205C9.17764 33.1205 10.0843 32.2139 10.0843 31.0954C10.0843 29.977 9.17764 29.0703 8.05917 29.0703Z" fill="#FE646F"></path><path d="M23.9696 32.1352C24.5521 31.4073 24.4342 30.345 23.7063 29.7625C22.9784 29.1799 21.9161 29.2978 21.3336 30.0257C20.751 30.7537 20.8689 31.816 21.5968 32.3985C22.3247 32.981 23.3871 32.8632 23.9696 32.1352Z" fill="#FFE177"></path><path d="M29.4516 26.2977C29.6641 25.3899 29.1005 24.4817 28.1927 24.2692C27.2849 24.0567 26.3767 24.6204 26.1642 25.5282C25.9517 26.436 26.5153 27.3441 27.4231 27.5566C28.3309 27.7692 29.2391 27.2055 29.4516 26.2977Z" fill="#FFE177"></path><path d="M36.5714 26.1913C36.7196 25.2714 36.094 24.4055 35.1741 24.2573C34.2542 24.1091 33.3883 24.7347 33.2401 25.6547C33.0919 26.5746 33.7175 27.4404 34.6375 27.5886C35.5574 27.7368 36.4233 27.1112 36.5714 26.1913Z" fill="#FFE177"></path><path d="M34.9253 24.2422C34.646 24.2422 34.3832 24.3112 34.1511 24.4313C34.6933 24.7119 35.0645 25.277 35.0645 25.9297C35.0645 26.5824 34.6933 27.1474 34.1511 27.4281C34.3832 27.5482 34.6459 27.6172 34.9253 27.6172C35.8573 27.6172 36.6129 26.8617 36.6129 25.9296C36.6129 24.9978 35.8573 24.2422 34.9253 24.2422Z" fill="#FFD15B"></path><path d="M27.8039 24.2422C27.5246 24.2422 27.2617 24.3112 27.0297 24.4313C27.5718 24.7119 27.9431 25.277 27.9431 25.9297C27.9431 26.5824 27.5718 27.1474 27.0297 27.4281C27.2617 27.5482 27.5244 27.6172 27.8039 27.6172C28.7358 27.6172 29.4914 26.8617 29.4914 25.9296C29.4914 24.9978 28.7358 24.2422 27.8039 24.2422Z" fill="#FFD15B"></path><path d="M22.6398 29.4062C22.3605 29.4062 22.0976 29.4752 21.8656 29.5953C22.4078 29.876 22.779 30.441 22.779 31.0937C22.779 31.7464 22.4078 32.3115 21.8656 32.5922C22.0976 32.7123 22.3604 32.7812 22.6398 32.7812C23.5718 32.7812 24.3274 32.0256 24.3274 31.0936C24.3274 30.1619 23.5718 29.4062 22.6398 29.4062Z" fill="#FFD15B"></path><path d="M45.092 18.1932C45.347 17.1038 44.6706 16.014 43.5812 15.759C42.4919 15.504 41.402 16.1804 41.147 17.2697C40.892 18.3591 41.5684 19.4489 42.6578 19.7039C43.7471 19.9589 44.837 19.2825 45.092 18.1932Z" fill="#05E39C"></path><path d="M43.1101 15.7188C42.7776 15.7188 42.4648 15.8004 42.1881 15.9424C42.8425 16.2781 43.2911 16.9579 43.2911 17.7439C43.2911 18.5299 42.8424 19.2097 42.1881 19.5453C42.4648 19.6873 42.7777 19.7689 43.1101 19.7689C44.2286 19.7689 45.1352 18.8622 45.1352 17.7438C45.1352 16.6254 44.2286 15.7188 43.1101 15.7188Z" fill="#0ED290"></path><path d="M48.4288 33.7285H41.6797C41.3831 33.7285 41.1426 33.488 41.1426 33.1914V24.0605C41.1426 23.764 41.3831 23.5234 41.6797 23.5234H48.4288C48.7254 23.5234 48.9659 23.764 48.9659 24.0605V33.1914C48.9659 33.488 48.7255 33.7285 48.4288 33.7285Z" fill="#D8ECFE"></path><path d="M48.4288 23.5234H45.9766C46.2732 23.5234 46.5137 23.764 46.5137 24.0605V33.1914C46.5137 33.488 46.2732 33.7285 45.9766 33.7285H48.4288C48.7254 33.7285 48.9659 33.488 48.9659 33.1914V24.0605C48.9659 23.764 48.7255 23.5234 48.4288 23.5234Z" fill="#C4E2FF"></path><path d="M48.9659 29.4316V27.8203H41.1426V29.4316H48.9659Z" fill="#8AC9FE"></path><path d="M48.6437 8.07031H29.3962V11.0363H48.6437C48.8217 11.0363 48.9659 10.8921 48.9659 10.7141V8.39258C48.9659 8.21458 48.8217 8.07031 48.6437 8.07031Z" fill="#05E39C"></path><path d="M48.6436 8.07031H45.2972C45.4752 8.07031 45.6195 8.21458 45.6195 8.39258V10.7141C45.6195 10.8921 45.4752 11.0363 45.2972 11.0363H48.6436C48.8216 11.0363 48.9659 10.8921 48.9659 10.7141V8.39258C48.9659 8.21458 48.8216 8.07031 48.6436 8.07031Z" fill="#0ED290"></path><path d="M37.8555 14.1797H29.3962V17.1457H37.8555C38.0335 17.1457 38.1778 17.0014 38.1778 16.8234V14.502C38.1778 14.324 38.0335 14.1797 37.8555 14.1797Z" fill="#FD8087"></path><path d="M37.8554 14.1797H34.509C34.687 14.1797 34.8313 14.324 34.8313 14.502V16.8234C34.8313 17.0014 34.687 17.1457 34.509 17.1457H37.8554C38.0334 17.1457 38.1777 17.0014 38.1777 16.8234V14.502C38.1777 14.324 38.0334 14.1797 37.8554 14.1797Z" fill="#FE646F"></path><path d="M13.5352 18.4504H4.69995C4.52195 18.4504 4.37769 18.3061 4.37769 18.1281V15.8066C4.37769 15.6286 4.52195 15.4844 4.69995 15.4844H13.5352C13.7132 15.4844 13.8575 15.6286 13.8575 15.8066V18.1281C13.8575 18.306 13.7132 18.4504 13.5352 18.4504Z" fill="#05E39C"></path><path d="M13.5351 15.4844H10.1243C10.3023 15.4844 10.4465 15.6286 10.4465 15.8066V18.1281C10.4465 18.3061 10.3023 18.4504 10.1243 18.4504H13.5351C13.7131 18.4504 13.8574 18.3061 13.8574 18.1281V15.8066C13.8574 15.6288 13.7131 15.4844 13.5351 15.4844Z" fill="#0ED290"></path><path d="M28.698 18.75C28.2529 18.75 27.8923 18.3893 27.8923 17.9443V7.2666C27.8923 6.82166 28.2529 6.46094 28.698 6.46094C29.143 6.46094 29.5037 6.82166 29.5037 7.2666V17.9443C29.5037 18.3893 29.143 18.75 28.698 18.75Z" fill="#8AC9FE"></path></svg>