<svg xmlns="http://www.w3.org/2000/svg" width="48" height="48" viewBox="0 0 48 48" fill="none"><g clip-path="url(#clip0_266_285)"><path d="M24.0273 47.9968H23.9915C20.8502 47.9968 18.2947 45.4412 18.2947 42.2999V40.9687C18.2947 40.1921 18.9243 39.5625 19.7009 39.5625H28.3179C29.0945 39.5625 29.7241 40.1921 29.7241 40.9687V42.2999C29.7241 45.4413 27.1685 47.9968 24.0273 47.9968Z" fill="#FFA81C"></path><path d="M28.3179 39.5625H24.0094V47.9968H24.0273C27.1686 47.9968 29.7241 45.4412 29.7241 42.2999V40.9687C29.7241 40.192 29.0945 39.5625 28.3179 39.5625Z" fill="#FF9300"></path><path d="M26.8203 8.78849H21.1984C20.4218 8.78849 19.7922 8.15888 19.7922 7.38228V4.21711C19.7922 1.89172 21.684 0 24.0093 0C26.3346 0 28.2265 1.89181 28.2265 4.21711V7.38228C28.2266 8.15888 27.5969 8.78849 26.8203 8.78849Z" fill="#FFA81C"></path><path d="M26.8203 8.78849C27.5969 8.78849 28.2265 8.15888 28.2265 7.38228V4.21711C28.2265 1.89172 26.3347 0 24.0094 0V8.78849H26.8203Z" fill="#FF9300"></path><path d="M38.9103 42.3777H9.10849C7.89137 42.3777 6.90112 41.3874 6.90112 40.1703V38.1598C6.90112 35.9576 7.71194 33.8429 9.18424 32.2051C10.1916 31.0845 10.7464 29.6375 10.7464 28.1307V19.0207C10.7464 11.7075 16.6961 5.75781 24.0093 5.75781C31.3225 5.75781 37.2721 11.7075 37.2721 19.0207V28.1307C37.2721 29.6375 37.8269 31.0845 38.8343 32.205C40.3067 33.8428 41.1175 35.9575 41.1175 38.1597V40.1702C41.1176 41.3874 40.1275 42.3777 38.9103 42.3777Z" fill="#FFCF2C"></path><path d="M38.9103 42.3776C40.1274 42.3776 41.1176 41.3874 41.1176 40.1702V38.1597C41.1176 35.9575 40.3068 33.8428 38.8344 32.205C37.827 31.0845 37.2722 29.6375 37.2722 28.1307V19.0207C37.2722 11.7075 31.3226 5.75781 24.0094 5.75781V42.3776H38.9103Z" fill="#FFC12E"></path><path d="M6.90112 38.1619V40.1724C6.90112 41.3895 7.89137 42.3798 9.10849 42.3798H38.9103C40.1274 42.3798 41.1176 41.3895 41.1176 40.1724V38.1619C41.1176 37.1974 40.962 36.2498 40.6635 35.3516H7.35523C7.05674 36.2498 6.90112 37.1974 6.90112 38.1619Z" fill="#FFF566"></path><path d="M24.0094 35.3517V42.3798H38.9103C40.1274 42.3798 41.1176 41.3895 41.1176 40.1724V38.1619C41.1176 37.1974 40.962 36.2498 40.6635 35.3516H24.0094V35.3517Z" fill="#FFE645"></path><path d="M1.40788 15.5308C1.30954 15.5308 1.20979 15.5205 1.10976 15.4988C0.350601 15.335 -0.131914 14.5867 0.031955 13.8275C1.15804 8.61152 4.03185 3.82002 8.1239 0.335544C8.71526 -0.16797 9.60276 -0.0966289 10.1062 0.494539C10.6097 1.08589 10.5385 1.9733 9.94719 2.47682C6.32256 5.56324 3.77752 9.8051 2.78099 14.421C2.63877 15.0801 2.05586 15.5308 1.40788 15.5308Z" fill="#FF8B6E"></path><path d="M46.592 15.5307C45.944 15.5307 45.3612 15.0802 45.2189 14.421C44.2224 9.80511 41.6774 5.56325 38.0528 2.47692C37.4615 1.9734 37.3903 1.0859 37.8938 0.49464C38.3973 -0.0967157 39.2847 -0.167963 39.8761 0.335645C43.9682 3.81993 46.8419 8.61152 47.968 13.8275C48.1318 14.5867 47.6493 15.335 46.8902 15.4988C46.7902 15.5203 46.6904 15.5307 46.592 15.5307Z" fill="#FF674F"></path><path d="M6.81434 17.1761C6.72818 17.1761 6.64081 17.1681 6.55306 17.1516C5.78978 17.0082 5.28739 16.2731 5.43082 15.5099C6.20264 11.4029 8.36707 7.60913 11.5252 4.82757C12.1079 4.31412 12.9966 4.37064 13.5098 4.95338C14.0232 5.5362 13.9668 6.42473 13.384 6.938C10.6943 9.30707 8.85136 12.5357 8.19476 16.0293C8.06783 16.7049 7.4775 17.1761 6.81434 17.1761Z" fill="#FF8B6E"></path><path d="M41.1857 17.1759C40.5224 17.1759 39.9322 16.7048 39.8053 16.0292C39.1486 12.5357 37.3059 9.307 34.6162 6.93802C34.0333 6.42466 33.9771 5.53612 34.4904 4.9533C35.0037 4.37057 35.8923 4.31423 36.4751 4.82749C39.633 7.60906 41.7974 11.4027 42.5692 15.5097C42.7126 16.273 42.2101 17.0079 41.4469 17.1514C41.3593 17.168 41.2718 17.1759 41.1857 17.1759Z" fill="#FF674F"></path></g><defs><clipPath id="clip0_266_285"><rect width="48" height="48" fill="white"></rect></clipPath></defs></svg>