<svg xmlns="http://www.w3.org/2000/svg" width="54" height="54" viewBox="0 0 54 54" fill="none"><g clip-path="url(#clip0_266_315)"><path d="M5.22778 49.7577L9.10671 50.7069L12.9855 49.7577V47.8555L9.10671 46.9062L5.22778 47.8555V49.7577Z" fill="#F9CF58"></path><path d="M17.1566 49.7577L21.0355 50.7069L24.9145 49.7577V47.8555L21.0355 46.9062L17.1566 47.8555V49.7577Z" fill="#FFAC3E"></path><path d="M29.0856 49.7577L32.9645 50.7069L36.8434 49.7577V47.8555L32.9645 46.9062L29.0856 47.8555V49.7577Z" fill="#82D361"></path><path d="M41.0144 49.7577L44.8933 50.7069L48.7723 49.7577V47.8555L44.8933 46.9062L41.0144 47.8555V49.7577Z" fill="#6CC4FF"></path><path d="M12.9855 47.8564H5.22778V40.1818C5.22778 39.5981 5.70092 39.125 6.28458 39.125H11.929C12.5126 39.125 12.9857 39.5981 12.9857 40.1818V47.8564H12.9855Z" fill="#FFE27A"></path><path d="M24.9145 47.8587H17.1566V34.4162C17.1566 33.8325 17.6297 33.3594 18.2134 33.3594H23.8577C24.4413 33.3594 24.9145 33.8325 24.9145 34.4162V47.8587Z" fill="#FFBA57"></path><path d="M36.8434 47.8532H29.0856V28.6427C29.0856 28.0591 29.5587 27.5859 30.1424 27.5859H35.7867C36.3704 27.5859 36.8435 28.0591 36.8435 28.6427V47.8532H36.8434Z" fill="#98DB7C"></path><path d="M48.7723 47.8556H41.0144V22.8771C41.0144 22.2934 41.4875 21.8203 42.0712 21.8203H47.7156C48.2992 21.8203 48.7724 22.2934 48.7724 22.8771V47.8556H48.7723Z" fill="#8BCAFF"></path><path d="M44.5032 12.4054L43.5722 3.13209C43.5398 2.80946 43.2271 2.59178 42.9133 2.67352L33.8876 5.0242C33.4508 5.138 33.3486 5.71165 33.7192 5.96931L36.0769 7.60861C36.0769 7.60861 30.0301 19.401 8.18225 26.1434V26.7327C14.1768 26.7655 29.847 25.0511 39.6751 11.8444L41.317 11.2519L43.6758 12.892C44.0462 13.1495 44.5482 12.8543 44.5032 12.4054Z" fill="#FF4755"></path><path d="M40.3706 10.5809C40.1354 10.4148 39.8119 10.4686 39.6401 10.6996C29.812 23.9063 17.2033 25.5694 8.53987 26.1712C8.41225 26.1801 8.2955 26.1673 8.18898 26.1388L8.18128 26.1413C7.06383 26.4937 7.37687 28.1543 8.54578 28.073C17.3003 27.4639 31.7514 24.3375 41.3169 11.2495L40.3706 10.5809Z" fill="#FC2B3A"></path><path d="M53.2074 51.343H0.792598C0.354902 51.343 0 50.9881 0 50.5504C0 50.1127 0.354797 49.7578 0.792598 49.7578H53.2075C53.6452 49.7578 54.0001 50.1127 54.0001 50.5504C54 50.9881 53.6451 51.343 53.2074 51.343Z" fill="#407093"></path></g><defs><clipPath id="clip0_266_315"><rect width="54" height="54" fill="white"></rect></clipPath></defs></svg>