<svg xmlns="http://www.w3.org/2000/svg" width="52" height="52" viewBox="0 0 52 52" fill="none"><path d="M36.6641 10.6641C36.6641 12.5531 36.1462 14.3811 35.2017 15.9961C34.2875 17.55 33.7695 19.4491 33.6782 21.4297L33.5563 23.4101V23.4405L31.972 24.4766H20.1501L18.4439 23.4405L18.3523 21.4297C18.2306 20.1804 17.8649 18.0984 16.5243 15.478C15.2445 12.9798 15.0009 10.0852 15.8539 7.3124C16.8594 4.08271 19.4797 1.49297 22.6485 0.517867C23.7759 0.182812 24.9031 0 26 0C28.2852 0 30.4788 0.70068 32.307 2.07187C35.0491 4.08271 36.6641 7.28203 36.6641 10.6641Z" fill="#FFD400"></path><path d="M36.6641 10.6641C36.6641 12.5531 36.1462 14.3811 35.2017 15.9961C34.2875 17.55 33.7695 19.4491 33.6782 21.4297L33.5562 23.4101V23.4405L31.972 24.4766H26V0C28.2852 0 30.4788 0.70068 32.307 2.07187C35.0491 4.08271 36.6641 7.28203 36.6641 10.6641Z" fill="#FDBF00"></path><path d="M30.5703 9.14062V12.1875H27.5234V26H24.4766V12.1875H21.4297V9.14062H30.5703Z" fill="#FDBF00"></path><path d="M27.5234 26H26V9.14062H30.5703V12.1875H27.5234V26Z" fill="#FF9F00"></path><path d="M21.4297 42.7558H13.8125C7.93295 42.7558 3.14844 37.9713 3.14844 32.0917V22.3203L6.64168 25.8136C7.72769 26.8996 9.2303 27.5214 10.7656 27.5214C16.6452 27.5214 21.4297 32.3059 21.4297 38.1855V42.7558Z" fill="#00CC71"></path><path d="M38.1875 42.7558H30.5703V38.1855C30.5703 32.3059 35.3548 27.5214 41.2344 27.5214C42.7697 27.5214 44.2723 26.8996 45.3583 25.8136L48.8516 22.3203V32.0917C48.8516 37.9713 44.0671 42.7558 38.1875 42.7558Z" fill="#00AB5E"></path><path d="M40.6554 36.3289C39.3148 37.4258 38.0046 38.4008 36.7555 39.3453C31.6366 43.2147 28.1633 45.9976 27.6149 50.4766H24.385C23.8366 45.9976 20.3633 43.2147 15.2444 39.3453C13.9953 38.4008 12.6851 37.4258 11.3445 36.3289L13.2335 33.9522C14.5742 35.0185 15.8539 35.9935 17.0726 36.9076C19.9977 39.1016 22.5875 41.082 24.4765 43.3367V29.0469H27.5234V43.3367C29.4125 41.082 32.0022 39.1016 34.9273 36.9077C36.1462 35.9936 37.4257 35.0186 38.7664 33.9523L40.6554 36.3289Z" fill="#007840"></path><path d="M40.6555 36.3289C39.3148 37.4258 38.0047 38.4008 36.7556 39.3453C31.6366 43.2147 28.1634 45.9976 27.6149 50.4766H26V29.0469H27.5234V43.3367C29.4125 41.082 32.0022 39.1016 34.9273 36.9077C36.1462 35.9936 37.4258 35.0186 38.7664 33.9523L40.6555 36.3289Z" fill="#006635"></path><path d="M33.6172 48.9531H18.3828V52H33.6172V48.9531Z" fill="#5A5A5A"></path><path d="M33.6172 48.9531H26V52H33.6172V48.9531Z" fill="#444444"></path><path d="M33.5561 23.4375L33.0383 24.4735L29.9914 30.5673H22.0086L18.9617 24.4735L18.4438 23.4375H33.5561Z" fill="#EDE9E8"></path><path d="M29.9914 30.5673H26V23.4375H33.5561L33.0383 24.4735L29.9914 30.5673Z" fill="#D2C5C2"></path></svg>