<svg xmlns="http://www.w3.org/2000/svg" width="58" height="58" viewBox="0 0 58 58" fill="none"><g clip-path="url(#clip0_264_655)"><path d="M55.365 19.674H33.7321L32.7125 18.5886L31.693 11.0167L32.7125 2.35938H57.4145C57.8638 2.35938 58.1452 2.84501 57.9218 3.23481L53.3357 11.2356C53.2325 11.4158 53.2325 11.6371 53.3357 11.8171L57.2171 18.5885L55.365 19.674Z" fill="#FF4755"></path><path d="M32.7125 18.5859L31.693 19.6713L32.7125 20.6908H57.4145C57.8638 20.6908 58.1452 20.2052 57.9218 19.8154L57.2171 18.5859H32.7125Z" fill="#FC2B3A"></path><path d="M30.8073 31.3966L32.7124 30.5648V1.90381C32.7124 0.852328 31.8594 0 30.8073 0C29.755 0 28.902 0.852328 28.902 1.90381V30.0576L30.8073 31.3966Z" fill="#E8834D"></path><path d="M32.7124 30.5618C31.6319 30.228 30.3314 30.0769 28.902 30.0547V32.1596L30.8073 33.2995L32.7124 32.6666V30.5618Z" fill="#D66E41"></path><path d="M29.0159 51.9378H37.5325C39.8402 51.9378 39.9738 49.7008 39.8264 49.3802C39.4272 48.5126 38.5502 47.9102 37.5325 47.9102L33.6709 46.8906L30.0355 47.9102H29.0159C27.9982 47.9102 27.1213 48.5126 26.7221 49.3802C26.5746 49.7008 26.7083 51.9378 29.0159 51.9378Z" fill="#F4B184"></path><path d="M30.1591 56.9846H35.225C37.5624 56.9846 37.6798 54.8002 37.552 54.4983C37.1686 53.5925 36.2711 52.957 35.225 52.957L33.2743 51.9375L31.1787 52.957H30.1591C29.1407 52.957 28.263 53.5595 27.8636 54.4271C27.716 54.7477 27.8497 56.9846 30.1591 56.9846V56.9846Z" fill="#F4B184"></path><path d="M27.3912 42.8633C26.3728 42.8633 25.4951 43.4657 25.0957 44.3333C24.9481 44.6539 25.0818 46.8909 27.3912 46.8909H39.1235C41.4329 46.8909 41.5666 44.6539 41.419 44.3333C41.0196 43.4657 40.142 42.8633 39.1235 42.8633L34.1399 41.8438L29.1287 42.8633H27.3912Z" fill="#F4B184"></path><path d="M28.1075 37.8125H40.9626C41.9803 37.8125 42.8572 38.4149 43.2564 39.2826C43.4039 39.6031 43.2702 41.8401 40.9626 41.8401H28.1075C25.7718 41.8401 25.6545 39.6557 25.7822 39.3538C26.1653 38.448 27.0622 37.8125 28.1075 37.8125V37.8125Z" fill="#F4B184"></path><path d="M37.5325 50.8462H29.0159C27.9983 50.8462 27.1236 50.2426 26.7244 49.375C26.5768 49.6957 26.4923 50.0513 26.4923 50.4274C26.4923 51.8211 27.6222 52.951 29.0159 52.951H37.5325C38.9262 52.951 40.056 51.8211 40.056 50.4274C40.056 50.0513 39.9715 49.6956 39.8239 49.375C39.4247 50.2426 38.5501 50.8462 37.5325 50.8462Z" fill="#EAA678"></path><path d="M35.2249 55.8931H30.159C29.1406 55.8931 28.2654 55.2895 27.8659 54.4219C27.7183 54.7426 27.6337 55.0982 27.6337 55.4743C27.6337 56.868 28.7643 57.9978 30.159 57.9978H35.2249C36.6196 57.9978 37.7503 56.868 37.7503 55.4743C37.7503 55.0982 37.6656 54.7425 37.518 54.4219C37.1186 55.2895 36.2433 55.8931 35.2249 55.8931Z" fill="#EAA678"></path><path d="M39.1236 45.7993H27.3912C26.3728 45.7993 25.4975 45.1957 25.0981 44.3281C24.9504 44.6488 24.8658 45.0044 24.8658 45.3805C24.8658 46.7742 25.9965 47.9041 27.3912 47.9041H39.1235C40.5183 47.9041 41.6489 46.7742 41.6489 45.3805C41.6489 45.0044 41.5643 44.6487 41.4167 44.3281C41.0173 45.1957 40.1419 45.7993 39.1236 45.7993V45.7993Z" fill="#EAA678"></path><path d="M40.9625 40.7524H28.1074C27.0898 40.7524 26.2152 40.1489 25.816 39.2812C25.6684 39.6019 25.5839 39.9575 25.5839 40.3336C25.5839 41.7273 26.7137 42.8572 28.1074 42.8572H40.9625C42.3562 42.8572 43.486 41.7273 43.486 40.3336C43.486 39.9575 43.4015 39.6018 43.2539 39.2812C42.8547 40.1488 41.9801 40.7524 40.9625 40.7524Z" fill="#EAA678"></path><path d="M28.6531 55.4733C28.6531 54.0796 29.7838 52.9498 31.1785 52.9498H30.0354C28.6417 52.9498 27.5118 51.8199 27.5118 50.4262C27.5118 49.0325 28.6417 47.9026 30.0354 47.9026H28.4107C27.016 47.9026 25.8853 46.7728 25.8853 45.3791C25.8853 43.9854 27.016 42.8555 28.4107 42.8555H29.1288C27.7341 42.8555 26.6034 41.7256 26.6034 40.3319C26.6034 38.9382 27.7341 37.8084 29.1288 37.8084H29.624L30.7029 42.8555L30.8163 43.3861C31.1195 44.8045 32.2669 45.8826 33.6911 46.1766C33.8826 46.2133 34.1027 46.2527 34.4759 46.2569C35.2431 46.2569 35.8651 45.6584 35.8651 44.9202V42.8556V36.5052C35.8651 31.1184 27.542 31.7748 20.1686 33.0261C16.7721 33.6025 13.7919 35.8065 12.374 37.011C11.7663 37.5273 10.9936 37.8085 10.1959 37.8085H7.94836L5.9093 45.1139L7.94836 51.3339L8.96789 52.4193H10.169C11.3632 52.4193 12.5096 52.8471 13.4101 53.6019C17.4372 56.9774 23.3677 56.9774 23.3677 56.9774H27.1005C27.1005 56.9774 28.8877 57.0868 28.6879 55.8926C28.665 55.7562 28.6531 55.6162 28.6531 55.4733V55.4733Z" fill="#FFC89F"></path><path d="M28.6907 55.8942H23.3678C23.3678 55.8942 18.4896 55.8942 14.4626 52.5186C13.5621 51.7638 12.4157 51.3359 11.2215 51.3359H7.94836L6.92883 52.2548L7.94836 53.4408H10.169C11.3632 53.4408 12.5096 53.8687 13.4101 54.6235C17.4373 57.999 23.3678 57.999 23.3678 57.999H31.1786C29.9269 57.999 28.8908 57.0881 28.6907 55.8942V55.8942Z" fill="#F7BC94"></path><path d="M29.53 37.3466C29.4609 37.0203 29.1334 36.8179 28.8106 36.9018L26.6359 37.4681C26.3276 37.5483 26.0865 37.7916 26.007 38.1C25.9939 38.151 24.6326 43.2104 19.2469 45.4325C18.8081 45.6135 18.5597 46.104 18.719 46.5511C18.8481 46.9138 19.1873 47.1351 19.5458 47.1351C19.6564 47.1351 19.7689 47.114 19.8775 47.0695C25.1237 44.9233 27.0336 40.5445 27.55 39.0425L29.7668 38.4652L29.53 37.3466Z" fill="#EAA678"></path><path d="M6.92885 53.339H1.01953L0 52.2536V37.4753C0 37.1524 0.261793 36.8906 0.584645 36.8906H7.36374C7.6867 36.8906 7.94838 37.1524 7.94838 37.4753V52.2537L6.92885 53.339Z" fill="#E6E2E6"></path><path d="M0.584645 54.3626H7.36374C7.6867 54.3626 7.94838 54.1008 7.94838 53.7779V52.2578H0V53.7779C0 54.1008 0.261793 54.3626 0.584645 54.3626Z" fill="#D8D1D7"></path></g><defs><clipPath id="clip0_264_655"><rect width="58" height="58" fill="white"></rect></clipPath></defs></svg>