<svg xmlns="http://www.w3.org/2000/svg" width="76" height="64" viewBox="0 0 76 64" fill="none"><g clip-path="url(#clip0_1_4613)"><path d="M6.03101 53.3173L43.2546 56.436C43.4381 56.4523 43.6215 56.4589 43.8083 56.4622C43.8639 56.4622 43.9196 56.4622 43.9753 56.4622C44.1096 56.4622 44.2472 56.4589 44.3815 56.4523C44.4405 56.4491 44.4962 56.4458 44.5552 56.4425C44.7189 56.4327 44.8827 56.4163 45.0465 56.3966C45.0695 56.3934 45.0924 56.3934 45.1153 56.3901C45.302 56.3672 45.4888 56.3377 45.6755 56.3016C45.7279 56.2918 45.7836 56.2787 45.836 56.2689C45.9736 56.2427 46.1112 56.2099 46.2488 56.1772C46.3077 56.1641 46.3667 56.1477 46.4257 56.1313C46.5764 56.092 46.7303 56.0494 46.881 56.0035C46.917 55.9937 46.9531 55.9839 46.9891 55.9708C47.1758 55.9118 47.3593 55.8463 47.546 55.7775C47.5951 55.7611 47.641 55.7415 47.6902 55.7218C47.831 55.6661 47.9686 55.6104 48.1062 55.5515C48.1783 55.522 48.2503 55.4892 48.3224 55.4565C48.3814 55.4303 48.4436 55.4008 48.5026 55.3746C48.591 55.332 48.6762 55.2927 48.7646 55.2468C48.8236 55.2173 48.8826 55.1878 48.9383 55.1584C49.03 55.1125 49.1184 55.0634 49.2102 55.0142C49.2626 54.9847 49.315 54.9585 49.3674 54.9291C49.4722 54.8701 49.577 54.8078 49.6819 54.7456C49.7179 54.7227 49.7539 54.703 49.79 54.6801C49.9308 54.5949 50.0684 54.5065 50.206 54.418C50.2388 54.3951 50.2715 54.3722 50.3043 54.3525C50.4091 54.2837 50.5107 54.2116 50.6155 54.1396C50.6646 54.1035 50.7138 54.0675 50.7629 54.0347C50.8481 53.9725 50.9333 53.9103 51.0184 53.8447C51.0708 53.8054 51.1233 53.7628 51.1757 53.7203C51.2543 53.658 51.3329 53.5958 51.4115 53.5335C51.4639 53.491 51.5196 53.4451 51.572 53.4025C51.6474 53.337 51.7227 53.2747 51.7981 53.2092C51.8505 53.1634 51.9029 53.1175 51.9553 53.0716C52.0307 53.0028 52.106 52.9341 52.1814 52.8653C52.2305 52.8194 52.2796 52.7735 52.3288 52.7277C52.4074 52.6523 52.486 52.5737 52.5614 52.4984C52.6039 52.4558 52.6465 52.4132 52.6891 52.3706C52.7841 52.2723 52.8758 52.1741 52.9708 52.0725C52.9938 52.0496 53.0167 52.0234 53.0396 52.0004C53.1543 51.876 53.2657 51.7482 53.3738 51.6204C53.4065 51.5844 53.436 51.5451 53.4655 51.5091C53.5441 51.4173 53.6195 51.3223 53.6948 51.2273C53.7341 51.1782 53.7734 51.1258 53.8127 51.0766C53.8783 50.9915 53.9405 50.9096 54.006 50.8244C54.0486 50.7654 54.0912 50.7065 54.1338 50.6475C54.1927 50.5656 54.2484 50.487 54.3041 50.4051C54.3467 50.3428 54.3893 50.2806 54.4286 50.2184C54.4843 50.1365 54.5367 50.0546 54.5891 49.9727C54.6284 49.9104 54.6677 49.8449 54.707 49.7827C54.7595 49.6975 54.8086 49.6123 54.8577 49.5272C54.8938 49.4616 54.9331 49.3994 54.9691 49.3339C55.0183 49.2454 55.0641 49.1603 55.1133 49.0718C55.146 49.0096 55.182 48.9441 55.2148 48.8818C55.2639 48.7901 55.3065 48.6951 55.3524 48.6034C55.3819 48.5411 55.4114 48.4822 55.4408 48.4199C55.49 48.3151 55.5358 48.2103 55.5817 48.1054C55.6046 48.053 55.6276 48.0006 55.6505 47.9482C55.716 47.791 55.7815 47.6304 55.8405 47.4699L68.8653 12.6213C70.1888 9.07682 69.6024 5.83044 67.6271 3.91406L74.051 10.1513C76.0264 12.0677 76.6127 15.3173 75.2893 18.8585L62.2677 53.7006C62.2088 53.8611 62.1433 54.0216 62.0777 54.1789C62.0548 54.2313 62.0319 54.2837 62.0089 54.3361C61.9631 54.441 61.9172 54.5458 61.8681 54.6506C61.8386 54.7128 61.8091 54.7718 61.7796 54.8341C61.7338 54.9291 61.6879 55.0208 61.642 55.1158C61.6093 55.1813 61.5765 55.2435 61.5405 55.3058C61.4946 55.3942 61.4455 55.4827 61.3964 55.5711C61.3603 55.6366 61.3243 55.6989 61.285 55.7644C61.2358 55.8496 61.1834 55.9347 61.1343 56.0199C61.095 56.0822 61.0557 56.1477 61.0164 56.2099C60.9639 56.2918 60.9083 56.377 60.8558 56.4589C60.8133 56.5211 60.7739 56.5834 60.7314 56.6423C60.6757 56.7242 60.6167 56.8061 60.561 56.8847C60.5184 56.9437 60.4758 57.0027 60.4333 57.0616C60.4169 57.0846 60.4005 57.1108 60.3808 57.1337C60.335 57.1959 60.2858 57.2549 60.24 57.3172C60.2007 57.3663 60.1614 57.4187 60.122 57.4678C60.0467 57.5628 59.9681 57.6578 59.8927 57.7496C59.8633 57.7856 59.8305 57.8249 59.801 57.861C59.6929 57.9887 59.5783 58.1165 59.4669 58.241C59.4439 58.2639 59.421 58.2868 59.4014 58.313C59.3096 58.4146 59.2146 58.5129 59.1196 58.6111C59.077 58.6537 59.0345 58.6963 58.9919 58.7389C58.9133 58.8175 58.8379 58.8928 58.7593 58.9682C58.7102 59.0141 58.661 59.0599 58.6119 59.1058C58.5365 59.1746 58.4612 59.2434 58.3858 59.3122C58.3334 59.358 58.281 59.4039 58.2286 59.4497C58.1533 59.5153 58.0779 59.5808 58.0026 59.643C57.9502 59.6889 57.8977 59.7315 57.842 59.7741C57.7634 59.8363 57.6848 59.9018 57.6062 59.9608C57.5538 60.0034 57.5014 60.0427 57.4489 60.082C57.3638 60.1475 57.2786 60.2097 57.1934 60.272C57.1443 60.308 57.0952 60.3441 57.046 60.3768C56.9445 60.4489 56.8396 60.521 56.7348 60.5897C56.702 60.6127 56.6693 60.6356 56.6365 60.6553C56.4989 60.747 56.3614 60.8322 56.2205 60.9173C56.1845 60.9403 56.1484 60.9599 56.1124 60.9828C56.0076 61.0451 55.9027 61.1073 55.7979 61.1663C55.7455 61.1958 55.6931 61.222 55.6407 61.2515C55.5489 61.3006 55.4605 61.3497 55.3688 61.3956C55.3098 61.4251 55.2541 61.4546 55.1952 61.4841C55.11 61.5266 55.0215 61.5692 54.9331 61.6118C54.8741 61.6413 54.8119 61.6675 54.7529 61.6937C54.7103 61.7134 54.671 61.733 54.6284 61.7527C54.5989 61.7658 54.5695 61.7756 54.54 61.7887C54.4024 61.8477 54.2615 61.9034 54.1239 61.9591C54.0748 61.9787 54.0289 61.9984 53.9798 62.0147C53.7964 62.0835 53.6096 62.1491 53.4229 62.208C53.3869 62.2211 53.3508 62.2277 53.3148 62.2408C53.1641 62.2866 53.0134 62.3292 52.8595 62.3685C52.8005 62.3849 52.7415 62.398 52.6826 62.4144C52.545 62.4472 52.4074 62.4799 52.2698 62.5061C52.2174 62.516 52.1617 62.5291 52.1093 62.5389C51.9226 62.5749 51.7358 62.6044 51.5491 62.6273C51.5262 62.6306 51.5033 62.6306 51.4803 62.6339C51.3165 62.6535 51.1527 62.6699 50.9889 62.6797C50.93 62.683 50.8743 62.6863 50.8153 62.6896C50.6777 62.6961 50.5434 62.6994 50.4091 62.6994C50.3534 62.6994 50.2977 62.6994 50.242 62.6994C50.0553 62.6961 49.8719 62.6896 49.6884 62.6732L12.4648 59.5546C10.7843 59.4137 9.3986 58.7782 8.3798 57.7922L1.95583 51.5549C2.9648 52.541 4.35049 53.1765 6.03101 53.3173Z" fill="#E6A6C8"></path><path d="M0.710915 42.8438L13.7325 8.00176C15.7406 2.63262 21.3751 -1.38359 26.3183 -0.970831L63.542 2.14779C68.4885 2.56055 70.8701 7.25159 68.8652 12.6207L55.8437 47.4628C53.8389 52.8287 48.2011 56.8482 43.2545 56.4321L6.03091 53.3135C1.08437 52.8975 -1.29719 48.2097 0.710915 42.8438Z" fill="url(#paint0_linear_1_4613)"></path><path d="M5.59517 52.8721L42.8188 55.9907C47.7653 56.4034 53.3998 52.3872 55.4079 47.0214L68.4295 12.1793C69.6874 8.81499 69.2222 5.7193 67.4828 3.77344C69.5728 5.67016 70.2247 8.98533 68.8685 12.615L55.8469 47.4571C53.8421 52.8229 48.2043 56.8424 43.2578 56.4264L6.03413 53.3078C4.18655 53.1538 2.69603 52.4003 1.66086 51.2407C2.66 52.1547 3.98999 52.7378 5.59517 52.8721Z" fill="#FFDDE1"></path><path d="M38.1309 38.5904L37.7935 38.5675C37.4659 38.5445 37.2039 38.4037 37.0302 38.1842V38.1809C37.004 38.1481 36.9778 38.1121 36.9549 38.0728L35.6151 36.1335L36.6961 35.8583C36.6961 35.8583 36.9451 35.855 37.2497 35.8518L40.4208 26.6269C40.5223 26.3288 40.6959 26.0602 40.9089 25.8309L40.8008 24.8645L42.1308 23.5312L43.4345 25.4935C43.7327 25.8014 43.8309 26.3026 43.6409 26.853L40.1095 37.1261C39.8147 37.9876 38.927 38.6461 38.1309 38.5904Z" fill="#E6A6C8"></path><path d="M24.0447 37.6058L23.7106 37.5828C23.288 37.5533 22.9801 37.3306 22.8228 36.9964L21.5059 35.0899L22.587 34.8147C22.587 34.8147 22.8621 34.8114 23.1897 34.8049L26.3411 25.639C26.4394 25.3508 26.6064 25.0854 26.8095 24.8626L26.6916 23.8177L28.0216 22.4844L29.4106 24.5711C29.4532 24.6235 29.4925 24.6792 29.5252 24.7414L29.5318 24.7513V24.7545C29.6825 25.0527 29.7054 25.4458 29.5613 25.8651L26.0299 36.1382C25.7285 37.0063 24.8408 37.6614 24.0447 37.6058Z" fill="#E6A6C8"></path><path d="M24.5951 21.8486C24.5722 21.8453 24.5525 21.8388 24.5263 21.8322C24.5001 21.8257 24.4739 21.8191 24.4444 21.8126C24.4182 21.8028 24.3953 21.7962 24.3723 21.7864C24.3494 21.7766 24.3297 21.77 24.3068 21.7602C24.2839 21.7503 24.261 21.7372 24.2413 21.7241C24.2216 21.7143 24.1987 21.7045 24.1791 21.6914C24.1594 21.6783 24.1397 21.6652 24.1201 21.6521C24.1004 21.639 24.0808 21.6259 24.0611 21.6095C24.0447 21.5931 24.0284 21.58 24.0087 21.5636C23.9923 21.5472 23.9727 21.5309 23.9563 21.5145C23.9366 21.4948 23.9235 21.4752 23.9072 21.4522C23.8941 21.4359 23.8777 21.4195 23.8646 21.3998L22.5542 19.431L24.4116 18.7267L24.5689 18.861C24.6606 18.789 24.7589 18.7202 24.8572 18.6612L39.3496 9.20379C39.4577 9.12517 39.5691 9.0531 39.6804 8.99741L39.687 8.99086C40.1194 8.6731 40.5879 8.52896 41.0006 8.55844C41.4134 8.58793 41.7672 8.78775 41.9637 9.15137L49.5604 20.3941C49.603 20.4466 49.6391 20.499 49.6718 20.5579V20.5612C49.6948 20.6038 49.7144 20.6497 49.7341 20.6955C49.7439 20.7184 49.7472 20.7381 49.757 20.761C49.7668 20.7872 49.7766 20.8134 49.7799 20.8397C49.7865 20.8659 49.793 20.8921 49.7963 20.9183C49.8029 20.9412 49.8061 20.9641 49.8094 20.9903C49.8127 21.0166 49.816 21.046 49.816 21.0722C49.8192 21.0984 49.8225 21.1214 49.8225 21.1509C49.8225 21.1771 49.8225 21.2033 49.8225 21.2328C49.8225 21.2622 49.8225 21.2884 49.8225 21.3179C49.8192 21.3441 49.816 21.3736 49.8127 21.3998C49.8094 21.4293 49.8061 21.4588 49.8029 21.4883C49.7963 21.521 49.7898 21.5505 49.7832 21.5833C49.7766 21.6095 49.7734 21.6357 49.7668 21.6619C49.7373 21.7766 49.698 21.8945 49.6489 22.0091C49.6391 22.0353 49.626 22.0583 49.6129 22.0845C49.5965 22.114 49.5834 22.1434 49.567 22.1762C49.5506 22.2024 49.5342 22.2319 49.5179 22.2614C49.5015 22.2876 49.4851 22.3138 49.472 22.34C49.4556 22.3662 49.436 22.3924 49.4163 22.4186C49.3999 22.4448 49.3835 22.471 49.3639 22.494C49.3442 22.5202 49.3246 22.5431 49.3049 22.566C49.2853 22.5922 49.2623 22.6184 49.2427 22.6447C49.223 22.6676 49.2001 22.6905 49.1804 22.7102C49.1575 22.7364 49.1346 22.7593 49.1116 22.7855C49.0887 22.8117 49.0625 22.8347 49.0363 22.8576C49.0134 22.8772 48.9937 22.8969 48.9708 22.9166C48.9216 22.9591 48.8725 22.9984 48.8201 23.0378C48.771 23.0738 48.7153 23.1098 48.6629 23.1459C48.6399 23.1622 48.6137 23.1753 48.5908 23.1884C48.5613 23.2048 48.5318 23.2245 48.5023 23.2409C48.4729 23.254 48.4466 23.2671 48.4172 23.2802C48.391 23.2933 48.3648 23.3064 48.3385 23.3162C48.3091 23.3293 48.2829 23.3391 48.2501 23.349C48.2239 23.3588 48.1977 23.3719 48.1682 23.3784C48.142 23.3883 48.1125 23.3948 48.0863 23.4014C48.0568 23.4112 48.0306 23.4178 48.0011 23.4243C47.9749 23.4309 47.9454 23.4341 47.9192 23.4407C47.8898 23.4472 47.8603 23.4505 47.8341 23.4571C47.8046 23.4603 47.7718 23.4603 47.7456 23.4636C47.7194 23.4669 47.6965 23.4702 47.6703 23.4702C47.6146 23.4702 47.5622 23.4702 47.5065 23.4669L24.7491 21.8748C24.6966 21.865 24.6442 21.8584 24.5951 21.8486ZM44.378 19.6603L39.6051 12.6009L30.2951 18.6776L44.378 19.6603Z" fill="#E6A6C8"></path><path d="M15.3604 39.7136H17.0541C17.4635 39.1272 18.1384 38.7341 18.7641 38.7767L37.7968 40.1067L36.6994 39.6153L41.2823 38.7734L42.6385 40.7946C42.6549 40.8176 42.6713 40.8405 42.6877 40.8667L42.7106 40.8995C42.8842 41.2041 42.917 41.6136 42.7663 42.0559L42.6418 42.4195C42.3437 43.2843 41.4592 43.9395 40.6599 43.8838L17.5684 42.2688C17.1589 42.2393 16.8542 42.0264 16.6937 41.7119L15.3604 39.7136Z" fill="#E6A6C8"></path><path d="M35.0515 22.9609L36.4438 25.0542C36.7026 25.3654 36.7779 25.8371 36.601 26.358L33.0696 36.6311C32.7715 37.4959 31.8871 38.1511 31.091 38.0954L30.7536 38.0725C30.3343 38.043 30.0264 37.8203 29.8691 37.4927L28.5358 35.5632L29.6169 35.288C29.6169 35.288 29.9019 35.2847 30.236 35.2782L33.3808 26.132C33.4791 25.847 33.6396 25.5882 33.8395 25.3654L33.7183 24.2909L35.0515 22.9609Z" fill="#E6A6C8"></path><path d="M35.5791 34.9282L39.1138 24.6551C39.4119 23.7903 40.2996 23.1351 41.0957 23.1908L41.4331 23.2137C42.2291 23.2694 42.6353 24.013 42.3372 24.8811L38.8058 35.1543C38.5077 36.0191 37.62 36.6743 36.8239 36.6186L36.4865 36.5956C35.6872 36.5399 35.2843 35.7931 35.5791 34.9282Z" fill="white"></path><path d="M28.5358 34.436L32.0705 24.1629C32.3686 23.2981 33.2563 22.6429 34.0524 22.6986L34.3898 22.7215C35.1858 22.7772 35.5888 23.5209 35.2907 24.389L31.7593 34.6621C31.4612 35.5269 30.5767 36.1821 29.7807 36.1264L29.4432 36.1034C28.6439 36.0478 28.241 35.3009 28.5358 34.436Z" fill="white"></path><path d="M21.4961 33.9471L25.0274 23.6707C25.3255 22.8059 26.21 22.1507 27.0093 22.2064L27.3435 22.2294C28.1395 22.285 28.5457 23.0287 28.2476 23.8968L24.7162 34.1699C24.4181 35.0347 23.5336 35.6899 22.7343 35.6342L22.4002 35.6113C21.6009 35.5556 21.198 34.8087 21.4961 33.9471Z" fill="white"></path><path d="M15.3439 38.6437L15.4684 38.2801C15.7665 37.4153 16.651 36.7601 17.447 36.8158L40.5385 38.4308C41.3346 38.4865 41.7408 39.2301 41.4427 40.0949L41.3182 40.4586C41.0201 41.3234 40.1356 41.9786 39.3363 41.9229L16.2448 40.3079C15.452 40.2555 15.0491 39.5086 15.3439 38.6437Z" fill="white"></path><path d="M22.3248 18.5531C22.3248 18.5269 22.3314 18.4975 22.3346 18.4712C22.3379 18.4418 22.3412 18.4123 22.3445 18.3828C22.3478 18.35 22.3576 18.3206 22.3641 18.2878C22.3707 18.2616 22.374 18.2354 22.3805 18.2092C22.41 18.0945 22.4493 17.9766 22.4984 17.8619C22.5115 17.8357 22.5246 17.8128 22.5345 17.7866C22.5476 17.7538 22.5607 17.7244 22.5803 17.6949C22.5934 17.6687 22.6131 17.6392 22.6295 17.6097C22.6459 17.5835 22.659 17.5573 22.6753 17.5311C22.6917 17.5049 22.7114 17.4787 22.7278 17.4525C22.7474 17.4262 22.7638 17.4 22.7834 17.3771C22.8031 17.3509 22.8228 17.328 22.8424 17.3018C22.8621 17.2756 22.8817 17.2494 22.9046 17.2264C22.9243 17.2035 22.9472 17.1806 22.9669 17.1609C22.9898 17.1347 23.0128 17.1118 23.0357 17.0856C23.0619 17.0594 23.0881 17.0364 23.1143 17.0135C23.1372 16.9938 23.1569 16.9742 23.1765 16.9545C23.2945 16.8562 23.419 16.7645 23.55 16.6925L38.0424 7.23504C38.1505 7.15642 38.2619 7.08435 38.3733 7.02866L38.3798 7.02211C38.8122 6.70435 39.2807 6.56021 39.6934 6.58969C40.1062 6.61918 40.46 6.819 40.6565 7.18262L48.2467 18.4254C48.2893 18.4778 48.3253 18.5302 48.3581 18.5892V18.5925C48.381 18.635 48.4007 18.6809 48.4203 18.7268C48.4302 18.7497 48.4334 18.7694 48.4433 18.7923C48.4531 18.8185 48.4629 18.8447 48.4662 18.8709C48.4728 18.8971 48.4793 18.9233 48.4826 18.9495C48.4891 18.9725 48.4924 18.9954 48.4957 19.0216C48.499 19.0478 48.5022 19.0773 48.5022 19.1035C48.5055 19.1297 48.5088 19.1526 48.5088 19.1821C48.5088 19.2083 48.5088 19.2345 48.5088 19.264C48.5088 19.2935 48.5088 19.3197 48.5088 19.3492C48.5055 19.3754 48.5022 19.4049 48.499 19.4311C48.4957 19.4606 48.4924 19.49 48.4891 19.5195C48.4826 19.5523 48.476 19.5818 48.4695 19.6145C48.4629 19.6407 48.4597 19.6669 48.4531 19.6931C48.4236 19.8078 48.3843 19.9257 48.3352 20.0404C48.3253 20.0666 48.3122 20.0895 48.2991 20.1157C48.2828 20.1452 48.2697 20.1747 48.2533 20.2075C48.2369 20.2337 48.2205 20.2631 48.2041 20.2926C48.1878 20.3188 48.1714 20.345 48.1583 20.3713C48.1419 20.3975 48.1222 20.4237 48.1026 20.4499C48.0862 20.4761 48.0698 20.5023 48.0502 20.5252C48.0305 20.5514 48.0109 20.5744 47.9912 20.5973C47.9715 20.6235 47.9486 20.6497 47.929 20.6759C47.9093 20.6988 47.8864 20.7218 47.8667 20.7414C47.8438 20.7676 47.8209 20.7906 47.7979 20.8168C47.775 20.843 47.7488 20.8659 47.7226 20.8888C47.6997 20.9085 47.68 20.9281 47.6571 20.9478C47.6079 20.9904 47.5588 21.0297 47.5064 21.069C47.4572 21.105 47.4015 21.1411 47.3491 21.1771C47.3262 21.1935 47.3 21.2066 47.2771 21.2197C47.2476 21.2361 47.2181 21.2557 47.1886 21.2721C47.1591 21.2852 47.1329 21.2983 47.1034 21.3114C47.0772 21.3245 47.051 21.3376 47.0248 21.3475C46.9953 21.3606 46.9691 21.3704 46.9364 21.3802C46.9102 21.39 46.884 21.4031 46.8545 21.4097C46.8283 21.4195 46.7988 21.4261 46.7726 21.4326C46.7431 21.4425 46.7169 21.449 46.6874 21.4556C46.6612 21.4621 46.6317 21.4654 46.6055 21.4719C46.576 21.4785 46.5465 21.4818 46.5203 21.4883C46.4909 21.4916 46.4581 21.4916 46.4319 21.4949C46.4057 21.4981 46.3828 21.5014 46.3565 21.5014C46.3009 21.5014 46.2484 21.5014 46.1928 21.4981L23.4353 19.9061C23.3829 19.9028 23.3305 19.8963 23.2781 19.8864C23.2552 19.8831 23.2322 19.8766 23.2093 19.87C23.1831 19.8635 23.1569 19.8569 23.1274 19.8504C23.1012 19.8406 23.0783 19.834 23.0553 19.8242C23.0324 19.8144 23.0127 19.8078 22.9898 19.798C22.9669 19.7881 22.944 19.775 22.9243 19.7619C22.9046 19.7521 22.8817 19.7423 22.8621 19.7292C22.8424 19.7161 22.8228 19.703 22.8031 19.6899C22.7834 19.6768 22.7638 19.6637 22.7441 19.6473C22.7277 19.6309 22.7114 19.6178 22.6917 19.6014C22.6753 19.585 22.6557 19.5687 22.6393 19.5523C22.6196 19.5326 22.6065 19.513 22.5902 19.49C22.5771 19.4737 22.5607 19.4573 22.5476 19.4376C22.4919 19.359 22.4427 19.2738 22.4067 19.1788C22.4002 19.1559 22.3936 19.1362 22.3871 19.1133C22.3772 19.0871 22.3674 19.0609 22.3609 19.0347C22.3543 19.0085 22.3478 18.9823 22.3445 18.9561C22.3379 18.9331 22.3314 18.9102 22.3314 18.884C22.3281 18.8578 22.3248 18.8283 22.3248 18.8021C22.3215 18.7759 22.3183 18.753 22.3183 18.7235C22.3183 18.6973 22.3183 18.6711 22.3183 18.6416C22.3248 18.6088 22.3215 18.5826 22.3248 18.5531ZM43.0643 17.6949L38.2914 10.6354L28.9814 16.7121L43.0643 17.6949Z" fill="white"></path></g><defs><linearGradient id="paint0_linear_1_4613" x1="53.2703" y1="60.8951" x2="17.4327" y2="-3.41147" gradientUnits="userSpaceOnUse"><stop offset="0.0628" stop-color="#FFB8DE"></stop><stop offset="0.3606" stop-color="#FFBDDE"></stop><stop offset="0.6979" stop-color="#FFCADF"></stop><stop offset="1" stop-color="#FFDDE1"></stop></linearGradient><clipPath id="clip0_1_4613"><rect width="76" height="63.6959" fill="white" transform="matrix(-1 0 0 1 76 0)"></rect></clipPath></defs></svg>