<svg xmlns="http://www.w3.org/2000/svg" width="78" height="66" viewBox="0 0 78 66" fill="none"><g clip-path="url(#clip0_1_4495)"><path d="M71.8105 55.7424L33.6073 58.9431C33.4191 58.9599 33.2308 58.9666 33.0392 58.97C32.982 58.97 32.9248 58.97 32.8677 58.97C32.7298 58.97 32.5886 58.9666 32.4508 58.9599C32.3903 58.9566 32.3331 58.9532 32.2726 58.9498C32.1045 58.9397 31.9364 58.9229 31.7683 58.9028C31.7448 58.8994 31.7212 58.8994 31.6977 58.896C31.5061 58.8725 31.3144 58.8422 31.1228 58.8053C31.069 58.7952 31.0118 58.7817 30.958 58.7716C30.8168 58.7447 30.6756 58.7111 30.5344 58.6775C30.4739 58.6641 30.4134 58.6472 30.3529 58.6304C30.1982 58.5901 30.0402 58.5464 29.8855 58.4993C29.8486 58.4892 29.8116 58.4791 29.7746 58.4657C29.5829 58.4052 29.3947 58.3379 29.203 58.2673C29.1526 58.2505 29.1055 58.2303 29.0551 58.2102C28.9105 58.153 28.7693 58.0959 28.6281 58.0353C28.5542 58.0051 28.4802 57.9715 28.4062 57.9378C28.3457 57.9109 28.2818 57.8807 28.2213 57.8538C28.1305 57.8101 28.0431 57.7697 27.9523 57.7227C27.8918 57.6924 27.8313 57.6622 27.7742 57.6319C27.68 57.5848 27.5892 57.5344 27.4951 57.484C27.4413 57.4537 27.3875 57.4268 27.3337 57.3966C27.2261 57.336 27.1185 57.2722 27.011 57.2083C26.974 57.1847 26.937 57.1646 26.9 57.141C26.7554 57.0536 26.6142 56.9628 26.473 56.8721C26.4394 56.8485 26.4058 56.825 26.3722 56.8048C26.2646 56.7342 26.1604 56.6603 26.0528 56.5863C26.0023 56.5493 25.9519 56.5123 25.9015 56.4787C25.8141 56.4148 25.7267 56.351 25.6392 56.2837C25.5854 56.2434 25.5317 56.1997 25.4779 56.1559C25.3972 56.0921 25.3165 56.0282 25.2358 55.9643C25.182 55.9206 25.1248 55.8735 25.0711 55.8298C24.9937 55.7626 24.9164 55.6987 24.8391 55.6315C24.7853 55.5844 24.7315 55.5373 24.6777 55.4903C24.6004 55.4197 24.523 55.3491 24.4457 55.2785C24.3953 55.2314 24.3448 55.1843 24.2944 55.1372C24.2137 55.0599 24.133 54.9792 24.0557 54.9019C24.012 54.8582 23.9683 54.8145 23.9246 54.7708C23.8271 54.6699 23.7329 54.5691 23.6354 54.4648C23.6119 54.4413 23.5884 54.4144 23.5648 54.3909C23.4472 54.2631 23.3329 54.132 23.2219 54.0009C23.1883 53.9639 23.158 53.9235 23.1278 53.8866C23.0471 53.7924 22.9698 53.6949 22.8924 53.5974C22.8521 53.547 22.8117 53.4932 22.7714 53.4428C22.7042 53.3554 22.6403 53.2713 22.573 53.1839C22.5293 53.1234 22.4856 53.0628 22.4419 53.0023C22.3814 52.9183 22.3242 52.8376 22.2671 52.7535C22.2234 52.6897 22.1797 52.6258 22.1393 52.5619C22.0822 52.4778 22.0284 52.3938 21.9746 52.3097C21.9342 52.2459 21.8939 52.1786 21.8535 52.1147C21.7998 52.0273 21.7493 51.9399 21.6989 51.8525C21.6619 51.7853 21.6216 51.7214 21.5846 51.6541C21.5342 51.5634 21.4871 51.4759 21.4367 51.3852C21.403 51.3213 21.3661 51.2541 21.3324 51.1902C21.282 51.096 21.2383 50.9985 21.1912 50.9044C21.161 50.8405 21.1307 50.78 21.1004 50.7161C21.05 50.6085 21.0029 50.5009 20.9559 50.3934C20.9323 50.3396 20.9088 50.2858 20.8853 50.232C20.818 50.0706 20.7508 49.9059 20.6903 49.7411L7.32269 13.9754C5.96441 10.3377 6.56622 7.00587 8.59355 5.03906L2.00053 11.4404C-0.0267998 13.4073 -0.62861 16.7424 0.729666 20.3768L14.0939 56.1358C14.1544 56.3005 14.2217 56.4653 14.2889 56.6266C14.3124 56.6804 14.336 56.7342 14.3595 56.788C14.4066 56.8956 14.4536 57.0032 14.5041 57.1108C14.5343 57.1747 14.5646 57.2352 14.5948 57.2991C14.6419 57.3966 14.689 57.4907 14.736 57.5882C14.7697 57.6554 14.8033 57.7193 14.8403 57.7832C14.8873 57.874 14.9378 57.9647 14.9882 58.0555C15.0252 58.1228 15.0622 58.1866 15.1025 58.2539C15.1529 58.3413 15.2067 58.4287 15.2572 58.5161C15.2975 58.58 15.3379 58.6472 15.3782 58.7111C15.432 58.7952 15.4892 58.8826 15.5429 58.9666C15.5867 59.0305 15.627 59.0944 15.6707 59.1549C15.7279 59.239 15.7884 59.323 15.8455 59.4037C15.8892 59.4642 15.9329 59.5247 15.9767 59.5853C15.9935 59.6088 16.0103 59.6357 16.0304 59.6592C16.0775 59.7231 16.1279 59.7836 16.175 59.8475C16.2154 59.8979 16.2557 59.9517 16.296 60.0022C16.3734 60.0997 16.4541 60.1972 16.5314 60.2913C16.5617 60.3283 16.5953 60.3686 16.6255 60.4056C16.7365 60.5367 16.8542 60.6678 16.9685 60.7956C16.992 60.8191 17.0155 60.8427 17.0357 60.8696C17.1298 60.9738 17.2273 61.0747 17.3248 61.1755C17.3685 61.2192 17.4123 61.2629 17.456 61.3066C17.5367 61.3873 17.614 61.4647 17.6947 61.542C17.7451 61.5891 17.7955 61.6361 17.846 61.6832C17.9233 61.7538 18.0006 61.8244 18.0779 61.895C18.1317 61.9421 18.1855 61.9891 18.2393 62.0362C18.3167 62.1035 18.394 62.1707 18.4713 62.2346C18.5251 62.2816 18.5789 62.3253 18.636 62.3691C18.7167 62.4329 18.7974 62.5002 18.8781 62.5607C18.9319 62.6044 18.9857 62.6447 19.0395 62.6851C19.1269 62.7523 19.2143 62.8162 19.3017 62.8801C19.3522 62.9171 19.4026 62.9541 19.453 62.9877C19.5573 63.0616 19.6648 63.1356 19.7724 63.2062C19.806 63.2297 19.8397 63.2533 19.8733 63.2734C20.0145 63.3676 20.1557 63.455 20.3003 63.5424C20.3373 63.5659 20.3742 63.5861 20.4112 63.6097C20.5188 63.6735 20.6264 63.7374 20.734 63.7979C20.7878 63.8282 20.8416 63.8551 20.8954 63.8853C20.9895 63.9358 21.0803 63.9862 21.1744 64.0333C21.2349 64.0635 21.2921 64.0938 21.3526 64.1241C21.44 64.1678 21.5308 64.2115 21.6216 64.2552C21.6821 64.2854 21.746 64.3123 21.8065 64.3392C21.8502 64.3594 21.8905 64.3796 21.9342 64.3997C21.9645 64.4132 21.9948 64.4233 22.025 64.4367C22.1662 64.4972 22.3108 64.5544 22.452 64.6115C22.5024 64.6317 22.5495 64.6519 22.5999 64.6687C22.7882 64.7393 22.9798 64.8066 23.1715 64.8671C23.2085 64.8805 23.2454 64.8872 23.2824 64.9007C23.4371 64.9478 23.5917 64.9915 23.7498 65.0318C23.8103 65.0486 23.8708 65.0621 23.9313 65.0789C24.0725 65.1125 24.2137 65.1461 24.3549 65.173C24.4087 65.1831 24.4659 65.1966 24.5197 65.2066C24.7113 65.2436 24.9029 65.2739 25.0946 65.2974C25.1181 65.3008 25.1417 65.3008 25.1652 65.3041C25.3333 65.3243 25.5014 65.3411 25.6695 65.3512C25.73 65.3546 25.7872 65.3579 25.8477 65.3613C25.9889 65.368 26.1267 65.3714 26.2646 65.3714C26.3217 65.3714 26.3789 65.3714 26.4361 65.3714C26.6277 65.368 26.816 65.3613 27.0042 65.3445L65.2074 62.1438C66.9322 61.9992 68.3543 61.347 69.3999 60.335L75.993 53.9336C74.9574 54.9456 73.5353 55.5978 71.8105 55.7424Z" fill="#E6A6C8"></path><path d="M77.2705 44.9976L63.9063 9.23865C61.8453 3.72821 56.0626 -0.393684 50.9892 0.029937L12.786 3.23063C7.70929 3.65425 5.26507 8.46874 7.32266 13.9792L20.6869 49.7382C22.7445 55.2452 28.5306 59.3705 33.6073 58.9435L71.8105 55.7428C76.8872 55.3158 79.3315 50.5047 77.2705 44.9976Z" fill="url(#paint0_linear_1_4495)"></path><path d="M72.2576 55.2891L34.0544 58.4898C28.9776 58.9134 23.1949 54.7915 21.1339 49.2845L7.76971 13.5255C6.47868 10.0727 6.95609 6.89551 8.74135 4.89844C6.59635 6.84508 5.9273 10.2475 7.3192 13.9727L20.6834 49.7316C22.741 55.2387 28.5271 59.364 33.6039 58.937L71.8071 55.7363C73.7033 55.5783 75.233 54.805 76.2954 53.6148C75.27 54.5528 73.905 55.1513 72.2576 55.2891Z" fill="#FFDDE1"></path><path d="M38.8655 40.6351L39.2118 40.6116C39.548 40.588 39.817 40.4435 39.9952 40.2182V40.2149C40.0221 40.1812 40.049 40.1443 40.0725 40.1039L41.4476 38.1136L40.3381 37.8312C40.3381 37.8312 40.0826 37.8278 39.7699 37.8244L36.5154 28.3568C36.4112 28.0509 36.233 27.7752 36.0145 27.5399L36.1254 26.548L34.7604 25.1797L33.4223 27.1936C33.1164 27.5096 33.0155 28.024 33.2105 28.5888L36.8348 39.1323C37.1374 40.0165 38.0485 40.6923 38.8655 40.6351Z" fill="#E6A6C8"></path><path d="M53.3222 39.6209L53.6652 39.5973C54.0989 39.5671 54.4149 39.3385 54.5763 38.9955L55.9278 37.0388L54.8184 36.7564C54.8184 36.7564 54.5359 36.753 54.1997 36.7463L50.9654 27.3392C50.8646 27.0434 50.6931 26.771 50.4847 26.5424L50.6057 25.4699L49.2407 24.1016L47.8152 26.2432C47.7715 26.297 47.7311 26.3541 47.6975 26.418L47.6908 26.4281V26.4315C47.5361 26.7374 47.5126 27.1409 47.6605 27.5712L51.2848 38.1147C51.5941 39.0056 52.5053 39.678 53.3222 39.6209Z" fill="#E6A6C8"></path><path d="M52.7575 23.4563C52.781 23.4529 52.8012 23.4462 52.8281 23.4395C52.855 23.4327 52.8819 23.426 52.9122 23.4193C52.9391 23.4092 52.9626 23.4025 52.9861 23.3924C53.0097 23.3823 53.0298 23.3756 53.0534 23.3655C53.0769 23.3554 53.1004 23.342 53.1206 23.3285C53.1408 23.3184 53.1643 23.3083 53.1845 23.2949C53.2047 23.2814 53.2248 23.268 53.245 23.2546C53.2652 23.2411 53.2854 23.2277 53.3055 23.2108C53.3223 23.194 53.3391 23.1806 53.3593 23.1638C53.3761 23.147 53.3963 23.1302 53.4131 23.1133C53.4333 23.0932 53.4467 23.073 53.4635 23.0495C53.477 23.0327 53.4938 23.0158 53.5072 22.9957L54.8521 20.9751L52.9458 20.2522L52.7844 20.3901C52.6903 20.3161 52.5894 20.2455 52.4885 20.185L37.6147 10.4787C37.5038 10.398 37.3895 10.324 37.2752 10.2669L37.2685 10.2601C36.8247 9.93403 36.3439 9.7861 35.9203 9.81635C35.4966 9.84661 35.1335 10.0517 34.9318 10.4249L27.1352 21.9635C27.0915 22.0173 27.0545 22.0711 27.0209 22.1316V22.135C26.9973 22.1787 26.9772 22.2258 26.957 22.2728C26.9469 22.2964 26.9435 22.3165 26.9335 22.3401C26.9234 22.367 26.9133 22.3939 26.9099 22.4208C26.9032 22.4477 26.8965 22.4745 26.8931 22.5014C26.8864 22.525 26.883 22.5485 26.8797 22.5754C26.8763 22.6023 26.8729 22.6326 26.8729 22.6595C26.8696 22.6864 26.8662 22.7099 26.8662 22.7402C26.8662 22.767 26.8662 22.7939 26.8662 22.8242C26.8662 22.8545 26.8662 22.8814 26.8662 22.9116C26.8696 22.9385 26.8729 22.9688 26.8763 22.9957C26.8797 23.0259 26.883 23.0562 26.8864 23.0864C26.8931 23.1201 26.8998 23.1503 26.9066 23.1839C26.9133 23.2108 26.9166 23.2377 26.9234 23.2646C26.9536 23.3823 26.994 23.5033 27.0444 23.621C27.0545 23.6479 27.0679 23.6714 27.0814 23.6983C27.0982 23.7286 27.1116 23.7589 27.1285 23.7925C27.1453 23.8194 27.1621 23.8496 27.1789 23.8799C27.1957 23.9068 27.2125 23.9337 27.226 23.9606C27.2428 23.9875 27.2629 24.0144 27.2831 24.0413C27.2999 24.0682 27.3167 24.0951 27.3369 24.1186C27.3571 24.1455 27.3772 24.169 27.3974 24.1926C27.4176 24.2195 27.4411 24.2464 27.4613 24.2733C27.4815 24.2968 27.505 24.3203 27.5252 24.3405C27.5487 24.3674 27.5722 24.3909 27.5958 24.4178C27.6193 24.4447 27.6462 24.4683 27.6731 24.4918C27.6966 24.512 27.7168 24.5321 27.7403 24.5523C27.7908 24.596 27.8412 24.6364 27.895 24.6767C27.9454 24.7137 28.0026 24.7507 28.0564 24.7877C28.0799 24.8045 28.1068 24.8179 28.1303 24.8314C28.1606 24.8482 28.1909 24.8683 28.2211 24.8852C28.2514 24.8986 28.2783 24.912 28.3085 24.9255C28.3354 24.9389 28.3623 24.9524 28.3892 24.9625C28.4195 24.9759 28.4464 24.986 28.48 24.9961C28.5069 25.0062 28.5338 25.0196 28.5641 25.0264C28.591 25.0364 28.6212 25.0432 28.6481 25.0499C28.6784 25.06 28.7053 25.0667 28.7355 25.0734C28.7624 25.0802 28.7927 25.0835 28.8196 25.0902C28.8498 25.097 28.8801 25.1003 28.907 25.107C28.9372 25.1104 28.9709 25.1104 28.9978 25.1138C29.0247 25.1171 29.0482 25.1205 29.0751 25.1205C29.1322 25.1205 29.186 25.1205 29.2432 25.1171L52.5995 23.4832C52.6533 23.4731 52.7071 23.4664 52.7575 23.4563ZM32.454 21.2104L37.3525 13.9651L46.9075 20.2018L32.454 21.2104Z" fill="#E6A6C8"></path><path d="M62.2351 41.793H60.4969C60.0767 41.1912 59.3841 40.7878 58.7419 40.8315L39.2083 42.1965L40.3346 41.6922L35.6311 40.8281L34.2392 42.9025C34.2224 42.9261 34.2056 42.9496 34.1888 42.9765L34.1652 43.0101C33.987 43.3228 33.9534 43.743 34.1081 44.1969L34.2358 44.5701C34.5418 45.4577 35.4495 46.1301 36.2699 46.073L59.9691 44.4155C60.3893 44.3852 60.702 44.1667 60.8668 43.8439L62.2351 41.793Z" fill="#E6A6C8"></path><path d="M42.0257 24.5938L40.5968 26.7421C40.3312 27.0615 40.2539 27.5456 40.4354 28.0802L44.0598 38.6237C44.3657 39.5113 45.2735 40.1837 46.0904 40.1265L46.4367 40.103C46.8671 40.0727 47.1831 39.8441 47.3445 39.5079L48.7129 37.5276L47.6034 37.2452C47.6034 37.2452 47.3109 37.2419 46.9679 37.2351L43.7404 27.8482C43.6395 27.5557 43.4748 27.2901 43.2697 27.0615L43.3941 25.9587L42.0257 24.5938Z" fill="#E6A6C8"></path><path d="M41.4846 36.8778L37.8569 26.3344C37.551 25.4468 36.6399 24.7744 35.8229 24.8315L35.4766 24.855C34.6596 24.9122 34.2427 25.6754 34.5487 26.5663L38.173 37.1098C38.4789 37.9974 39.39 38.6698 40.207 38.6126L40.5533 38.5891C41.3737 38.532 41.7872 37.7654 41.4846 36.8778Z" fill="white"></path><path d="M48.7131 36.37L45.0855 25.8265C44.7795 24.939 43.8684 24.2665 43.0514 24.3237L42.7051 24.3472C41.8881 24.4044 41.4746 25.1676 41.7805 26.0585L45.4048 36.602C45.7108 37.4896 46.6185 38.162 47.4355 38.1048L47.7818 38.0813C48.6022 38.0241 49.0157 37.2576 48.7131 36.37Z" fill="white"></path><path d="M55.9381 35.8734L52.3138 25.3265C52.0078 24.439 51.1001 23.7665 50.2797 23.8237L49.9368 23.8472C49.1198 23.9044 48.7029 24.6676 49.0089 25.5585L52.6332 36.102C52.9391 36.9896 53.8469 37.662 54.6672 37.6048L55.0102 37.5813C55.8305 37.5241 56.244 36.7576 55.9381 35.8734Z" fill="white"></path><path d="M62.2522 40.6841L62.1245 40.3109C61.8185 39.4233 60.9108 38.7509 60.0938 38.8081L36.3946 40.4656C35.5776 40.5227 35.1607 41.2859 35.4666 42.1735L35.5944 42.5467C35.9003 43.4343 36.8081 44.1067 37.6284 44.0495L61.3277 42.392C62.1413 42.3382 62.5548 41.5717 62.2522 40.6841Z" fill="white"></path><path d="M55.0876 20.0712C55.0876 20.0443 55.0809 20.014 55.0775 19.9871C55.0742 19.9569 55.0708 19.9266 55.0674 19.8964C55.0641 19.8628 55.054 19.8325 55.0473 19.7989C55.0405 19.772 55.0372 19.7451 55.0305 19.7182C55.0002 19.6005 54.9599 19.4795 54.9094 19.3618C54.896 19.3349 54.8825 19.3114 54.8724 19.2845C54.859 19.2509 54.8456 19.2206 54.8254 19.1903C54.8119 19.1634 54.7918 19.1332 54.7749 19.1029C54.7581 19.076 54.7447 19.0491 54.7279 19.0222C54.7111 18.9953 54.6909 18.9684 54.6741 18.9415C54.6539 18.9146 54.6371 18.8877 54.6169 18.8642C54.5968 18.8373 54.5766 18.8138 54.5564 18.7869C54.5362 18.76 54.5161 18.7331 54.4925 18.7096C54.4724 18.686 54.4488 18.6625 54.4287 18.6423C54.4051 18.6154 54.3816 18.5919 54.358 18.565C54.3312 18.5381 54.3043 18.5146 54.2774 18.491C54.2538 18.4709 54.2337 18.4507 54.2135 18.4305C54.0924 18.3296 53.9647 18.2355 53.8302 18.1615L38.9564 8.45524C38.8455 8.37455 38.7312 8.30059 38.6168 8.24343L38.6101 8.23671C38.1663 7.91059 37.6855 7.76266 37.2619 7.79292C36.8383 7.82317 36.4752 8.02826 36.2735 8.40145L28.4836 19.9401C28.4399 19.9939 28.4029 20.0477 28.3693 20.1082V20.1115C28.3457 20.1552 28.3255 20.2023 28.3054 20.2494C28.2953 20.2729 28.2919 20.2931 28.2818 20.3166C28.2718 20.3435 28.2617 20.3704 28.2583 20.3973C28.2516 20.4242 28.2449 20.4511 28.2415 20.478C28.2348 20.5015 28.2314 20.5251 28.228 20.552C28.2247 20.5789 28.2213 20.6091 28.2213 20.636C28.218 20.6629 28.2146 20.6865 28.2146 20.7167C28.2146 20.7436 28.2146 20.7705 28.2146 20.8008C28.2146 20.831 28.2146 20.8579 28.2146 20.8882C28.218 20.9151 28.2213 20.9453 28.2247 20.9722C28.228 21.0025 28.2314 21.0328 28.2348 21.063C28.2415 21.0966 28.2482 21.1269 28.2549 21.1605C28.2617 21.1874 28.265 21.2143 28.2718 21.2412C28.302 21.3589 28.3424 21.4799 28.3928 21.5976C28.4029 21.6245 28.4163 21.648 28.4298 21.6749C28.4466 21.7052 28.46 21.7354 28.4768 21.769C28.4937 21.7959 28.5105 21.8262 28.5273 21.8565C28.5441 21.8834 28.5609 21.9103 28.5743 21.9371C28.5912 21.964 28.6113 21.9909 28.6315 22.0178C28.6483 22.0447 28.6651 22.0716 28.6853 22.0952C28.7055 22.1221 28.7256 22.1456 28.7458 22.1691C28.766 22.196 28.7895 22.2229 28.8097 22.2498C28.8299 22.2734 28.8534 22.2969 28.8736 22.3171C28.8971 22.344 28.9206 22.3675 28.9442 22.3944C28.9677 22.4213 28.9946 22.4448 29.0215 22.4684C29.045 22.4885 29.0652 22.5087 29.0887 22.5289C29.1392 22.5726 29.1896 22.6129 29.2434 22.6533C29.2938 22.6903 29.351 22.7272 29.4048 22.7642C29.4283 22.781 29.4552 22.7945 29.4787 22.8079C29.509 22.8247 29.5393 22.8449 29.5695 22.8617C29.5998 22.8752 29.6267 22.8886 29.6569 22.9021C29.6838 22.9155 29.7107 22.929 29.7376 22.939C29.7679 22.9525 29.7948 22.9626 29.8284 22.9727C29.8553 22.9828 29.8822 22.9962 29.9124 23.0029C29.9393 23.013 29.9696 23.0197 29.9965 23.0265C30.0268 23.0365 30.0537 23.0433 30.0839 23.05C30.1108 23.0567 30.1411 23.0601 30.168 23.0668C30.1982 23.0735 30.2285 23.0769 30.2554 23.0836C30.2856 23.087 30.3193 23.087 30.3462 23.0903C30.373 23.0937 30.3966 23.0971 30.4235 23.0971C30.4806 23.0971 30.5344 23.0971 30.5916 23.0937L53.9479 21.4597C54.0017 21.4564 54.0555 21.4496 54.1093 21.4396C54.1328 21.4362 54.1563 21.4295 54.1799 21.4228C54.2068 21.416 54.2337 21.4093 54.2639 21.4026C54.2908 21.3925 54.3143 21.3858 54.3379 21.3757C54.3614 21.3656 54.3816 21.3589 54.4051 21.3488C54.4287 21.3387 54.4522 21.3253 54.4724 21.3118C54.4925 21.3017 54.5161 21.2916 54.5362 21.2782C54.5564 21.2647 54.5766 21.2513 54.5968 21.2378C54.6169 21.2244 54.6371 21.2109 54.6573 21.1941C54.6741 21.1773 54.6909 21.1639 54.7111 21.1471C54.7279 21.1303 54.748 21.1134 54.7649 21.0966C54.785 21.0765 54.7985 21.0563 54.8153 21.0328C54.8287 21.0159 54.8455 20.9991 54.859 20.979C54.9162 20.8983 54.9666 20.8109 55.0036 20.7134C55.0103 20.6898 55.017 20.6696 55.0237 20.6461C55.0338 20.6192 55.0439 20.5923 55.0506 20.5654C55.0574 20.5385 55.0641 20.5116 55.0674 20.4847C55.0742 20.4612 55.0809 20.4377 55.0809 20.4108C55.0843 20.3839 55.0876 20.3536 55.0876 20.3267C55.091 20.2998 55.0943 20.2763 55.0943 20.246C55.0943 20.2191 55.0943 20.1922 55.0943 20.162C55.0876 20.1284 55.091 20.1015 55.0876 20.0712ZM33.8024 19.1903L38.7009 11.9451L48.2559 18.1817L33.8024 19.1903Z" fill="white"></path></g><defs><linearGradient id="paint0_linear_1_4495" x1="23.328" y1="63.5239" x2="60.1087" y2="-2.47493" gradientUnits="userSpaceOnUse"><stop offset="0.0628" stop-color="#FFB8DE"></stop><stop offset="0.3606" stop-color="#FFBDDE"></stop><stop offset="0.6979" stop-color="#FFCADF"></stop><stop offset="1" stop-color="#FFDDE1"></stop></linearGradient><clipPath id="clip0_1_4495"><rect width="78" height="65.3721" fill="white"></rect></clipPath></defs></svg>