<svg xmlns="http://www.w3.org/2000/svg" width="21" height="21" viewBox="0 0 21 21" fill="none"><g clip-path="url(#clip0_332_3504)"><path d="M10.5 9.46094C11.8813 9.46094 13.2061 10.0097 14.1828 10.9864C15.1596 11.9632 15.7083 13.2879 15.7083 14.6693V20.9193H5.29165V14.6693C5.29165 13.2879 5.84038 11.9632 6.81713 10.9864C7.79388 10.0097 9.11864 9.46094 10.5 9.46094ZM3.50831 12.5922C3.34254 13.1513 3.24461 13.7284 3.21665 14.3109L3.20831 14.6693V20.9193H0.0833131V16.2318C0.083108 15.3334 0.414593 14.4666 1.01418 13.7976C1.61377 13.1286 2.43925 12.7046 3.33227 12.6068L3.50935 12.5922H3.50831ZM17.4916 12.5922C18.4186 12.6487 19.2891 13.0567 19.9256 13.7331C20.5621 14.4094 20.9165 15.3031 20.9166 16.2318V20.9193H17.7916V14.6693C17.7916 13.9474 17.6875 13.2505 17.4916 12.5922ZM3.72915 6.33594C4.41981 6.33594 5.08219 6.6103 5.57057 7.09868C6.05895 7.58706 6.33331 8.24944 6.33331 8.9401C6.33331 9.63077 6.05895 10.2932 5.57057 10.7815C5.08219 11.2699 4.41981 11.5443 3.72915 11.5443C3.03848 11.5443 2.3761 11.2699 1.88772 10.7815C1.39935 10.2932 1.12498 9.63077 1.12498 8.9401C1.12498 8.24944 1.39935 7.58706 1.88772 7.09868C2.3761 6.6103 3.03848 6.33594 3.72915 6.33594V6.33594ZM17.2708 6.33594C17.9615 6.33594 18.6239 6.6103 19.1122 7.09868C19.6006 7.58706 19.875 8.24944 19.875 8.9401C19.875 9.63077 19.6006 10.2932 19.1122 10.7815C18.6239 11.2699 17.9615 11.5443 17.2708 11.5443C16.5801 11.5443 15.9178 11.2699 15.4294 10.7815C14.941 10.2932 14.6666 9.63077 14.6666 8.9401C14.6666 8.24944 14.941 7.58706 15.4294 7.09868C15.9178 6.6103 16.5801 6.33594 17.2708 6.33594V6.33594ZM10.5 0.0859375C11.605 0.0859375 12.6649 0.524924 13.4463 1.30633C14.2277 2.08773 14.6666 3.14754 14.6666 4.2526C14.6666 5.35767 14.2277 6.41748 13.4463 7.19888C12.6649 7.98028 11.605 8.41927 10.5 8.41927C9.39491 8.41927 8.3351 7.98028 7.5537 7.19888C6.7723 6.41748 6.33331 5.35767 6.33331 4.2526C6.33331 3.14754 6.7723 2.08773 7.5537 1.30633C8.3351 0.524924 9.39491 0.0859375 10.5 0.0859375V0.0859375Z" fill="black"></path></g><defs><clipPath id="clip0_332_3504"><rect width="21" height="21" fill="white"></rect></clipPath></defs></svg>