<svg xmlns="http://www.w3.org/2000/svg" width="18" height="20" viewBox="0 0 18 20" fill="none"><path d="M17.997 0.992L18 19.008C17.9979 19.2706 17.8926 19.5219 17.7068 19.7075C17.521 19.8931 17.2696 19.9982 17.007 20H0.993C0.729813 20 0.477391 19.8955 0.291196 19.7095C0.105001 19.5235 0.000265042 19.2712 0 19.008V0.992C0.00209465 0.72938 0.107418 0.478126 0.293218 0.292513C0.479017 0.1069 0.730378 0.00183004 0.993 0H17.003C17.552 0 17.997 0.444 17.997 0.992ZM6 11V7C6 6.73478 6.10536 6.48043 6.29289 6.29289C6.48043 6.10536 6.73478 6 7 6C7.26522 6 7.51957 6.10536 7.70711 6.29289C7.89464 6.48043 8 6.73478 8 7V11C8 11.2652 8.10536 11.5196 8.29289 11.7071C8.48043 11.8946 8.73478 12 9 12C9.26522 12 9.51957 11.8946 9.70711 11.7071C9.89464 11.5196 10 11.2652 10 11V7C10 6.20435 9.68393 5.44129 9.12132 4.87868C8.55871 4.31607 7.79565 4 7 4C6.20435 4 5.44129 4.31607 4.87868 4.87868C4.31607 5.44129 4 6.20435 4 7V11C4 12.3261 4.52678 13.5979 5.46447 14.5355C6.40215 15.4732 7.67392 16 9 16C10.3261 16 11.5979 15.4732 12.5355 14.5355C13.4732 13.5979 14 12.3261 14 11V6H12V11C12 11.7956 11.6839 12.5587 11.1213 13.1213C10.5587 13.6839 9.79565 14 9 14C8.20435 14 7.44129 13.6839 6.87868 13.1213C6.31607 12.5587 6 11.7956 6 11Z" fill="black"></path></svg>