<svg xmlns="http://www.w3.org/2000/svg" width="56" height="57" viewBox="0 0 56 57" fill="none"><path d="M39.8354 50.0136C27.3111 51.6519 13.6548 41.8163 9.33063 28.0436C6.2432 18.2081 8.74864 9.02728 14.9963 3.98438L6.98522 10.4531C0.740517 15.496 -1.76783 24.6769 1.3196 34.5124C5.64375 48.2851 19.3 58.1206 31.8243 56.4824C35.4036 56.0139 38.5026 54.6578 41.0052 52.6413L49.0162 46.1725C46.5137 48.1891 43.4146 49.5451 39.8354 50.0136Z" fill="url(#paint0_linear_1_4579)"></path><path d="M54.6793 22.1482C50.3551 8.37555 36.6988 -1.46 24.1774 0.178286C11.6531 1.81657 5.00684 14.3089 9.33099 28.0816C13.6551 41.8542 27.3114 51.6898 39.8357 50.0515C52.3572 48.4132 59.0034 35.9209 54.6793 22.1482Z" fill="url(#paint1_linear_1_4579)"></path><path d="M54.6789 22.1482C50.3548 8.37555 36.6985 -1.46 24.177 0.178286C21.8724 0.480918 19.7685 1.1502 17.8916 2.12794C19.6346 1.28988 21.5639 0.710802 23.662 0.437269C36.1863 -1.20102 49.8397 8.63453 54.1638 22.4072C57.6907 33.6453 53.9165 44.0309 45.6028 48.3637C54.2744 44.1967 58.2814 33.6162 54.6789 22.1482Z" fill="#FEDC9E"></path><path d="M37.2603 46.3795C32.4357 46.3795 27.3258 44.4328 22.8678 40.9001C18.2701 37.254 14.7928 32.2402 13.0788 26.7812C11.1641 20.682 11.6704 14.6701 14.4698 10.2877C16.7133 6.77544 20.1849 4.61627 24.5119 4.05175C25.2452 3.95572 25.9989 3.90625 26.7526 3.90625C31.5772 3.90625 36.6871 5.85299 41.1422 9.38564C45.7398 13.0318 49.2172 18.0456 50.9311 23.5046C52.8459 29.6038 52.3395 35.6157 49.5402 39.9981C47.2966 43.5104 43.8251 45.6695 39.4981 46.234C38.7677 46.3301 38.014 46.3795 37.2603 46.3795Z" fill="url(#paint2_linear_1_4579)"></path><path d="M37.26 45.6121C32.6158 45.6121 27.6805 43.7265 23.3651 40.3044C18.8897 36.7572 15.5083 31.8802 13.8439 26.5725C11.999 20.7002 12.4733 14.9327 15.1446 10.7512C17.2572 7.4426 20.5338 5.41147 24.6164 4.87895C25.3148 4.78875 26.0335 4.74219 26.7552 4.74219C31.3994 4.74219 36.3347 6.62782 40.6472 10.047C45.1197 13.5942 48.504 18.4712 50.1684 23.7789C52.0133 29.6512 51.539 35.4186 48.8677 39.6031C46.7551 42.9117 43.4814 44.9428 39.3959 45.4753C38.6975 45.5655 37.9788 45.6121 37.26 45.6121Z" fill="url(#paint3_linear_1_4579)"></path><path d="M44.375 31.3936L43.8891 31.4663C43.9298 30.8552 43.8687 30.2209 43.6999 29.5603C43.374 28.2916 42.7716 27.2615 41.8841 26.4642C40.9966 25.6668 39.949 25.1751 38.7327 24.9888C39.0149 24.8142 39.207 24.6891 39.3147 24.6135C39.4223 24.5378 39.5998 24.3574 39.8501 24.0693C40.176 23.7085 40.3826 23.2749 40.4874 22.7744H40.4932L41.1275 21.6861L40.5601 21.9014C40.5514 21.4853 40.4903 21.0372 40.3651 20.5483C40.045 19.2854 39.3525 18.1796 38.2874 17.2193C37.6996 16.7043 36.9198 16.3085 35.9362 16.0321C35.1884 15.8197 34.3561 15.7033 33.4453 15.68L32.6888 12.546L31.519 10.5469L30.4889 12.6042L31.228 15.7353L29.386 15.8051L28.6527 12.6566L27.4218 10.6575L26.3917 12.7148L27.1133 15.8895L25.0182 15.9681L21.9686 14.0621L20.9385 16.1194L21.7678 19.9896L24.5759 19.8499C25.2917 19.815 25.9988 20.3737 26.1618 21.1012L28.4665 31.4343C28.6381 32.1967 28.1871 32.8747 27.4596 32.9417L25.6293 31.1521L24.5992 33.2094L25.4896 37.3706L29.6886 36.9166L31.842 36.6838L32.6858 40.3911L35.0312 40.1059L36.0614 38.0486L34.1786 36.4336L36.073 36.227L36.9372 39.876L39.2157 39.5996L40.2458 37.5422L38.3427 35.9825L38.3718 35.9796C40.9908 35.6944 42.6378 34.8535 43.3391 33.4625C43.3565 33.4276 43.3711 33.3898 43.3886 33.3549V33.3607L44.375 31.3936ZM31.2833 23.9296L30.2648 19.5531L32.3279 19.4483C33.5792 19.3843 34.4958 19.4833 35.0836 19.7393C35.6714 19.9954 36.0701 20.5628 36.2854 21.4416C36.5008 22.3233 36.3611 22.9199 35.8606 23.2225C35.3572 23.5281 34.5162 23.7201 33.3289 23.7958L31.2833 23.9296ZM38.8636 31.3587C38.3369 31.7428 37.461 31.993 36.233 32.1065L33.2475 32.3888L32.1242 27.5583L34.6792 27.3604C36.105 27.2498 37.1671 27.3197 37.8801 27.5728C38.5901 27.8231 39.0615 28.4196 39.2943 29.3654C39.53 30.3111 39.3874 30.9775 38.8636 31.3587Z" fill="#BF7200"></path><path d="M42.914 24.4289C42.0264 23.6316 40.9789 23.1398 39.7625 22.9536C40.0448 22.779 40.2368 22.6538 40.3445 22.5782C40.4522 22.5025 40.6297 22.3221 40.8799 22.034C41.6161 21.2163 41.7878 20.0407 41.3979 18.5101C41.0778 17.2472 40.3852 16.1414 39.3202 15.1812C38.7324 14.6661 37.9525 14.2703 36.969 13.9939C36.2211 13.7815 35.3889 13.6651 34.4781 13.6418L33.7215 10.5078L31.5216 10.566L32.2607 13.6971L30.4187 13.7669L29.6854 10.6184L27.4244 10.6795L28.1461 13.8542L26.0509 13.9328L21.9741 14.0841L22.8035 17.9543L25.6115 17.8146C26.3274 17.7797 27.0345 18.3384 27.1974 19.0659L29.5021 29.3991C29.6709 30.1615 29.2228 30.8395 28.4953 30.9064L25.6348 31.177L26.5252 35.3382L30.7243 34.8843L32.8776 34.6515L33.7215 38.3587L36.0669 38.0735L35.2114 34.3983L37.1057 34.1917L37.97 37.8407L40.2485 37.5643L39.3755 33.9444L39.4046 33.9415C42.0235 33.6563 43.6705 32.8153 44.3718 31.4244C44.9713 30.24 45.0877 28.9422 44.7268 27.5338C44.4038 26.2563 43.7986 25.2262 42.914 24.4289ZM37.3182 19.4093C37.5335 20.291 37.3938 20.8875 36.8933 21.1902C36.3899 21.4957 35.5489 21.6877 34.3617 21.7634L32.3131 21.8973L31.2946 17.5207L33.3578 17.416C34.609 17.352 35.5257 17.4509 36.1135 17.707C36.7013 17.963 37.1028 18.5305 37.3182 19.4093ZM39.8935 29.3234C39.3668 29.7075 38.4909 29.9578 37.2629 30.0712L34.2773 30.3535L33.1541 25.523L35.709 25.3252C37.1348 25.2146 38.197 25.2844 38.9099 25.5376C39.6199 25.7878 40.0913 26.3844 40.3241 27.3301C40.5598 28.2787 40.4172 28.9422 39.8935 29.3234Z" fill="#FEC55E"></path><path d="M29.0661 30.6641C28.906 30.7805 28.7169 30.8619 28.4986 30.8823L25.6382 31.1529L25.6877 31.3799L28.2426 31.1384C28.5976 31.1064 28.8828 30.926 29.0661 30.6641Z" fill="#FEDC9E"></path><path d="M32.0541 22.2377L34.1027 22.1039C35.29 22.0253 36.1309 21.8362 36.6343 21.5306C36.7682 21.4491 36.8729 21.3473 36.9544 21.2251C36.9341 21.2396 36.9137 21.2571 36.8904 21.2716C36.387 21.5772 35.546 21.7692 34.3588 21.8449L32.3102 21.9788L31.3499 17.8438L31.0356 17.8583L32.0541 22.2377Z" fill="#FEDC9E"></path><path d="M39.8934 29.3537C39.3667 29.7378 38.4908 29.9881 37.2628 30.1045L34.2772 30.3867L33.2064 25.7891L32.895 25.8123L34.0182 30.6428L37.0038 30.3606C38.2318 30.2442 39.1077 29.9939 39.6344 29.6127C39.7363 29.537 39.8206 29.4498 39.8934 29.3537Z" fill="#FEDC9E"></path><path d="M33.4629 10.7639L34.2195 13.8979C35.1332 13.9212 35.9625 14.0405 36.7104 14.25C37.691 14.5293 38.4738 14.9251 39.0616 15.4372C40.1266 16.3946 40.8192 17.5033 41.1393 18.7662C41.5292 20.2968 41.3575 21.4724 40.6213 22.2901C40.5486 22.3745 40.4816 22.4472 40.4205 22.5142C40.5282 22.4181 40.6795 22.261 40.8774 22.034C41.6136 21.2163 41.7853 20.0407 41.3953 18.5101C41.0752 17.2472 40.3827 16.1414 39.3176 15.1812C38.7298 14.6661 37.95 14.2703 36.9664 13.9939C36.2186 13.7815 35.3863 13.6651 34.4755 13.6418L33.7189 10.5078L31.519 10.566L31.5772 10.8163L33.4629 10.7639Z" fill="#FEDC9E"></path><path d="M39.1492 34.1834L39.1201 34.1863L39.9407 37.5851L40.2521 37.5472L39.4315 34.1484C39.3384 34.1601 39.2453 34.1746 39.1492 34.1834Z" fill="#FEDC9E"></path><path d="M34.959 34.6258L35.7621 38.0828L36.0706 38.0449L35.2703 34.5938L34.959 34.6258Z" fill="#FEDC9E"></path><path d="M29.4298 10.8186L30.1631 13.9671L32.0051 13.9002L31.9469 13.6528L30.4191 13.711L29.6858 10.5625L27.4277 10.6207L27.483 10.871L29.4298 10.8186Z" fill="#FEDC9E"></path><path d="M44.7297 27.4261C44.4037 26.1574 43.8014 25.1273 42.9139 24.33C42.0554 23.5588 41.0428 23.0729 39.8759 22.875C39.777 22.939 39.6518 23.0176 39.5034 23.1107C40.7198 23.2969 41.7673 23.7887 42.6549 24.586C43.5424 25.3834 44.1448 26.4135 44.4707 27.6822C44.8315 29.0935 44.7151 30.3884 44.1157 31.5728C43.9847 31.8347 43.8188 32.0762 43.6181 32.3002C43.9352 32.0093 44.1884 31.6833 44.3717 31.3167C44.9741 30.1353 45.0905 28.8374 44.7297 27.4261Z" fill="#FEDC9E"></path><path d="M25.7983 14.2556L27.8934 14.177L27.8352 13.9297L26.0543 13.9966L21.9775 14.1479L22.0299 14.3953L25.7983 14.2556Z" fill="#FEDC9E"></path><defs><linearGradient id="paint0_linear_1_4579" x1="31.7832" y1="55.2887" x2="12.8628" y2="13.309" gradientUnits="userSpaceOnUse"><stop stop-color="#BD6517"></stop><stop offset="0.2007" stop-color="#C0691A"></stop><stop offset="0.4064" stop-color="#C87523"></stop><stop offset="0.6143" stop-color="#D68A32"></stop><stop offset="0.8224" stop-color="#E9A647"></stop><stop offset="1" stop-color="#FEC55E"></stop></linearGradient><linearGradient id="paint1_linear_1_4579" x1="8.01163" y1="25.1166" x2="56.0003" y2="25.1166" gradientUnits="userSpaceOnUse"><stop stop-color="#F28F3B"></stop><stop offset="0.4878" stop-color="#F7A74B"></stop><stop offset="1" stop-color="#FEC55E"></stop></linearGradient><linearGradient id="paint2_linear_1_4579" x1="24.8737" y1="45.7071" x2="37.1341" y2="10.3564" gradientUnits="userSpaceOnUse"><stop stop-color="#FEC55E"></stop><stop offset="0.5122" stop-color="#F7A74B"></stop><stop offset="1" stop-color="#F28F3B"></stop></linearGradient><linearGradient id="paint3_linear_1_4579" x1="26.9213" y1="43.712" x2="38.3817" y2="1.92934" gradientUnits="userSpaceOnUse"><stop offset="0.1188" stop-color="#F28F3B"></stop><stop offset="0.36" stop-color="#F49941"></stop><stop offset="0.7643" stop-color="#FAB352"></stop><stop offset="1" stop-color="#FEC55E"></stop></linearGradient></defs></svg>