<svg xmlns="http://www.w3.org/2000/svg" width="159" height="60" viewBox="0 0 159 60" fill="none"><path fill-rule="evenodd" clip-rule="evenodd" d="M31.2342 53.7657C27.5426 52.6945 24.0237 51.4778 20.7829 50.1278C17.5398 48.7786 14.5725 47.2969 11.9684 45.7074C9.36656 44.118 7.12795 42.4209 5.33099 40.6495C3.52955 38.879 2.16753 37.036 1.27853 35.1615C-0.503952 31.4117 -0.378655 27.5533 1.52199 23.9021C2.46895 22.0765 3.85975 20.3051 5.62711 18.6229C7.39448 16.9407 9.54065 15.3477 11.9759 13.8688C14.0188 12.6285 16.3172 11.4739 18.6985 10.429C21.0775 9.38237 23.5372 8.44535 25.8869 7.61016C29.6807 6.25947 33.9922 5.05802 38.3618 4.08518C42.7315 3.10891 47.1458 2.3604 51.0916 1.80598C54.2728 1.35903 57.2366 1.0224 60.1779 0.757674C63.1192 0.493803 66.0425 0.300987 69.1653 0.181039C75.6486 -0.066438 82.2572 0.00804522 88.7513 0.40779C95.2454 0.807535 101.614 1.53682 107.612 2.56811C113.613 3.59855 119.241 4.92844 124.309 6.4986C129.379 8.0679 133.891 9.87577 137.718 11.8485C142.429 14.2703 145.835 16.9243 147.966 19.5537C150.108 22.1856 150.981 24.7869 150.952 27.1677C150.804 27.1565 150.717 26.915 150.661 27.1761C150.717 28.1016 150.532 28.8283 150.245 29.3838C150.059 29.2211 149.857 29.1037 149.705 28.8399C149.663 28.4709 149.658 28.2081 149.647 27.9478C149.636 27.6875 149.621 27.4298 149.524 27.0745C149.381 27.4691 149.031 27.0272 148.868 26.5528C148.456 24.7625 147.798 23.061 146.606 21.3491C144.962 18.9939 142.453 16.6991 139.129 14.5528C135.81 12.4066 131.678 10.4097 126.85 8.64703C122.024 6.88437 116.501 5.35678 110.452 4.14397C104.404 2.93029 97.8295 2.03139 90.97 1.50733C84.1128 0.9824 76.9685 0.827164 69.8329 1.06917C62.6973 1.31032 55.5683 1.95641 48.7685 3.0076C41.9688 4.05709 35.4984 5.51083 29.6734 7.32276C23.8484 9.13383 18.6711 11.3031 14.4307 13.7528C8.97044 16.9047 5.21145 20.4359 3.3377 24.0922C1.46395 27.7485 1.43061 31.524 3.23331 35.183C5.03602 38.8421 8.70615 42.378 14.0421 45.551C19.3713 48.7248 26.3596 51.5381 34.6439 53.77C38.34 54.7659 42.3724 55.6677 46.6896 56.4345C51.0046 57.2012 55.6043 57.8311 60.3947 58.2916C69.9754 59.2152 80.3164 59.4432 90.4695 58.8885C95.545 58.6121 100.569 58.1395 105.407 57.4803C110.245 56.8219 114.899 55.9784 119.255 54.9765C123.612 53.9754 127.672 52.8158 131.354 51.5378C135.038 50.2598 138.343 48.8635 141.222 47.3925C142.666 46.6536 143.637 46.0497 144.653 45.5656C143.937 45.8666 144.691 45.4706 144.978 45.2893C146.068 44.6041 147.173 43.8521 148.218 43.0668C149.263 42.2814 150.241 41.4626 151.109 40.6498C152.854 39.0249 154.11 37.4238 154.9 36.2128C155.214 35.4442 155.719 34.4308 156.103 33.372C156.494 32.3141 156.759 31.2098 156.811 30.2861C156.857 30.8623 156.817 31.5386 156.677 32.2611C156.538 32.9836 156.298 33.7522 155.975 34.5114C155.654 35.2715 155.252 36.0221 154.83 36.7136C154.411 37.406 153.971 38.0384 153.607 38.5682C153.338 38.7196 153.509 38.4731 153.015 38.9685C152.748 39.3819 153.284 38.9438 152.849 39.4222C151.423 40.8879 149.949 42.1696 148.969 43.217C150.135 42.3743 150.945 41.6402 151.712 40.8949C152.475 40.148 153.195 39.389 154.063 38.4648C154.186 38.1824 153.731 38.641 154.074 38.1498C154.473 37.9282 154.908 37.3549 155.285 36.7618C155.669 36.1679 155.99 35.555 156.337 35.2547C156.234 35.211 156.409 34.7719 156.571 34.3945C156.737 34.017 156.901 33.7003 156.892 33.9092C157.269 32.6415 157.44 31.7196 157.573 31.0116C157.698 30.3029 157.77 29.8072 157.78 29.3903C157.99 29.4863 158.051 29.8621 158.03 30.3107C158.01 30.7593 157.904 31.2781 157.85 31.6641C157.708 32.7573 157.647 33.8831 156.977 34.6832C157.08 34.8664 156.905 35.1583 156.727 35.427C156.552 35.6966 156.373 35.9431 156.501 36.045C156.297 36.2007 156.13 36.502 155.935 36.8152C155.742 37.1284 155.522 37.4528 155.251 37.6521C155.33 37.6744 155.464 37.6531 155.197 37.9637C154.43 38.9256 153.535 39.9858 152.465 41.0152C151.4 42.0445 150.162 43.0421 148.841 43.8804C149.171 43.7659 148.469 44.2766 147.706 44.7522C146.948 45.2287 146.137 45.67 146.473 45.4724C145.37 46.137 143.905 47.0797 142.282 47.8939C141.555 48.2608 140.584 48.738 139.593 49.1895C138.604 49.641 137.595 50.0668 136.862 50.3481C135.243 50.9713 133.371 51.7143 131.098 52.4751C125.844 54.2334 119.975 55.7165 113.895 56.8494C107.817 57.9866 101.539 58.7736 95.5267 59.2387C92.007 59.611 88.3013 59.8103 84.6943 59.8957C81.0828 59.9829 77.5745 59.958 74.3374 59.9229C72.4611 59.8971 74.9024 59.8795 73.5484 59.8369C72.757 59.8887 71.1295 59.8356 70.3225 59.795C70.7574 59.8072 71.2955 59.7963 70.7373 59.7669C68.9327 59.6487 70.1634 59.8334 68.713 59.7445C67.646 59.69 67.8679 59.631 66.7448 59.5705L66.7179 59.6364C63.2164 59.4086 59.6634 59.096 56.1508 58.6909C52.636 58.2859 49.1638 57.7893 45.8217 57.2062C42.484 56.6224 39.2742 55.9546 36.2751 55.2228C33.2761 54.491 30.4878 53.6959 27.9707 52.8676C28.484 52.9929 29.078 53.2055 29.6585 53.3916C30.239 53.5777 30.8038 53.7389 31.2342 53.7657ZM147.707 44.1581C148.032 43.9382 148.348 43.7175 148.66 43.4942C148.646 43.4077 148.319 43.5968 148.034 43.7944C147.751 43.9928 147.509 44.1999 147.707 44.1581Z" fill="#FFA800"></path></svg>