<svg xmlns="http://www.w3.org/2000/svg" width="94" height="94" viewBox="0 0 94 94" fill="none"><mask id="mask0_673_16" style="mask-type:alpha" maskUnits="userSpaceOnUse" x="26" y="24" width="42" height="47"><path d="M26.86 36.4766L51.3629 24.5025L67.8526 58.2459L43.3497 70.22L26.86 36.4766Z" fill="black"></path></mask><g mask="url(#mask0_673_16)"><mask id="mask1_673_16" style="mask-type:alpha" maskUnits="userSpaceOnUse" x="35" y="27" width="24" height="40"><path d="M50.8979 60.7655L51.156 65.6479L45.2817 66.041L45.0181 61.0293C40.2809 60.3392 36.2777 57.5444 35.5508 53.001L42.3736 51.2307C43.0018 54.7327 45.6202 55.6512 48.0534 55.489C50.4828 55.3255 52.0556 54.0388 51.9693 52.4261C51.9119 51.2923 51.292 50.5024 49.3248 50.1952L43.6502 49.3508C39.4948 48.7563 35.89 46.8094 35.643 42.1005C35.3943 37.3486 38.638 34.0709 43.5462 32.9535L43.2912 28.1167L49.1655 27.7236L49.4272 32.6922C54.117 33.3835 57.5051 36.2182 58.1803 40.6362L51.525 42.218C51.0758 38.7478 48.5021 37.9142 46.4271 38.0552C44.2199 38.2012 42.8217 39.4779 42.9023 41.0463C42.9623 42.1789 43.624 42.9231 45.1896 43.1692L50.9533 44.0517C55.8701 44.8142 58.7447 47.1619 58.9734 51.5186C59.2356 56.534 55.5896 59.7099 50.8979 60.7655Z" fill="black"></path></mask><g mask="url(#mask1_673_16)"><path d="M45.2445 27.904C44.3041 28.7404 43.3624 29.5743 42.4182 30.4094C42.2605 30.5524 42.4375 30.849 42.632 30.7288C44.1644 29.7727 45.6688 28.8837 47.3909 28.309C47.3351 28.195 47.2794 28.0809 47.2237 27.9668C44.348 29.9844 41.4674 31.9919 38.6018 34.0234C38.4369 34.1385 38.6208 34.4098 38.7969 34.3112C41.0453 33.0429 43.3025 31.7797 45.6453 30.6913C46.8141 30.1453 48.037 29.7361 49.2081 29.2078C50.0289 28.8349 49.0572 29.2532 48.8621 29.3392C48.2302 29.6134 47.5976 30.0042 46.9854 30.3253C42.397 32.7466 37.9443 35.4061 33.6228 38.2684C33.4503 38.381 33.5749 38.6687 33.7653 38.5599C39.7996 35.1432 46.2691 32.5909 53.0083 30.9838C52.9693 30.8647 52.9277 30.7469 52.8913 30.6265C48.8946 31.983 44.9962 33.5929 41.2299 35.493C39.4006 36.4121 37.5946 37.3857 35.8274 38.4189C34.7404 39.0537 33.3805 39.6021 32.8291 40.7822C32.7519 40.9455 32.968 41.1319 33.1209 41.0384C39.6919 37.0673 46.9124 34.7729 54.2195 32.5837C54.1948 32.4545 54.1714 32.3278 54.1492 32.1973C45.8148 34.8352 37.8517 38.5413 30.4757 43.2323C30.2072 43.4043 30.3924 43.8225 30.6937 43.6784C39.2884 39.5663 48.2249 36.3045 57.47 34.035C57.442 33.8728 57.4114 33.7119 57.3835 33.5497C52.0348 34.92 46.7816 36.6236 41.6655 38.7123C39.0667 39.7751 36.5061 40.929 33.9901 42.1743C33.0277 42.6509 29.981 43.5054 29.9386 44.8481C29.9326 45.0457 30.1253 45.1777 30.3127 45.0955C39.2509 41.1421 48.5261 38.0226 58.0249 35.7672C57.998 35.6139 57.9712 35.4606 57.9417 35.3086C48.1045 38.1501 38.6371 42.0764 29.6886 47.0711C29.4335 47.2114 29.6131 47.579 29.8818 47.4665C40.0784 43.2027 50.5317 39.5169 61.3996 37.4466C61.3738 37.3085 61.348 37.1704 61.3247 37.031C50.386 39.7106 39.8408 43.8118 29.9578 49.2287C29.7027 49.369 29.8835 49.7454 30.1523 49.6266C39.3265 45.5987 48.8094 42.3337 58.6247 40.3194C58.5783 40.1787 58.532 40.038 58.4857 39.8974C49.5195 43.1705 40.5912 46.6261 32.3614 51.5176C32.1049 51.6681 32.2819 52.0369 32.5596 51.9232C41.3834 48.3586 50.2965 44.8194 59.7626 43.4875C59.7344 43.338 59.7088 43.1872 59.6794 43.0351C49.2988 46.4436 38.8656 49.9281 29.449 55.5912C29.1911 55.7455 29.3684 56.0953 29.6484 55.9993C39.0995 52.7216 48.0625 47.7041 58.1121 46.5299C58.0683 46.3879 58.0194 46.2485 57.9731 46.1079C49.0209 49.3899 40.0643 52.7023 31.5455 57.0222C31.2609 57.1676 31.4667 57.5757 31.7586 57.4582C36.6588 55.4718 41.5982 53.5919 46.583 51.831C51.6375 50.0424 56.7298 48.3703 62.076 47.8083C62.0333 47.6815 61.9906 47.5548 61.9493 47.4243C57.2251 49.0954 52.4998 50.7577 47.7732 52.4238C43.1729 54.047 38.5029 55.5535 34.2454 57.9763C33.9773 58.1293 34.1645 58.4994 34.4486 58.392C42.7491 55.2715 51.1826 52.5413 59.7228 50.1735C59.6484 50.0214 59.5741 49.8693 59.4998 49.7172C57.85 51.1546 55.1032 51.58 53.0555 52.2949C50.773 53.0869 48.5078 53.9206 46.2535 54.7899C41.7488 56.5297 37.3041 58.4253 32.9188 60.4553C32.602 60.6007 32.835 61.0709 33.1504 60.9293C41.7361 57.1136 50.7134 54.3092 59.916 52.4969C59.8843 52.3272 59.8552 52.1561 59.8248 51.9889C51.486 54.6508 43.2835 57.7423 35.2758 61.2849C34.9876 61.41 35.1989 61.803 35.4802 61.7032C43.3464 58.9268 51.2492 56.1859 59.4946 54.8413C59.4654 54.6766 59.4349 54.5094 59.4057 54.3447C51.4898 56.8816 43.5681 59.4527 36.1261 63.2151C35.8207 63.3706 36.0428 63.8053 36.3528 63.679C44.2889 60.4947 52.497 58.1164 60.89 56.5491C60.8351 56.3843 60.7828 56.2183 60.7292 56.0561C52.9903 58.7389 45.3568 61.703 37.834 64.946C37.9083 65.0981 37.9814 65.2476 38.0545 65.3972C44.9798 62.2233 52.3136 60.1938 59.8681 59.3502C59.8388 59.1918 59.8095 59.0334 59.7802 58.875C53.4596 60.9715 47.2996 63.5013 41.147 66.0464C41.2176 66.1908 41.2882 66.3353 41.3588 66.4798C46.752 64.2368 52.3292 62.5601 58.0555 61.4512C58.0056 61.2966 57.9531 61.1432 57.9032 60.9886C52.6103 62.9189 47.3172 64.8555 42.0193 66.7756C41.7392 66.878 41.8944 67.3202 42.1789 67.2597C47.0871 66.2209 51.9777 65.087 56.8861 64.0355C57.1178 63.985 57.0548 63.6265 56.8192 63.6757C51.9134 64.7259 46.9898 65.6938 42.0863 66.7554C42.1387 66.9151 42.1923 67.0773 42.2447 67.237C47.5341 65.2928 52.8283 63.365 58.1188 61.4297C58.3911 61.3312 58.2392 60.9155 57.9664 60.9672C52.1976 62.0875 46.579 63.7843 41.147 66.0464C40.855 66.1702 41.0655 66.6011 41.3588 66.4798C47.4689 63.9461 53.5851 61.4251 59.8681 59.3502C60.1635 59.2529 60.1027 58.8399 59.7802 58.875C52.1821 59.7148 44.8018 61.7608 37.834 64.946C37.5328 65.0837 37.7534 65.5286 38.0545 65.3972C45.5798 62.1593 53.217 59.2028 60.9584 56.5251C61.2487 56.424 61.0832 55.9805 60.795 56.0334C52.3546 57.602 44.1023 60.0081 36.1261 63.2151C36.2017 63.3697 36.2772 63.5243 36.3528 63.679C43.7496 59.9355 51.625 57.3682 59.4946 54.8413C59.8028 54.7441 59.7414 54.2905 59.4057 54.3447C51.1139 55.6993 43.1758 58.4794 35.2758 61.2849C35.3439 61.4243 35.4121 61.5637 35.4802 61.7032C43.4482 58.1579 51.5915 55.0765 59.916 52.4969C60.2294 52.3972 60.1619 51.9246 59.8248 51.9889C50.5477 53.7339 41.545 56.5915 32.9188 60.4553C32.9956 60.6125 33.0736 60.7722 33.1504 60.9293C37.7518 58.7906 42.4186 56.8052 47.158 54.9948C49.4134 54.1344 51.6836 53.3107 53.9698 52.5264C55.8689 51.8746 58.2858 51.4692 59.8521 50.1103C60.0435 49.9445 59.8908 49.5795 59.6291 49.654C51.044 52.0281 42.5774 54.8153 34.2454 57.9763C34.3135 58.1157 34.3817 58.2551 34.4486 58.392C38.6985 55.9603 43.3637 54.4373 47.9614 52.8091C52.6844 51.1354 57.4035 49.4605 62.1289 47.7918C62.3663 47.7072 62.2127 47.3929 62.0021 47.4079C56.8329 47.8207 51.8983 49.4219 47.0245 51.1411C41.8204 52.9777 36.6614 54.9461 31.5455 57.0222C31.6161 57.1667 31.688 57.3137 31.7586 57.4582C40.2711 53.1256 49.2216 49.8005 58.1701 46.5109C58.427 46.4136 58.2702 46.06 58.0338 46.0877C47.938 47.2657 38.9387 52.3008 29.449 55.5912C29.5159 55.7281 29.5815 55.8624 29.6484 55.9993C39.0313 50.359 49.4232 46.8884 59.7626 43.4875C60.0413 43.3953 59.988 42.9911 59.6794 43.0351C50.172 44.3746 41.2214 47.9353 32.3614 51.5176C32.4271 51.652 32.494 51.7889 32.5596 51.9232C40.7894 47.0317 49.7153 43.571 58.6827 40.3004C58.9267 40.2095 58.7909 39.8268 58.5438 39.8784C48.6937 41.9004 39.1569 45.1666 29.9578 49.2287C30.0234 49.363 30.0879 49.4948 30.1523 49.6266C39.9983 44.1996 50.4856 40.111 61.3996 37.4466C61.6688 37.381 61.5975 36.9794 61.3247 37.031C50.4159 39.0962 39.9176 42.782 29.6886 47.0711C29.753 47.2029 29.8174 47.3347 29.8818 47.4665C38.7838 42.4882 48.2168 38.5505 58.0249 35.7672C58.3149 35.6852 58.2431 35.2367 57.9417 35.3086C48.3793 37.5322 39.0721 40.6517 30.0872 44.6342C30.2102 44.7154 30.3345 44.7991 30.4613 44.8816C30.4819 44.209 33.3735 43.0503 33.8987 42.7873C34.944 42.2639 35.998 41.7583 37.062 41.2666C39.1836 40.2832 41.3362 39.3631 43.5146 38.509C48.0701 36.7224 52.7321 35.2387 57.47 34.035C57.783 33.9542 57.699 33.474 57.3835 33.5497C48.1001 35.8066 39.0606 39.015 30.4757 43.2323C30.5488 43.3818 30.6218 43.5314 30.6937 43.6784C38.017 38.9189 45.8879 35.2013 54.2195 32.5837C54.4607 32.5067 54.3955 32.1241 54.1492 32.1973C47.331 34.2261 40.3177 36.256 34.1548 39.9145C32.5623 40.8592 34.941 39.3985 35.3739 39.1303C36.1933 38.6232 37.0251 38.1351 37.8657 37.6583C39.3318 36.8288 40.8279 36.0475 42.3463 35.3117C45.8189 33.6304 49.3988 32.195 53.0573 30.9662C53.2637 30.8967 53.1477 30.5609 52.9378 30.6101C46.8313 32.0429 40.9491 34.2298 35.4348 37.2416C35.0451 37.4541 34.0656 37.6595 34.3894 38.1387C34.3782 38.1222 37.0086 36.416 37.3082 36.2225C38.701 35.3346 40.1062 34.4658 41.5239 33.6223C44.3618 31.934 47.2507 30.337 50.2028 28.8629C50.2999 28.8124 50.2528 28.6438 50.1445 28.6779C46.6685 29.8145 43.4011 31.4175 40.1866 33.1548C39.0474 33.768 39.2317 34.0139 40.2831 33.2866C41.0541 32.7528 41.8201 32.2152 42.5899 31.6789C44.2217 30.5392 45.8535 29.3994 47.4866 28.2623C47.6437 28.151 47.5051 27.8607 47.3194 27.9201C45.5728 28.5035 44.0219 29.409 42.4623 30.3816C42.5335 30.488 42.6036 30.592 42.6774 30.6972C43.6153 29.8621 44.5583 29.0244 45.4987 28.188C45.6837 28.0223 45.4321 27.737 45.2445 27.904Z" fill="#FAB81D"></path></g></g><path d="M81.5329 44.7967C81.2683 40.3336 80.1067 35.9304 78.0614 31.9811C76.0264 28.033 73.199 24.5164 69.8051 21.6961C63.0108 16.0554 54.0821 13.1295 45.2548 13.7687C36.4388 14.3392 27.8677 18.4142 21.9174 24.9997C18.945 28.2817 16.5916 32.1222 15.0653 36.2713C13.5518 40.4206 12.8053 44.8541 12.9653 49.2801C13.1562 53.6972 14.165 58.1026 16.1057 62.0935C18.0154 66.0933 20.741 69.7165 24.1079 72.6257C30.8436 78.4874 40.0195 81.2767 48.8663 80.5397C53.2952 80.1922 57.647 79.0181 61.6598 77.1045C65.6599 75.178 69.3272 72.5311 72.3967 69.2838C75.4572 66.0313 77.8866 62.1694 79.4803 57.981C81.083 53.7914 81.7577 49.2635 81.5329 44.7967ZM81.7076 44.787C81.9526 49.2755 81.3291 53.8162 79.9094 58.1246C78.4922 62.4381 76.2035 66.4962 73.211 69.9993C70.2198 73.4985 66.4981 76.4275 62.3228 78.4679C58.1575 80.5349 53.5617 81.7147 48.9429 81.9752C44.3196 82.2002 39.677 81.5135 35.3724 79.9709C31.0678 78.4283 27.11 76.0476 23.7304 73.0468C20.3611 70.0409 17.5496 66.4124 15.5521 62.3641C13.5751 58.312 12.3215 53.8843 12.0119 49.3423C11.702 44.8129 12.2551 40.1805 13.7602 35.8304C15.2448 31.4777 17.6095 27.3982 20.6952 23.9284C23.7733 20.4561 27.5431 17.573 31.7264 15.5098C35.9085 13.4377 40.5136 12.2376 45.1562 11.9275C49.7981 11.662 54.4947 12.2623 58.8546 13.8C63.22 15.3097 67.2245 17.7465 70.5731 20.8413C73.9153 23.9361 76.6276 27.6698 78.4998 31.77C80.3722 35.8637 81.4742 40.2961 81.7076 44.787Z" fill="#13100E"></path><path d="M74.5483 45.2182C74.3374 41.6689 73.4102 38.1697 71.7674 35.0455C70.1312 31.9212 67.8675 29.1478 65.1572 26.9367C59.7325 22.5196 52.6636 20.2414 45.6702 20.761C38.688 21.231 31.8894 24.4428 27.1499 29.6537C24.7874 32.2476 22.9059 35.2853 21.6789 38.5681C20.4609 41.8497 19.841 45.3599 19.9469 48.8722C20.0774 52.3755 20.8642 55.8707 22.3848 59.0483C23.8873 62.2284 26.0747 65.0897 28.7486 67.3975C34.1166 72.0348 41.4302 74.1809 48.4434 73.5569C55.4826 72.9927 62.235 69.7719 67.1588 64.6415C69.6123 62.0756 71.5689 59.0202 72.8662 55.6967C74.17 52.3732 74.7192 48.7712 74.5483 45.2182ZM74.7238 45.2082C75.091 52.3398 72.7905 59.7207 67.9754 65.3568C65.5923 68.1723 62.6112 70.5351 59.2583 72.1767C55.9191 73.8464 52.2251 74.7898 48.5179 74.9946C44.8087 75.1689 41.0941 74.6071 37.6529 73.3656C34.2157 72.119 31.0606 70.2105 28.3688 67.8199C22.971 63.0424 19.5077 56.1927 18.9893 48.9361C18.7357 45.3192 19.1591 41.6115 20.369 38.1287C21.5544 34.642 23.4464 31.3688 25.9243 28.5826C28.3971 25.7927 31.4226 23.4745 34.781 21.8112C38.1421 20.1403 41.8443 19.174 45.5717 18.9182C49.3047 18.7071 53.0763 19.1811 56.5665 20.4175C60.0701 21.6286 63.2694 23.5944 65.9299 26.0792C71.2935 31.0502 74.3632 38.0702 74.7238 45.2082Z" fill="#13100E"></path><path d="M50.5517 60.294C52.5528 59.7415 54.4083 58.8977 55.9197 57.5778C57.4179 56.2644 58.4061 54.4842 58.6471 52.6436C58.889 50.8115 58.5814 48.8944 57.5063 47.4723C56.4264 46.0404 54.6578 45.2178 52.8045 44.8052C51.8701 44.5966 50.9104 44.4903 49.9198 44.3812L46.9688 44.0495L45.4946 43.883C45.0096 43.8294 44.4466 43.757 43.9412 43.5275C43.4326 43.3116 42.9568 42.888 42.7618 42.3481C42.5677 41.8167 42.5516 41.2673 42.7002 40.7063C43.0021 39.567 44.0558 38.7525 45.0902 38.3878C46.1483 38.0115 47.241 37.927 48.2993 38.081C49.3498 38.2388 50.39 38.7042 51.0616 39.5086C51.7588 40.2915 52.0666 41.3036 52.1846 42.2827L51.628 41.9284L58.3922 40.2319L58.0267 40.7311C57.7935 38.7986 56.8608 37.0042 55.34 35.7699C53.8316 34.5206 51.8464 33.8248 49.7827 33.5718L49.4637 33.536L49.4607 33.2348L49.3775 28.4306L49.74 28.7298L43.7942 29.2174L44.0864 28.9099L44.1663 33.5869L44.1674 33.7901L43.9594 33.8408C42.0008 34.3125 40.0723 35.1411 38.5551 36.4758C37.0231 37.7937 36.0659 39.6577 35.8948 41.5541C35.6959 43.434 36.0849 45.4102 37.3994 46.7723C38.6942 48.141 40.6135 48.8361 42.5523 49.162C44.5175 49.4481 46.5463 49.6162 48.5443 49.8353C49.5143 49.9426 50.6413 49.9821 51.4981 50.669C51.9216 51.0193 52.137 51.5673 52.1651 52.0809C52.2147 52.6049 52.067 53.1745 51.7608 53.6477C51.1323 54.608 50.0464 55.1357 49.0125 55.4072C47.9594 55.6732 46.8823 55.7291 45.8298 55.5603C44.7854 55.3815 43.777 54.9006 43.0872 54.1261C42.3838 53.3642 42.0205 52.3792 41.8546 51.4026L42.323 51.6771C40.0149 52.3256 37.699 52.9449 35.3844 53.5667L35.6804 53.1464C35.8175 54.158 36.1506 55.1278 36.6811 55.9922C37.2078 56.8554 37.922 57.606 38.7521 58.225C40.4254 59.4628 42.525 60.1715 44.6973 60.4523L44.9351 60.4829L44.938 60.7032L45.0089 65.5494L44.7672 65.3499C46.7468 65.1826 48.7276 65.0445 50.7113 64.8991L50.5727 65.0447L50.5517 60.294ZM50.6207 60.3412L50.8557 65.0203L50.8601 65.15L50.7171 65.1659C48.738 65.381 46.7573 65.5999 44.779 65.7966L44.544 65.8186L44.535 65.5923L44.3484 60.7576L44.5864 61.0099C42.3188 60.7757 40.095 60.0676 38.301 58.7571C37.4063 58.1067 36.6261 57.3014 36.0431 56.3699C35.4586 55.442 35.0857 54.3838 34.9251 53.2908L34.8791 52.9687L35.2223 52.8729C37.5301 52.2305 39.8406 51.5868 42.1564 50.9674L42.5634 50.8614L42.626 51.2443C42.7726 52.1345 43.0901 52.9921 43.6758 53.6407C44.2509 54.2944 45.093 54.7099 46.0164 54.8759C46.9356 55.0469 47.9415 55.0197 48.8865 54.8007C49.8211 54.5806 50.7576 54.123 51.2639 53.3752C51.5123 53.0051 51.6392 52.5806 51.6097 52.1515C51.5924 51.7136 51.445 51.3182 51.132 51.0397C50.8189 50.7612 50.3781 50.5901 49.9165 50.4771C49.4587 50.3652 48.959 50.3218 48.4566 50.2527C46.4623 49.9808 44.4743 49.7688 42.4696 49.4691C40.4996 49.1194 38.5238 48.3891 37.1882 46.9504C36.5265 46.2401 36.0477 45.3744 35.801 44.4403C35.5504 43.5051 35.4999 42.5231 35.5888 41.5448C35.7551 39.5849 36.7358 37.6285 38.3003 36.2228C39.8554 34.7977 41.8502 33.9037 43.8681 33.379L43.6624 33.6354L43.4903 28.9644L43.4798 28.688L43.7798 28.6582L49.7201 28.0654L50.0708 28.0318L50.0826 28.3646L50.2579 33.1628L49.9335 32.821C52.1152 33.0672 54.2582 33.7907 55.9249 35.1425C56.7551 35.8155 57.4556 36.6387 57.9613 37.5661C58.4696 38.4922 58.7859 39.5151 58.9317 40.5645L58.986 40.9574L58.5687 41.0625L51.8084 42.7871L51.3088 42.9114L51.2519 42.4328C51.1509 41.5623 50.8832 40.7194 50.3326 40.0956C49.7995 39.4542 48.9764 39.0774 48.0919 38.9374C47.2022 38.7999 46.221 38.8779 45.3652 39.1853C44.5134 39.4876 43.7702 40.0995 43.5682 40.8664C43.4595 41.2341 43.4757 41.6696 43.6035 42.0117C43.7328 42.35 43.9967 42.6015 44.3663 42.7745C44.7409 42.951 45.1683 43.0208 45.6633 43.0815L47.1314 43.2689L50.0739 43.6437C51.0457 43.768 52.0526 43.8902 53.0296 44.1259C54.9569 44.5893 56.8901 45.4872 58.0351 47.106C59.1754 48.715 59.4282 50.7547 59.1279 52.6752C58.967 53.6468 58.6308 54.602 58.1136 55.475C57.6002 56.3491 56.9063 57.1287 56.117 57.787C54.5264 59.0857 52.5409 59.9182 50.6207 60.3412Z" fill="#13100E"></path></svg>