<svg xmlns="http://www.w3.org/2000/svg" width="70" height="77" viewBox="0 0 70 77" fill="none"><path d="M61.4415 26.3546C59.142 22.7433 56.1206 19.5858 52.5693 17.2321C49.0271 14.8693 45.0342 13.2311 40.9042 12.4334C32.6381 10.847 23.909 12.4273 16.8978 16.9002C9.86519 21.3123 4.63263 28.5012 2.71991 36.631C1.76965 40.6838 1.57472 44.9283 2.21128 49.0633C2.86002 53.1921 4.2641 57.2266 6.42961 60.8561C10.7332 68.1272 18.1526 73.5654 26.4857 75.371C34.8219 77.2284 43.7306 75.368 50.7023 70.7732C57.7379 66.2242 62.9187 59.0566 65.072 50.9054C66.1411 46.8314 66.4 42.5229 65.8121 38.3057C65.2335 34.0825 63.7015 29.9902 61.4415 26.3546ZM61.6212 26.2389C63.9147 29.8897 65.5137 33.9668 66.3604 38.2113C67.2101 42.462 67.2132 46.8984 66.3695 51.2008C65.5228 55.5001 63.7898 59.6594 61.2405 63.2707C58.7187 66.9002 55.4049 69.9694 51.6404 72.2652C47.8576 74.5306 43.6332 76.0287 39.3052 76.6559C34.9742 77.2801 30.5548 77.0426 26.3334 76.0439C22.1151 75.03 18.0734 73.264 14.513 70.7732C10.9708 68.2673 7.83674 65.1402 5.44584 61.4711C3.05799 57.8173 1.33106 53.6823 0.554402 49.3434C-0.246624 45.0105 -0.185709 40.5072 0.776741 36.1865C1.7331 31.8658 3.54226 27.7278 6.08544 24.0892C8.62253 20.4445 11.9393 17.3478 15.6947 14.985C19.4775 12.6648 23.708 11.0449 28.0908 10.3811C32.4675 9.68691 36.9722 9.95486 41.2149 11.0723C45.4576 12.1989 49.4536 14.1355 52.9104 16.751C56.3674 19.3635 59.34 22.582 61.6212 26.2389Z" fill="#13100E"></path><path d="M53.6563 46.3829C54.0067 43.6853 53.8194 40.9181 53.0521 38.3204C52.2878 35.7257 51.0131 33.3006 49.3305 31.2266C45.9683 27.0697 41.0656 24.2994 35.8396 23.6212C30.6257 22.9067 25.158 24.2782 20.9228 27.4633C16.6756 30.6211 13.7152 35.4744 12.8724 40.7849C12.0115 46.0772 13.392 51.7691 16.733 56.026C20.0075 60.3464 25.1127 63.0561 30.3689 63.6616C35.6372 64.3095 41.0746 62.9289 45.4336 59.8317C47.6116 58.2815 49.4906 56.2863 50.9194 53.9914C52.3573 51.6964 53.2757 49.0775 53.6563 46.3829ZM53.7892 46.4011C53.043 51.8145 50.3002 57.0039 45.9442 60.5038C43.7843 62.2568 41.2498 63.5769 38.5432 64.3005C35.8396 65.0422 32.9789 65.1845 30.2148 64.7728C27.4538 64.3338 24.7925 63.3437 22.4302 61.8844C20.077 60.419 18.0168 58.5116 16.3614 56.3075C14.7362 54.0852 13.4886 51.5784 12.7667 48.914C12.0658 46.2467 11.8151 43.4461 12.1414 40.6849C12.7455 35.1535 15.6878 29.8733 20.1586 26.4521C22.3789 24.7384 24.9405 23.4577 27.6592 22.722C30.3749 21.9772 33.2447 21.8198 36.0359 22.1982C38.8151 22.613 41.5368 23.5365 43.9323 25.0109C46.3248 26.4763 48.4333 28.4049 50.0343 30.6907C53.2787 35.2473 54.5414 40.9877 53.7892 46.4011Z" fill="#13100E"></path><path d="M40.1006 30.8792C36.848 29.1059 32.8882 28.8823 29.4862 30.0966C26.0689 31.2923 23.173 33.811 21.5268 37.0347C19.8594 40.2398 19.46 44.1064 20.4934 47.6003C21.5085 51.0973 23.8985 54.1595 27.0688 55.9608C30.2239 57.7683 34.1532 58.2218 37.6315 57.0664C41.131 55.967 44.0361 53.2992 45.6426 50.0414C47.2948 46.7866 47.6576 42.9324 46.7156 39.3795C45.7798 35.8297 43.3777 32.6153 40.1006 30.8792ZM40.1433 30.7985C43.402 32.5594 46.0572 35.5626 47.2613 39.2087C47.871 41.0224 48.1179 42.9759 47.9472 44.8983C47.7917 46.827 47.1973 48.7028 46.3102 50.4016C45.3926 52.088 44.1428 53.5756 42.6704 54.7589C41.192 55.9391 39.5032 56.8211 37.7229 57.3708C34.1532 58.4547 30.1903 58.141 26.8341 56.408C23.4687 54.7123 20.8044 51.5601 19.6765 47.8581C18.512 44.1716 18.8564 40.0007 20.6672 36.572C22.4535 33.1371 25.6635 30.5035 29.3094 29.5158C32.9522 28.491 36.8846 29.0314 40.1433 30.7985Z" fill="#13100E"></path><path d="M40.6992 38.749C43.1936 42.4917 41.9934 47.4281 38.0167 49.7757C34.0401 52.1233 28.7951 50.9938 26.3008 47.251C23.8064 43.5083 25.0066 38.5719 28.9833 36.2243C32.9599 33.8767 38.2049 35.0062 40.6992 38.749Z" fill="#FFDC60"></path><path d="M40.4312 39.5013C39.2284 37.5623 37.1419 36.2736 34.9757 35.9146C32.8033 35.5557 30.5511 35.9791 28.7378 37.145C26.9182 38.2925 25.5498 40.1426 25.0404 42.2535C24.5249 44.3583 24.8348 46.6655 25.9425 48.5893C27.044 50.513 28.9924 51.9704 31.1924 52.4337C33.3955 52.9093 35.7213 52.3631 37.5224 51.1451C39.3419 49.9393 40.6859 48.0984 41.2995 45.9752C41.9101 43.8643 41.6647 41.422 40.4312 39.5013ZM40.5079 39.4523C41.7138 41.3883 42.2845 43.7753 41.8611 46.1041C41.4714 48.4359 39.9802 50.5836 37.9244 51.7925C35.8686 53.0105 33.3679 53.2805 31.1249 52.7221C28.8728 52.1852 26.8292 50.8045 25.5191 48.8562C24.1905 46.9202 23.6811 44.3982 24.1997 42.0633C24.6906 39.7223 26.1634 37.5807 28.2192 36.3166C30.2597 35.0464 32.8371 34.6506 35.1076 35.3256C37.3935 35.9699 39.299 37.5193 40.5079 39.4523Z" fill="#13100E"></path><path d="M62 10L35 43L62 10Z" fill="#FEFDF0"></path><path d="M62 10C59.9897 12.9303 57.8643 15.7748 55.6974 18.5887C53.5401 21.4087 51.3157 24.1766 49.0753 26.9353C46.8189 29.6786 44.5433 32.4097 42.2006 35.0887C39.8675 37.7769 37.4897 40.4314 35 43C37.0071 40.0697 39.1325 37.2252 41.2994 34.4113C43.4567 31.5913 45.6811 28.8234 47.9215 26.0647C50.1843 23.3244 52.4567 20.5933 54.7994 17.9113C57.1357 15.2262 59.5103 12.5686 62 10Z" fill="#13100E"></path><path d="M61.5216 3C61.6768 4.2211 61.749 5.43898 61.7918 6.65687C61.8399 7.87475 61.8426 9.09263 61.8292 10.3105L61.2889 9.83367C62.2225 9.46637 63.1587 9.10874 64.1083 8.80588C65.058 8.49658 66.0156 8.21949 67 8.03584C66.1226 8.60612 65.2211 9.08296 64.3116 9.53081C63.4021 9.98188 62.4793 10.3814 61.551 10.768L61 11L61.0107 10.2944C61.0321 9.07652 61.0696 7.85864 61.1498 6.64398C61.2247 5.42932 61.3317 4.21466 61.5216 3Z" fill="#13100E"></path><path d="M63.6057 0C63.7868 1.2216 63.8742 2.43997 63.9242 3.65834C63.9804 4.87671 63.9804 6.09508 63.9679 7.31023L63.3372 6.83642C64.4269 6.46898 65.5165 6.1112 66.628 5.80822C67.7364 5.49879 68.8541 5.2216 70 5.03465C68.979 5.60516 67.9269 6.08542 66.8653 6.53022C65.8037 6.98469 64.7266 7.38114 63.6432 7.77115L63 8L63.0125 7.29412C63.0375 6.07897 63.0781 4.8606 63.1717 3.64545C63.2623 2.4303 63.3872 1.21515 63.6057 0Z" fill="#13100E"></path><path d="M61.4415 26.3546C59.142 22.7433 56.1206 19.5858 52.5693 17.2321C49.0271 14.8693 45.0342 13.2311 40.9042 12.4334C32.6381 10.847 23.909 12.4273 16.8978 16.9002C9.86519 21.3123 4.63263 28.5012 2.71991 36.631C1.76965 40.6838 1.57472 44.9283 2.21128 49.0633C2.86002 53.1921 4.2641 57.2266 6.42961 60.8561C10.7332 68.1272 18.1526 73.5654 26.4857 75.371C34.8219 77.2284 43.7306 75.368 50.7023 70.7732C57.7379 66.2242 62.9187 59.0566 65.072 50.9054C66.1411 46.8314 66.4 42.5229 65.8121 38.3057C65.2335 34.0825 63.7015 29.9902 61.4415 26.3546ZM61.6212 26.2389C63.9147 29.8897 65.5137 33.9668 66.3604 38.2113C67.2101 42.462 67.2132 46.8984 66.3695 51.2008C65.5228 55.5001 63.7898 59.6594 61.2405 63.2707C58.7187 66.9002 55.4049 69.9694 51.6404 72.2652C47.8576 74.5306 43.6332 76.0287 39.3052 76.6559C34.9742 77.2801 30.5548 77.0426 26.3334 76.0439C22.1151 75.03 18.0734 73.264 14.513 70.7732C10.9708 68.2673 7.83674 65.1402 5.44584 61.4711C3.05799 57.8173 1.33106 53.6823 0.554402 49.3434C-0.246624 45.0105 -0.185709 40.5072 0.776741 36.1865C1.7331 31.8658 3.54226 27.7278 6.08544 24.0892C8.62253 20.4445 11.9393 17.3478 15.6947 14.985C19.4775 12.6648 23.708 11.0449 28.0908 10.3811C32.4675 9.68691 36.9722 9.95486 41.2149 11.0723C45.4576 12.1989 49.4536 14.1355 52.9104 16.751C56.3674 19.3635 59.34 22.582 61.6212 26.2389Z" fill="#13100E"></path></svg>