<svg xmlns="http://www.w3.org/2000/svg" width="91" height="62" viewBox="0 0 91 62" fill="none"><path d="M10.7463 48.9873C8.36755 52.0869 6.11791 55.2877 4 58.571C8.46053 58.1875 16.506 54.1906 16.506 54.1906C16.506 54.1906 21.7698 58.2408 31.8067 58.9065C48.1714 59.9956 53.8149 51.3972 54.8739 42.1145C56.6896 26.1906 38.5194 15.8667 25.0552 17.0996C18.1616 17.7333 11.3016 21.5545 7.33184 27.2824C2.45289 34.3123 3.63066 41.4834 9.15015 47.7731" fill="#FBFCFF"></path><path d="M82.4032 38.1966C82.4032 38.1966 86.6906 26.3652 79.5441 16.3956C74.7121 9.65789 66.7898 6.47171 59.001 6.03918C52.3863 5.67113 41.3942 7.82839 39 15.3909L39.4804 16.5944C48.8592 21.2367 56.3217 30.2123 55.0219 41.8206C54.7008 44.663 54.0123 47.4462 52.8615 49.9849L53.347 51.1992C55.8362 53.0663 60.8763 53.1765 63.9281 52.8675C70.2885 52.2255 76.9829 48.4214 80.939 43.2096C84.0575 44.8188 89 47.3951 89 47.3951L82.4032 38.1966Z" fill="#FAB81D"></path><path d="M7.53447 49.819C4.79827 53.3549 2.37318 57.1359 0.0424444 60.985C-0.0799576 61.1866 0.0781452 61.5216 0.315299 61.4944C2.98264 61.1947 5.55818 60.1977 8.03682 59.1462C9.82695 58.389 12.1628 57.6861 13.726 56.4576C14.1518 56.1225 13.6265 56.2015 13.9045 56.4603C14.3252 56.8471 14.8837 57.1332 15.3656 57.4219C17.3317 58.5933 19.4508 59.4895 21.6056 60.1759C31.9154 63.4503 46.2339 63.137 52.609 52.3225C57.9564 43.2513 56.8497 31.2981 50.2043 23.3956C43.1279 14.9837 31.1121 10.3283 20.6621 12.5539C13.1471 14.1529 6.03504 19.2687 2.34258 26.5201C-1.57938 34.2292 0.129146 42.6657 5.41283 49.0781C5.86164 49.6256 6.57565 48.8329 6.15234 48.2854C2.05188 42.9599 -0.141159 36.4112 2.20233 29.6719C4.35456 23.4801 9.31184 18.6122 14.8148 15.8282C23.6482 11.3607 34.0268 12.9216 42.3068 18.0565C50.2273 22.968 56.0286 31.6005 54.9703 41.7177C54.0625 50.3993 49.3832 57.5772 41.3047 59.9907C35.1999 61.8158 28.2765 61.3582 22.2202 59.5739C19.4049 58.7458 16.3831 57.5962 14.032 55.6785C13.9351 55.5995 13.7923 55.6268 13.6928 55.6785C9.57705 57.8932 4.93852 60.274 0.315299 60.8188C0.4071 60.9877 0.496351 61.1566 0.588153 61.3255C2.88829 57.4873 5.36948 53.7853 7.80477 50.0424C7.91442 49.8735 7.65942 49.6611 7.53447 49.819Z" fill="#13100E"></path><path d="M20.1467 37.0616C18.7422 35.5713 16.97 35.7247 15.4659 37.0562C13.7575 38.5734 13.5404 41.3952 14.8249 43.2756C16.2371 45.3469 19.2121 45.6213 20.8719 43.7221C22.2075 42.1888 22.4322 39.0334 21.1401 37.4194C20.946 37.1773 20.5119 37.4355 20.6242 37.7368C21.0507 38.8935 21.1426 40.8034 20.7493 41.979C19.9092 44.4915 16.6022 44.5399 15.3714 42.3852C13.5787 39.2459 16.8882 35.5283 19.9143 37.379C20.1033 37.4947 20.2999 37.2257 20.1467 37.0616Z" fill="#13100E"></path><path d="M32.146 39.0625C30.7416 37.5724 28.9721 37.723 27.4681 39.0571C25.7573 40.5741 25.5403 43.3929 26.8246 45.2758C28.2367 47.3468 31.2114 47.6212 32.8712 45.7222C34.2092 44.1891 34.4313 41.0367 33.1393 39.4202C32.9452 39.1781 32.5111 39.4363 32.6235 39.7376C33.0524 40.8942 33.1418 42.8039 32.7486 43.9766C31.9085 46.4915 28.6018 46.5399 27.3711 44.3854C25.5786 41.2465 28.8878 37.5293 31.9136 39.3799C32.1026 39.4928 32.2992 39.2265 32.146 39.0625Z" fill="#13100E"></path><path d="M45.4704 42.2055C45.3126 40.3114 44.2707 39.2157 42.5804 39.023C40.3776 38.7725 38.3667 40.5977 38.0413 43.0754C37.7256 45.476 39.2556 47.8216 41.4341 47.9923C43.5882 48.1575 46.0217 45.6467 45.9999 43.1773C45.995 42.7946 45.5263 42.7368 45.4218 43.0892C44.9701 44.6364 43.5032 46.7259 41.9999 46.8993C40.0085 47.1251 38.4857 44.9557 38.9763 42.7891C39.7535 39.3644 44.0084 38.8964 45.1134 42.2605C45.179 42.4587 45.4898 42.4532 45.4704 42.2055Z" fill="#13100E"></path><path d="M65.4704 30.2054C65.3126 28.3141 64.2707 27.2157 62.5803 27.023C60.3776 26.7725 58.3667 28.6004 58.0412 31.078C57.7255 33.4758 59.258 35.8213 61.434 35.992C63.5882 36.16 66.0217 33.6465 65.9999 31.1771C65.995 30.7945 65.5263 30.7367 65.4218 31.0891C64.9701 32.6362 63.5032 34.7257 61.9999 34.8991C60.0084 35.1276 58.4857 32.9555 58.9763 30.789C59.7534 27.3643 64.0084 26.8963 65.1134 30.2604C65.179 30.4614 65.4898 30.4531 65.4704 30.2054Z" fill="#13100E"></path><path d="M78.4704 32.2054C78.3126 30.3141 77.2707 29.2157 75.5803 29.023C73.3776 28.7725 71.3667 30.6004 71.0412 33.078C70.7255 35.4786 72.258 37.8213 74.434 37.992C76.5882 38.16 79.0217 35.6465 78.9999 33.1771C78.995 32.7945 78.5263 32.7367 78.4218 33.0891C77.9701 34.639 76.5032 36.7257 74.9999 36.8991C73.0109 37.1276 71.4857 34.9555 71.9763 32.789C72.7534 29.3643 77.0059 28.8963 78.1134 32.2604C78.179 32.4614 78.4923 32.4531 78.4704 32.2054Z" fill="#13100E"></path><path d="M52.2036 50.7379C55.0303 52.9935 59.0365 53.1083 62.4517 52.9535C66.3012 52.7773 70.1584 51.8804 73.5967 50.0438C75.3236 49.1175 76.9374 47.9643 78.3919 46.6216C79.132 45.9382 79.8335 45.2094 80.4913 44.438C80.8434 44.0269 81.0516 43.5811 81.4858 43.5517C81.7994 43.533 82.506 44.0803 82.7938 44.2298C85.3148 45.5324 87.8331 46.8351 90.354 48.1378C90.7344 48.3354 91.1558 47.9323 90.9425 47.5239C89.0409 43.8747 87.3089 40.0494 85.2068 36.5204C85.1143 36.3629 84.9601 36.1387 84.9139 35.9598C84.9524 36.112 84.8882 36.4109 85.009 36.0639C85.2634 35.3298 85.4484 34.561 85.618 33.7976C86.2759 30.8345 86.5225 27.7539 86.3118 24.7214C85.1092 7.33535 68.0049 -1.66869 52.7047 0.255983C46.2674 1.06482 38.2267 3.69156 36.0219 10.8056C35.8625 11.3288 36.6206 11.5264 36.8031 11.0272C39.1852 4.52443 46.6401 2.0632 52.7047 1.29173C59.828 0.384117 67.401 1.72952 73.6147 5.53348C80.8562 9.96476 85.3405 17.7702 85.4792 26.5153C85.5229 29.1981 85.2043 31.9023 84.5387 34.4916C84.31 35.3859 83.9708 35.8984 84.3126 36.7286C85.2094 38.9095 86.5431 40.9917 87.6352 43.0766C88.4884 44.7076 89.3441 46.344 90.1999 47.975C90.3952 47.7721 90.5905 47.5692 90.7883 47.3637C87.6558 45.7513 84.5233 44.139 81.3908 42.5266C81.2366 42.4492 81.0002 42.4386 80.8794 42.5961C77.4102 47.0834 72.8361 50.1826 67.4062 51.4373C62.8834 52.4837 56.5439 52.9428 52.3834 50.4175C52.1804 50.2947 52.0288 50.5964 52.2036 50.7379Z" fill="#13100E"></path></svg>