<svg xmlns="http://www.w3.org/2000/svg" width="96" height="62" viewBox="0 0 96 62" fill="none"><path d="M69 36C69 49.8077 58.2536 61 45 61C31.7464 61 21 49.8077 21 36C21 22.1923 31.7464 11 45 11C58.2536 11 69 22.1923 69 36Z" fill="#FAB81D"></path><path d="M57.3413 59.4828C56.707 48.5259 58.2911 24.2348 79.6528 18.7828C80.1212 18.6644 84.0572 26.7833 84.6069 27.0948C85.1567 27.4063 95.6244 6.67937 94.9706 4.83192C94.3135 2.98447 71.3384 -0.115387 71.1693 1.40806C71.0001 2.92839 75.3102 8.48321 75.3102 8.48321C62.5654 15.1471 45.9465 20.5368 47.0524 60" fill="#E8E8E7"></path><path d="M37.0896 59.4828C37.6975 48.5259 36.1794 24.2348 15.7048 18.7828C15.259 18.6644 11.4871 26.7833 10.9602 27.0948C10.4334 27.4063 0.398729 6.67937 1.02843 4.83192C1.65813 2.98447 23.6758 -0.115387 23.8379 1.40806C24 2.92839 19.8695 8.48321 19.8695 8.48321C32.0863 15.1471 48.0096 20.5368 46.9497 60" fill="#E8E8E7"></path><mask id="mask0_673_17" style="mask-type:alpha" maskUnits="userSpaceOnUse" x="0" y="1" width="6" height="7"><path d="M0.580078 1.65625H5.51559V7.32985H0.580078V1.65625Z" fill="black"></path></mask><g mask="url(#mask0_673_17)"><mask id="mask1_673_17" style="mask-type:alpha" maskUnits="userSpaceOnUse" x="0" y="0" width="48" height="61"><path d="M37.7218 60.035C38.3484 48.8999 36.7836 24.2141 15.6791 18.6734C15.2196 18.5531 11.3316 26.8039 10.7886 27.1205C10.2455 27.4371 -0.0978572 6.37325 0.551215 4.49577C1.20029 2.61829 23.8953 -0.531954 24.0624 1.01625C24.2295 2.5613 19.972 8.2064 19.972 8.2064C32.5646 14.9786 48.9777 20.4559 47.8852 60.5606" fill="black"></path></mask><g mask="url(#mask1_673_17)"><path d="M1.05241 6.85779C2.29914 5.28109 3.6744 3.81836 4.95005 2.27016C5.04002 2.15934 4.89864 2.01054 4.7926 2.11185C3.34665 3.49859 2.10956 5.15761 0.936729 6.76914C0.88853 6.83563 1.00099 6.92111 1.05241 6.85779Z" fill="#253F81"></path></g></g><mask id="mask2_673_17" style="mask-type:alpha" maskUnits="userSpaceOnUse" x="0" y="1" width="8" height="9"><path d="M0.580078 1.65625H7.98335V9.76139H0.580078V1.65625Z" fill="black"></path></mask><g mask="url(#mask2_673_17)"><mask id="mask3_673_17" style="mask-type:alpha" maskUnits="userSpaceOnUse" x="0" y="0" width="48" height="61"><path d="M37.7218 60.035C38.3484 48.8999 36.7836 24.2141 15.6791 18.6734C15.2196 18.5531 11.3316 26.8039 10.7886 27.1205C10.2455 27.4371 -0.0978572 6.37325 0.551215 4.49577C1.20029 2.61829 23.8953 -0.531954 24.0624 1.01625C24.2295 2.5613 19.972 8.2064 19.972 8.2064C32.5646 14.9786 48.9777 20.4559 47.8852 60.5606" fill="black"></path></mask><g mask="url(#mask3_673_17)"><path d="M1.18099 9.25032C1.67582 7.61346 3.17961 6.22355 4.36208 5.01411C5.42245 3.92498 6.57921 2.94983 7.70062 1.92719C7.8163 1.82271 7.65885 1.61692 7.52711 1.7119C5.99761 2.81053 4.64163 4.15927 3.38526 5.55234C2.45343 6.58448 1.15528 7.78759 1.01069 9.22815C1.00105 9.3263 1.15528 9.33897 1.18099 9.25032Z" fill="#253F81"></path></g></g><mask id="mask4_673_17" style="mask-type:alpha" maskUnits="userSpaceOnUse" x="1" y="1" width="9" height="10"><path d="M1.40259 1.65625H9.62845V10.5719H1.40259V1.65625Z" fill="black"></path></mask><g mask="url(#mask4_673_17)"><mask id="mask5_673_17" style="mask-type:alpha" maskUnits="userSpaceOnUse" x="0" y="0" width="48" height="61"><path d="M37.7217 60.035C38.3483 48.8999 36.7835 24.2141 15.679 18.6734C15.2195 18.5531 11.3315 26.8039 10.7885 27.1205C10.2455 27.4371 -0.0979182 6.37325 0.551154 4.49577C1.20022 2.61829 23.8952 -0.531954 24.0623 1.01625C24.2294 2.5613 19.9719 8.2064 19.9719 8.2064C32.5645 14.9786 48.9777 20.4559 47.8852 60.5606" fill="black"></path></mask><g mask="url(#mask5_673_17)"><path d="M2.31191 10.4959C4.44549 7.75404 6.82328 5.26868 9.1368 2.682C9.25569 2.54902 9.07254 2.36222 8.93758 2.4857C6.37985 4.83176 4.14666 7.60207 2.02593 10.3312C1.8974 10.4959 2.18338 10.6573 2.31191 10.4959Z" fill="#253F81"></path></g></g><mask id="mask6_673_17" style="mask-type:alpha" maskUnits="userSpaceOnUse" x="3" y="0" width="10" height="14"><path d="M3.04779 0.851562H12.9188V13.0093H3.04779V0.851562Z" fill="black"></path></mask><g mask="url(#mask6_673_17)"><mask id="mask7_673_17" style="mask-type:alpha" maskUnits="userSpaceOnUse" x="0" y="0" width="48" height="61"><path d="M37.7217 60.035C38.3483 48.8999 36.7835 24.2141 15.679 18.6734C15.2195 18.5531 11.3315 26.8039 10.7885 27.1205C10.2455 27.4371 -0.0979182 6.37325 0.551154 4.49577C1.20022 2.61829 23.8952 -0.531954 24.0623 1.01625C24.2294 2.5613 19.9719 8.2064 19.9719 8.2064C32.5645 14.9786 48.9777 20.4559 47.8852 60.5606" fill="black"></path></mask><g mask="url(#mask7_673_17)"><path d="M3.70969 12.3666C6.18709 8.50396 9.67022 5.36955 12.6007 1.85205C12.7035 1.72857 12.5396 1.55444 12.4207 1.67158C10.6535 3.39076 9.03722 5.26824 7.41133 7.11722C5.99108 8.73509 4.51942 10.3435 3.48798 12.2368C3.40765 12.3824 3.61972 12.5027 3.70969 12.3666Z" fill="#253F81"></path></g></g><mask id="mask8_673_17" style="mask-type:alpha" maskUnits="userSpaceOnUse" x="3" y="0" width="14" height="15"><path d="M3.87036 0.851562H16.2091V14.6303H3.87036V0.851562Z" fill="black"></path></mask><g mask="url(#mask8_673_17)"><mask id="mask9_673_17" style="mask-type:alpha" maskUnits="userSpaceOnUse" x="0" y="0" width="48" height="61"><path d="M37.7218 60.035C38.3484 48.8999 36.7836 24.2141 15.6791 18.6734C15.2196 18.5531 11.3316 26.8039 10.7886 27.1205C10.2455 27.4371 -0.0978572 6.37325 0.551215 4.49577C1.20029 2.61829 23.8953 -0.531954 24.0624 1.01625C24.2295 2.5613 19.972 8.2064 19.972 8.2064C32.5646 14.9786 48.9777 20.4559 47.8852 60.5606" fill="black"></path></mask><g mask="url(#mask9_673_17)"><path d="M4.76372 13.8233C8.48785 9.60606 12.3791 5.49333 16.0068 1.19697C16.1353 1.045 15.9297 0.832875 15.7851 0.978515C11.791 4.91711 8.14404 9.34011 4.64483 13.7061C4.58057 13.7884 4.68982 13.9056 4.76372 13.8233Z" fill="#253F81"></path></g></g><mask id="mask10_673_17" style="mask-type:alpha" maskUnits="userSpaceOnUse" x="4" y="0" width="14" height="18"><path d="M4.69293 0.851562H17.8543V17.0618H4.69293V0.851562Z" fill="black"></path></mask><g mask="url(#mask10_673_17)"><mask id="mask11_673_17" style="mask-type:alpha" maskUnits="userSpaceOnUse" x="0" y="0" width="48" height="61"><path d="M37.7218 60.035C38.3484 48.8999 36.7836 24.2141 15.6791 18.6734C15.2196 18.5531 11.3316 26.8039 10.7886 27.1205C10.2455 27.4371 -0.0978572 6.37325 0.551215 4.49577C1.20029 2.61829 23.8953 -0.531954 24.0624 1.01625C24.2295 2.5613 19.972 8.2064 19.972 8.2064C32.5646 14.9786 48.9777 20.4559 47.8852 60.5606" fill="black"></path></mask><g mask="url(#mask11_673_17)"><path d="M5.14281 16.6202C9.0276 11.3677 13.1823 6.35577 17.3113 1.29322C17.4173 1.16341 17.2406 0.97661 17.1185 1.10642C12.6778 5.89985 8.687 11.1745 4.93716 16.503C4.85041 16.6297 5.05284 16.7436 5.14281 16.6202Z" fill="#253F81"></path></g></g><mask id="mask12_673_17" style="mask-type:alpha" maskUnits="userSpaceOnUse" x="5" y="0" width="16" height="18"><path d="M5.51562 0.046875H20.3222V17.8782H5.51562V0.046875Z" fill="black"></path></mask><g mask="url(#mask12_673_17)"><mask id="mask13_673_17" style="mask-type:alpha" maskUnits="userSpaceOnUse" x="0" y="0" width="48" height="61"><path d="M37.7218 60.035C38.3484 48.8999 36.7836 24.2141 15.6791 18.6734C15.2196 18.5531 11.3316 26.8039 10.7886 27.1205C10.2455 27.4371 -0.0978572 6.37325 0.551215 4.49577C1.20029 2.61829 23.8953 -0.531954 24.0624 1.01625C24.2295 2.5613 19.972 8.2064 19.972 8.2064C32.5646 14.9786 48.9777 20.4559 47.8852 60.5606" fill="black"></path></mask><g mask="url(#mask13_673_17)"><path d="M5.68911 17.7102C10.5796 12.1316 15.6083 6.50228 19.8819 0.442415C19.988 0.290444 19.7438 0.103646 19.6249 0.246119C14.8468 5.95138 10.3997 11.9163 5.54452 17.5677C5.46097 17.6658 5.60235 17.8115 5.68911 17.7102Z" fill="#253F81"></path></g></g><mask id="mask14_673_17" style="mask-type:alpha" maskUnits="userSpaceOnUse" x="6" y="0" width="17" height="20"><path d="M6.33826 0.046875H22.79V19.4992H6.33826V0.046875Z" fill="black"></path></mask><g mask="url(#mask14_673_17)"><mask id="mask15_673_17" style="mask-type:alpha" maskUnits="userSpaceOnUse" x="0" y="0" width="48" height="61"><path d="M37.7219 60.035C38.3484 48.8999 36.7836 24.2141 15.6791 18.6734C15.2197 18.5531 11.3316 26.8039 10.7886 27.1205C10.2456 27.4371 -0.0977961 6.37325 0.551276 4.49577C1.20035 2.61829 23.8954 -0.531954 24.0625 1.01625C24.2295 2.5613 19.972 8.2064 19.972 8.2064C32.5646 14.9786 48.9778 20.4559 47.8853 60.5606" fill="black"></path></mask><g mask="url(#mask15_673_17)"><path d="M6.58244 19.1544C11.9839 13.0281 17.5074 6.80356 22.3176 0.211803C22.4301 0.0534992 22.173 -0.142797 22.0445 0.00600855C16.6591 6.16402 11.6497 12.7083 6.45391 19.0278C6.38322 19.1164 6.50532 19.2399 6.58244 19.1544Z" fill="#253F81"></path></g></g><mask id="mask16_673_17" style="mask-type:alpha" maskUnits="userSpaceOnUse" x="7" y="0" width="18" height="22"><path d="M7.16071 0.046875H24.435V21.1202H7.16071V0.046875Z" fill="black"></path></mask><g mask="url(#mask16_673_17)"><mask id="mask17_673_17" style="mask-type:alpha" maskUnits="userSpaceOnUse" x="0" y="0" width="48" height="61"><path d="M37.7218 60.035C38.3484 48.8999 36.7836 24.2141 15.6791 18.6734C15.2196 18.5531 11.3316 26.8039 10.7886 27.1205C10.2455 27.4371 -0.0978572 6.37325 0.551215 4.49577C1.20029 2.61829 23.8953 -0.531954 24.0624 1.01625C24.2295 2.5613 19.972 8.2064 19.972 8.2064C32.5646 14.9786 48.9777 20.4559 47.8852 60.5606" fill="black"></path></mask><g mask="url(#mask17_673_17)"><path d="M7.70376 20.9547C13.494 14.7334 18.9725 7.99917 23.9627 1.13513C24.0912 0.954665 23.7892 0.723542 23.651 0.897676C18.2849 7.53376 12.8963 14.1603 7.56881 20.8186C7.49169 20.9136 7.61701 21.0466 7.70376 20.9547Z" fill="#253F81"></path></g></g><mask id="mask18_673_17" style="mask-type:alpha" maskUnits="userSpaceOnUse" x="7" y="8" width="15" height="16"><path d="M7.9834 8.15625H21.1448V23.556H7.9834V8.15625Z" fill="black"></path></mask><g mask="url(#mask18_673_17)"><mask id="mask19_673_17" style="mask-type:alpha" maskUnits="userSpaceOnUse" x="0" y="0" width="48" height="61"><path d="M37.7218 60.035C38.3484 48.8999 36.7836 24.2141 15.6791 18.6734C15.2196 18.5531 11.3316 26.8039 10.7886 27.1205C10.2455 27.4371 -0.0978572 6.37325 0.551215 4.49577C1.20029 2.61829 23.8953 -0.531954 24.0624 1.01625C24.2295 2.5613 19.972 8.2064 19.972 8.2064C32.5646 14.9786 48.9777 20.4559 47.8852 60.5606" fill="black"></path></mask><g mask="url(#mask19_673_17)"><path d="M8.79951 22.7222C12.9381 18.0807 16.9001 13.2905 20.9134 8.54452C21.0708 8.35773 20.7977 8.08544 20.6402 8.27541C16.6301 13.0308 12.5622 17.7451 8.67741 22.6019C8.60993 22.6842 8.72561 22.8077 8.79951 22.7222Z" fill="#253F81"></path></g></g><mask id="mask20_673_17" style="mask-type:alpha" maskUnits="userSpaceOnUse" x="8" y="8" width="14" height="17"><path d="M8.80585 8.15625H21.9672V24.3665H8.80585V8.15625Z" fill="black"></path></mask><g mask="url(#mask20_673_17)"><mask id="mask21_673_17" style="mask-type:alpha" maskUnits="userSpaceOnUse" x="0" y="0" width="48" height="61"><path d="M37.7218 60.035C38.3484 48.8999 36.7836 24.2141 15.6791 18.6734C15.2196 18.5531 11.3316 26.8039 10.7886 27.1205C10.2455 27.4371 -0.0978572 6.37325 0.551215 4.49577C1.20029 2.61829 23.8953 -0.531954 24.0624 1.01625C24.2295 2.5613 19.972 8.2064 19.972 8.2064C32.5646 14.9786 48.9777 20.4559 47.8852 60.5606" fill="black"></path></mask><g mask="url(#mask21_673_17)"><path d="M9.38758 24.2357C13.6547 19.5088 17.5556 14.2784 21.2765 9.12724C21.4147 8.93411 21.0998 8.76315 20.9584 8.94361C17.0511 13.9745 13.0121 19.0022 9.35224 24.2104C9.33617 24.2294 9.37152 24.2547 9.38758 24.2357Z" fill="#253F81"></path></g></g><mask id="mask22_673_17" style="mask-type:alpha" maskUnits="userSpaceOnUse" x="9" y="19" width="6" height="7"><path d="M9.62848 19.5H14.564V25.9841H9.62848V19.5Z" fill="black"></path></mask><g mask="url(#mask22_673_17)"><mask id="mask23_673_17" style="mask-type:alpha" maskUnits="userSpaceOnUse" x="0" y="0" width="48" height="61"><path d="M37.7217 60.035C38.3483 48.8999 36.7835 24.2141 15.679 18.6734C15.2195 18.5531 11.3315 26.8039 10.7885 27.1205C10.2455 27.4371 -0.0979182 6.37325 0.551154 4.49577C1.20022 2.61829 23.8952 -0.531954 24.0623 1.01625C24.2294 2.5613 19.9719 8.2064 19.9719 8.2064C32.5645 14.9786 48.9777 20.4559 47.8852 60.5606" fill="black"></path></mask><g mask="url(#mask23_673_17)"><path d="M10.1265 25.5773C10.361 24.4343 11.5435 23.4053 12.2601 22.5093C12.8866 21.7241 13.5196 20.9516 14.0787 20.1221C14.1462 20.0208 13.992 19.9037 13.9052 19.9923C12.9477 21.0276 12.109 22.1674 11.2382 23.2755C10.6888 23.9721 9.97866 24.6369 9.86941 25.5424C9.85334 25.6881 10.0975 25.7229 10.1265 25.5773Z" fill="#253F81"></path></g></g><mask id="mask24_673_17" style="mask-type:alpha" maskUnits="userSpaceOnUse" x="14" y="10" width="9" height="11"><path d="M14.5639 10.5859H22.7898V20.3121H14.5639V10.5859Z" fill="black"></path></mask><g mask="url(#mask24_673_17)"><mask id="mask25_673_17" style="mask-type:alpha" maskUnits="userSpaceOnUse" x="0" y="0" width="48" height="61"><path d="M37.7219 60.035C38.3484 48.8999 36.7836 24.2141 15.6791 18.6734C15.2197 18.5531 11.3316 26.8039 10.7886 27.1205C10.2456 27.4371 -0.0977961 6.37325 0.551276 4.49577C1.20035 2.61829 23.8954 -0.531954 24.0625 1.01625C24.2295 2.5613 19.972 8.2064 19.972 8.2064C32.5646 14.9786 48.9778 20.4559 47.8853 60.5606" fill="black"></path></mask><g mask="url(#mask25_673_17)"><path d="M15.0043 19.6085C17.3114 16.6324 19.8884 13.8146 22.1056 10.7815C22.1827 10.677 22.0188 10.5631 21.9288 10.6454C19.2329 13.2099 16.9258 16.4615 14.8051 19.4946C14.7183 19.618 14.9176 19.7225 15.0043 19.6085Z" fill="#253F81"></path></g></g><mask id="mask26_673_17" style="mask-type:alpha" maskUnits="userSpaceOnUse" x="16" y="9" width="9" height="12"><path d="M16.2092 9.76562H24.435V20.3023H16.2092V9.76562Z" fill="black"></path></mask><g mask="url(#mask26_673_17)"><mask id="mask27_673_17" style="mask-type:alpha" maskUnits="userSpaceOnUse" x="0" y="0" width="48" height="61"><path d="M37.7217 60.0272C38.3483 48.8921 36.7835 24.2062 15.679 18.6656C15.2195 18.5453 11.3315 26.7961 10.7885 27.1127C10.2455 27.4293 -0.0979182 6.36543 0.551154 4.48795C1.20022 2.61047 23.8952 -0.539767 24.0623 1.00844C24.2294 2.55348 19.9719 8.19859 19.9719 8.19859C32.5645 14.9708 48.9777 20.4481 47.8852 60.5527" fill="black"></path></mask><g mask="url(#mask27_673_17)"><path d="M16.6172 19.5061C17.3755 17.597 19.3131 15.8525 20.6434 14.3011C21.6941 13.0695 22.8894 11.8981 23.7441 10.524C23.8373 10.3783 23.6349 10.2454 23.5128 10.3498C21.874 11.7429 20.5662 13.6521 19.2135 15.3142C18.1756 16.5902 16.871 17.8629 16.2894 19.4143C16.2123 19.6201 16.5401 19.7024 16.6172 19.5061Z" fill="#253F81"></path></g></g><mask id="mask28_673_17" style="mask-type:alpha" maskUnits="userSpaceOnUse" x="17" y="10" width="10" height="11"><path d="M17.0317 10.5859H26.9028V20.3121H17.0317V10.5859Z" fill="black"></path></mask><g mask="url(#mask28_673_17)"><mask id="mask29_673_17" style="mask-type:alpha" maskUnits="userSpaceOnUse" x="0" y="0" width="48" height="61"><path d="M37.7219 60.035C38.3484 48.8999 36.7836 24.2141 15.6791 18.6734C15.2197 18.5531 11.3316 26.8039 10.7886 27.1205C10.2456 27.4371 -0.0977961 6.37325 0.551276 4.49577C1.20035 2.61829 23.8954 -0.531954 24.0625 1.01625C24.2295 2.5613 19.972 8.2064 19.972 8.2064C32.5646 14.9786 48.9778 20.4559 47.8853 60.5606" fill="black"></path></mask><g mask="url(#mask29_673_17)"><path d="M17.9766 19.7041C19.2201 17.9912 20.5761 16.3797 22.0799 14.8821C23.4423 13.5207 25.0039 12.3714 26.3631 11.0132C26.4948 10.8802 26.3245 10.6523 26.1542 10.7504C22.7193 12.7672 19.9238 16.3354 17.6585 19.5204C17.5235 19.7136 17.8384 19.8909 17.9766 19.7041Z" fill="#253F81"></path></g></g><mask id="mask30_673_17" style="mask-type:alpha" maskUnits="userSpaceOnUse" x="19" y="11" width="10" height="11"><path d="M19.4995 11.3906H28.5479V21.1168H19.4995V11.3906Z" fill="black"></path></mask><g mask="url(#mask30_673_17)"><mask id="mask31_673_17" style="mask-type:alpha" maskUnits="userSpaceOnUse" x="0" y="0" width="48" height="61"><path d="M37.7218 60.035C38.3484 48.8999 36.7836 24.2141 15.6791 18.6734C15.2196 18.5531 11.3316 26.8039 10.7886 27.1205C10.2455 27.4371 -0.0978572 6.37325 0.551215 4.49577C1.20029 2.61829 23.8953 -0.531954 24.0624 1.01625C24.2295 2.5613 19.972 8.2064 19.972 8.2064C32.5646 14.9786 48.9777 20.4559 47.8852 60.5606" fill="black"></path></mask><g mask="url(#mask31_673_17)"><path d="M19.8787 20.9805C22.4396 17.9854 25.4054 15.3417 27.9632 12.3656C28.1367 12.1661 27.8796 11.9224 27.6772 12.0838C24.6375 14.49 22.0669 17.7479 19.6056 20.7114C19.4481 20.9013 19.718 21.1704 19.8787 20.9805Z" fill="#253F81"></path></g></g><mask id="mask32_673_17" style="mask-type:alpha" maskUnits="userSpaceOnUse" x="21" y="10" width="11" height="12"><path d="M21.1447 10.5859H31.0157V21.9331H21.1447V10.5859Z" fill="black"></path></mask><g mask="url(#mask32_673_17)"><mask id="mask33_673_17" style="mask-type:alpha" maskUnits="userSpaceOnUse" x="0" y="0" width="48" height="61"><path d="M37.7217 60.035C38.3483 48.8999 36.7835 24.2141 15.679 18.6734C15.2195 18.5531 11.3315 26.8039 10.7885 27.1205C10.2455 27.4371 -0.0979182 6.37325 0.551154 4.49577C1.20022 2.61829 23.8952 -0.531954 24.0623 1.01625C24.2294 2.5613 19.9719 8.2064 19.9719 8.2064C32.5645 14.9786 48.9777 20.4559 47.8852 60.5606" fill="black"></path></mask><g mask="url(#mask33_673_17)"><path d="M21.6106 21.7752C24.5667 18.4287 27.8474 15.1803 30.4855 11.5805C30.6237 11.3905 30.3248 11.1784 30.161 11.3367C26.9638 14.4394 24.2197 18.1152 21.3246 21.4934C21.1575 21.6897 21.437 21.9715 21.6106 21.7752Z" fill="#253F81"></path></g></g><mask id="mask34_673_17" style="mask-type:alpha" maskUnits="userSpaceOnUse" x="21" y="10" width="12" height="14"><path d="M21.1447 10.5859H32.6609V23.5542H21.1447V10.5859Z" fill="black"></path></mask><g mask="url(#mask34_673_17)"><mask id="mask35_673_17" style="mask-type:alpha" maskUnits="userSpaceOnUse" x="0" y="0" width="48" height="61"><path d="M37.7217 60.035C38.3483 48.8999 36.7835 24.2141 15.679 18.6734C15.2195 18.5531 11.3315 26.8039 10.7885 27.1205C10.2455 27.4371 -0.0979182 6.37325 0.551154 4.49577C1.20022 2.61829 23.8952 -0.531954 24.0623 1.01625C24.2294 2.5613 19.9719 8.2064 19.9719 8.2064C32.5645 14.9786 48.9777 20.4559 47.8852 60.5606" fill="black"></path></mask><g mask="url(#mask35_673_17)"><path d="M22.2115 23.3189C25.5114 19.1808 29.1584 15.3404 32.5163 11.2593C32.693 11.044 32.4134 10.7496 32.2046 10.949C28.4162 14.5932 25.1034 18.8547 21.8419 22.9548C21.6395 23.2112 22.0026 23.5785 22.2115 23.3189Z" fill="#253F81"></path></g></g><mask id="mask36_673_17" style="mask-type:alpha" maskUnits="userSpaceOnUse" x="22" y="11" width="13" height="14"><path d="M22.7899 11.3906H34.3061V24.3589H22.7899V11.3906Z" fill="black"></path></mask><g mask="url(#mask36_673_17)"><mask id="mask37_673_17" style="mask-type:alpha" maskUnits="userSpaceOnUse" x="0" y="0" width="48" height="61"><path d="M37.7217 60.035C38.3483 48.8999 36.7834 24.2141 15.679 18.6734C15.2195 18.5531 11.3315 26.8039 10.7884 27.1205C10.2454 27.4371 -0.0979792 6.37325 0.551093 4.49577C1.20016 2.61829 23.8952 -0.531954 24.0623 1.01625C24.2294 2.5613 19.9718 8.2064 19.9718 8.2064C32.5645 14.9786 48.9776 20.4559 47.8851 60.5606" fill="black"></path></mask><g mask="url(#mask37_673_17)"><path d="M23.3521 24.196C26.7806 19.9661 30.7682 16.1352 34.1003 11.8483C34.216 11.6964 33.9782 11.5444 33.8465 11.6552C29.7914 15.1695 26.4175 19.7698 23.1079 23.9554C22.9729 24.1264 23.2107 24.3701 23.3521 24.196Z" fill="#253F81"></path></g></g><mask id="mask38_673_17" style="mask-type:alpha" maskUnits="userSpaceOnUse" x="23" y="12" width="13" height="14"><path d="M23.6124 12.1953H35.1286V25.1635H23.6124V12.1953Z" fill="black"></path></mask><g mask="url(#mask38_673_17)"><mask id="mask39_673_17" style="mask-type:alpha" maskUnits="userSpaceOnUse" x="0" y="0" width="48" height="61"><path d="M37.7218 60.035C38.3484 48.8999 36.7836 24.2141 15.6791 18.6734C15.2196 18.5531 11.3316 26.8039 10.7886 27.1205C10.2455 27.4371 -0.0978572 6.37325 0.551215 4.49577C1.20029 2.61829 23.8953 -0.531954 24.0624 1.01625C24.2295 2.5613 19.972 8.2064 19.972 8.2064C32.5646 14.9786 48.9777 20.4559 47.8852 60.5606" fill="black"></path></mask><g mask="url(#mask39_673_17)"><path d="M23.8856 24.5984C27.3109 20.4445 31.0639 16.6104 34.6884 12.6307C34.8588 12.4439 34.5921 12.1779 34.4057 12.3552C30.5048 16.0437 27.0506 20.2356 23.6671 24.3831C23.5418 24.5351 23.7603 24.7504 23.8856 24.5984Z" fill="#253F81"></path></g></g><mask id="mask40_673_17" style="mask-type:alpha" maskUnits="userSpaceOnUse" x="24" y="12" width="13" height="14"><path d="M24.4349 12.1953H36.7737V25.9741H24.4349V12.1953Z" fill="black"></path></mask><g mask="url(#mask40_673_17)"><mask id="mask41_673_17" style="mask-type:alpha" maskUnits="userSpaceOnUse" x="0" y="0" width="48" height="61"><path d="M37.7218 60.035C38.3484 48.8999 36.7836 24.2141 15.6791 18.6734C15.2196 18.5531 11.3316 26.8039 10.7886 27.1205C10.2455 27.4371 -0.0978572 6.37325 0.551215 4.49577C1.20029 2.61829 23.8953 -0.531954 24.0624 1.01625C24.2295 2.5613 19.972 8.2064 19.972 8.2064C32.5646 14.9786 48.9777 20.4559 47.8852 60.5606" fill="black"></path></mask><g mask="url(#mask41_673_17)"><path d="M24.9491 25.3997C26.7003 23.2562 28.5254 21.1761 30.4116 19.1499C32.2817 17.1457 34.4699 15.3031 36.16 13.1533C36.2532 13.0362 36.1279 12.8114 35.9769 12.919C33.8562 14.4482 32.06 16.6012 30.312 18.5198C28.3583 20.6632 26.5075 22.8921 24.7017 25.1591C24.5667 25.3269 24.8077 25.5706 24.9491 25.3997Z" fill="#253F81"></path></g></g><mask id="mask42_673_17" style="mask-type:alpha" maskUnits="userSpaceOnUse" x="25" y="13" width="13" height="13"><path d="M25.2576 13.0078H37.5964V25.976H25.2576V13.0078Z" fill="black"></path></mask><g mask="url(#mask42_673_17)"><mask id="mask43_673_17" style="mask-type:alpha" maskUnits="userSpaceOnUse" x="0" y="0" width="48" height="61"><path d="M37.7219 60.035C38.3484 48.8999 36.7836 24.2141 15.6791 18.6734C15.2197 18.5531 11.3316 26.8039 10.7886 27.1205C10.2456 27.4371 -0.0977961 6.37325 0.551276 4.49577C1.20035 2.61829 23.8954 -0.531954 24.0625 1.01625C24.2295 2.5613 19.972 8.2064 19.972 8.2064C32.5646 14.9786 48.9778 20.4559 47.8853 60.5606" fill="black"></path></mask><g mask="url(#mask43_673_17)"><path d="M26.2827 25.7963C29.6212 21.6298 33.3389 17.8811 36.9699 13.9742C37.1273 13.8032 36.8896 13.5689 36.716 13.7209C32.7541 17.2258 29.2871 21.4113 26.0192 25.5367C25.8746 25.7203 26.1349 25.9831 26.2827 25.7963Z" fill="#253F81"></path></g></g><mask id="mask44_673_17" style="mask-type:alpha" maskUnits="userSpaceOnUse" x="26" y="12" width="15" height="15"><path d="M26.9029 12.1953H40.0643V26.7846H26.9029V12.1953Z" fill="black"></path></mask><g mask="url(#mask44_673_17)"><mask id="mask45_673_17" style="mask-type:alpha" maskUnits="userSpaceOnUse" x="0" y="0" width="48" height="61"><path d="M37.7219 60.035C38.3484 48.8999 36.7836 24.2141 15.6791 18.6734C15.2197 18.5531 11.3316 26.8039 10.7886 27.1205C10.2456 27.4371 -0.0977961 6.37325 0.551276 4.49577C1.20035 2.61829 23.8954 -0.531954 24.0625 1.01625C24.2295 2.5613 19.972 8.2064 19.972 8.2064C32.5646 14.9786 48.9778 20.4559 47.8853 60.5606" fill="black"></path></mask><g mask="url(#mask45_673_17)"><path d="M27.8123 25.9704C31.4689 21.4588 35.4983 17.3239 39.3606 12.9895C39.4923 12.8407 39.2899 12.6349 39.1389 12.7711C34.8524 16.6369 31.093 21.177 27.4845 25.6475C27.3014 25.8755 27.6259 26.2016 27.8123 25.9704Z" fill="#253F81"></path></g></g><mask id="mask46_673_17" style="mask-type:alpha" maskUnits="userSpaceOnUse" x="26" y="13" width="15" height="18"><path d="M26.0801 13.8359H40.0641V30.0462H26.0801V13.8359Z" fill="black"></path></mask><g mask="url(#mask46_673_17)"><mask id="mask47_673_17" style="mask-type:alpha" maskUnits="userSpaceOnUse" x="0" y="0" width="48" height="61"><path d="M37.7218 60.035C38.3484 48.8999 36.7836 24.2141 15.6791 18.6734C15.2196 18.5531 11.3316 26.8039 10.7886 27.1205C10.2455 27.4371 -0.0978572 6.37325 0.551215 4.49577C1.20029 2.61829 23.8953 -0.531954 24.0624 1.01625C24.2295 2.5613 19.972 8.2064 19.972 8.2064C32.5646 14.9786 48.9777 20.4559 47.8852 60.5606" fill="black"></path></mask><g mask="url(#mask47_673_17)"><path d="M26.4691 29.6096C30.582 24.3983 35.0869 19.5668 39.4826 14.5929C39.5919 14.4695 39.4248 14.2985 39.3027 14.4125C34.4828 18.94 30.2253 24.1196 26.1477 29.293C25.9678 29.5178 26.2891 29.8376 26.4691 29.6096Z" fill="#253F81"></path></g></g><mask id="mask48_673_17" style="mask-type:alpha" maskUnits="userSpaceOnUse" x="26" y="14" width="15" height="17"><path d="M26.9029 14.6484H40.8869V30.0482H26.9029V14.6484Z" fill="black"></path></mask><g mask="url(#mask48_673_17)"><mask id="mask49_673_17" style="mask-type:alpha" maskUnits="userSpaceOnUse" x="0" y="0" width="48" height="61"><path d="M37.7219 60.035C38.3484 48.8999 36.7836 24.2141 15.6791 18.6734C15.2197 18.5531 11.3316 26.8039 10.7886 27.1205C10.2456 27.4371 -0.0977961 6.37325 0.551276 4.49577C1.20035 2.61829 23.8954 -0.531954 24.0625 1.01625C24.2295 2.5613 19.972 8.2064 19.972 8.2064C32.5646 14.9786 48.9778 20.4559 47.8853 60.5606" fill="black"></path></mask><g mask="url(#mask49_673_17)"><path d="M27.9406 29.8078C31.6776 24.7326 35.9352 20.2083 40.1509 15.532C40.2826 15.3864 40.0802 15.1837 39.9324 15.3167C35.2411 19.4928 31.2696 24.5585 27.6129 29.621C27.4715 29.8173 27.7993 30.0009 27.9406 29.8078Z" fill="#253F81"></path></g></g><mask id="mask50_673_17" style="mask-type:alpha" maskUnits="userSpaceOnUse" x="28" y="17" width="13" height="15"><path d="M28.5479 17.875H40.8867V31.6537H28.5479V17.875Z" fill="black"></path></mask><g mask="url(#mask50_673_17)"><mask id="mask51_673_17" style="mask-type:alpha" maskUnits="userSpaceOnUse" x="0" y="0" width="48" height="61"><path d="M37.7217 60.035C38.3483 48.8999 36.7835 24.2141 15.679 18.6734C15.2195 18.5531 11.3315 26.8039 10.7885 27.1205C10.2455 27.4371 -0.0979182 6.37325 0.551154 4.49577C1.20022 2.61829 23.8952 -0.531954 24.0623 1.01625C24.2294 2.5613 19.9719 8.2064 19.9719 8.2064C32.5645 14.9786 48.9777 20.4559 47.8852 60.5606" fill="black"></path></mask><g mask="url(#mask51_673_17)"><path d="M28.9175 31.3105C32.3138 26.6564 36.2147 22.5595 40.1605 18.3708C40.3116 18.2093 40.0834 17.9877 39.9195 18.1333C35.6459 21.958 31.9957 26.5424 28.5993 31.1301C28.4612 31.3169 28.7793 31.5005 28.9175 31.3105Z" fill="#253F81"></path></g></g><mask id="mask52_673_17" style="mask-type:alpha" maskUnits="userSpaceOnUse" x="27" y="18" width="14" height="17"><path d="M27.7254 18.6875H40.8868V34.0873H27.7254V18.6875Z" fill="black"></path></mask><g mask="url(#mask52_673_17)"><mask id="mask53_673_17" style="mask-type:alpha" maskUnits="userSpaceOnUse" x="0" y="0" width="48" height="61"><path d="M37.7218 60.0272C38.3484 48.8921 36.7836 24.2062 15.6791 18.6656C15.2196 18.5453 11.3316 26.7961 10.7886 27.1127C10.2455 27.4293 -0.0978572 6.36543 0.551215 4.48795C1.20029 2.61047 23.8953 -0.539767 24.0624 1.00844C24.2295 2.55348 19.972 8.19859 19.972 8.19859C32.5646 14.9708 48.9777 20.4481 47.8852 60.5527" fill="black"></path></mask><g mask="url(#mask53_673_17)"><path d="M28.5673 33.2838C32.2239 28.3099 36.4654 23.9344 40.8257 19.5684C40.9639 19.4322 40.7583 19.2359 40.6137 19.3594C35.8934 23.3423 31.9444 28.1833 28.3809 33.173C28.2974 33.287 28.487 33.3915 28.5673 33.2838Z" fill="#253F81"></path></g></g><mask id="mask54_673_17" style="mask-type:alpha" maskUnits="userSpaceOnUse" x="27" y="19" width="16" height="20"><path d="M27.7254 19.5H42.5319V38.1418H27.7254V19.5Z" fill="black"></path></mask><g mask="url(#mask54_673_17)"><mask id="mask55_673_17" style="mask-type:alpha" maskUnits="userSpaceOnUse" x="0" y="0" width="48" height="61"><path d="M37.7218 60.035C38.3484 48.8999 36.7836 24.2141 15.6791 18.6734C15.2196 18.5531 11.3316 26.8039 10.7886 27.1205C10.2455 27.4371 -0.0978572 6.37325 0.551215 4.49577C1.20029 2.61829 23.8953 -0.531954 24.0624 1.01625C24.2295 2.5613 19.972 8.2064 19.972 8.2064C32.5646 14.9786 48.9777 20.4559 47.8852 60.5606" fill="black"></path></mask><g mask="url(#mask55_673_17)"><path d="M28.5769 37.4736C32.3204 31.1003 37.0663 25.8383 42.2332 20.5795C42.4195 20.3895 42.14 20.1299 41.9408 20.2945C36.3176 24.8663 31.8062 31.0655 28.2363 37.2773C28.1142 37.4926 28.4484 37.6889 28.5769 37.4736Z" fill="#253F81"></path></g></g><mask id="mask56_673_17" style="mask-type:alpha" maskUnits="userSpaceOnUse" x="29" y="22" width="14" height="17"><path d="M29.3704 22.7266H42.5318V38.1263H29.3704V22.7266Z" fill="black"></path></mask><g mask="url(#mask56_673_17)"><mask id="mask57_673_17" style="mask-type:alpha" maskUnits="userSpaceOnUse" x="0" y="0" width="48" height="61"><path d="M37.7218 60.035C38.3484 48.8999 36.7836 24.2141 15.6791 18.6734C15.2196 18.5531 11.3316 26.8039 10.7886 27.1205C10.2455 27.4371 -0.0978572 6.37325 0.551215 4.49577C1.20029 2.61829 23.8953 -0.531954 24.0624 1.01625C24.2295 2.5613 19.972 8.2064 19.972 8.2064C32.5646 14.9786 48.9777 20.4559 47.8852 60.5606" fill="black"></path></mask><g mask="url(#mask57_673_17)"><path d="M30.2285 37.7705C33.6763 32.6066 37.6735 28.019 41.7607 23.3522C41.8893 23.2065 41.6868 23.0007 41.5422 23.14C37.0984 27.3952 33.3196 32.5053 29.9232 37.5963C29.7979 37.7831 30.1032 37.9573 30.2285 37.7705Z" fill="#253F81"></path></g></g><mask id="mask58_673_17" style="mask-type:alpha" maskUnits="userSpaceOnUse" x="31" y="22" width="15" height="18"><path d="M31.0157 22.7266H45.8223V39.7474H31.0157V22.7266Z" fill="black"></path></mask><g mask="url(#mask58_673_17)"><mask id="mask59_673_17" style="mask-type:alpha" maskUnits="userSpaceOnUse" x="0" y="0" width="48" height="61"><path d="M37.7219 60.035C38.3484 48.8999 36.7836 24.2141 15.6791 18.6734C15.2197 18.5531 11.3316 26.8039 10.7886 27.1205C10.2456 27.4371 -0.0977961 6.37325 0.551276 4.49577C1.20035 2.61829 23.8954 -0.531954 24.0625 1.01625C24.2295 2.5613 19.972 8.2064 19.972 8.2064C32.5646 14.9786 48.9778 20.4559 47.8853 60.5606" fill="black"></path></mask><g mask="url(#mask59_673_17)"><path d="M32.0343 39.279C35.8741 33.4534 40.4498 28.3909 45.2825 23.3631C45.411 23.2302 45.2182 23.0434 45.0768 23.1637C39.7943 27.6627 35.3986 33.2824 31.623 39.0415C31.4559 39.2948 31.8672 39.5291 32.0343 39.279Z" fill="#253F81"></path></g></g><mask id="mask60_673_17" style="mask-type:alpha" maskUnits="userSpaceOnUse" x="32" y="26" width="13" height="16"><path d="M32.6609 26.8047H44.9997V41.3939H32.6609V26.8047Z" fill="black"></path></mask><g mask="url(#mask60_673_17)"><mask id="mask61_673_17" style="mask-type:alpha" maskUnits="userSpaceOnUse" x="0" y="0" width="48" height="61"><path d="M37.7218 60.035C38.3484 48.8999 36.7836 24.2141 15.6791 18.6734C15.2196 18.5531 11.3316 26.8039 10.7886 27.1205C10.2455 27.4371 -0.0978572 6.37325 0.551215 4.49577C1.20029 2.61829 23.8953 -0.531954 24.0624 1.01625C24.2295 2.5613 19.972 8.2064 19.972 8.2064C32.5646 14.9786 48.9777 20.4559 47.8852 60.5606" fill="black"></path></mask><g mask="url(#mask61_673_17)"><path d="M33.2971 41.1269C36.5618 36.21 40.3566 31.7775 44.357 27.4337C44.4856 27.2912 44.2831 27.0886 44.1417 27.2247C39.8649 31.3026 36.2436 36.0486 33.0143 40.9623C32.9019 41.1364 33.1846 41.2979 33.2971 41.1269Z" fill="#253F81"></path></g></g><mask id="mask62_673_17" style="mask-type:alpha" maskUnits="userSpaceOnUse" x="33" y="30" width="13" height="15"><path d="M33.4835 30.0312H45.8223V44.6205H33.4835V30.0312Z" fill="black"></path></mask><g mask="url(#mask62_673_17)"><mask id="mask63_673_17" style="mask-type:alpha" maskUnits="userSpaceOnUse" x="0" y="0" width="48" height="61"><path d="M37.7218 60.0272C38.3484 48.8921 36.7836 24.2062 15.6791 18.6656C15.2196 18.5453 11.3316 26.7961 10.7886 27.1127C10.2455 27.4293 -0.0978572 6.36543 0.551215 4.48795C1.20029 2.61047 23.8953 -0.539767 24.0624 1.00844C24.2295 2.55348 19.972 8.19859 19.972 8.19859C32.5646 14.9708 48.9777 20.4481 47.8852 60.5527" fill="black"></path></mask><g mask="url(#mask63_673_17)"><path d="M33.9944 44.3578C37.0598 39.1591 40.8868 34.7614 45.0415 30.3954C45.2053 30.2213 44.9579 29.9807 44.778 30.1358C40.2506 34.0111 36.5971 39.0515 33.6377 44.1552C33.506 44.38 33.8627 44.5858 33.9944 44.3578Z" fill="#253F81"></path></g></g><mask id="mask64_673_17" style="mask-type:alpha" maskUnits="userSpaceOnUse" x="34" y="30" width="14" height="18"><path d="M34.3061 30.0312H47.4675V47.052H34.3061V30.0312Z" fill="black"></path></mask><g mask="url(#mask64_673_17)"><mask id="mask65_673_17" style="mask-type:alpha" maskUnits="userSpaceOnUse" x="0" y="0" width="48" height="61"><path d="M37.7218 60.0272C38.3484 48.8921 36.7836 24.2062 15.6791 18.6656C15.2196 18.5453 11.3316 26.7961 10.7886 27.1127C10.2455 27.4293 -0.0978572 6.36543 0.551215 4.48795C1.20029 2.61047 23.8953 -0.539767 24.0624 1.00844C24.2295 2.55348 19.972 8.19859 19.972 8.19859C32.5646 14.9708 48.9777 20.4481 47.8852 60.5527" fill="black"></path></mask><g mask="url(#mask65_673_17)"><path d="M35.5978 46.1827C38.6278 40.5249 42.5769 35.779 46.934 31.0773C47.1043 30.8905 46.8473 30.6404 46.6577 30.8019C41.8346 34.9051 38.0366 40.3698 35.0772 45.8819C34.8941 46.2207 35.4146 46.5214 35.5978 46.1827Z" fill="#253F81"></path></g></g><mask id="mask66_673_17" style="mask-type:alpha" maskUnits="userSpaceOnUse" x="33" y="32" width="15" height="19"><path d="M33.4835 32.4531H47.4675V50.2844H33.4835V32.4531Z" fill="black"></path></mask><g mask="url(#mask66_673_17)"><mask id="mask67_673_17" style="mask-type:alpha" maskUnits="userSpaceOnUse" x="0" y="0" width="48" height="61"><path d="M37.7218 60.0272C38.3484 48.8921 36.7836 24.2062 15.6791 18.6656C15.2196 18.5453 11.3316 26.7961 10.7886 27.1127C10.2455 27.4293 -0.0978572 6.36543 0.551215 4.48795C1.20029 2.61047 23.8953 -0.539767 24.0624 1.00844C24.2295 2.55348 19.972 8.19859 19.972 8.19859C32.5646 14.9708 48.9777 20.4481 47.8852 60.5527" fill="black"></path></mask><g mask="url(#mask67_673_17)"><path d="M34.5342 49.8956C38.162 43.8927 42.4677 38.5104 46.9244 33.0932C47.0337 32.9602 46.857 32.7734 46.7284 32.9033C41.809 37.8423 37.7218 43.7407 34.1422 49.6708C33.9912 49.9177 34.3832 50.1457 34.5342 49.8956Z" fill="#253F81"></path></g></g><mask id="mask68_673_17" style="mask-type:alpha" maskUnits="userSpaceOnUse" x="36" y="35" width="12" height="15"><path d="M36.7739 35.7188H47.4675V49.4975H36.7739V35.7188Z" fill="black"></path></mask><g mask="url(#mask68_673_17)"><mask id="mask69_673_17" style="mask-type:alpha" maskUnits="userSpaceOnUse" x="0" y="0" width="48" height="61"><path d="M37.7219 60.035C38.3484 48.8999 36.7836 24.2141 15.6791 18.6734C15.2197 18.5531 11.3316 26.8039 10.7886 27.1205C10.2456 27.4371 -0.0977961 6.37325 0.551276 4.49577C1.20035 2.61829 23.8954 -0.531954 24.0625 1.01625C24.2295 2.5613 19.972 8.2064 19.972 8.2064C32.5646 14.9786 48.9778 20.4559 47.8853 60.5606" fill="black"></path></mask><g mask="url(#mask69_673_17)"><path d="M37.4551 49.282C40.3502 44.802 43.737 40.8001 47.1719 36.7253C47.3197 36.5544 47.0884 36.3138 46.9181 36.4752C43.0751 40.1479 39.8586 44.5835 36.9924 49.016C36.8093 49.3041 37.272 49.5669 37.4551 49.282Z" fill="#253F81"></path></g></g><mask id="mask70_673_17" style="mask-type:alpha" maskUnits="userSpaceOnUse" x="33" y="38" width="16" height="19"><path d="M33.4835 38.9531H48.29V56.7844H33.4835V38.9531Z" fill="black"></path></mask><g mask="url(#mask70_673_17)"><mask id="mask71_673_17" style="mask-type:alpha" maskUnits="userSpaceOnUse" x="0" y="0" width="48" height="61"><path d="M37.7218 60.035C38.3484 48.8999 36.7836 24.2141 15.6791 18.6734C15.2196 18.5531 11.3316 26.8039 10.7886 27.1205C10.2455 27.4371 -0.0978572 6.37325 0.551215 4.49577C1.20029 2.61829 23.8953 -0.531954 24.0624 1.01625C24.2295 2.5613 19.972 8.2064 19.972 8.2064C32.5646 14.9786 48.9777 20.4559 47.8852 60.5606" fill="black"></path></mask><g mask="url(#mask71_673_17)"><path d="M34.1969 56.4792C35.5721 53.3352 38.4062 50.6979 40.6233 48.1017C42.9625 45.3662 45.3532 42.6688 47.6699 39.9174C47.7567 39.813 47.6153 39.6673 47.5221 39.7686C44.9098 42.6054 42.4099 45.5435 39.9068 48.4753C37.8278 50.9132 35.2251 53.3669 33.9334 56.3272C33.853 56.5045 34.1197 56.6596 34.1969 56.4792Z" fill="#253F81"></path></g></g><mask id="mask72_673_17" style="mask-type:alpha" maskUnits="userSpaceOnUse" x="33" y="39" width="16" height="18"><path d="M33.4835 39.7656H48.2901V56.7864H33.4835V39.7656Z" fill="black"></path></mask><g mask="url(#mask72_673_17)"><mask id="mask73_673_17" style="mask-type:alpha" maskUnits="userSpaceOnUse" x="0" y="0" width="48" height="61"><path d="M37.7219 60.035C38.3484 48.8999 36.7836 24.2141 15.6791 18.6734C15.2197 18.5531 11.3316 26.8039 10.7886 27.1205C10.2456 27.4371 -0.0977961 6.37325 0.551276 4.49577C1.20035 2.61829 23.8954 -0.531954 24.0625 1.01625C24.2295 2.5613 19.972 8.2064 19.972 8.2064C32.5646 14.9786 48.9778 20.4559 47.8853 60.5606" fill="black"></path></mask><g mask="url(#mask73_673_17)"><path d="M34.3961 56.6945C39.3124 51.1951 44.3796 45.7906 49.0934 40.1202C49.2188 39.9682 49.0099 39.7529 48.8685 39.9017C43.7948 45.2587 39.036 50.926 34.1616 56.4634C34.0202 56.6217 34.2548 56.856 34.3961 56.6945Z" fill="#253F81"></path></g></g><mask id="mask74_673_17" style="mask-type:alpha" maskUnits="userSpaceOnUse" x="36" y="40" width="13" height="16"><path d="M36.7739 40.5703H48.2901V55.9701H36.7739V40.5703Z" fill="black"></path></mask><g mask="url(#mask74_673_17)"><mask id="mask75_673_17" style="mask-type:alpha" maskUnits="userSpaceOnUse" x="0" y="0" width="48" height="61"><path d="M37.7219 60.0194C38.3484 48.8843 36.7836 24.1984 15.6791 18.6578C15.2197 18.5375 11.3316 26.7883 10.7886 27.1049C10.2456 27.4215 -0.0977961 6.35762 0.551276 4.48014C1.20035 2.60266 23.8954 -0.547579 24.0625 1.00063C24.2295 2.54567 19.972 8.19078 19.972 8.19078C32.5646 14.963 48.9778 20.4403 47.8853 60.5449" fill="black"></path></mask><g mask="url(#mask75_673_17)"><path d="M37.7314 55.8383C41.7319 50.9784 45.8641 46.1976 49.6846 41.2015C49.7649 41.0939 49.585 40.9577 49.4983 41.0591C45.3371 45.767 41.4555 50.7314 37.4679 55.5787C37.3201 55.7623 37.5804 56.0219 37.7314 55.8383Z" fill="#253F81"></path></g></g><mask id="mask76_673_17" style="mask-type:alpha" maskUnits="userSpaceOnUse" x="33" y="42" width="16" height="19"><path d="M33.4835 42.9922H48.29V60.8235H33.4835V42.9922Z" fill="black"></path></mask><g mask="url(#mask76_673_17)"><mask id="mask77_673_17" style="mask-type:alpha" maskUnits="userSpaceOnUse" x="0" y="0" width="48" height="61"><path d="M37.7218 60.0194C38.3484 48.8843 36.7836 24.1984 15.6791 18.6578C15.2196 18.5375 11.3316 26.7883 10.7886 27.1049C10.2455 27.4215 -0.0978572 6.35762 0.551215 4.48014C1.20029 2.60266 23.8953 -0.547579 24.0624 1.00063C24.2295 2.54567 19.972 8.19078 19.972 8.19078C32.5646 14.963 48.9777 20.4403 47.8852 60.5449" fill="black"></path></mask><g mask="url(#mask77_673_17)"><path d="M34.2258 62.2674C39.1677 55.7643 44.5916 49.7235 50.1312 43.7174C50.2212 43.6193 50.0798 43.4768 49.9802 43.5686C44.1032 49.2517 38.8624 55.606 33.9558 62.1123C33.8337 62.2706 34.1069 62.4258 34.2258 62.2674Z" fill="#253F81"></path></g></g><mask id="mask78_673_17" style="mask-type:alpha" maskUnits="userSpaceOnUse" x="37" y="47" width="12" height="14"><path d="M37.5966 47.0547H48.2902V60.8334H37.5966V47.0547Z" fill="black"></path></mask><g mask="url(#mask78_673_17)"><mask id="mask79_673_17" style="mask-type:alpha" maskUnits="userSpaceOnUse" x="0" y="0" width="48" height="61"><path d="M37.7217 60.035C38.3483 48.8999 36.7835 24.2141 15.679 18.6734C15.2195 18.5531 11.3315 26.8039 10.7885 27.1205C10.2455 27.4371 -0.0979182 6.37325 0.551154 4.49577C1.20022 2.61829 23.8952 -0.531954 24.0623 1.01625C24.2294 2.5613 19.9719 8.2064 19.9719 8.2064C32.5645 14.9786 48.9777 20.4559 47.8852 60.5606" fill="black"></path></mask><g mask="url(#mask79_673_17)"><path d="M38.5218 60.5727C42.0371 56.1022 45.8512 51.9072 49.4982 47.5475C49.6171 47.4018 49.4211 47.1961 49.2829 47.3354C45.2953 51.3721 41.7318 55.9059 38.2423 60.3637C38.1234 60.5189 38.3997 60.731 38.5218 60.5727Z" fill="#253F81"></path></g></g><mask id="mask80_673_17" style="mask-type:alpha" maskUnits="userSpaceOnUse" x="37" y="47" width="12" height="14"><path d="M37.5966 47.875H48.2902V60.8432H37.5966V47.875Z" fill="black"></path></mask><g mask="url(#mask80_673_17)"><mask id="mask81_673_17" style="mask-type:alpha" maskUnits="userSpaceOnUse" x="0" y="0" width="48" height="61"><path d="M37.7217 60.035C38.3483 48.8999 36.7835 24.2141 15.679 18.6734C15.2195 18.5531 11.3315 26.8039 10.7885 27.1205C10.2455 27.4371 -0.0979182 6.37325 0.551154 4.49577C1.20022 2.61829 23.8952 -0.531954 24.0623 1.01625C24.2294 2.5613 19.9719 8.2064 19.9719 8.2064C32.5645 14.9786 48.9777 20.4559 47.8852 60.5606" fill="black"></path></mask><g mask="url(#mask81_673_17)"><path d="M38.0848 64.3224C42.5447 58.7691 47.4738 53.6686 52.1169 48.2799C52.2455 48.1311 52.043 47.9221 51.8952 48.0614C46.7091 52.8612 42.1849 58.5443 37.8341 64.0754C37.6992 64.2496 37.9434 64.4965 38.0848 64.3224Z" fill="#253F81"></path></g></g><mask id="mask82_673_17" style="mask-type:alpha" maskUnits="userSpaceOnUse" x="42" y="51" width="7" height="10"><path d="M42.532 51.1094H48.2901V60.8355H42.532V51.1094Z" fill="black"></path></mask><g mask="url(#mask82_673_17)"><mask id="mask83_673_17" style="mask-type:alpha" maskUnits="userSpaceOnUse" x="0" y="0" width="48" height="61"><path d="M37.7218 60.035C38.3484 48.8999 36.7836 24.2141 15.6791 18.6734C15.2196 18.5531 11.3316 26.8039 10.7886 27.1205C10.2455 27.4371 -0.0978572 6.37325 0.551215 4.49577C1.20029 2.61829 23.8953 -0.531954 24.0624 1.01625C24.2295 2.5613 19.972 8.2064 19.972 8.2064C32.5646 14.9786 48.9777 20.4559 47.8852 60.5606" fill="black"></path></mask><g mask="url(#mask83_673_17)"><path d="M43.679 61.4119C46.3878 58.1065 49.3118 54.9911 52.0527 51.7205C52.1973 51.5464 51.9659 51.3026 51.7988 51.4704C48.7784 54.4655 46.0761 57.8406 43.393 61.1301C43.2324 61.3264 43.5151 61.6113 43.679 61.4119Z" fill="#253F81"></path></g></g><mask id="mask84_673_17" style="mask-type:alpha" maskUnits="userSpaceOnUse" x="40" y="48" width="9" height="13"><path d="M40.0641 48.6797H48.29V60.8374H40.0641V48.6797Z" fill="black"></path></mask><g mask="url(#mask84_673_17)"><mask id="mask85_673_17" style="mask-type:alpha" maskUnits="userSpaceOnUse" x="0" y="0" width="48" height="61"><path d="M37.7217 60.035C38.3483 48.8999 36.7835 24.2141 15.679 18.6734C15.2195 18.5531 11.3315 26.8039 10.7885 27.1205C10.2455 27.4371 -0.0979182 6.37325 0.551154 4.49577C1.20022 2.61829 23.8952 -0.531954 24.0623 1.01625C24.2294 2.5613 19.9719 8.2064 19.9719 8.2064C32.5645 14.9786 48.9777 20.4559 47.8852 60.5606" fill="black"></path></mask><g mask="url(#mask85_673_17)"><path d="M40.5558 69.8313C45.3756 62.8786 50.7288 56.3121 55.6194 49.4164C55.7415 49.2423 55.4619 49.0302 55.3238 49.1885C49.7906 55.5713 45.0414 62.7298 40.2891 69.6793C40.1766 69.8408 40.4433 69.9927 40.5558 69.8313Z" fill="#253F81"></path></g></g><mask id="mask86_673_17" style="mask-type:alpha" maskUnits="userSpaceOnUse" x="35" y="35" width="14" height="20"><path d="M35.1287 35.7188H48.29V54.3606H35.1287V35.7188Z" fill="black"></path></mask><g mask="url(#mask86_673_17)"><mask id="mask87_673_17" style="mask-type:alpha" maskUnits="userSpaceOnUse" x="0" y="0" width="48" height="61"><path d="M37.7219 60.035C38.3484 48.8999 36.7836 24.2141 15.6791 18.6734C15.2197 18.5531 11.3316 26.8039 10.7886 27.1205C10.2456 27.4371 -0.0977961 6.37325 0.551276 4.49577C1.20035 2.61829 23.8954 -0.531954 24.0625 1.01625C24.2295 2.5613 19.972 8.2064 19.972 8.2064C32.5646 14.9786 48.9778 20.4559 47.8853 60.5606" fill="black"></path></mask><g mask="url(#mask87_673_17)"><path d="M35.6107 53.6697C40.151 47.6099 45.1797 42.0407 50.2245 36.3988C50.3144 36.2975 50.173 36.155 50.0767 36.25C44.6431 41.4962 39.865 47.4959 35.3858 53.5399C35.283 53.6761 35.5111 53.8059 35.6107 53.6697Z" fill="#253F81"></path></g></g><mask id="mask88_673_17" style="mask-type:alpha" maskUnits="userSpaceOnUse" x="50" y="0" width="25" height="15"><path d="M50.7578 0.046875H74.6128V14.6361H50.7578V0.046875Z" fill="black"></path></mask><g mask="url(#mask88_673_17)"><mask id="mask89_673_17" style="mask-type:alpha" maskUnits="userSpaceOnUse" x="47" y="0" width="49" height="61"><path d="M58.1517 60.035C57.5251 48.8999 59.09 24.2141 80.1912 18.6734C80.6539 18.5531 84.5419 26.8039 85.0849 27.1205C85.628 27.4371 95.9681 6.37325 95.3223 4.49577C94.6732 2.61829 71.9782 -0.531954 71.8111 1.01625C71.644 2.5613 75.9015 8.2064 75.9015 8.2064C63.3121 14.9786 46.8958 20.4559 47.9883 60.5606" fill="black"></path></mask><g mask="url(#mask89_673_17)"><path d="M51.3877 14.4628C58.7621 7.77285 66.477 1.4787 73.9381 -5.10673C74.0763 -5.23021 73.8771 -5.41068 73.7389 -5.30303C65.889 0.78216 58.505 7.57655 51.1724 14.2538C51.0311 14.3836 51.2431 14.5926 51.3877 14.4628Z" fill="#253F81"></path></g></g><mask id="mask90_673_17" style="mask-type:alpha" maskUnits="userSpaceOnUse" x="47" y="0" width="36" height="22"><path d="M47.4674 0.046875H82.8386V21.1202H47.4674V0.046875Z" fill="black"></path></mask><g mask="url(#mask90_673_17)"><mask id="mask91_673_17" style="mask-type:alpha" maskUnits="userSpaceOnUse" x="47" y="0" width="49" height="61"><path d="M58.1516 60.035C57.525 48.8999 59.0899 24.2141 80.1911 18.6734C80.6538 18.5531 84.5419 26.8039 85.0849 27.1205C85.6279 27.4371 95.9681 6.37325 95.3222 4.49577C94.6732 2.61829 71.9781 -0.531954 71.811 1.01625C71.644 2.5613 75.9015 8.2064 75.9015 8.2064C63.3121 14.9786 46.8957 20.4559 47.9882 60.5606" fill="black"></path></mask><g mask="url(#mask91_673_17)"><path d="M48.258 20.9206C53.6659 15.6301 59.2248 10.4947 64.9443 5.53347C70.6639 0.572235 76.6437 -4.05023 82.4853 -8.86266C82.5817 -8.94181 82.4532 -9.10961 82.3504 -9.03679C70.0726 -0.257276 58.7556 10.1591 48.0138 20.68C47.8532 20.8351 48.1006 21.0757 48.258 20.9206Z" fill="#253F81"></path></g></g><mask id="mask92_673_17" style="mask-type:alpha" maskUnits="userSpaceOnUse" x="48" y="0" width="38" height="24"><path d="M48.29 0.046875H85.3064V23.5518H48.29V0.046875Z" fill="black"></path></mask><g mask="url(#mask92_673_17)"><mask id="mask93_673_17" style="mask-type:alpha" maskUnits="userSpaceOnUse" x="47" y="0" width="49" height="61"><path d="M58.1517 60.035C57.5251 48.8999 59.09 24.2141 80.1912 18.6734C80.6539 18.5531 84.5419 26.8039 85.0849 27.1205C85.628 27.4371 95.9681 6.37325 95.3223 4.49577C94.6732 2.61829 71.9782 -0.531954 71.8111 1.01625C71.644 2.5613 75.9015 8.2064 75.9015 8.2064C63.3121 14.9786 46.8958 20.4559 47.9883 60.5606" fill="black"></path></mask><g mask="url(#mask93_673_17)"><path d="M48.7304 23.2793C54.5046 17.688 60.4298 12.255 66.5188 6.99617C72.6047 1.74366 79.0536 -3.06877 85.1877 -8.2548C85.3419 -8.3846 85.1363 -8.65055 84.9692 -8.53341C78.4945 -4.02176 72.4601 1.29724 66.5028 6.44527C60.3173 11.7864 54.3022 17.3112 48.4444 22.9975C48.2581 23.178 48.5441 23.4597 48.7304 23.2793Z" fill="#253F81"></path></g></g><mask id="mask94_673_17" style="mask-type:alpha" maskUnits="userSpaceOnUse" x="47" y="0" width="43" height="37"><path d="M47.4674 0.046875H89.4193V36.52H47.4674V0.046875Z" fill="black"></path></mask><g mask="url(#mask94_673_17)"><mask id="mask95_673_17" style="mask-type:alpha" maskUnits="userSpaceOnUse" x="47" y="0" width="49" height="61"><path d="M58.1516 60.035C57.525 48.8999 59.0899 24.2141 80.1911 18.6734C80.6538 18.5531 84.5419 26.8039 85.0849 27.1205C85.6279 27.4371 95.9681 6.37325 95.3222 4.49577C94.6732 2.61829 71.9781 -0.531954 71.811 1.01625C71.644 2.5613 75.9015 8.2064 75.9015 8.2064C63.3121 14.9786 46.8957 20.4559 47.9882 60.5606" fill="black"></path></mask><g mask="url(#mask95_673_17)"><path d="M39.441 36.327C46.9471 28.2376 54.8195 20.4871 63.055 13.1197C71.3001 5.74588 80.0883 -0.871209 88.6708 -7.83657C88.8219 -7.96004 88.6227 -8.21649 88.4588 -8.10568C79.4296 -2.02366 71.0624 5.28997 62.9811 12.5276C54.6589 19.9805 46.7093 27.8356 39.1358 36.0262C38.9494 36.2288 39.2546 36.5296 39.441 36.327Z" fill="#253F81"></path></g></g><mask id="mask96_673_17" style="mask-type:alpha" maskUnits="userSpaceOnUse" x="47" y="0" width="43" height="39"><path d="M47.4674 0.046875H89.4193V38.141H47.4674V0.046875Z" fill="black"></path></mask><g mask="url(#mask96_673_17)"><mask id="mask97_673_17" style="mask-type:alpha" maskUnits="userSpaceOnUse" x="47" y="0" width="49" height="61"><path d="M58.1516 60.035C57.525 48.8999 59.0899 24.2141 80.1911 18.6734C80.6538 18.5531 84.5419 26.8039 85.0849 27.1205C85.6279 27.4371 95.9681 6.37325 95.3222 4.49577C94.6732 2.61829 71.9781 -0.531954 71.811 1.01625C71.644 2.5613 75.9015 8.2064 75.9015 8.2064C63.3121 14.9786 46.8957 20.4559 47.9882 60.5606" fill="black"></path></mask><g mask="url(#mask97_673_17)"><path d="M41.0635 37.3193C48.3865 29.6574 56.0243 22.2962 63.9771 15.2739C71.9426 8.24522 80.3677 1.86558 88.6482 -4.78C88.841 -4.93514 88.5904 -5.24541 88.3815 -5.11877C88.0827 -4.93514 87.7806 -4.75151 87.4818 -4.56787C87.3693 -4.49822 87.44 -4.29559 87.575 -4.34625C87.8995 -4.47289 88.2273 -4.59954 88.5518 -4.72301C88.494 -4.85599 88.4393 -4.98896 88.3815 -5.11877C79.7668 0.814447 71.7145 7.76398 63.9064 14.6755C55.8669 21.7928 48.1583 29.2584 40.7679 37.028C40.5848 37.2211 40.8804 37.5124 41.0635 37.3193Z" fill="#253F81"></path></g></g><mask id="mask98_673_17" style="mask-type:alpha" maskUnits="userSpaceOnUse" x="47" y="0" width="40" height="32"><path d="M47.4674 0.046875H86.9515V31.6569H47.4674V0.046875Z" fill="black"></path></mask><g mask="url(#mask98_673_17)"><mask id="mask99_673_17" style="mask-type:alpha" maskUnits="userSpaceOnUse" x="47" y="0" width="49" height="61"><path d="M58.1516 60.035C57.525 48.8999 59.0899 24.2141 80.1911 18.6734C80.6538 18.5531 84.5419 26.8039 85.0849 27.1205C85.6279 27.4371 95.9681 6.37325 95.3222 4.49577C94.6732 2.61829 71.9781 -0.531954 71.811 1.01625C71.644 2.5613 75.9015 8.2064 75.9015 8.2064C63.3121 14.9786 46.8957 20.4559 47.9882 60.5606" fill="black"></path></mask><g mask="url(#mask99_673_17)"><path d="M47.5479 31.3725C60.7607 20.9656 73.9895 10.5239 86.836 -0.323025C86.9613 -0.430672 86.7782 -0.60164 86.6529 -0.500325C73.4883 9.97304 60.5133 20.6902 47.3969 31.2237C47.2908 31.3124 47.4419 31.4548 47.5479 31.3725Z" fill="#253F81"></path></g></g><mask id="mask100_673_17" style="mask-type:alpha" maskUnits="userSpaceOnUse" x="47" y="0" width="48" height="35"><path d="M47.4674 0.046875H94.3548V34.899H47.4674V0.046875Z" fill="black"></path></mask><g mask="url(#mask100_673_17)"><mask id="mask101_673_17" style="mask-type:alpha" maskUnits="userSpaceOnUse" x="47" y="0" width="49" height="61"><path d="M58.1516 60.035C57.525 48.8999 59.0899 24.2141 80.1911 18.6734C80.6538 18.5531 84.5419 26.8039 85.0849 27.1205C85.6279 27.4371 95.9681 6.37325 95.3222 4.49577C94.6732 2.61829 71.9781 -0.531954 71.811 1.01625C71.644 2.5613 75.9015 8.2064 75.9015 8.2064C63.3121 14.9786 46.8957 20.4559 47.9882 60.5606" fill="black"></path></mask><g mask="url(#mask101_673_17)"><path d="M45.1026 34.7995C53.1743 27.8626 61.2973 20.9828 69.4717 14.1662C77.643 7.35284 86.0166 0.770575 94.1525 -6.08397C94.2907 -6.20111 94.0915 -6.38791 93.9501 -6.28027C77.0967 6.67846 60.9824 20.7232 44.9837 34.6824C44.9034 34.752 45.0223 34.8692 45.1026 34.7995Z" fill="#253F81"></path></g></g><mask id="mask102_673_17" style="mask-type:alpha" maskUnits="userSpaceOnUse" x="47" y="0" width="45" height="35"><path d="M47.4674 0.046875H91.887V34.899H47.4674V0.046875Z" fill="black"></path></mask><g mask="url(#mask102_673_17)"><mask id="mask103_673_17" style="mask-type:alpha" maskUnits="userSpaceOnUse" x="47" y="0" width="49" height="61"><path d="M58.1516 60.035C57.525 48.8999 59.0899 24.2141 80.1911 18.6734C80.6538 18.5531 84.5419 26.8039 85.0849 27.1205C85.6279 27.4371 95.9681 6.37325 95.3222 4.49577C94.6732 2.61829 71.9781 -0.531954 71.811 1.01625C71.644 2.5613 75.9015 8.2064 75.9015 8.2064C63.3121 14.9786 46.8957 20.4559 47.9882 60.5606" fill="black"></path></mask><g mask="url(#mask103_673_17)"><path d="M48.1006 34.6195C62.1905 22.294 76.6597 10.4276 91.2413 -1.32804C91.4148 -1.46735 91.1706 -1.7048 90.9971 -1.56866C76.2002 9.90518 61.8917 22.0154 47.8499 34.3726C47.6796 34.5214 47.9303 34.7683 48.1006 34.6195Z" fill="#253F81"></path></g></g><mask id="mask104_673_17" style="mask-type:alpha" maskUnits="userSpaceOnUse" x="47" y="0" width="49" height="41"><path d="M47.4674 0.046875H96V40.5726H47.4674V0.046875Z" fill="black"></path></mask><g mask="url(#mask104_673_17)"><mask id="mask105_673_17" style="mask-type:alpha" maskUnits="userSpaceOnUse" x="47" y="0" width="49" height="61"><path d="M58.1516 60.035C57.525 48.8999 59.0899 24.2141 80.1911 18.6734C80.6538 18.5531 84.5419 26.8039 85.0849 27.1205C85.6279 27.4371 95.9681 6.37325 95.3222 4.49577C94.6732 2.61829 71.9781 -0.531954 71.811 1.01625C71.644 2.5613 75.9015 8.2064 75.9015 8.2064C63.3121 14.9786 46.8957 20.4559 47.9882 60.5606" fill="black"></path></mask><g mask="url(#mask105_673_17)"><path d="M45.0223 39.8477C60.0698 25.3502 76.7947 12.4137 93.1789 -0.570378C94.7084 -1.78298 96.1994 -3.04941 97.7417 -4.24619C97.9088 -4.376 97.671 -4.60712 97.5039 -4.47731C84.0437 5.96756 70.7024 16.5771 57.8624 27.7691C53.4313 31.6349 49.0646 35.583 44.8681 39.6957C44.7685 39.7939 44.9227 39.9458 45.0223 39.8477Z" fill="#253F81"></path></g></g><mask id="mask106_673_17" style="mask-type:alpha" maskUnits="userSpaceOnUse" x="47" y="0" width="49" height="45"><path d="M47.4674 0.046875H96V44.6252H47.4674V0.046875Z" fill="black"></path></mask><g mask="url(#mask106_673_17)"><mask id="mask107_673_17" style="mask-type:alpha" maskUnits="userSpaceOnUse" x="47" y="0" width="49" height="61"><path d="M58.1516 60.035C57.525 48.8999 59.0899 24.2141 80.1911 18.6734C80.6538 18.5531 84.5419 26.8039 85.0849 27.1205C85.6279 27.4371 95.9681 6.37325 95.3222 4.49577C94.6732 2.61829 71.9781 -0.531954 71.811 1.01625C71.644 2.5613 75.9015 8.2064 75.9015 8.2064C63.3121 14.9786 46.8957 20.4559 47.9882 60.5606" fill="black"></path></mask><g mask="url(#mask107_673_17)"><path d="M41.7577 44.492C50.4687 36.8934 59.3661 29.4848 68.3503 22.206C77.3313 14.9272 86.6368 8.06004 95.6788 0.86039C95.878 0.705253 95.6145 0.366483 95.4057 0.512122C86.0552 7.09122 77.1513 14.3985 68.2957 21.6077C59.2248 28.9878 50.3755 36.6117 41.6388 44.3749C41.5584 44.4477 41.6773 44.5617 41.7577 44.492Z" fill="#253F81"></path></g></g><mask id="mask108_673_17" style="mask-type:alpha" maskUnits="userSpaceOnUse" x="47" y="0" width="49" height="47"><path d="M47.4674 0.046875H96V46.2462H47.4674V0.046875Z" fill="black"></path></mask><g mask="url(#mask108_673_17)"><mask id="mask109_673_17" style="mask-type:alpha" maskUnits="userSpaceOnUse" x="47" y="0" width="49" height="61"><path d="M58.1516 60.035C57.525 48.8999 59.0899 24.2141 80.1911 18.6734C80.6538 18.5531 84.5419 26.8039 85.0849 27.1205C85.6279 27.4371 95.9681 6.37325 95.3222 4.49577C94.6732 2.61829 71.9781 -0.531954 71.811 1.01625C71.644 2.5613 75.9015 8.2064 75.9015 8.2064C63.3121 14.9786 46.8957 20.4559 47.9882 60.5606" fill="black"></path></mask><g mask="url(#mask109_673_17)"><path d="M41.4685 46.115C51.2335 37.7313 61.2234 29.585 71.3322 21.6096C81.6306 13.4855 92.2471 5.79829 102.696 -2.12956C102.899 -2.28469 102.709 -2.6298 102.488 -2.47782C91.8615 4.79781 81.6756 12.7953 71.586 20.7738C61.2812 28.9233 51.2335 37.3577 41.3239 45.9694C41.2243 46.0581 41.3689 46.2005 41.4685 46.115Z" fill="#253F81"></path></g></g><mask id="mask110_673_17" style="mask-type:alpha" maskUnits="userSpaceOnUse" x="47" y="4" width="49" height="46"><path d="M47.4674 4.90625H96V49.4845H47.4674V4.90625Z" fill="black"></path></mask><g mask="url(#mask110_673_17)"><mask id="mask111_673_17" style="mask-type:alpha" maskUnits="userSpaceOnUse" x="47" y="0" width="49" height="61"><path d="M58.1516 60.0272C57.525 48.8921 59.0899 24.2062 80.1911 18.6656C80.6538 18.5453 84.5419 26.7961 85.0849 27.1127C85.6279 27.4293 95.9681 6.36543 95.3222 4.48795C94.6732 2.61047 71.9781 -0.539767 71.811 1.00844C71.644 2.55348 75.9015 8.19859 75.9015 8.19859C63.3121 14.9708 46.8957 20.4481 47.9882 60.5527" fill="black"></path></mask><g mask="url(#mask111_673_17)"><path d="M39.5245 49.1308C48.3094 41.0415 58.0905 34.073 67.6627 26.9272C77.1867 19.8193 86.881 12.8856 96.2218 5.54036C96.3889 5.41055 96.1672 5.12561 95.9937 5.24908C85.9845 12.3569 76.2902 19.927 66.4674 27.2786C57.194 34.2186 47.8178 41.0574 39.3574 48.963C39.2449 49.0675 39.412 49.2321 39.5245 49.1308Z" fill="#253F81"></path></g></g><mask id="mask112_673_17" style="mask-type:alpha" maskUnits="userSpaceOnUse" x="47" y="5" width="49" height="50"><path d="M47.4674 5.73438H96V54.3652H47.4674V5.73438Z" fill="black"></path></mask><g mask="url(#mask112_673_17)"><mask id="mask113_673_17" style="mask-type:alpha" maskUnits="userSpaceOnUse" x="47" y="0" width="49" height="61"><path d="M58.1516 60.035C57.525 48.8999 59.0899 24.2141 80.1911 18.6734C80.6538 18.5531 84.5419 26.8039 85.0849 27.1205C85.6279 27.4371 95.9681 6.37325 95.3222 4.49577C94.6732 2.61829 71.9781 -0.531954 71.811 1.01625C71.644 2.5613 75.9015 8.2064 75.9015 8.2064C63.3121 14.9786 46.8957 20.4559 47.9882 60.5606" fill="black"></path></mask><g mask="url(#mask113_673_17)"><path d="M40.1028 53.9684C49.026 45.2965 58.5821 37.2357 68.3342 29.482C73.2987 25.5371 78.3177 21.6586 83.3721 17.8277C88.2466 14.1361 93.3074 10.6217 98.0341 6.74645C98.1851 6.62298 97.9859 6.36969 97.8252 6.4805C92.5652 10.036 87.5686 14.0379 82.5174 17.872C77.7361 21.5035 72.9806 25.1635 68.2957 28.9121C58.4536 36.7893 48.9553 45.0243 39.9293 53.7974C39.8169 53.9083 39.9904 54.0761 40.1028 53.9684Z" fill="#253F81"></path></g></g><mask id="mask114_673_17" style="mask-type:alpha" maskUnits="userSpaceOnUse" x="47" y="18" width="36" height="35"><path d="M47.4674 18.6875H82.016V52.7291H47.4674V18.6875Z" fill="black"></path></mask><g mask="url(#mask114_673_17)"><mask id="mask115_673_17" style="mask-type:alpha" maskUnits="userSpaceOnUse" x="47" y="0" width="49" height="61"><path d="M58.1516 60.0272C57.525 48.8921 59.0899 24.2062 80.1911 18.6656C80.6538 18.5453 84.5419 26.7961 85.0849 27.1127C85.6279 27.4293 95.9681 6.36543 95.3222 4.48795C94.6732 2.61047 71.9781 -0.539767 71.811 1.00844C71.644 2.55348 75.9015 8.19859 75.9015 8.19859C63.3121 14.9708 46.8957 20.4481 47.9882 60.5527" fill="black"></path></mask><g mask="url(#mask115_673_17)"><path d="M38.4931 52.3887C45.2569 46.5062 52.2617 40.8737 59.363 35.3933C66.657 29.7672 74.2723 24.597 81.6692 19.1133C81.817 19.0025 81.6852 18.7587 81.5214 18.8601C73.9157 23.6092 66.7309 29.1403 59.6457 34.6049C52.3324 40.2437 45.273 46.1548 38.3099 52.2083C38.1878 52.3159 38.3677 52.4964 38.4931 52.3887Z" fill="#253F81"></path></g></g><mask id="mask116_673_17" style="mask-type:alpha" maskUnits="userSpaceOnUse" x="47" y="25" width="26" height="27"><path d="M47.4674 25.9844H72.9676V51.9208H47.4674V25.9844Z" fill="black"></path></mask><g mask="url(#mask116_673_17)"><mask id="mask117_673_17" style="mask-type:alpha" maskUnits="userSpaceOnUse" x="47" y="0" width="49" height="61"><path d="M58.1516 60.035C57.525 48.8999 59.0899 24.2141 80.1911 18.6734C80.6538 18.5531 84.5419 26.8039 85.0849 27.1205C85.6279 27.4371 95.9681 6.37325 95.3222 4.49577C94.6732 2.61829 71.9781 -0.531954 71.811 1.01625C71.644 2.5613 75.9015 8.2064 75.9015 8.2064C63.3121 14.9786 46.8957 20.4559 47.9882 60.5606" fill="black"></path></mask><g mask="url(#mask117_673_17)"><path d="M45.334 51.8418C49.7489 47.5359 54.2282 43.2934 58.7749 39.1205C63.3184 34.9571 68.0804 31.0027 72.5468 26.7665C72.7203 26.6019 72.4696 26.3708 72.2897 26.5132C62.6532 34.1308 53.7976 42.9831 45.0576 51.5663C44.8777 51.7436 45.154 52.0159 45.334 51.8418Z" fill="#253F81"></path></g></g><mask id="mask118_673_17" style="mask-type:alpha" maskUnits="userSpaceOnUse" x="47" y="29" width="26" height="32"><path d="M47.4674 29.2266H72.145V60.8366H47.4674V29.2266Z" fill="black"></path></mask><g mask="url(#mask118_673_17)"><mask id="mask119_673_17" style="mask-type:alpha" maskUnits="userSpaceOnUse" x="47" y="0" width="49" height="61"><path d="M58.1516 60.035C57.525 48.8999 59.0899 24.2141 80.1911 18.6734C80.6538 18.5531 84.5419 26.8039 85.0849 27.1205C85.6279 27.4371 95.9681 6.37325 95.3222 4.49577C94.6732 2.61829 71.9781 -0.531954 71.811 1.01625C71.644 2.5613 75.9015 8.2064 75.9015 8.2064C63.3121 14.9786 46.8957 20.4559 47.9882 60.5606" fill="black"></path></mask><g mask="url(#mask119_673_17)"><path d="M38.432 62.4299C43.5346 56.5473 48.9264 50.899 54.5045 45.4566C60.0923 40.0078 66.0914 35.0529 71.8431 29.7814C71.9845 29.6547 71.7917 29.3951 71.631 29.5154C65.5034 34.0872 59.8899 39.5455 54.4628 44.8962C48.8107 50.4653 43.496 56.3257 38.3709 62.3666C38.3324 62.4077 38.3966 62.471 38.432 62.4299Z" fill="#253F81"></path></g></g><mask id="mask120_673_17" style="mask-type:alpha" maskUnits="userSpaceOnUse" x="47" y="31" width="26" height="30"><path d="M47.4674 31.6562H72.145V60.8348H47.4674V31.6562Z" fill="black"></path></mask><g mask="url(#mask120_673_17)"><mask id="mask121_673_17" style="mask-type:alpha" maskUnits="userSpaceOnUse" x="47" y="0" width="49" height="61"><path d="M58.1514 60.035C57.5248 48.8999 59.0896 24.2141 80.1909 18.6734C80.6536 18.5531 84.5416 26.8039 85.0846 27.1205C85.6277 27.4371 95.9678 6.37325 95.322 4.49577C94.6729 2.61829 71.9779 -0.531954 71.8108 1.01625C71.6437 2.5613 75.9012 8.2064 75.9012 8.2064C63.3118 14.9786 46.8955 20.4559 47.988 60.5606" fill="black"></path></mask><g mask="url(#mask121_673_17)"><path d="M37.998 65.2725C43.0974 59.3931 48.4924 53.7448 54.0706 48.3023C59.6584 42.8535 65.6575 37.8954 71.4059 32.6271C71.5473 32.4973 71.3545 32.2408 71.1971 32.358C65.0695 36.933 59.4527 42.3913 54.0288 47.7419C48.3768 53.3111 43.0589 59.1683 37.9338 65.2091C37.8984 65.2535 37.9595 65.3168 37.998 65.2725Z" fill="#253F81"></path></g></g><mask id="mask122_673_17" style="mask-type:alpha" maskUnits="userSpaceOnUse" x="47" y="35" width="24" height="26"><path d="M47.4674 35.7188H70.4998V60.0342H47.4674V35.7188Z" fill="black"></path></mask><g mask="url(#mask122_673_17)"><mask id="mask123_673_17" style="mask-type:alpha" maskUnits="userSpaceOnUse" x="47" y="0" width="49" height="61"><path d="M58.1516 60.035C57.525 48.8999 59.0899 24.2141 80.1911 18.6734C80.6538 18.5531 84.5419 26.8039 85.0849 27.1205C85.6279 27.4371 95.9681 6.37325 95.3222 4.49577C94.6732 2.61829 71.9781 -0.531954 71.811 1.01625C71.644 2.5613 75.9015 8.2064 75.9015 8.2064C63.3121 14.9786 46.8957 20.4559 47.9882 60.5606" fill="black"></path></mask><g mask="url(#mask123_673_17)"><path d="M45.7389 59.4726C49.4437 55.2965 53.3124 51.2724 57.3675 47.4225C61.4258 43.5725 65.783 40.1025 69.9795 36.4141C70.1337 36.2779 69.9248 35.9993 69.7513 36.1259C60.78 42.6354 52.7694 50.9622 45.485 59.2224C45.334 59.3934 45.5879 59.6467 45.7389 59.4726Z" fill="#253F81"></path></g></g><mask id="mask124_673_17" style="mask-type:alpha" maskUnits="userSpaceOnUse" x="47" y="34" width="25" height="27"><path d="M47.4674 34.9062H71.3224V60.8427H47.4674V34.9062Z" fill="black"></path></mask><g mask="url(#mask124_673_17)"><mask id="mask125_673_17" style="mask-type:alpha" maskUnits="userSpaceOnUse" x="47" y="0" width="49" height="61"><path d="M58.1516 60.0272C57.525 48.8921 59.0899 24.2062 80.1911 18.6656C80.6538 18.5453 84.5419 26.7961 85.0849 27.1127C85.6279 27.4293 95.9681 6.36543 95.3222 4.48795C94.6732 2.61047 71.9781 -0.539767 71.811 1.00844C71.644 2.55348 75.9015 8.19859 75.9015 8.19859C63.3121 14.9708 46.8957 20.4481 47.9882 60.5527" fill="black"></path></mask><g mask="url(#mask125_673_17)"><path d="M40.2796 66.5199C44.8649 60.9159 49.8935 55.6349 55.0315 50.5154C60.1759 45.3863 65.7572 40.748 71.0141 35.7456C71.133 35.6317 70.9691 35.4069 70.8309 35.5114C65.1339 39.7666 59.9767 44.9178 54.9672 49.9265C49.7329 55.16 44.8681 60.688 40.0129 66.2602C39.8586 66.4407 40.1286 66.7035 40.2796 66.5199Z" fill="#253F81"></path></g></g><mask id="mask126_673_17" style="mask-type:alpha" maskUnits="userSpaceOnUse" x="47" y="34" width="26" height="27"><path d="M47.4674 34.9062H72.9676V60.8427H47.4674V34.9062Z" fill="black"></path></mask><g mask="url(#mask126_673_17)"><mask id="mask127_673_17" style="mask-type:alpha" maskUnits="userSpaceOnUse" x="47" y="0" width="49" height="61"><path d="M58.1516 60.0272C57.525 48.8921 59.0899 24.2062 80.1911 18.6656C80.6538 18.5453 84.5419 26.7961 85.0849 27.1127C85.6279 27.4293 95.9681 6.36543 95.3222 4.48795C94.6732 2.61047 71.9781 -0.539767 71.811 1.00844C71.644 2.55348 75.9015 8.19859 75.9015 8.19859C63.3121 14.9708 46.8957 20.4481 47.9882 60.5527" fill="black"></path></mask><g mask="url(#mask127_673_17)"><path d="M47.4933 62.619C51.3877 57.8572 55.4396 53.2252 59.6682 48.7484C63.8968 44.2716 68.4146 40.1019 72.7621 35.7453C72.9324 35.5744 72.6785 35.3338 72.4986 35.4857C63.1738 43.4104 54.9094 52.9054 47.2394 62.3688C47.0948 62.543 47.3487 62.7963 47.4933 62.619Z" fill="#253F81"></path></g></g><mask id="mask128_673_17" style="mask-type:alpha" maskUnits="userSpaceOnUse" x="47" y="37" width="25" height="24"><path d="M47.4674 37.3438H71.3224V60.8487H47.4674V37.3438Z" fill="black"></path></mask><g mask="url(#mask128_673_17)"><mask id="mask129_673_17" style="mask-type:alpha" maskUnits="userSpaceOnUse" x="47" y="0" width="49" height="61"><path d="M58.1516 60.035C57.525 48.8999 59.0898 24.2141 80.1911 18.6734C80.6538 18.5531 84.5418 26.8039 85.0848 27.1205C85.6279 27.4371 95.968 6.37325 95.3222 4.49577C94.6731 2.61829 71.9781 -0.531954 71.811 1.01625C71.6439 2.5613 75.9014 8.2064 75.9014 8.2064C63.312 14.9786 46.8956 20.4559 47.9881 60.5606" fill="black"></path></mask><g mask="url(#mask129_673_17)"><path d="M45.7838 65.3316C49.5015 60.2849 53.5019 55.4567 57.7884 50.869C61.927 46.4397 66.4866 42.5106 70.8566 38.3155C71.0108 38.1699 70.7987 37.8755 70.6188 38.0116C65.725 41.7191 61.3358 46.3035 57.1843 50.7867C52.975 55.3268 49.0741 60.1361 45.4399 65.1353C45.2921 65.338 45.636 65.5343 45.7838 65.3316Z" fill="#253F81"></path></g></g><mask id="mask130_673_17" style="mask-type:alpha" maskUnits="userSpaceOnUse" x="50" y="43" width="19" height="18"><path d="M50.7578 43.8047H68.0321V60.8255H50.7578V43.8047Z" fill="black"></path></mask><g mask="url(#mask130_673_17)"><mask id="mask131_673_17" style="mask-type:alpha" maskUnits="userSpaceOnUse" x="47" y="0" width="49" height="61"><path d="M58.1517 60.0272C57.5251 48.8921 59.09 24.2062 80.1912 18.6656C80.6539 18.5453 84.5419 26.7961 85.0849 27.1127C85.628 27.4293 95.9681 6.36543 95.3223 4.48795C94.6732 2.61047 71.9782 -0.539767 71.8111 1.00844C71.644 2.55348 75.9015 8.19859 75.9015 8.19859C63.3121 14.9708 46.8958 20.4481 47.9883 60.5527" fill="black"></path></mask><g mask="url(#mask131_673_17)"><path d="M51.4616 61.1345C56.7827 55.635 62.2966 50.2559 67.3832 44.5411C67.5149 44.3955 67.3092 44.1897 67.1647 44.3258C61.6122 49.6005 56.4228 55.2804 51.1017 60.7799C50.8768 61.0142 51.2335 61.3688 51.4616 61.1345Z" fill="#253F81"></path></g></g><mask id="mask132_673_17" style="mask-type:alpha" maskUnits="userSpaceOnUse" x="51" y="47" width="18" height="14"><path d="M51.5802 47.0547H68.8545V60.8334H51.5802V47.0547Z" fill="black"></path></mask><g mask="url(#mask132_673_17)"><mask id="mask133_673_17" style="mask-type:alpha" maskUnits="userSpaceOnUse" x="47" y="0" width="49" height="61"><path d="M58.1513 60.035C57.5247 48.8999 59.0896 24.2141 80.1908 18.6734C80.6535 18.5531 84.5415 26.8039 85.0846 27.1205C85.6276 27.4371 95.9678 6.37325 95.3219 4.49577C94.6728 2.61829 71.9778 -0.531954 71.8107 1.01625C71.6437 2.5613 75.9012 8.2064 75.9012 8.2064C63.3118 14.9786 46.8954 20.4559 47.9879 60.5606" fill="black"></path></mask><g mask="url(#mask133_673_17)"><path d="M52.1812 64.144C57.5055 58.6414 63.0194 53.2654 68.1059 47.5506C68.2344 47.4018 68.032 47.196 67.8874 47.3353C62.3317 52.61 57.1456 58.2899 51.8213 63.7894C51.5964 64.0237 51.953 64.3751 52.1812 64.144Z" fill="#253F81"></path></g></g><mask id="mask134_673_17" style="mask-type:alpha" maskUnits="userSpaceOnUse" x="77" y="6" width="19" height="18"><path d="M77.0804 6.53125H95.9999V23.552H77.0804V6.53125Z" fill="black"></path></mask><g mask="url(#mask134_673_17)"><mask id="mask135_673_17" style="mask-type:alpha" maskUnits="userSpaceOnUse" x="47" y="0" width="49" height="61"><path d="M58.1512 60.035C57.5246 48.8999 59.0895 24.2141 80.1907 18.6734C80.6534 18.5531 84.5414 26.8039 85.0845 27.1205C85.6275 27.4371 95.9677 6.37325 95.3218 4.49577C94.6727 2.61829 71.9777 -0.531954 71.8106 1.01625C71.6435 2.5613 75.9011 8.2064 75.9011 8.2064C63.3116 14.9786 46.8953 20.4559 47.9878 60.5606" fill="black"></path></mask><g mask="url(#mask135_673_17)"><path d="M78.0829 23.1032C84.8564 17.819 91.948 12.766 98.4419 7.14937C98.5672 7.03856 98.3969 6.81693 98.2587 6.91508C91.2218 11.8858 84.6122 17.5531 77.8419 22.8657C77.6716 23.0019 77.9126 23.2362 78.0829 23.1032Z" fill="#253F81"></path></g></g><mask id="mask136_673_17" style="mask-type:alpha" maskUnits="userSpaceOnUse" x="76" y="7" width="20" height="22"><path d="M76.2578 7.33594H95.9999V28.4093H76.2578V7.33594Z" fill="black"></path></mask><g mask="url(#mask136_673_17)"><mask id="mask137_673_17" style="mask-type:alpha" maskUnits="userSpaceOnUse" x="47" y="0" width="49" height="61"><path d="M58.1514 60.0272C57.5248 48.8921 59.0896 24.2062 80.1909 18.6656C80.6536 18.5453 84.5416 26.7961 85.0846 27.1127C85.6277 27.4293 95.9678 6.36543 95.322 4.48795C94.6729 2.61047 71.9779 -0.539767 71.8108 1.00844C71.6437 2.55348 75.9012 8.19859 75.9012 8.19859C63.3118 14.9708 46.8955 20.4481 47.988 60.5527" fill="black"></path></mask><g mask="url(#mask137_673_17)"><path d="M76.7559 27.6409C80.4222 24.0474 84.2074 20.5901 88.134 17.2752C92.0541 13.9698 96.2923 11.0412 100.193 7.72951C100.309 7.63453 100.161 7.44773 100.036 7.52688C95.8039 10.1579 91.9288 13.5551 88.1404 16.7591C84.1239 20.1532 80.2423 23.7023 76.4796 27.3687C76.2997 27.5428 76.5792 27.8182 76.7559 27.6409Z" fill="#253F81"></path></g></g><mask id="mask138_673_17" style="mask-type:alpha" maskUnits="userSpaceOnUse" x="81" y="8" width="15" height="18"><path d="M81.1934 8.96094H96V25.1712H81.1934V8.96094Z" fill="black"></path></mask><g mask="url(#mask138_673_17)"><mask id="mask139_673_17" style="mask-type:alpha" maskUnits="userSpaceOnUse" x="47" y="0" width="49" height="61"><path d="M58.1513 60.035C57.5247 48.8999 59.0896 24.2141 80.1908 18.6734C80.6535 18.5531 84.5415 26.8039 85.0846 27.1205C85.6276 27.4371 95.9678 6.37325 95.3219 4.49577C94.6728 2.61829 71.9778 -0.531954 71.8107 1.01625C71.6437 2.5613 75.9012 8.2064 75.9012 8.2064C63.3118 14.9786 46.8954 20.4559 47.9879 60.5606" fill="black"></path></mask><g mask="url(#mask139_673_17)"><path d="M82.2023 24.6062C87.8704 19.607 93.9466 15.0732 99.6308 10.1088C99.7947 9.9663 99.5762 9.67818 99.393 9.80483C93.214 14.098 87.5362 19.3537 81.9549 24.3656C81.791 24.5144 82.0352 24.755 82.2023 24.6062Z" fill="#253F81"></path></g></g><mask id="mask140_673_17" style="mask-type:alpha" maskUnits="userSpaceOnUse" x="77" y="12" width="19" height="20"><path d="M77.9031 12.1953H96V31.6477H77.9031V12.1953Z" fill="black"></path></mask><g mask="url(#mask140_673_17)"><mask id="mask141_673_17" style="mask-type:alpha" maskUnits="userSpaceOnUse" x="47" y="0" width="49" height="61"><path d="M58.1513 60.035C57.5247 48.8999 59.0896 24.2141 80.1908 18.6734C80.6535 18.5531 84.5415 26.8039 85.0846 27.1205C85.6276 27.4371 95.9678 6.37325 95.3219 4.49577C94.6728 2.61829 71.9778 -0.531954 71.8107 1.01625C71.6437 2.5613 75.9012 8.2064 75.9012 8.2064C63.3118 14.9786 46.8954 20.4559 47.9879 60.5606" fill="black"></path></mask><g mask="url(#mask141_673_17)"><path d="M78.4332 30.9407C84.9946 25.1183 91.7135 19.2737 97.7415 12.9036C97.8893 12.7485 97.6644 12.5268 97.5037 12.6725C90.9552 18.5645 84.7183 24.7859 78.1312 30.6431C77.9223 30.8267 78.2276 31.1243 78.4332 30.9407Z" fill="#253F81"></path></g></g><path d="M38.3061 59.9618C39.3649 51.7261 38.0236 42.468 34.7531 34.8272C32.8791 30.4498 30.1704 26.3889 26.4062 23.3377C24.4316 21.7361 22.2296 20.4352 19.8684 19.454C18.6862 18.9634 16.3186 17.5359 15.2241 18.5203C13.9445 19.6756 13.1877 22.0431 12.3985 23.5244C11.9633 24.3442 11.4242 25.1513 11.0442 25.9933C10.9565 26.1927 10.6414 26.4585 10.6122 26.6674C10.6414 26.4617 11.1643 26.9207 11.1189 26.6263C11.1059 26.563 10.989 26.5092 10.9825 26.4427C10.9565 26.142 10.4271 25.5438 10.2712 25.2779C9.85224 24.5436 9.45276 23.7935 9.05653 23.0465C8.08544 21.198 7.15657 19.3274 6.24719 17.4473C4.46415 13.7599 2.55445 9.99335 1.34627 6.07488C1.00201 4.95441 0.764918 4.63156 1.89515 4.15679C3.40862 3.52375 5.12995 3.22939 6.73436 2.90655C11.4794 1.9475 16.3835 1.20369 21.2325 1.05492C21.8139 1.03593 22.9246 0.846024 23.4637 1.1024C23.7268 1.22901 23.7625 1.15938 23.8015 1.23534C23.9704 1.56768 23.2526 2.60269 23.0837 2.90971C22.1419 4.66005 20.9532 6.3091 19.7483 7.89801C19.5891 8.10691 19.7093 8.45825 19.9301 8.57536C25.1591 11.348 30.5731 13.8517 35.0129 17.7987C41.1447 23.2554 44.5192 30.7094 46.2048 38.5242C47.7637 45.7281 48.0365 53.1472 47.8546 60.4872C47.8384 61.1709 48.9264 61.1709 48.9459 60.4872C49.2252 49.2952 48.5724 37.3119 43.4052 27.0852C40.2873 20.9163 35.4091 16.1274 29.4429 12.5413C26.5264 10.791 23.4507 9.31284 20.4433 7.72076C20.5017 7.94549 20.5635 8.17022 20.6252 8.39811C21.5475 7.17952 26.2081 1.80507 24.4738 0.387075C23.7593 -0.195316 22.0607 0.0452371 21.2325 0.0705584C19.0467 0.140192 16.861 0.377579 14.6947 0.649784C10.4726 1.1752 5.95814 1.67213 1.93737 3.10595C1.17739 3.37499 0.232281 3.65986 0.0406608 4.51129C-0.183437 5.49565 0.576546 6.94846 0.911069 7.83788C2.48625 12.0317 4.4609 16.1053 6.46154 20.1219C7.35144 21.9134 8.25432 23.7048 9.23841 25.4489C9.50472 25.9173 10.0471 27.348 10.6902 27.4999C11.6645 27.7278 12.3725 25.6451 12.6941 25.0532C13.2722 23.9802 13.8373 22.8977 14.4154 21.8247C14.7532 21.1949 15.2468 19.6788 15.8671 19.2926C16.2796 19.0331 16.3251 19.1913 17.0234 19.4477C17.8905 19.7579 18.7577 20.0206 19.6086 20.3783C20.9727 20.9512 22.288 21.6443 23.5287 22.4388C26.0522 24.053 28.2315 26.1262 30.047 28.4716C37.0655 37.524 37.7345 49.0737 37.9521 59.9618C37.9554 60.1897 38.2769 60.1739 38.3061 59.9618Z" fill="#211C1D"></path><path d="M58.048 59.9615C58.2398 50.3091 58.7402 40.4542 63.7281 31.8202C66.6201 26.8137 70.9549 22.6991 76.401 20.4094C77.1289 20.1026 79.5952 18.9482 80.0891 19.2455C80.713 19.6187 81.2654 21.2411 81.5969 21.8547C82.146 22.8699 82.6822 23.8946 83.2281 24.913C83.5921 25.5866 83.9592 26.6651 84.5506 27.1901C85.9837 28.4615 87.5824 24.0053 88.0438 23.1166C90.1982 18.9925 92.2226 14.7893 94.0423 10.5166C94.6305 9.13452 97.0513 5.12112 95.4753 3.78648C94.5297 2.98633 92.7913 2.73965 91.628 2.46133C89.3696 1.92052 87.0722 1.52203 84.7749 1.17414C82.2143 0.781968 79.6375 0.456215 77.0541 0.253805C75.5594 0.133625 73.5122 -0.242731 72.0435 0.237992C69.2684 1.14567 74.4676 7.22745 75.3839 8.43874C75.4457 8.21103 75.5074 7.98648 75.5659 7.76194C70.1133 10.6494 64.4885 13.2649 59.91 17.4365C53.7782 23.0154 50.3826 30.6121 48.6928 38.5092C47.1493 45.7201 46.8666 53.1428 47.0486 60.4865C47.0649 61.1696 48.1567 61.1728 48.1404 60.4865C47.8642 49.4488 48.4491 37.5383 53.593 27.4558C56.6963 21.3771 61.525 16.7122 67.4487 13.2143C70.2563 11.5571 73.2003 10.1402 76.0793 8.61585C76.3003 8.49567 76.4205 8.15094 76.2613 7.93904C75.2149 6.56329 74.2141 5.14326 73.3303 3.66314C73.132 3.33106 71.9525 1.5157 72.115 1.24055C72.2482 1.01917 73.3595 1.09191 73.5805 1.08558C77.691 0.997028 81.9121 1.68332 85.9544 2.34748C87.9756 2.67956 90 3.04959 91.9822 3.55561C92.7035 3.73904 94.715 4.06796 94.9912 4.74477C95.3096 5.5291 94.1463 7.63227 93.8669 8.3407C93.0772 10.3521 92.1901 12.3256 91.2803 14.2865C89.5743 17.971 87.8164 21.6649 85.8017 25.2008C85.623 25.5107 85.1226 26.0674 85.0673 26.4152C85.0511 26.5291 84.8821 26.5987 84.8496 26.6999C85.454 24.6948 85.3825 27.2692 85.3175 26.5797C85.3045 26.4374 85.0218 26.1496 84.9666 26.0199C84.1997 24.1445 82.9714 22.3006 81.9868 20.5201C81.5384 19.7104 81.0705 18.3094 80.0306 18.1829C79.0461 18.0627 77.2816 19.021 76.3783 19.3878C74.994 19.9445 73.6585 20.6086 72.3912 21.3866C68.2448 23.9326 65.0279 27.5759 62.7403 31.7664C58.2365 40.0241 56.498 50.6917 57.6938 59.9615C57.7231 60.1734 58.0448 60.1892 58.048 59.9615Z" fill="#211C1D"></path><path d="M26.2192 12.7502C32.1858 6.30801 40.6052 2.51617 49.4073 2.99421C56.3094 3.37145 65.4457 6.20069 69.0077 12.734C69.3388 13.3421 70.2647 12.799 69.9271 12.1909C66.1883 5.41045 56.8591 2.47064 49.6741 2.04788C40.8753 1.53081 31.2213 5.21208 26.0199 12.5974C25.9395 12.7145 26.1227 12.8576 26.2192 12.7502Z" fill="#211C1D"></path><path d="M21.2568 20.0665C11.0949 32.4229 20.786 51.5235 32.9354 58.3372C46.0263 65.6789 63.2756 61.5622 72.2873 49.7528C78.5563 41.5448 79.8961 30.6586 75.1564 21.3882C74.7141 20.5282 73.4217 21.287 73.8577 22.147C81.5487 37.2542 71.5132 54.4197 56.2799 59.2193C42.2441 63.6427 27.6554 57.0408 21.083 43.9825C19.2598 40.3591 18.1381 36.3341 18.1002 32.2648C18.0591 27.8984 19.462 24.0726 21.5696 20.3068C21.677 20.1171 21.4053 19.8831 21.2568 20.0665Z" fill="#211C1D"></path></svg>