<svg xmlns="http://www.w3.org/2000/svg" width="106" height="64" viewBox="0 0 106 64" fill="none"><path d="M1 25.5518L20.495 32.2329C20.495 32.2329 25.636 42.2972 30.9434 46.8455C36.2478 51.3938 41.8937 57.1391 48.6445 60.4503C55.3923 63.7615 58.594 63.3803 59.8117 61.93C61.0323 60.4823 56.6249 59.1573 56.6249 59.1573C56.6249 59.1573 60.2572 60.9222 62.7133 60.9249C66.1734 60.9249 68.2583 57.8776 67.3822 57.595C66.506 57.3097 61.9471 54.1851 61.9471 54.1851C61.9471 54.1851 66.5743 57.8429 69.1701 58.1122C71.7659 58.3841 74.1092 55.6968 73.726 53.6572C73.4795 52.3322 67.0376 47.8613 67.0376 47.8613C67.0376 47.8613 73.3756 53.6092 77.0465 52.6761C80.7174 51.7403 80.2036 48.5304 79.4967 47.36C78.7928 46.187 73.7765 41.788 70.3908 38.2502C67.002 34.7123 63.9281 32.3875 60.9284 30.8093C57.9287 29.231 62.9064 22.4459 62.9064 22.4459L57.1535 15.029C57.1535 15.029 53.7321 14.7357 51.1363 14.5517C48.5435 14.3704 40.1355 16.2127 36.8507 15.9114C33.5659 15.6101 15.1223 2 15.1223 2L1 25.5518Z" stroke="#13100E" stroke-width="1.23108" stroke-miterlimit="10" stroke-linecap="round" stroke-linejoin="round"></path><path d="M93.9272 2L72.7353 14.5992C66.8663 12.846 58.5768 12.1248 56.9237 13.1351C54.6572 14.5209 44.525 21.4499 44.4302 22.4224C44.3383 23.3949 33.6817 37.4204 38.0516 38.0742C42.4215 38.7279 50.3644 31.2208 51.3806 28.7652C52.3967 26.3097 53.8633 25.0724 53.8633 25.0724C53.8633 25.0724 55.2824 26.2692 57.9784 27.2362L56.1178 30.3563L67.6455 40.4649C67.6455 40.4649 71.0022 41.5562 73.0998 41.9966C74.59 43.4418 75.5854 44.5467 77.1882 46C80.3138 42.2829 85.2792 34.2112 86.8316 32.8794C88.7277 31.2532 106 27.5064 106 27.5064L93.9272 2Z" fill="#FAB81D"></path><path d="M28.4613 41.0124C21.8056 41.4262 22.4043 46.4438 24.184 47.5285C25.961 48.6131 28.3096 47.6929 30.5633 46.1255C32.8171 44.5555 32.6356 40.7552 28.4613 41.0124Z" fill="#FAB81D"></path><path d="M37.6931 45.2843C33.298 43.8802 25.5198 47.9487 27.2457 51.5284C28.9229 55.0157 31.1477 54.2254 33.9201 52.7234C37.3548 50.863 41.0159 46.3463 37.6931 45.2843Z" fill="#FAB81D"></path><path d="M44.0011 50.2933C40.6491 48.797 29.1541 53.3648 30.0496 56.3312C30.945 59.2953 33.1927 59.7678 37.482 57.861C41.7714 55.9542 47.2876 51.7563 44.0011 50.2933Z" fill="#FAB81D"></path><path d="M46.5182 54.0077C41.765 53.7301 34.1464 61.0675 38.0997 62.4554C42.053 63.8434 44.1503 62.4583 46.4978 59.6596C48.8454 56.8637 48.1181 54.0992 46.5182 54.0077Z" fill="#FAB81D"></path><path d="M92.9272 1L71.7353 13.3129C65.8663 11.6022 57.5768 10.8946 55.9237 11.882C53.6572 13.2363 43.525 20.0079 43.4302 20.9583C43.3383 21.9086 32.6817 35.6154 37.0516 36.2543C41.4215 36.8932 49.3644 29.5567 50.3806 27.1569C51.3967 24.7572 52.8633 23.5481 52.8633 23.5481C52.8633 23.5481 54.2824 24.7176 56.9754 25.6627L55.1178 28.7119L66.6425 38.5907C66.6425 38.5907 69.9992 39.6572 72.0998 40.0875C73.59 41.4999 74.5854 42.5797 76.1882 44C79.3138 40.3674 84.2792 32.4791 85.8316 31.1776C87.7248 29.5883 105 25.9267 105 25.9267L92.9272 1Z" stroke="#13100E" stroke-width="1.23108" stroke-miterlimit="10" stroke-linecap="round" stroke-linejoin="round"></path><path d="M44.0004 48.517C42.1693 47.628 37.9127 48.7094 34.5671 50.3963C37.5213 48.3481 39.8364 45.0963 36.894 44.2333C35.1257 43.7161 32.8375 43.9786 30.7943 44.6908C32.7778 43.0117 32.3208 39.7781 28.0223 40.012C20.6829 40.4175 21.3431 45.3354 23.3056 46.3986C24.5214 47.0562 25.9761 46.96 27.4966 46.4272C26.0687 47.5475 25.3279 48.9121 26.006 50.2092C27.6877 53.4167 29.8952 52.8397 32.6254 51.5166C30.869 52.6915 29.7339 53.9938 30.0386 55.0933C30.9347 58.3216 33.184 58.8363 37.4765 56.7594C41.769 54.6826 47.2892 50.1104 44.0004 48.517Z" stroke="#13100E" stroke-width="1.23108" stroke-miterlimit="10" stroke-linecap="round" stroke-linejoin="round"></path><path d="M45.5182 53.0075C40.765 52.7328 33.1464 60.0675 37.0997 61.4554C41.0529 62.8434 43.1503 61.4583 45.4978 58.6595C47.8454 55.8636 47.1181 53.0991 45.5182 53.0075Z" stroke="#13100E" stroke-width="1.23108" stroke-miterlimit="10" stroke-linecap="round" stroke-linejoin="round"></path></svg>