<svg xmlns="http://www.w3.org/2000/svg" width="72" height="71" viewBox="0 0 72 71" fill="none"><path d="M14.2619 20.4871C2.91083 25.7763 8.61263 43.6383 18.5151 41.8786C24.6771 40.7837 29.6006 34.2541 27.5126 27.3938C25.9342 22.194 20.5197 19.0416 16.6001 20.2622" fill="#FAB81D"></path><path d="M8.19382 70.9037C15.375 71.1588 32 70.8265 32 70.8265C31.7479 67.2348 31.4368 63.6464 31.07 60.0648C30.5723 55.1976 30.0844 49.5717 27.0554 45.651C21.7015 38.7127 10.0538 42.6031 6.85124 49.4878C3.99581 55.6239 5.10589 64.3245 5.84594 70.9742" fill="#FAB81D"></path><path d="M54.5761 20.4872C42.6572 25.7763 48.6409 43.6383 59.042 41.8786C65.509 40.7837 70.6787 34.2541 68.4895 27.3905C66.829 22.194 61.1436 19.0417 57.0312 20.2622" fill="#FAB81D"></path><path d="M49.0741 70.9037C55.9897 71.1588 72 70.8265 72 70.8265C71.7572 67.235 71.4608 63.6469 71.1076 60.0655C70.6251 55.1952 70.1584 49.5731 67.2414 45.6493C62.0854 38.7148 50.8684 42.6016 47.7843 49.4858C45.0345 55.6249 46.1004 64.3216 46.8131 70.9742" fill="#FAB81D"></path><path d="M9.5535 18.8627C5.83871 20.6642 3.31763 24.1193 3.02853 28.6745C2.77673 32.604 4.20358 36.757 6.8459 39.4214C14.2662 46.9126 26.026 36.6676 23.7008 26.7527C22.5226 21.73 16.7997 16.1124 11.8974 18.6152C11.6549 18.739 11.7762 19.1893 12.0342 19.1687C17.9095 18.7871 23.5267 23.638 22.9454 30.5963C22.4294 36.7501 16.2308 42.3573 10.6135 40.6487C6.77129 39.4798 4.34036 35.289 3.85542 31.0914C3.26478 25.9929 5.64909 21.534 9.80841 19.344C10.1068 19.1893 9.84571 18.7183 9.5535 18.8627Z" fill="#13100E"></path><path d="M1.46344 69.8106C1.59988 63.7558 0.133958 57.8714 1.72045 51.8527C3.04676 46.8071 6.90828 43.321 11.8645 42.3053C26.8695 39.2255 24.2677 60.7252 26.3111 69.7549C26.3968 70.135 26.9044 70.017 26.933 69.6697C27.209 66.2361 26.5649 62.5796 26.2222 59.1623C25.9684 56.6461 25.7304 54.1134 25.1783 51.643C24.2455 47.4853 22.2275 43.2948 18.1438 41.6992C14.644 40.3329 10.5921 41.0963 7.37154 42.8885C3.77972 44.8838 1.52055 48.1012 0.622598 52.1902C0.00386669 55.0111 -0.0818045 57.937 0.0578068 60.8136C0.203764 63.7919 0.371932 66.9634 1.0922 69.863C1.14614 70.076 1.45709 70.0268 1.46344 69.8106Z" fill="#13100E"></path><path d="M3.18212 69.8412C6.91295 70.0321 10.6503 70.03 14.391 69.9442C17.8593 69.8626 21.413 69.809 24.8124 69.3348C25.1044 69.294 25.0355 68.9979 24.7435 69C21.1538 69.0215 17.5673 69.3498 13.9776 69.4549C10.3813 69.5622 6.7817 69.5622 3.18212 69.5965C2.93602 69.5987 2.94259 69.8304 3.18212 69.8412Z" fill="#13100E"></path><path d="M47.8656 18.8286C43.9739 20.5549 41.3328 23.8657 41.0299 28.2308C40.7661 31.9963 42.2609 35.9726 45.029 38.529C52.8026 45.7075 65.1225 35.8902 62.6866 26.3892C61.4523 21.5761 55.4568 16.1931 50.3211 18.5881C50.0671 18.71 50.1941 19.1416 50.4644 19.1218C56.6194 18.7561 62.5042 23.4045 61.8952 30.0723C61.3546 35.9693 54.8608 41.3424 48.9761 39.7051C44.9509 38.585 42.4042 34.5692 41.8929 30.5467C41.2774 25.6579 43.7752 21.3884 48.1326 19.2898C48.4453 19.1416 48.1717 18.6902 47.8656 18.8286Z" fill="#13100E"></path><path d="M40.4634 69.8041C40.5999 63.5405 39.134 57.4532 40.7205 51.2269C42.0468 46.0073 45.9083 42.401 50.8645 41.3503C65.8695 38.1643 63.2677 60.402 65.3111 69.7465C65.3968 70.1396 65.9044 70.0176 65.933 69.6583C66.209 66.1063 65.5649 62.3237 65.2222 58.7886C64.9684 56.1856 64.7304 53.5656 64.1752 51.01C63.2455 46.7055 61.2275 42.3739 57.147 40.7233C53.644 39.3099 49.5921 40.0996 46.3684 41.9536C42.7765 44.0177 40.5206 47.3495 39.6226 51.5794C39.0039 54.4943 38.9182 57.521 39.0578 60.4969C39.2006 63.5778 39.3719 66.8587 40.0922 69.8583C40.1461 70.0786 40.4571 70.0278 40.4634 69.8041Z" fill="#13100E"></path><path d="M42.1821 69.683C45.9129 70.0641 49.6502 70.0599 53.3909 69.8886C56.8592 69.7258 60.4127 69.6145 63.8121 68.6723C64.1042 68.591 64.0352 68 63.7465 68C60.1535 68.0471 56.5671 68.7023 52.9774 68.9122C49.3812 69.1263 45.7784 69.1306 42.1821 69.1948C41.936 69.1991 41.9426 69.6616 42.1821 69.683Z" fill="#13100E"></path><path d="M13.3675 16.8506C13.486 16.3699 13.6187 15.8893 13.7541 15.418C13.8698 15.0164 14.0674 14.6148 13.9771 14.191C13.946 14.0392 13.7598 13.9443 13.6412 14.036C13.3026 14.2985 13.2151 14.7919 13.1304 15.2251C13.026 15.7469 12.995 16.2561 13.0006 16.7937C13.0006 17.0309 13.3111 17.0815 13.3675 16.8506Z" fill="#13100E"></path><path d="M15.8795 11.7594C16.1071 10.8785 16.7665 10.134 16.994 9.26358C17.0405 9.09579 16.8083 8.9315 16.59 9.02937C15.991 9.30203 15.6938 9.60963 15.443 10.106C15.1923 10.6059 15.0669 11.1372 15.0019 11.672C14.9554 12.046 15.782 12.1334 15.8795 11.7594Z" fill="#13100E"></path><path d="M18.422 6.89714C18.6499 6.55095 18.9124 6.23676 19.2153 5.95748C19.4749 5.71893 19.798 5.54729 19.9797 5.23601C20.0374 5.14001 19.9653 4.99164 19.847 5.00037C19.4432 5.03237 19.1403 5.32619 18.8634 5.60256C18.5432 5.91966 18.2692 6.28331 18.0355 6.66731C17.8826 6.9175 18.2634 7.13569 18.422 6.89714Z" fill="#13100E"></path><path d="M22.3983 2.94436C22.8258 2.6109 23.2667 2.3186 23.7346 2.09217C24.1385 1.89457 24.5524 1.76283 24.9092 1.45406C25.0708 1.31409 25.0035 1.04238 24.8116 1.01356C23.8759 0.88182 22.8494 1.73812 22.1223 2.36389C21.8396 2.6109 22.0954 3.17902 22.3983 2.94436Z" fill="#13100E"></path><path d="M28.3472 0.807075C28.9588 0.874508 29.5635 0.934842 30.175 0.966785C30.7251 0.991628 31.2922 1.06971 31.8115 0.842566C31.9994 0.764486 32.0917 0.469911 31.873 0.352791C30.9027 -0.176024 29.4097 0.0404702 28.3472 0.0617652C27.8758 0.0724118 27.8928 0.760937 28.3472 0.807075Z" fill="#13100E"></path><path d="M35.1892 0.70475C35.684 0.97653 36.1616 1.28455 36.653 1.57445C37.0378 1.80093 37.3883 2.07271 37.8178 1.98212C37.9861 1.95041 38.0411 1.66051 37.969 1.49291C37.7525 0.972 37.2783 0.772696 36.8763 0.568859C36.3781 0.324257 35.8524 0.161188 35.3336 0.011709C34.9796 -0.0924739 34.8697 0.528092 35.1892 0.70475Z" fill="#13100E"></path><path d="M39.1371 2.56591C39.8388 2.98935 40.5058 3.46668 41.1381 3.9902C41.6354 4.39824 42.0634 4.92947 42.7342 4.99875C42.9309 5.018 43.0195 4.81013 42.9964 4.65615C42.8885 3.92476 42.1019 3.47438 41.5275 3.09713C40.8489 2.6506 40.1241 2.31185 39.3685 2.01929C39.0446 1.89611 38.8557 2.39654 39.1371 2.56591Z" fill="#13100E"></path><path d="M44.0624 6.61877C44.6468 7.68778 45.0323 8.9983 45.7161 9.9359C45.8131 10.0709 46.0096 9.98207 45.9996 9.76898C45.9225 8.29154 45.1541 7.08047 44.4205 6.10735C44.1743 5.78416 43.8659 6.26007 44.0624 6.61877Z" fill="#13100E"></path><path d="M47.0273 12.4952C47.2054 12.9887 47.3677 13.4942 47.5972 13.9679C47.7991 14.3898 48.001 14.8555 48.4839 14.9868C48.6937 15.0426 48.8837 14.9152 48.951 14.7202C49.1093 14.2704 48.852 13.8525 48.6343 13.4664C48.385 13.0126 48.0722 12.6027 47.7754 12.1808C47.53 11.8265 46.857 12.0255 47.0273 12.4952Z" fill="#13100E"></path><path d="M49.0013 16.3093C49.0684 17.0826 49.0875 17.9361 49.2887 18.6725C49.4204 19.1532 49.9976 19.0977 50 18.5523C50.0024 17.7173 49.727 16.8916 49.4539 16.1521C49.3558 15.8779 48.975 16.0011 49.0013 16.3093Z" fill="#13100E"></path></svg>