<svg xmlns="http://www.w3.org/2000/svg" width="73" height="69" viewBox="0 0 73 69" fill="none"><path d="M8.01534 9.71391C9.54819 9.81036 11.0755 9.84343 12.6111 9.87926C13.074 9.88753 13.8113 10.0281 14.2715 9.91509C14.8175 9.77729 14.4295 9.68084 14.4295 9.87375C14.4239 11.7781 14.2964 13.6494 16.0649 14.9061C20.0647 17.7446 25.955 14.2116 23.718 9.42454C23.621 9.5954 23.524 9.76351 23.427 9.93438C26.2765 9.86273 29.126 9.80761 31.9727 9.73871C31.848 9.61745 31.726 9.49343 31.6013 9.36942C31.5209 12.1308 31.4433 14.8923 31.3573 17.6565C31.3463 18.0285 31.7787 18.1222 32.0254 17.9321C34.8638 15.7494 39.2905 17.3285 39.0992 21.1675C38.9246 24.6951 35.2879 25.3537 32.5493 24.2348C32.322 24.1439 32.0559 24.3368 31.9949 24.549C31.5846 25.9656 31.9228 27.9167 31.9311 29.3746C31.9367 31.0199 31.9505 32.6679 31.9672 34.3132C32.1168 34.1644 32.2638 34.0183 32.4107 33.8723C29.8356 34.0101 27.2605 34.1479 24.6854 34.2994C24.8074 34.5144 24.9321 34.7266 25.0541 34.9416C27.194 30.8049 24.921 25.96 19.818 26.5443C18.0274 26.7482 16.3559 27.9002 15.8154 29.664C15.2084 31.6483 16.2977 33.9219 17.2984 35.6002C17.4065 35.4101 17.5146 35.2227 17.6255 35.0325C15.821 35.1014 14.0192 35.1786 12.2147 35.2585C11.0755 35.3109 9.62858 35.6168 8.49765 35.4101C8.99659 35.501 8.66673 35.7904 8.78315 35.0601C8.86354 34.5475 8.80533 33.9605 8.81364 33.4424C8.83582 31.9817 8.85245 30.5183 8.84136 29.0577C8.83859 28.2833 9.06866 26.8888 8.71385 26.1667C8.26481 25.249 7.02301 26.04 6.26906 26.2108C4.36477 26.649 2.30527 26.4148 1.2076 24.6234C0.0378675 22.7191 0.861117 20.0486 3.12852 19.4202C4.58375 19.0179 6.37716 19.5801 7.80191 19.9604C8.04306 20.0266 8.28144 19.8419 8.28421 19.5939C8.32579 16.262 8.37014 12.9301 8.40618 9.5954C8.41172 9.09382 7.62728 9.09382 7.62173 9.5954C7.5857 12.9301 7.55521 16.262 7.51917 19.5939C7.68272 19.4726 7.84348 19.3513 8.00425 19.2273C5.55668 18.5769 2.52979 17.8632 0.775188 20.2498C-1.0099 22.675 0.470281 26.2687 3.35581 26.9522C4.16243 27.1423 4.97736 27.1175 5.79229 26.977C6.32727 26.8833 7.18378 26.412 7.71598 26.4671C8.58358 26.5526 7.81577 26.0675 8.11236 26.5112C8.51982 27.123 8.21214 29.0164 8.21769 29.7246C8.23155 31.7199 8.21214 33.7124 8.17611 35.705C8.17334 35.8593 8.31193 36.0054 8.4727 35.9998C11.5218 35.8979 14.5764 35.8924 17.6255 35.7876C17.911 35.7794 18.1022 35.4735 17.9525 35.2199C16.3615 32.5136 15.3248 28.2116 19.5879 27.3931C24.156 26.5112 26.2488 30.8628 24.314 34.5117C24.1699 34.7845 24.3445 35.1703 24.6854 35.1538C27.2605 35.0298 29.8356 34.892 32.4107 34.7542C32.649 34.7432 32.8569 34.5613 32.8569 34.3132C32.8403 32.7837 32.8292 31.2542 32.8237 29.7246C32.8181 28.2805 32.4855 26.0841 32.8625 24.786C32.6795 24.888 32.4938 24.9927 32.3109 25.0974C35.9032 26.5691 40.4325 24.8825 39.9668 20.4427C39.5261 16.2399 34.5727 14.975 31.471 17.3809C31.6955 17.4718 31.9173 17.5628 32.1418 17.6565C32.2139 14.8923 32.2804 12.1308 32.3469 9.36942C32.3497 9.17375 32.1723 8.99461 31.9727 9.00012C29.1232 9.08005 26.2765 9.17926 23.427 9.25918C23.1526 9.26745 23.0251 9.53477 23.1332 9.76627C24.5552 12.784 22.0937 15.5399 18.8562 15.2313C15.918 14.9529 14.3824 12.5305 14.9062 9.76076C14.9312 9.61745 14.8453 9.4769 14.6873 9.47414C12.4614 9.45485 10.2384 9.408 8.01534 9.4769C7.86012 9.47965 7.86012 9.70564 8.01534 9.71391Z" fill="#211C1D"></path><path d="M8.43777 35.5869C8.31163 38.2521 8.19671 40.9173 8.12103 43.5824C8.11823 43.7234 8.26959 43.8396 8.40694 43.7981C9.73836 43.3972 11.1931 43.0212 12.5946 43.0627C14.8482 43.129 16.2273 44.9731 16.1937 47.1047C16.1657 48.805 15.3444 50.8121 13.6037 51.3844C12.1938 51.8489 10.0747 51.5973 8.82178 50.8702C8.59754 50.743 8.29481 50.9061 8.29762 51.166C8.37891 54.5251 8.19671 57.8981 8.0005 61.2516C7.98929 61.4341 8.16868 61.5945 8.34807 61.5917C11.6108 61.5806 14.8735 61.6083 18.1362 61.5917C18.0268 61.4507 17.9175 61.3097 17.8082 61.1659C17.4522 63.0763 17.1299 65.2052 18.4445 66.8391C19.4227 68.0556 21.3989 69.1144 22.9966 68.99C24.8129 68.849 26.5816 67.3616 27.1506 65.6862C27.8598 63.5933 26.7246 61.647 25.41 60.0711C25.3203 60.2895 25.2278 60.5079 25.1353 60.7291C28.2915 60.6102 31.4504 60.5881 34.6066 60.5577C34.8084 60.5549 35.0159 60.3808 34.999 60.1706C34.7888 57.229 34.5814 54.2901 34.3656 51.3485C34.3515 51.1467 34.1974 50.9476 33.9703 50.9587C31.6775 51.0582 29.5164 50.8425 28.7483 48.3543C28.3335 47.0217 28.3251 45.3076 29.3342 44.2183C30.3292 43.1456 31.8961 43.0461 33.264 43.1595C33.4826 43.1788 33.7069 42.9521 33.6928 42.7392C33.4938 39.9635 33.2668 37.1739 33.2864 34.3898C33.2892 33.8673 32.4932 33.8728 32.4651 34.3898C32.3138 37.1601 32.5744 39.98 32.8379 42.7392C32.9809 42.5982 33.121 42.4572 33.264 42.3162C29.8079 42.1116 27.2319 44.1022 27.8009 47.7046C28.3363 51.0886 30.8534 51.871 33.9703 51.7383C33.8386 51.6084 33.7069 51.4784 33.5751 51.3485C33.7825 54.2901 34.0012 57.229 34.2142 60.1706C34.3431 60.0407 34.4749 59.9108 34.6066 59.7808C31.4504 59.814 28.2915 59.8389 25.1353 59.9605C24.7793 59.9743 24.6475 60.3614 24.8606 60.6158C25.9846 61.9566 27.0329 63.6873 26.4246 65.4899C25.864 67.1543 23.944 68.5311 22.1389 68.2795C20.8214 68.0943 19.3218 67.2372 18.6239 66.112C17.7129 64.6412 18.1053 62.9077 18.4641 61.3456C18.5146 61.13 18.366 60.9254 18.1362 60.9199C16.2189 60.8701 14.2932 60.8978 12.3732 60.8978C11.479 60.9005 10.5877 60.9005 9.69351 60.9033C9.35996 60.9061 8.24156 60.7319 8.53307 61.0664C8.8442 61.4258 8.7461 60.3365 8.75731 60.0766C8.80496 59.2113 8.8442 58.3432 8.88064 57.4778C8.96754 55.3767 9.04322 53.27 8.99276 51.166C8.81898 51.2655 8.64519 51.3623 8.4714 51.4618C10.1392 52.4295 13.1692 52.7225 14.8286 51.589C16.6534 50.3421 17.2869 47.3922 16.645 45.3961C15.9302 43.1788 13.9148 42.2167 11.6584 42.5015C10.9605 42.5899 10.2653 42.753 9.587 42.9466C8.4658 43.2617 8.57512 43.165 8.61716 41.9015C8.68443 39.7976 8.80776 37.6936 8.80776 35.5869C8.80776 35.3519 8.44898 35.3547 8.43777 35.5869Z" fill="#211C1D"></path><path d="M32.1805 10.4086C35.576 10.4309 38.9743 10.601 42.3726 10.562C42.5708 10.5592 42.7209 10.2831 42.5482 10.1437C38.3852 6.78893 42.3046 -0.319338 47.3766 0.843528C51.3667 1.75821 52.5844 7.02596 49.6506 9.76721C49.4325 9.97357 49.5996 10.35 49.8941 10.35C54.0542 10.3361 58.2199 10.509 62.3743 10.6847C62.2497 10.562 62.1251 10.4393 62.0005 10.3166C62.1053 12.9881 62.1761 15.6652 62.3743 18.3339C62.6009 18.3033 62.8246 18.2754 63.0483 18.2447C61.335 14.0785 54.6489 16.0221 53.7852 19.9039C52.5703 25.3474 58.9166 28.1639 63.1559 25.537C62.9549 25.4255 62.7566 25.3111 62.5528 25.1968C62.5867 27.0764 62.8699 28.9671 63.1021 30.8271C63.2126 31.7306 63.1814 32.715 63.3429 33.6018C63.4278 34.0675 63.6034 33.7998 63.5411 33.8277C63.4221 33.8807 63.105 33.8221 62.9804 33.8193C59.5368 33.7189 55.9941 33.8723 52.5505 34.0145C52.2163 34.0285 52.103 34.4468 52.3834 34.6252C54.3346 35.8718 54.5271 39.3604 53.3547 41.1535C52.3126 42.7458 50.3897 43.3788 48.5291 43.2505C46.3656 43.0999 44.808 42.2187 44.4455 40.0464C44.1935 38.5293 44.3011 36.6303 45.2073 35.3308C45.3716 35.0937 45.1507 34.7479 44.8703 34.7563C40.8094 34.8874 36.7484 35.2192 32.6818 35.1439C32.1834 35.1356 32.1834 35.8941 32.6818 35.9052C36.7484 35.9833 40.8094 35.6626 44.8703 35.5204C44.7599 35.328 44.6466 35.1383 44.5362 34.9459C43.3666 36.6331 43.3043 39.2962 43.9471 41.1813C44.7287 43.4764 47.3199 44.1429 49.5854 43.9756C51.5819 43.8306 53.4708 42.7486 54.3062 40.9136C55.2776 38.7859 54.8245 35.3754 52.7175 34.0591C52.6637 34.2627 52.6071 34.4663 52.5505 34.6698C56.2631 34.4774 59.9644 34.5918 63.6714 34.4746C63.8441 34.4691 64.0055 34.3324 63.9999 34.1539C63.8781 31.1645 63.391 28.189 63.3542 25.1968C63.3514 24.9068 63.0144 24.6948 62.7538 24.8566C59.3159 26.9871 54.3232 25.3809 54.3884 20.9246C54.4252 18.6267 56.331 16.9508 58.5683 16.697C60.2391 16.5074 61.8136 16.7221 62.3885 18.4232C62.5046 18.7745 63.0653 18.7299 63.0625 18.3339C63.037 15.6596 62.8756 12.9881 62.7482 10.3166C62.7368 10.113 62.5839 9.95683 62.3743 9.94847C58.2199 9.81182 54.0542 9.65008 49.8941 9.6696C49.9762 9.86202 50.0555 10.0572 50.1377 10.2496C51.9133 8.58761 52.3211 6.21726 51.6131 3.9473C50.8853 1.61598 49.1805 0.313684 46.6912 0.0348201C41.2313 -0.578683 37.9293 7.07337 42.197 10.4895C42.2536 10.35 42.3131 10.2106 42.3726 10.0712C38.9743 10.1242 35.5788 9.94568 32.1805 10.0405C31.9398 10.0461 31.9398 10.4058 32.1805 10.4086Z" fill="#211C1D"></path><path d="M36.3049 63.964C36.3812 61.0063 36.107 54.6233 36.107 54.6233C36.107 54.6233 32.76 55.9717 31.3212 54.6859C28.3078 51.9864 28.7714 50.0727 29.7043 47.955C30.5919 45.9379 34.2809 45.4377 35.7734 46.5006L35.3664 38C35.3664 38 41.7804 38.2664 43.9543 38C43.4228 39.1744 43.256 40.3433 43.4822 41.4579C44.2058 45.0272 46.8461 46.6257 49.4666 46.5767C52.217 46.5278 54.8036 44.3177 54.7442 41.8086C54.7216 40.819 54.4107 38.8183 53.8425 38C57.4467 38.1169 61.2035 38.3697 64.7907 38.0027L64.8982 45.6878C64.8982 45.6878 66.3907 45.0326 67.0805 44.9728C68.6917 44.8342 70.891 45.28 71.9737 46.5305C73.1129 47.8462 73.4832 51.1709 72.149 52.9189C70.7186 54.7946 67.4988 54.6832 65.5003 54.3379C65.7095 57.4587 65.8169 63.5834 65.8169 63.5834L55.8523 63.5997C55.8523 63.5997 58.5915 60.0412 57.4975 56.6432C56.9859 55.0474 55.5188 53.7127 53.964 53.2369C49.9471 52.0082 45.9867 55.254 46.456 59.3643C46.6595 61.1558 47.7478 62.8331 49.3224 63.7764C45.1754 64.1923 40.4716 63.8851 36.3049 63.964Z" fill="white"></path><mask id="mask0_673_14" style="mask-type:alpha" maskUnits="userSpaceOnUse" x="31" y="37" width="11" height="6"><path d="M31.5673 37.3125H41.5683V42.2314H31.5673V37.3125Z" fill="black"></path></mask><g mask="url(#mask0_673_14)"><mask id="mask1_673_14" style="mask-type:alpha" maskUnits="userSpaceOnUse" x="29" y="37" width="44" height="27"><path d="M36.3478 63.9513C36.4232 60.9648 36.1525 54.5197 36.1525 54.5197C36.1525 54.5197 32.8486 55.8812 31.4283 54.5828C28.4537 51.8571 28.9113 49.9246 29.8322 47.7863C30.7084 45.7496 34.3499 45.2445 35.8232 46.3178L35.4214 37.7344C35.4214 37.7344 41.7529 38.0034 43.8988 37.7344C43.3742 38.9202 43.2095 40.1005 43.4328 41.2259C44.1471 44.83 46.7534 46.4441 49.3401 46.3947C52.0553 46.3452 54.6085 44.1136 54.5499 41.58C54.5276 40.5809 54.2206 38.5606 53.6598 37.7344C57.2176 37.8524 60.9261 38.1077 64.4671 37.7371L64.5732 45.4971C64.5732 45.4971 66.0465 44.8355 66.7274 44.7751C68.318 44.6351 70.4889 45.0853 71.5577 46.348C72.6822 47.6765 73.0478 51.0336 71.7307 52.7986C70.3187 54.6926 67.1404 54.5801 65.1675 54.2314C65.374 57.3826 65.4801 63.567 65.4801 63.567L55.6438 63.5835C55.6438 63.5835 58.3477 59.9903 57.2678 56.5592C56.7627 54.9479 55.3145 53.6001 53.7797 53.1198C49.8145 51.879 45.9051 55.1565 46.3683 59.3068C46.5692 61.1158 47.6436 62.8094 49.1978 63.7619C45.1043 64.1818 40.461 63.8717 36.3478 63.9513Z" fill="black"></path></mask><g mask="url(#mask1_673_14)"><path d="M32.0448 41.6945C34.9413 39.1883 38.047 36.9924 41.0691 34.6427C41.1528 34.5768 41.044 34.4423 40.9547 34.4972C37.6843 36.4544 34.6873 38.9934 31.855 41.5078C31.7267 41.6231 31.9136 41.807 32.0448 41.6945Z" fill="#FAB81D"></path></g></g><mask id="mask2_673_14" style="mask-type:alpha" maskUnits="userSpaceOnUse" x="32" y="37" width="10" height="5"><path d="M32.996 37.3125H41.5683V41.5287H32.996V37.3125Z" fill="black"></path></mask><g mask="url(#mask2_673_14)"><mask id="mask3_673_14" style="mask-type:alpha" maskUnits="userSpaceOnUse" x="29" y="37" width="44" height="27"><path d="M36.3474 63.9513C36.4228 60.9648 36.1521 54.5197 36.1521 54.5197C36.1521 54.5197 32.8482 55.8812 31.4279 54.5828C28.4532 51.8571 28.9109 49.9246 29.8317 47.7863C30.7079 45.7496 34.3495 45.2445 35.8228 46.3178L35.421 37.7344C35.421 37.7344 41.7525 38.0034 43.8984 37.7344C43.3738 38.9202 43.2091 40.1005 43.4324 41.2259C44.1467 44.83 46.753 46.4441 49.3397 46.3947C52.0548 46.3452 54.6081 44.1136 54.5495 41.58C54.5272 40.5809 54.2202 38.5606 53.6593 37.7344C57.2171 37.8524 60.9256 38.1077 64.4667 37.7371L64.5728 45.4971C64.5728 45.4971 66.0461 44.8355 66.727 44.7751C68.3175 44.6351 70.4885 45.0853 71.5572 46.348C72.6818 47.6765 73.0473 51.0336 71.7302 52.7986C70.3183 54.6926 67.14 54.5801 65.1671 54.2314C65.3736 57.3826 65.4796 63.567 65.4796 63.567L55.6433 63.5835C55.6433 63.5835 58.3473 59.9903 57.2674 56.5592C56.7623 54.9479 55.3141 53.6001 53.7793 53.1198C49.8141 51.879 45.9047 55.1565 46.3679 59.3068C46.5688 61.1158 47.6431 62.8094 49.1974 63.7619C45.1038 64.1818 40.4605 63.8717 36.3474 63.9513Z" fill="black"></path></mask><g mask="url(#mask3_673_14)"><path d="M33.3673 41.3557C35.901 39.1515 38.6775 37.2767 41.3145 35.2015C41.4428 35.1 41.2782 34.8996 41.1415 34.9792C38.2254 36.6481 35.661 38.9456 33.2194 41.2129C33.1245 41.3008 33.2668 41.4408 33.3673 41.3557Z" fill="#FAB81D"></path></g></g><mask id="mask4_673_14" style="mask-type:alpha" maskUnits="userSpaceOnUse" x="33" y="37" width="10" height="5"><path d="M33.7106 37.3125H42.2829V41.5287H33.7106V37.3125Z" fill="black"></path></mask><g mask="url(#mask4_673_14)"><mask id="mask5_673_14" style="mask-type:alpha" maskUnits="userSpaceOnUse" x="29" y="37" width="44" height="27"><path d="M36.3478 63.9513C36.4232 60.9648 36.1525 54.5197 36.1525 54.5197C36.1525 54.5197 32.8486 55.8812 31.4283 54.5828C28.4537 51.8571 28.9113 49.9246 29.8322 47.7863C30.7084 45.7496 34.3499 45.2445 35.8232 46.3178L35.4214 37.7344C35.4214 37.7344 41.7529 38.0034 43.8988 37.7344C43.3742 38.9202 43.2095 40.1005 43.4328 41.2259C44.1471 44.83 46.7534 46.4441 49.3401 46.3947C52.0553 46.3452 54.6085 44.1136 54.5499 41.58C54.5276 40.5809 54.2206 38.5606 53.6598 37.7344C57.2176 37.8524 60.9261 38.1077 64.4671 37.7371L64.5732 45.4971C64.5732 45.4971 66.0465 44.8355 66.7274 44.7751C68.318 44.6351 70.4889 45.0853 71.5577 46.348C72.6822 47.6765 73.0478 51.0336 71.7307 52.7986C70.3187 54.6926 67.1404 54.5801 65.1675 54.2314C65.374 57.3826 65.4801 63.567 65.4801 63.567L55.6438 63.5835C55.6438 63.5835 58.3477 59.9903 57.2678 56.5592C56.7627 54.9479 55.3145 53.6001 53.7797 53.1198C49.8145 51.879 45.9051 55.1565 46.3683 59.3068C46.5692 61.1158 47.6436 62.8094 49.1978 63.7619C45.1043 64.1818 40.461 63.8717 36.3478 63.9513Z" fill="black"></path></mask><g mask="url(#mask5_673_14)"><path d="M34.4893 41.3072C37.0677 39.4324 39.8051 37.6729 42.2049 35.5785C42.3193 35.4769 42.1714 35.293 42.0402 35.3699C39.3168 36.9949 36.8109 39.0398 34.2437 40.8982C33.9954 41.0766 34.2382 41.4911 34.4893 41.3072Z" fill="#FAB81D"></path></g></g><mask id="mask6_673_14" style="mask-type:alpha" maskUnits="userSpaceOnUse" x="29" y="37" width="18" height="10"><path d="M29.4244 37.3125H46.5689V46.4477H29.4244V37.3125Z" fill="black"></path></mask><g mask="url(#mask6_673_14)"><mask id="mask7_673_14" style="mask-type:alpha" maskUnits="userSpaceOnUse" x="29" y="37" width="44" height="27"><path d="M36.3478 63.9513C36.4231 60.9648 36.1524 54.5197 36.1524 54.5197C36.1524 54.5197 32.8486 55.8812 31.4282 54.5828C28.4536 51.8571 28.9112 49.9246 29.8321 47.7863C30.7083 45.7496 34.3498 45.2445 35.8232 46.3178L35.4214 37.7344C35.4214 37.7344 41.7529 38.0034 43.8987 37.7344C43.3741 38.9202 43.2095 40.1005 43.4327 41.2259C44.1471 44.83 46.7533 46.4441 49.3401 46.3947C52.0552 46.3452 54.6084 44.1136 54.5498 41.58C54.5275 40.5809 54.2206 38.5606 53.6597 37.7344C57.2175 37.8524 60.926 38.1077 64.4671 37.7371L64.5731 45.4971C64.5731 45.4971 66.0465 44.8355 66.7273 44.7751C68.3179 44.6351 70.4889 45.0853 71.5576 46.348C72.6821 47.6765 73.0477 51.0336 71.7306 52.7986C70.3186 54.6926 67.1403 54.5801 65.1675 54.2314C65.374 57.3826 65.48 63.567 65.48 63.567L55.6437 63.5835C55.6437 63.5835 58.3476 59.9903 57.2677 56.5592C56.7627 54.9479 55.3144 53.6001 53.7797 53.1198C49.8145 51.879 45.9051 55.1565 46.3683 59.3068C46.5692 61.1158 47.6435 62.8094 49.1978 63.7619C45.1042 64.1818 40.4609 63.8717 36.3478 63.9513Z" fill="black"></path></mask><g mask="url(#mask7_673_14)"><path d="M30.3035 46.1968C35.3263 41.7445 40.7705 37.9236 46.0639 33.8171C46.2258 33.6936 46.0165 33.4356 45.8463 33.5399C40.1901 37.037 35.0249 41.5853 30.1138 46.0102C29.9854 46.1254 30.1752 46.3094 30.3035 46.1968Z" fill="#FAB81D"></path></g></g><mask id="mask8_673_14" style="mask-type:alpha" maskUnits="userSpaceOnUse" x="28" y="37" width="21" height="15"><path d="M28.7098 37.3125H48.7117V51.3666H28.7098V37.3125Z" fill="black"></path></mask><g mask="url(#mask8_673_14)"><mask id="mask9_673_14" style="mask-type:alpha" maskUnits="userSpaceOnUse" x="29" y="37" width="44" height="27"><path d="M36.3474 63.9513C36.4228 60.9648 36.1521 54.5197 36.1521 54.5197C36.1521 54.5197 32.8482 55.8812 31.4279 54.5828C28.4532 51.8571 28.9109 49.9246 29.8317 47.7863C30.7079 45.7496 34.3495 45.2445 35.8228 46.3178L35.421 37.7344C35.421 37.7344 41.7525 38.0034 43.8984 37.7344C43.3738 38.9202 43.2091 40.1005 43.4324 41.2259C44.1467 44.83 46.753 46.4441 49.3397 46.3947C52.0548 46.3452 54.6081 44.1136 54.5495 41.58C54.5272 40.5809 54.2202 38.5606 53.6593 37.7344C57.2171 37.8524 60.9256 38.1077 64.4667 37.7371L64.5728 45.4971C64.5728 45.4971 66.0461 44.8355 66.727 44.7751C68.3175 44.6351 70.4885 45.0853 71.5572 46.348C72.6818 47.6765 73.0473 51.0336 71.7302 52.7986C70.3183 54.6926 67.14 54.5801 65.1671 54.2314C65.3736 57.3826 65.4796 63.567 65.4796 63.567L55.6433 63.5835C55.6433 63.5835 58.3473 59.9903 57.2674 56.5592C56.7623 54.9479 55.3141 53.6001 53.7793 53.1198C49.8141 51.879 45.9047 55.1565 46.3679 59.3068C46.5688 61.1158 47.6431 62.8094 49.1974 63.7619C45.1038 64.1818 40.4605 63.8717 36.3474 63.9513Z" fill="black"></path></mask><g mask="url(#mask9_673_14)"><path d="M26.5501 50.9832C30.0131 47.939 33.5597 44.9828 37.1901 42.1363C40.8065 39.298 44.6657 36.7287 48.1956 33.7944C48.3379 33.6764 48.1565 33.454 48.0003 33.5446C44.1132 35.7982 40.5358 38.7298 37.0366 41.5269C33.3504 44.4749 29.7759 47.552 26.3018 50.7389C26.1371 50.8899 26.3827 51.1287 26.5501 50.9832Z" fill="#FAB81D"></path></g></g><mask id="mask10_673_14" style="mask-type:alpha" maskUnits="userSpaceOnUse" x="28" y="37" width="20" height="16"><path d="M28.7098 37.3125H47.9973V52.0693H28.7098V37.3125Z" fill="black"></path></mask><g mask="url(#mask10_673_14)"><mask id="mask11_673_14" style="mask-type:alpha" maskUnits="userSpaceOnUse" x="29" y="37" width="44" height="27"><path d="M36.3474 63.9513C36.4228 60.9648 36.1521 54.5197 36.1521 54.5197C36.1521 54.5197 32.8482 55.8812 31.4279 54.5828C28.4532 51.8571 28.9109 49.9246 29.8317 47.7863C30.7079 45.7496 34.3495 45.2445 35.8228 46.3178L35.421 37.7344C35.421 37.7344 41.7525 38.0034 43.8984 37.7344C43.3738 38.9202 43.2091 40.1005 43.4324 41.2259C44.1467 44.83 46.753 46.4441 49.3397 46.3947C52.0548 46.3452 54.6081 44.1136 54.5495 41.58C54.5272 40.5809 54.2202 38.5606 53.6593 37.7344C57.2171 37.8524 60.9256 38.1077 64.4667 37.7371L64.5728 45.4971C64.5728 45.4971 66.0461 44.8355 66.727 44.7751C68.3175 44.6351 70.4885 45.0853 71.5572 46.348C72.6818 47.6765 73.0473 51.0336 71.7302 52.7986C70.3183 54.6926 67.14 54.5801 65.1671 54.2314C65.3736 57.3826 65.4796 63.567 65.4796 63.567L55.6433 63.5835C55.6433 63.5835 58.3473 59.9903 57.2674 56.5592C56.7623 54.9479 55.3141 53.6001 53.7793 53.1198C49.8141 51.879 45.9047 55.1565 46.3679 59.3068C46.5688 61.1158 47.6431 62.8094 49.1974 63.7619C45.1038 64.1818 40.4605 63.8717 36.3474 63.9513Z" fill="black"></path></mask><g mask="url(#mask11_673_14)"><path d="M29.6866 51.6237C35.3847 46.6938 41.5042 42.3239 47.3222 37.5532C47.4897 37.4159 47.272 37.1387 47.0878 37.254C40.7368 41.2231 34.9383 46.3562 29.4076 51.3492C29.2206 51.5194 29.4969 51.7884 29.6866 51.6237Z" fill="#FAB81D"></path></g></g><mask id="mask12_673_14" style="mask-type:alpha" maskUnits="userSpaceOnUse" x="28" y="37" width="23" height="21"><path d="M28.7098 37.3125H50.1404V57.6909H28.7098V37.3125Z" fill="black"></path></mask><g mask="url(#mask12_673_14)"><mask id="mask13_673_14" style="mask-type:alpha" maskUnits="userSpaceOnUse" x="29" y="37" width="44" height="27"><path d="M36.3474 63.9513C36.4228 60.9648 36.1521 54.5197 36.1521 54.5197C36.1521 54.5197 32.8482 55.8812 31.4279 54.5828C28.4532 51.8571 28.9109 49.9246 29.8317 47.7863C30.7079 45.7496 34.3495 45.2445 35.8228 46.3178L35.421 37.7344C35.421 37.7344 41.7525 38.0034 43.8984 37.7344C43.3738 38.9202 43.2091 40.1005 43.4324 41.2259C44.1467 44.83 46.753 46.4441 49.3397 46.3947C52.0548 46.3452 54.6081 44.1136 54.5495 41.58C54.5272 40.5809 54.2202 38.5606 53.6593 37.7344C57.2171 37.8524 60.9256 38.1077 64.4667 37.7371L64.5728 45.4971C64.5728 45.4971 66.0461 44.8355 66.727 44.7751C68.3175 44.6351 70.4885 45.0853 71.5572 46.348C72.6818 47.6765 73.0473 51.0336 71.7302 52.7986C70.3183 54.6926 67.14 54.5801 65.1671 54.2314C65.3736 57.3826 65.4796 63.567 65.4796 63.567L55.6433 63.5835C55.6433 63.5835 58.3473 59.9903 57.2674 56.5592C56.7623 54.9479 55.3141 53.6001 53.7793 53.1198C49.8141 51.879 45.9047 55.1565 46.3679 59.3068C46.5688 61.1158 47.6431 62.8094 49.1974 63.7619C45.1038 64.1818 40.4605 63.8717 36.3474 63.9513Z" fill="black"></path></mask><g mask="url(#mask13_673_14)"><path d="M24.9122 57.5417C32.1144 49.2877 41.7023 43.6221 49.9397 36.4935C50.0736 36.3755 49.8951 36.1422 49.7416 36.2437C45.0788 39.3181 40.7005 42.8728 36.3419 46.3506C32.1478 49.6939 28.0598 53.1471 24.6443 57.2809C24.4936 57.4621 24.7532 57.7256 24.9122 57.5417Z" fill="#FAB81D"></path></g></g><mask id="mask14_673_14" style="mask-type:alpha" maskUnits="userSpaceOnUse" x="28" y="38" width="22" height="19"><path d="M28.71 38.0234H49.4262V56.2937H28.71V38.0234Z" fill="black"></path></mask><g mask="url(#mask14_673_14)"><mask id="mask15_673_14" style="mask-type:alpha" maskUnits="userSpaceOnUse" x="29" y="37" width="44" height="27"><path d="M36.3474 63.9513C36.4228 60.9648 36.1521 54.5197 36.1521 54.5197C36.1521 54.5197 32.8482 55.8812 31.4279 54.5828C28.4532 51.8571 28.9109 49.9246 29.8317 47.7863C30.7079 45.7496 34.3495 45.2445 35.8228 46.3178L35.421 37.7344C35.421 37.7344 41.7525 38.0034 43.8984 37.7344C43.3738 38.9202 43.2091 40.1005 43.4324 41.2259C44.1467 44.83 46.753 46.4441 49.3397 46.3947C52.0548 46.3452 54.6081 44.1136 54.5495 41.58C54.5272 40.5809 54.2202 38.5606 53.6593 37.7344C57.2171 37.8524 60.9256 38.1077 64.4667 37.7371L64.5728 45.4971C64.5728 45.4971 66.0461 44.8355 66.727 44.7751C68.3175 44.6351 70.4885 45.0853 71.5572 46.348C72.6818 47.6765 73.0473 51.0336 71.7302 52.7986C70.3183 54.6926 67.14 54.5801 65.1671 54.2314C65.3736 57.3826 65.4796 63.567 65.4796 63.567L55.6433 63.5835C55.6433 63.5835 58.3473 59.9903 57.2674 56.5592C56.7623 54.9479 55.3141 53.6001 53.7793 53.1198C49.8141 51.879 45.9047 55.1565 46.3679 59.3068C46.5688 61.1158 47.6431 62.8094 49.1974 63.7619C45.1038 64.1818 40.4605 63.8717 36.3474 63.9513Z" fill="black"></path></mask><g mask="url(#mask15_673_14)"><path d="M27.884 56.1598C31.2967 53.1101 34.7848 50.1429 38.3538 47.2717C41.9144 44.4142 45.7456 41.8449 49.2253 38.8996C49.4346 38.7239 49.1639 38.3836 48.9323 38.5263C45.1317 40.8513 41.6325 43.8432 38.1752 46.6294C34.5225 49.5747 30.9563 52.6216 27.4738 55.7535C27.1948 56.0033 27.6078 56.4068 27.884 56.1598Z" fill="#FAB81D"></path></g></g><mask id="mask16_673_14" style="mask-type:alpha" maskUnits="userSpaceOnUse" x="28" y="38" width="23" height="22"><path d="M28.7098 38.7344H50.8547V59.8155H28.7098V38.7344Z" fill="black"></path></mask><g mask="url(#mask16_673_14)"><mask id="mask17_673_14" style="mask-type:alpha" maskUnits="userSpaceOnUse" x="29" y="37" width="44" height="27"><path d="M36.3474 63.9513C36.4228 60.9648 36.1521 54.5197 36.1521 54.5197C36.1521 54.5197 32.8482 55.8812 31.4279 54.5828C28.4532 51.8571 28.9109 49.9246 29.8317 47.7863C30.7079 45.7496 34.3495 45.2445 35.8228 46.3178L35.421 37.7344C35.421 37.7344 41.7525 38.0034 43.8984 37.7344C43.3738 38.9202 43.2091 40.1005 43.4324 41.2259C44.1467 44.83 46.753 46.4441 49.3397 46.3947C52.0548 46.3452 54.6081 44.1136 54.5495 41.58C54.5272 40.5809 54.2202 38.5606 53.6593 37.7344C57.2171 37.8524 60.9256 38.1077 64.4667 37.7371L64.5728 45.4971C64.5728 45.4971 66.0461 44.8355 66.727 44.7751C68.3175 44.6351 70.4885 45.0853 71.5572 46.348C72.6818 47.6765 73.0473 51.0336 71.7302 52.7986C70.3183 54.6926 67.14 54.5801 65.1671 54.2314C65.3736 57.3826 65.4796 63.567 65.4796 63.567L55.6433 63.5835C55.6433 63.5835 58.3473 59.9903 57.2674 56.5592C56.7623 54.9479 55.3141 53.6001 53.7793 53.1198C49.8141 51.879 45.9047 55.1565 46.3679 59.3068C46.5688 61.1158 47.6431 62.8094 49.1974 63.7619C45.1038 64.1818 40.4605 63.8717 36.3474 63.9513Z" fill="black"></path></mask><g mask="url(#mask17_673_14)"><path d="M26.6088 59.3476C30.2531 55.7297 34.09 52.2848 38.0385 48.9909C41.9814 45.7052 46.301 42.8423 50.1964 39.5209C50.4225 39.3287 50.1323 38.9746 49.8811 39.1201C45.5727 41.6317 41.6074 45.126 37.832 48.3404C33.8305 51.7468 30.0299 55.3482 26.3298 59.0731C26.154 59.2515 26.4302 59.526 26.6088 59.3476Z" fill="#FAB81D"></path></g></g><mask id="mask18_673_14" style="mask-type:alpha" maskUnits="userSpaceOnUse" x="30" y="37" width="23" height="21"><path d="M30.1385 37.3125H52.9978V57.6909H30.1385V37.3125Z" fill="black"></path></mask><g mask="url(#mask18_673_14)"><mask id="mask19_673_14" style="mask-type:alpha" maskUnits="userSpaceOnUse" x="29" y="37" width="44" height="27"><path d="M36.3474 63.9513C36.4228 60.9648 36.1521 54.5197 36.1521 54.5197C36.1521 54.5197 32.8482 55.8812 31.4279 54.5828C28.4532 51.8571 28.9109 49.9246 29.8317 47.7863C30.7079 45.7496 34.3495 45.2445 35.8228 46.3178L35.421 37.7344C35.421 37.7344 41.7525 38.0034 43.8984 37.7344C43.3738 38.9202 43.2091 40.1005 43.4324 41.2259C44.1467 44.83 46.753 46.4441 49.3397 46.3947C52.0548 46.3452 54.6081 44.1136 54.5495 41.58C54.5272 40.5809 54.2202 38.5606 53.6593 37.7344C57.2171 37.8524 60.9256 38.1077 64.4667 37.7371L64.5728 45.4971C64.5728 45.4971 66.0461 44.8355 66.727 44.7751C68.3175 44.6351 70.4885 45.0853 71.5572 46.348C72.6818 47.6765 73.0473 51.0336 71.7302 52.7986C70.3183 54.6926 67.14 54.5801 65.1671 54.2314C65.3736 57.3826 65.4796 63.567 65.4796 63.567L55.6433 63.5835C55.6433 63.5835 58.3473 59.9903 57.2674 56.5592C56.7623 54.9479 55.3141 53.6001 53.7793 53.1198C49.8141 51.879 45.9047 55.1565 46.3679 59.3068C46.5688 61.1158 47.6431 62.8094 49.1974 63.7619C45.1038 64.1818 40.4605 63.8717 36.3474 63.9513Z" fill="black"></path></mask><g mask="url(#mask19_673_14)"><path d="M31.0038 57.1765C34.4277 53.781 37.9492 50.4816 41.5405 47.2591C43.2901 45.6835 45.062 44.1326 46.8535 42.6037C48.7092 41.0198 50.788 39.5513 52.4483 37.7726C52.5823 37.6298 52.4121 37.3883 52.2307 37.4953C50.3081 38.6592 48.6227 40.2759 46.9261 41.7308C45.0509 43.3366 43.2008 44.967 41.3731 46.625C37.7176 49.9409 34.1849 53.3885 30.7331 56.9075C30.5601 57.0832 30.8308 57.3495 31.0038 57.1765Z" fill="#FAB81D"></path></g></g><mask id="mask20_673_14" style="mask-type:alpha" maskUnits="userSpaceOnUse" x="28" y="37" width="29" height="25"><path d="M28.7098 37.3125H56.5696V61.9071H28.7098V37.3125Z" fill="black"></path></mask><g mask="url(#mask20_673_14)"><mask id="mask21_673_14" style="mask-type:alpha" maskUnits="userSpaceOnUse" x="29" y="37" width="44" height="27"><path d="M36.3474 63.9513C36.4228 60.9648 36.1521 54.5197 36.1521 54.5197C36.1521 54.5197 32.8482 55.8812 31.4279 54.5828C28.4532 51.8571 28.9109 49.9246 29.8317 47.7863C30.7079 45.7496 34.3495 45.2445 35.8228 46.3178L35.421 37.7344C35.421 37.7344 41.7525 38.0034 43.8984 37.7344C43.3738 38.9202 43.2091 40.1005 43.4324 41.2259C44.1467 44.83 46.753 46.4441 49.3397 46.3947C52.0548 46.3452 54.6081 44.1136 54.5495 41.58C54.5272 40.5809 54.2202 38.5606 53.6593 37.7344C57.2171 37.8524 60.9256 38.1077 64.4667 37.7371L64.5728 45.4971C64.5728 45.4971 66.0461 44.8355 66.727 44.7751C68.3175 44.6351 70.4885 45.0853 71.5572 46.348C72.6818 47.6765 73.0473 51.0336 71.7302 52.7986C70.3183 54.6926 67.14 54.5801 65.1671 54.2314C65.3736 57.3826 65.4796 63.567 65.4796 63.567L55.6433 63.5835C55.6433 63.5835 58.3473 59.9903 57.2674 56.5592C56.7623 54.9479 55.3141 53.6001 53.7793 53.1198C49.8141 51.879 45.9047 55.1565 46.3679 59.3068C46.5688 61.1158 47.6431 62.8094 49.1974 63.7619C45.1038 64.1818 40.4605 63.8717 36.3474 63.9513Z" fill="black"></path></mask><g mask="url(#mask21_673_14)"><path d="M29.2318 61.513C33.2696 56.896 37.6813 52.57 42.2408 48.4581C46.8144 44.3352 51.8232 40.7778 56.4972 36.7921C56.6814 36.6329 56.4414 36.3337 56.2349 36.46C51.1145 39.5727 46.4488 43.8054 42.0483 47.824C37.4162 52.0512 33.1468 56.5968 29.003 61.2879C28.869 61.4417 29.0979 61.6667 29.2318 61.513Z" fill="#FAB81D"></path></g></g><mask id="mask22_673_14" style="mask-type:alpha" maskUnits="userSpaceOnUse" x="29" y="37" width="33" height="27"><path d="M29.4244 37.3125H61.5703V63.3126H29.4244V37.3125Z" fill="black"></path></mask><g mask="url(#mask22_673_14)"><mask id="mask23_673_14" style="mask-type:alpha" maskUnits="userSpaceOnUse" x="29" y="37" width="44" height="27"><path d="M36.3478 63.9513C36.4231 60.9648 36.1524 54.5197 36.1524 54.5197C36.1524 54.5197 32.8486 55.8812 31.4282 54.5828C28.4536 51.8571 28.9112 49.9246 29.8321 47.7863C30.7083 45.7496 34.3498 45.2445 35.8232 46.3178L35.4214 37.7344C35.4214 37.7344 41.7529 38.0034 43.8987 37.7344C43.3741 38.9202 43.2095 40.1005 43.4327 41.2259C44.1471 44.83 46.7533 46.4441 49.3401 46.3947C52.0552 46.3452 54.6084 44.1136 54.5498 41.58C54.5275 40.5809 54.2206 38.5606 53.6597 37.7344C57.2175 37.8524 60.926 38.1077 64.4671 37.7371L64.5731 45.4971C64.5731 45.4971 66.0465 44.8355 66.7273 44.7751C68.3179 44.6351 70.4889 45.0853 71.5576 46.348C72.6821 47.6765 73.0477 51.0336 71.7306 52.7986C70.3186 54.6926 67.1403 54.5801 65.1675 54.2314C65.374 57.3826 65.48 63.567 65.48 63.567L55.6437 63.5835C55.6437 63.5835 58.3476 59.9903 57.2677 56.5592C56.7627 54.9479 55.3144 53.6001 53.7797 53.1198C49.8145 51.879 45.9051 55.1565 46.3683 59.3068C46.5692 61.1158 47.6435 62.8094 49.1978 63.7619C45.1042 64.1818 40.4609 63.8717 36.3478 63.9513Z" fill="black"></path></mask><g mask="url(#mask23_673_14)"><path d="M29.8347 62.655C34.5115 57.349 39.5008 52.3203 44.7887 47.6017C47.3894 45.2823 50.0626 43.0396 52.8001 40.8794C55.61 38.6642 58.6265 36.6714 61.3528 34.3629C61.5146 34.2257 61.3081 33.9786 61.1323 34.0774C58.1828 35.7463 55.4901 37.945 52.8419 40.0367C50.0208 42.2628 47.2722 44.5768 44.6017 46.9759C39.2469 51.7795 34.2325 56.9318 29.5361 62.3613C29.3631 62.5644 29.6561 62.8581 29.8347 62.655Z" fill="#FAB81D"></path></g></g><mask id="mask24_673_14" style="mask-type:alpha" maskUnits="userSpaceOnUse" x="30" y="37" width="33" height="26"><path d="M30.8531 37.3125H62.2846V62.6098H30.8531V37.3125Z" fill="black"></path></mask><g mask="url(#mask24_673_14)"><mask id="mask25_673_14" style="mask-type:alpha" maskUnits="userSpaceOnUse" x="29" y="37" width="44" height="27"><path d="M36.3474 63.9513C36.4228 60.9648 36.1521 54.5197 36.1521 54.5197C36.1521 54.5197 32.8482 55.8812 31.4279 54.5828C28.4532 51.8571 28.9109 49.9246 29.8317 47.7863C30.7079 45.7496 34.3495 45.2445 35.8228 46.3178L35.421 37.7344C35.421 37.7344 41.7525 38.0034 43.8984 37.7344C43.3738 38.9202 43.2091 40.1005 43.4324 41.2259C44.1467 44.83 46.753 46.4441 49.3397 46.3947C52.0548 46.3452 54.6081 44.1136 54.5495 41.58C54.5272 40.5809 54.2202 38.5606 53.6593 37.7344C57.2171 37.8524 60.9256 38.1077 64.4667 37.7371L64.5728 45.4971C64.5728 45.4971 66.0461 44.8355 66.727 44.7751C68.3175 44.6351 70.4885 45.0853 71.5572 46.348C72.6818 47.6765 73.0473 51.0336 71.7302 52.7986C70.3183 54.6926 67.14 54.5801 65.1671 54.2314C65.3736 57.3826 65.4796 63.567 65.4796 63.567L55.6433 63.5835C55.6433 63.5835 58.3473 59.9903 57.2674 56.5592C56.7623 54.9479 55.3141 53.6001 53.7793 53.1198C49.8141 51.879 45.9047 55.1565 46.3679 59.3068C46.5688 61.1158 47.6431 62.8094 49.1974 63.7619C45.1038 64.1818 40.4605 63.8717 36.3474 63.9513Z" fill="black"></path></mask><g mask="url(#mask25_673_14)"><path d="M31.2716 62.0075C36.007 57.2341 40.9684 52.6583 46.0275 48.2169C51.0866 43.7729 56.4498 39.7076 61.587 35.3597C61.7656 35.2087 61.5284 34.8985 61.3303 35.033C55.8778 38.7936 50.8271 43.2349 45.8712 47.6021C40.7313 52.1312 35.834 56.8937 31.0317 61.7714C30.8782 61.9252 31.1182 62.164 31.2716 62.0075Z" fill="#FAB81D"></path></g></g><mask id="mask26_673_14" style="mask-type:alpha" maskUnits="userSpaceOnUse" x="31" y="37" width="33" height="27"><path d="M31.5673 37.3125H63.7132V63.3126H31.5673V37.3125Z" fill="black"></path></mask><g mask="url(#mask26_673_14)"><mask id="mask27_673_14" style="mask-type:alpha" maskUnits="userSpaceOnUse" x="29" y="37" width="44" height="27"><path d="M36.3478 63.9513C36.4232 60.9648 36.1525 54.5197 36.1525 54.5197C36.1525 54.5197 32.8486 55.8812 31.4283 54.5828C28.4537 51.8571 28.9113 49.9246 29.8322 47.7863C30.7084 45.7496 34.3499 45.2445 35.8232 46.3178L35.4214 37.7344C35.4214 37.7344 41.7529 38.0034 43.8988 37.7344C43.3742 38.9202 43.2095 40.1005 43.4328 41.2259C44.1471 44.83 46.7534 46.4441 49.3401 46.3947C52.0553 46.3452 54.6085 44.1136 54.5499 41.58C54.5276 40.5809 54.2206 38.5606 53.6598 37.7344C57.2176 37.8524 60.9261 38.1077 64.4671 37.7371L64.5732 45.4971C64.5732 45.4971 66.0465 44.8355 66.7274 44.7751C68.318 44.6351 70.4889 45.0853 71.5577 46.348C72.6822 47.6765 73.0478 51.0336 71.7307 52.7986C70.3187 54.6926 67.1404 54.5801 65.1675 54.2314C65.374 57.3826 65.4801 63.567 65.4801 63.567L55.6438 63.5835C55.6438 63.5835 58.3477 59.9903 57.2678 56.5592C56.7627 54.9479 55.3145 53.6001 53.7797 53.1198C49.8145 51.879 45.9051 55.1565 46.3683 59.3068C46.5692 61.1158 47.6436 62.8094 49.1978 63.7619C45.1043 64.1818 40.461 63.8717 36.3478 63.9513Z" fill="black"></path></mask><g mask="url(#mask27_673_14)"><path d="M32.1061 62.9998C37.0703 58.1934 42.1349 53.4885 47.3084 48.899C52.4735 44.3232 57.94 40.0438 62.9935 35.3555C63.1498 35.21 62.9377 34.9273 62.7591 35.0563C57.2229 39.009 52.1415 43.6919 47.088 48.2128C41.8503 52.8984 36.7299 57.7048 31.7126 62.6127C31.4587 62.8625 31.8494 63.2495 32.1061 62.9998Z" fill="#FAB81D"></path></g></g><mask id="mask28_673_14" style="mask-type:alpha" maskUnits="userSpaceOnUse" x="32" y="37" width="33" height="28"><path d="M32.996 37.3125H64.4276V64.0153H32.996V37.3125Z" fill="black"></path></mask><g mask="url(#mask28_673_14)"><mask id="mask29_673_14" style="mask-type:alpha" maskUnits="userSpaceOnUse" x="29" y="37" width="44" height="27"><path d="M36.3474 63.9513C36.4228 60.9648 36.1521 54.5197 36.1521 54.5197C36.1521 54.5197 32.8482 55.8812 31.4279 54.5828C28.4532 51.8571 28.9109 49.9246 29.8317 47.7863C30.7079 45.7496 34.3495 45.2445 35.8228 46.3178L35.421 37.7344C35.421 37.7344 41.7525 38.0034 43.8984 37.7344C43.3738 38.9202 43.2091 40.1005 43.4324 41.2259C44.1467 44.83 46.753 46.4441 49.3397 46.3947C52.0548 46.3452 54.6081 44.1136 54.5495 41.58C54.5272 40.5809 54.2202 38.5606 53.6593 37.7344C57.2171 37.8524 60.9256 38.1077 64.4667 37.7371L64.5728 45.4971C64.5728 45.4971 66.0461 44.8355 66.727 44.7751C68.3175 44.6351 70.4885 45.0853 71.5572 46.348C72.6818 47.6765 73.0473 51.0336 71.7302 52.7986C70.3183 54.6926 67.14 54.5801 65.1671 54.2314C65.3736 57.3826 65.4796 63.567 65.4796 63.567L55.6433 63.5835C55.6433 63.5835 58.3473 59.9903 57.2674 56.5592C56.7623 54.9479 55.3141 53.6001 53.7793 53.1198C49.8141 51.879 45.9047 55.1565 46.3679 59.3068C46.5688 61.1158 47.6431 62.8094 49.1974 63.7619C45.1038 64.1818 40.4605 63.8717 36.3474 63.9513Z" fill="black"></path></mask><g mask="url(#mask29_673_14)"><path d="M33.4342 64.3805C38.2896 59.4699 43.3291 54.7266 48.4719 50.1124C53.6091 45.5064 59.1035 41.2572 64.171 36.5853C64.3998 36.3739 64.09 35.9622 63.8277 36.1489C58.2943 40.0714 53.2157 44.8393 48.2236 49.3987C43.0361 54.1364 38.0217 59.0444 33.0882 64.0374C32.865 64.2625 33.2138 64.6056 33.4342 64.3805Z" fill="#FAB81D"></path></g></g><mask id="mask30_673_14" style="mask-type:alpha" maskUnits="userSpaceOnUse" x="32" y="38" width="34" height="27"><path d="M32.996 38.0234H65.1419V64.0235H32.996V38.0234Z" fill="black"></path></mask><g mask="url(#mask30_673_14)"><mask id="mask31_673_14" style="mask-type:alpha" maskUnits="userSpaceOnUse" x="29" y="37" width="44" height="27"><path d="M36.3474 63.9513C36.4228 60.9648 36.1521 54.5197 36.1521 54.5197C36.1521 54.5197 32.8482 55.8812 31.4279 54.5828C28.4532 51.8571 28.9109 49.9246 29.8317 47.7863C30.7079 45.7496 34.3495 45.2445 35.8228 46.3178L35.421 37.7344C35.421 37.7344 41.7525 38.0034 43.8984 37.7344C43.3738 38.9202 43.2091 40.1005 43.4324 41.2259C44.1467 44.83 46.753 46.4441 49.3397 46.3947C52.0548 46.3452 54.6081 44.1136 54.5495 41.58C54.5272 40.5809 54.2202 38.5606 53.6593 37.7344C57.2171 37.8524 60.9256 38.1077 64.4667 37.7371L64.5728 45.4971C64.5728 45.4971 66.0461 44.8355 66.727 44.7751C68.3175 44.6351 70.4885 45.0853 71.5572 46.348C72.6818 47.6765 73.0473 51.0336 71.7302 52.7986C70.3183 54.6926 67.14 54.5801 65.1671 54.2314C65.3736 57.3826 65.4796 63.567 65.4796 63.567L55.6433 63.5835C55.6433 63.5835 58.3473 59.9903 57.2674 56.5592C56.7623 54.9479 55.3141 53.6001 53.7793 53.1198C49.8141 51.879 45.9047 55.1565 46.3679 59.3068C46.5688 61.1158 47.6431 62.8094 49.1974 63.7619C45.1038 64.1818 40.4605 63.8717 36.3474 63.9513Z" fill="black"></path></mask><g mask="url(#mask31_673_14)"><path d="M33.7244 66.9209C38.4402 61.8647 43.3682 57.0062 48.5137 52.37C53.6565 47.7393 59.2569 43.6603 64.4723 39.1284C64.7206 38.9115 64.3942 38.4861 64.1123 38.67C58.431 42.3674 53.2435 47.1271 48.2263 51.6371C42.9942 56.3364 37.991 61.2718 33.2026 66.4103C32.8845 66.7534 33.4035 67.2667 33.7244 66.9209Z" fill="#FAB81D"></path></g></g><mask id="mask32_673_14" style="mask-type:alpha" maskUnits="userSpaceOnUse" x="32" y="37" width="38" height="28"><path d="M32.2818 37.3125H69.4282V64.0153H32.2818V37.3125Z" fill="black"></path></mask><g mask="url(#mask32_673_14)"><mask id="mask33_673_14" style="mask-type:alpha" maskUnits="userSpaceOnUse" x="29" y="37" width="44" height="27"><path d="M36.3474 63.9513C36.4228 60.9648 36.1521 54.5197 36.1521 54.5197C36.1521 54.5197 32.8482 55.8812 31.4279 54.5828C28.4532 51.8571 28.9109 49.9246 29.8317 47.7863C30.7079 45.7496 34.3495 45.2445 35.8228 46.3178L35.421 37.7344C35.421 37.7344 41.7525 38.0034 43.8984 37.7344C43.3738 38.9202 43.2091 40.1005 43.4324 41.2259C44.1467 44.83 46.753 46.4441 49.3397 46.3947C52.0548 46.3452 54.6081 44.1136 54.5495 41.58C54.5272 40.5809 54.2202 38.5606 53.6593 37.7344C57.2171 37.8524 60.9256 38.1077 64.4667 37.7371L64.5728 45.4971C64.5728 45.4971 66.0461 44.8355 66.727 44.7751C68.3175 44.6351 70.4885 45.0853 71.5572 46.348C72.6818 47.6765 73.0473 51.0336 71.7302 52.7986C70.3183 54.6926 67.14 54.5801 65.1671 54.2314C65.3736 57.3826 65.4796 63.567 65.4796 63.567L55.6433 63.5835C55.6433 63.5835 58.3473 59.9903 57.2674 56.5592C56.7623 54.9479 55.3141 53.6001 53.7793 53.1198C49.8141 51.879 45.9047 55.1565 46.3679 59.3068C46.5688 61.1158 47.6431 62.8094 49.1974 63.7619C45.1038 64.1818 40.4605 63.8717 36.3474 63.9513Z" fill="black"></path></mask><g mask="url(#mask33_673_14)"><path d="M32.7143 70.5392C38.2254 64.3246 44.1105 58.4093 50.2355 52.7794C56.3633 47.1441 62.8985 42.0303 69.3277 36.7408C69.5314 36.5706 69.2607 36.222 69.0375 36.373C62.2511 41.0174 55.9922 46.51 49.9732 52.074C43.7728 57.8054 37.952 63.8855 32.3794 70.2071C32.1813 70.4349 32.5134 70.767 32.7143 70.5392Z" fill="#FAB81D"></path></g></g><mask id="mask34_673_14" style="mask-type:alpha" maskUnits="userSpaceOnUse" x="32" y="38" width="36" height="27"><path d="M32.2818 38.7344H67.9995V64.0317H32.2818V38.7344Z" fill="black"></path></mask><g mask="url(#mask34_673_14)"><mask id="mask35_673_14" style="mask-type:alpha" maskUnits="userSpaceOnUse" x="29" y="37" width="44" height="27"><path d="M36.3474 63.9513C36.4228 60.9648 36.1521 54.5197 36.1521 54.5197C36.1521 54.5197 32.8482 55.8812 31.4279 54.5828C28.4532 51.8571 28.9109 49.9246 29.8317 47.7863C30.7079 45.7496 34.3495 45.2445 35.8228 46.3178L35.421 37.7344C35.421 37.7344 41.7525 38.0034 43.8984 37.7344C43.3738 38.9202 43.2091 40.1005 43.4324 41.2259C44.1467 44.83 46.753 46.4441 49.3397 46.3947C52.0548 46.3452 54.6081 44.1136 54.5495 41.58C54.5272 40.5809 54.2202 38.5606 53.6593 37.7344C57.2171 37.8524 60.9256 38.1077 64.4667 37.7371L64.5728 45.4971C64.5728 45.4971 66.0461 44.8355 66.727 44.7751C68.3175 44.6351 70.4885 45.0853 71.5572 46.348C72.6818 47.6765 73.0473 51.0336 71.7302 52.7986C70.3183 54.6926 67.14 54.5801 65.1671 54.2314C65.3736 57.3826 65.4796 63.567 65.4796 63.567L55.6433 63.5835C55.6433 63.5835 58.3473 59.9903 57.2674 56.5592C56.7623 54.9479 55.3141 53.6001 53.7793 53.1198C49.8141 51.879 45.9047 55.1565 46.3679 59.3068C46.5688 61.1158 47.6431 62.8094 49.1974 63.7619C45.1038 64.1818 40.4605 63.8717 36.3474 63.9513Z" fill="black"></path></mask><g mask="url(#mask35_673_14)"><path d="M33.3394 71.7472C38.5324 65.8895 44.0547 60.2925 49.7639 54.918C52.5767 52.2664 55.4536 49.6806 58.3892 47.158C61.4001 44.5723 64.5979 42.1842 67.5614 39.5518C67.8097 39.3295 67.4804 38.893 67.1986 39.0879C60.8587 43.4606 55.0825 48.9505 49.5072 54.2153C43.7142 59.6859 38.2784 65.4695 33.0408 71.4535C32.865 71.6566 33.1608 71.9503 33.3394 71.7472Z" fill="#FAB81D"></path></g></g><mask id="mask36_673_14" style="mask-type:alpha" maskUnits="userSpaceOnUse" x="37" y="37" width="34" height="28"><path d="M37.282 37.3125H70.8567V64.0153H37.282V37.3125Z" fill="black"></path></mask><g mask="url(#mask36_673_14)"><mask id="mask37_673_14" style="mask-type:alpha" maskUnits="userSpaceOnUse" x="29" y="37" width="44" height="27"><path d="M36.3472 63.9513C36.4226 60.9648 36.1519 54.5197 36.1519 54.5197C36.1519 54.5197 32.848 55.8812 31.4277 54.5828C28.4531 51.8571 28.9107 49.9246 29.8315 47.7863C30.7077 45.7496 34.3493 45.2445 35.8226 46.3178L35.4208 37.7344C35.4208 37.7344 41.7523 38.0034 43.8982 37.7344C43.3736 38.9202 43.2089 40.1005 43.4322 41.2259C44.1465 44.83 46.7528 46.4441 49.3395 46.3947C52.0546 46.3452 54.6079 44.1136 54.5493 41.58C54.527 40.5809 54.22 38.5606 53.6591 37.7344C57.217 37.8524 60.9255 38.1077 64.4665 37.7371L64.5726 45.4971C64.5726 45.4971 66.0459 44.8355 66.7268 44.7751C68.3173 44.6351 70.4883 45.0853 71.557 46.348C72.6816 47.6765 73.0471 51.0336 71.7301 52.7986C70.3181 54.6926 67.1398 54.5801 65.1669 54.2314C65.3734 57.3826 65.4795 63.567 65.4795 63.567L55.6431 63.5835C55.6431 63.5835 58.3471 59.9903 57.2672 56.5592C56.7621 54.9479 55.3139 53.6001 53.7791 53.1198C49.8139 51.879 45.9045 55.1565 46.3677 59.3068C46.5686 61.1158 47.6429 62.8094 49.1972 63.7619C45.1036 64.1818 40.4603 63.8717 36.3472 63.9513Z" fill="black"></path></mask><g mask="url(#mask37_673_14)"><path d="M38.2671 68.5275C43.209 63.0513 48.3601 57.7673 53.729 52.6974C56.3352 50.2407 58.9917 47.8389 61.6817 45.4755C64.528 42.9748 67.5696 40.6581 70.3488 38.0916C70.5805 37.8802 70.2735 37.4685 70.0084 37.6579C64.0982 41.8329 58.7266 47.0566 53.5057 52.0222C48.0783 57.1881 42.8741 62.5737 37.8792 68.1459C37.6476 68.4039 38.0327 68.7855 38.2671 68.5275Z" fill="#FAB81D"></path></g></g><mask id="mask38_673_14" style="mask-type:alpha" maskUnits="userSpaceOnUse" x="39" y="37" width="34" height="28"><path d="M39.425 37.3125H72.9996V64.0153H39.425V37.3125Z" fill="black"></path></mask><g mask="url(#mask38_673_14)"><mask id="mask39_673_14" style="mask-type:alpha" maskUnits="userSpaceOnUse" x="29" y="37" width="44" height="27"><path d="M36.3472 63.9513C36.4226 60.9648 36.1519 54.5197 36.1519 54.5197C36.1519 54.5197 32.848 55.8812 31.4277 54.5828C28.4531 51.8571 28.9107 49.9246 29.8315 47.7863C30.7077 45.7496 34.3493 45.2445 35.8226 46.3178L35.4208 37.7344C35.4208 37.7344 41.7523 38.0034 43.8982 37.7344C43.3736 38.9202 43.2089 40.1005 43.4322 41.2259C44.1465 44.83 46.7528 46.4441 49.3395 46.3947C52.0546 46.3452 54.6079 44.1136 54.5493 41.58C54.527 40.5809 54.22 38.5606 53.6591 37.7344C57.217 37.8524 60.9255 38.1077 64.4665 37.7371L64.5726 45.4971C64.5726 45.4971 66.0459 44.8355 66.7268 44.7751C68.3173 44.6351 70.4883 45.0853 71.557 46.348C72.6816 47.6765 73.0471 51.0336 71.7301 52.7986C70.3181 54.6926 67.1398 54.5801 65.1669 54.2314C65.3734 57.3826 65.4795 63.567 65.4795 63.567L55.6431 63.5835C55.6431 63.5835 58.3471 59.9903 57.2672 56.5592C56.7621 54.9479 55.3139 53.6001 53.7791 53.1198C49.8139 51.879 45.9045 55.1565 46.3677 59.3068C46.5686 61.1158 47.6429 62.8094 49.1972 63.7619C45.1036 64.1818 40.4603 63.8717 36.3472 63.9513Z" fill="black"></path></mask><g mask="url(#mask39_673_14)"><path d="M40.1674 67.4066C45.3604 61.9826 50.7571 56.7508 56.3436 51.7193C61.93 46.6906 67.8514 42.0791 73.5634 37.2013C73.7671 37.0256 73.4964 36.6715 73.2704 36.828C67.1844 41.0689 61.5729 46.051 56.0924 51.0138C50.439 56.1359 45.0227 61.4995 39.8102 67.058C39.5925 67.2913 39.9441 67.6399 40.1674 67.4066Z" fill="#FAB81D"></path></g></g><mask id="mask40_673_14" style="mask-type:alpha" maskUnits="userSpaceOnUse" x="40" y="38" width="33" height="27"><path d="M40.854 38.0234H72.9999V64.0235H40.854V38.0234Z" fill="black"></path></mask><g mask="url(#mask40_673_14)"><mask id="mask41_673_14" style="mask-type:alpha" maskUnits="userSpaceOnUse" x="29" y="37" width="44" height="27"><path d="M36.3474 63.9513C36.4228 60.9648 36.1521 54.5197 36.1521 54.5197C36.1521 54.5197 32.8482 55.8812 31.4279 54.5828C28.4532 51.8571 28.9109 49.9246 29.8317 47.7863C30.7079 45.7496 34.3495 45.2445 35.8228 46.3178L35.421 37.7344C35.421 37.7344 41.7525 38.0034 43.8984 37.7344C43.3738 38.9202 43.2091 40.1005 43.4324 41.2259C44.1467 44.83 46.753 46.4441 49.3397 46.3947C52.0548 46.3452 54.6081 44.1136 54.5495 41.58C54.5272 40.5809 54.2202 38.5606 53.6593 37.7344C57.2171 37.8524 60.9256 38.1077 64.4667 37.7371L64.5728 45.4971C64.5728 45.4971 66.0461 44.8355 66.727 44.7751C68.3175 44.6351 70.4885 45.0853 71.5572 46.348C72.6818 47.6765 73.0473 51.0336 71.7302 52.7986C70.3183 54.6926 67.14 54.5801 65.1671 54.2314C65.3736 57.3826 65.4796 63.567 65.4796 63.567L55.6433 63.5835C55.6433 63.5835 58.3473 59.9903 57.2674 56.5592C56.7623 54.9479 55.3141 53.6001 53.7793 53.1198C49.8141 51.879 45.9047 55.1565 46.3679 59.3068C46.5688 61.1158 47.6431 62.8094 49.1974 63.7619C45.1038 64.1818 40.4605 63.8717 36.3474 63.9513Z" fill="black"></path></mask><g mask="url(#mask41_673_14)"><path d="M41.8948 68.5651C46.7139 63.2646 51.7479 58.159 56.9939 53.2675C59.5332 50.8959 62.1227 48.5764 64.7625 46.3119C67.5473 43.921 70.575 41.7196 73.2287 39.1915C73.4659 38.9664 73.1561 38.5492 72.8715 38.7331C70.0448 40.5722 67.4804 42.9246 64.9327 45.1151C62.1311 47.5224 59.3825 49.9873 56.6925 52.5154C51.3823 57.5002 46.3149 62.7238 41.4651 68.1423C41.2056 68.4306 41.6325 68.8533 41.8948 68.5651Z" fill="#FAB81D"></path></g></g><mask id="mask42_673_14" style="mask-type:alpha" maskUnits="userSpaceOnUse" x="42" y="38" width="31" height="27"><path d="M42.2827 38.0234H72.9999V64.0235H42.2827V38.0234Z" fill="black"></path></mask><g mask="url(#mask42_673_14)"><mask id="mask43_673_14" style="mask-type:alpha" maskUnits="userSpaceOnUse" x="29" y="37" width="44" height="27"><path d="M36.3476 63.9513C36.4229 60.9648 36.1523 54.5197 36.1523 54.5197C36.1523 54.5197 32.8484 55.8812 31.428 54.5828C28.4534 51.8571 28.9111 49.9246 29.8319 47.7863C30.7081 45.7496 34.3496 45.2445 35.823 46.3178L35.4212 37.7344C35.4212 37.7344 41.7527 38.0034 43.8985 37.7344C43.3739 38.9202 43.2093 40.1005 43.4325 41.2259C44.1469 44.83 46.7532 46.4441 49.3399 46.3947C52.055 46.3452 54.6083 44.1136 54.5497 41.58C54.5273 40.5809 54.2204 38.5606 53.6595 37.7344C57.2173 37.8524 60.9258 38.1077 64.4669 37.7371L64.5729 45.4971C64.5729 45.4971 66.0463 44.8355 66.7272 44.7751C68.3177 44.6351 70.4887 45.0853 71.5574 46.348C72.682 47.6765 73.0475 51.0336 71.7304 52.7986C70.3185 54.6926 67.1401 54.5801 65.1673 54.2314C65.3738 57.3826 65.4798 63.567 65.4798 63.567L55.6435 63.5835C55.6435 63.5835 58.3475 59.9903 57.2676 56.5592C56.7625 54.9479 55.3142 53.6001 53.7795 53.1198C49.8143 51.879 45.9049 55.1565 46.3681 59.3068C46.569 61.1158 47.6433 62.8094 49.1976 63.7619C45.104 64.1818 40.4607 63.8717 36.3476 63.9513Z" fill="black"></path></mask><g mask="url(#mask43_673_14)"><path d="M43.3403 69.1726C48.4942 63.6031 53.8938 58.2533 59.5388 53.1669C62.279 50.6964 65.0667 48.2809 67.9102 45.9285C70.9043 43.4498 74.1412 41.1852 77.0293 38.594C77.2805 38.3689 76.954 37.949 76.6666 38.1301C73.6361 40.0351 70.8401 42.4699 68.086 44.7372C65.0695 47.2214 62.1088 49.7714 59.2235 52.3983C53.5198 57.5862 48.0757 63.0432 42.8855 68.7252C42.6064 69.0271 43.0613 69.4773 43.3403 69.1726Z" fill="#FAB81D"></path></g></g><mask id="mask44_673_14" style="mask-type:alpha" maskUnits="userSpaceOnUse" x="47" y="38" width="26" height="27"><path d="M47.9974 38.7344H72.9998V64.0317H47.9974V38.7344Z" fill="black"></path></mask><g mask="url(#mask44_673_14)"><mask id="mask45_673_14" style="mask-type:alpha" maskUnits="userSpaceOnUse" x="29" y="37" width="44" height="27"><path d="M36.3472 63.9513C36.4225 60.9648 36.1518 54.5197 36.1518 54.5197C36.1518 54.5197 32.848 55.8812 31.4276 54.5828C28.453 51.8571 28.9106 49.9246 29.8315 47.7863C30.7077 45.7496 34.3492 45.2445 35.8226 46.3178L35.4207 37.7344C35.4207 37.7344 41.7523 38.0034 43.8981 37.7344C43.3735 38.9202 43.2089 40.1005 43.4321 41.2259C44.1465 44.83 46.7527 46.4441 49.3395 46.3947C52.0546 46.3452 54.6078 44.1136 54.5492 41.58C54.5269 40.5809 54.22 38.5606 53.6591 37.7344C57.2169 37.8524 60.9254 38.1077 64.4665 37.7371L64.5725 45.4971C64.5725 45.4971 66.0459 44.8355 66.7267 44.7751C68.3173 44.6351 70.4883 45.0853 71.557 46.348C72.6815 47.6765 73.0471 51.0336 71.73 52.7986C70.318 54.6926 67.1397 54.5801 65.1669 54.2314C65.3734 57.3826 65.4794 63.567 65.4794 63.567L55.6431 63.5835C55.6431 63.5835 58.347 59.9903 57.2671 56.5592C56.7621 54.9479 55.3138 53.6001 53.7791 53.1198C49.8139 51.879 45.9044 55.1565 46.3677 59.3068C46.5686 61.1158 47.6429 62.8094 49.1972 63.7619C45.1036 64.1818 40.4603 63.8717 36.3472 63.9513Z" fill="black"></path></mask><g mask="url(#mask45_673_14)"><path d="M48.6196 65.4184C53.2796 60.6642 58.1266 56.0883 63.1661 51.7294C65.6022 49.6213 68.0857 47.5653 70.611 45.5615C73.2899 43.4369 76.1724 41.4935 78.7173 39.218C78.9294 39.0286 78.6559 38.6882 78.4103 38.8309C75.6227 40.4559 73.0694 42.6025 70.5497 44.6008C67.9378 46.6705 65.3818 48.8033 62.8731 50.9883C57.761 55.435 52.8778 60.1179 48.2094 65.0121C47.9526 65.2811 48.36 65.6846 48.6196 65.4184Z" fill="#FAB81D"></path></g></g><mask id="mask46_673_14" style="mask-type:alpha" maskUnits="userSpaceOnUse" x="48" y="40" width="25" height="25"><path d="M48.7117 40.8281H72.9997V64.0174H48.7117V40.8281Z" fill="black"></path></mask><g mask="url(#mask46_673_14)"><mask id="mask47_673_14" style="mask-type:alpha" maskUnits="userSpaceOnUse" x="29" y="37" width="44" height="28"><path d="M36.3476 63.9747C36.4229 60.9882 36.1523 54.5431 36.1523 54.5431C36.1523 54.5431 32.8484 55.9046 31.428 54.6062C28.4534 51.8805 28.9111 49.9481 29.8319 47.8098C30.7081 45.773 34.3496 45.268 35.823 46.3412L35.4212 37.7578C35.4212 37.7578 41.7527 38.0268 43.8985 37.7578C43.3739 38.9436 43.2093 40.1239 43.4325 41.2494C44.1469 44.8535 46.7532 46.4675 49.3399 46.4181C52.055 46.3687 54.6083 44.137 54.5497 41.6035C54.5273 40.6043 54.2204 38.584 53.6595 37.7578C57.2173 37.8758 60.9258 38.1311 64.4669 37.7606L64.5729 45.5205C64.5729 45.5205 66.0463 44.859 66.7272 44.7986C68.3177 44.6586 70.4887 45.1088 71.5574 46.3714C72.682 47.7 73.0475 51.057 71.7304 52.822C70.3185 54.716 67.1401 54.6035 65.1673 54.2549C65.3738 57.4061 65.4798 63.5904 65.4798 63.5904L55.6435 63.6069C55.6435 63.6069 58.3475 60.0138 57.2676 56.5826C56.7625 54.9713 55.3142 53.6236 53.7795 53.1432C49.8143 51.9025 45.9049 55.1799 46.3681 59.3303C46.569 61.1392 47.6433 62.8328 49.1976 63.7853C45.104 64.2053 40.4607 63.8951 36.3476 63.9747Z" fill="black"></path></mask><g mask="url(#mask47_673_14)"><path d="M49.948 65.9761C54.2174 61.6144 58.657 57.4147 63.2724 53.4071C67.8711 49.4077 72.9134 45.8859 77.459 41.8454C77.6879 41.6423 77.3921 41.2717 77.1326 41.4282C72.0372 44.5327 67.4134 48.7215 62.9431 52.6248C58.2552 56.7147 53.7514 61.0023 49.4207 65.4573C49.0886 65.7977 49.6132 66.3165 49.948 65.9761Z" fill="#FAB81D"></path></g></g><mask id="mask48_673_14" style="mask-type:alpha" maskUnits="userSpaceOnUse" x="51" y="42" width="22" height="23"><path d="M51.5692 42.2422H72.9998V64.026H51.5692V42.2422Z" fill="black"></path></mask><g mask="url(#mask48_673_14)"><mask id="mask49_673_14" style="mask-type:alpha" maskUnits="userSpaceOnUse" x="29" y="37" width="44" height="27"><path d="M36.3473 63.9513C36.4226 60.9648 36.152 54.5197 36.152 54.5197C36.152 54.5197 32.8481 55.8812 31.4277 54.5828C28.4531 51.8571 28.9108 49.9246 29.8316 47.7863C30.7078 45.7496 34.3493 45.2445 35.8227 46.3178L35.4209 37.7344C35.4209 37.7344 41.7524 38.0034 43.8982 37.7344C43.3736 38.9202 43.209 40.1005 43.4322 41.2259C44.1466 44.83 46.7529 46.4441 49.3396 46.3947C52.0547 46.3452 54.608 44.1136 54.5494 41.58C54.527 40.5809 54.2201 38.5606 53.6592 37.7344C57.217 37.8524 60.9255 38.1077 64.4666 37.7371L64.5726 45.4971C64.5726 45.4971 66.046 44.8355 66.7269 44.7751C68.3174 44.6351 70.4884 45.0853 71.5571 46.348C72.6817 47.6765 73.0472 51.0336 71.7301 52.7986C70.3182 54.6926 67.1398 54.5801 65.167 54.2314C65.3735 57.3826 65.4795 63.567 65.4795 63.567L55.6432 63.5835C55.6432 63.5835 58.3472 59.9903 57.2672 56.5592C56.7622 54.9479 55.3139 53.6001 53.7792 53.1198C49.814 51.879 45.9046 55.1565 46.3678 59.3068C46.5687 61.1158 47.643 62.8094 49.1973 63.7619C45.1037 64.1818 40.4604 63.8717 36.3473 63.9513Z" fill="black"></path></mask><g mask="url(#mask49_673_14)"><path d="M52.6044 65.4992C56.5836 61.4669 60.719 57.5855 65.0163 53.8853C69.308 50.1907 73.9513 46.9105 78.243 43.2267C78.4886 43.0154 78.1704 42.6146 77.8942 42.7821C73.1672 45.6999 68.8615 49.4852 64.6759 53.0921C60.2977 56.8663 56.0869 60.8273 52.0379 64.9447C51.6808 65.307 52.2444 65.8642 52.6044 65.4992Z" fill="#FAB81D"></path></g></g><mask id="mask50_673_14" style="mask-type:alpha" maskUnits="userSpaceOnUse" x="50" y="42" width="23" height="23"><path d="M50.855 42.2422H72.9999V64.026H50.855V42.2422Z" fill="black"></path></mask><g mask="url(#mask50_673_14)"><mask id="mask51_673_14" style="mask-type:alpha" maskUnits="userSpaceOnUse" x="29" y="37" width="44" height="27"><path d="M36.3475 63.9513C36.4229 60.9648 36.1522 54.5197 36.1522 54.5197C36.1522 54.5197 32.8483 55.8812 31.428 54.5828C28.4534 51.8571 28.911 49.9246 29.8318 47.7863C30.708 45.7496 34.3496 45.2445 35.8229 46.3178L35.4211 37.7344C35.4211 37.7344 41.7526 38.0034 43.8985 37.7344C43.3739 38.9202 43.2092 40.1005 43.4325 41.2259C44.1468 44.83 46.7531 46.4441 49.3398 46.3947C52.0549 46.3452 54.6082 44.1136 54.5496 41.58C54.5273 40.5809 54.2203 38.5606 53.6594 37.7344C57.2173 37.8524 60.9258 38.1077 64.4668 37.7371L64.5729 45.4971C64.5729 45.4971 66.0462 44.8355 66.7271 44.7751C68.3176 44.6351 70.4886 45.0853 71.5574 46.348C72.6819 47.6765 73.0475 51.0336 71.7304 52.7986C70.3184 54.6926 67.1401 54.5801 65.1672 54.2314C65.3737 57.3826 65.4798 63.567 65.4798 63.567L55.6435 63.5835C55.6435 63.5835 58.3474 59.9903 57.2675 56.5592C56.7624 54.9479 55.3142 53.6001 53.7794 53.1198C49.8142 51.879 45.9048 55.1565 46.368 59.3068C46.5689 61.1158 47.6433 62.8094 49.1975 63.7619C45.1039 64.1818 40.4607 63.8717 36.3475 63.9513Z" fill="black"></path></mask><g mask="url(#mask51_673_14)"><path d="M51.7953 68.1591C56.2712 63.759 60.8699 59.4769 65.5913 55.332C70.3071 51.1954 75.3244 47.3882 79.9928 43.2077C80.2132 43.0128 79.923 42.6285 79.6747 42.8014C74.5793 46.2985 69.9165 50.5037 65.2983 54.5799C60.5043 58.8099 55.8443 63.1826 51.307 67.6788C50.9917 67.989 51.48 68.4666 51.7953 68.1591Z" fill="#FAB81D"></path></g></g><mask id="mask52_673_14" style="mask-type:alpha" maskUnits="userSpaceOnUse" x="55" y="44" width="18" height="21"><path d="M55.1409 44.3672H72.9997V64.0429H55.1409V44.3672Z" fill="black"></path></mask><g mask="url(#mask52_673_14)"><mask id="mask53_673_14" style="mask-type:alpha" maskUnits="userSpaceOnUse" x="29" y="37" width="44" height="27"><path d="M36.3476 63.9513C36.4229 60.9648 36.1523 54.5197 36.1523 54.5197C36.1523 54.5197 32.8484 55.8812 31.428 54.5828C28.4534 51.8571 28.9111 49.9246 29.8319 47.7863C30.7081 45.7496 34.3496 45.2445 35.823 46.3178L35.4212 37.7344C35.4212 37.7344 41.7527 38.0034 43.8985 37.7344C43.3739 38.9202 43.2093 40.1005 43.4325 41.2259C44.1469 44.83 46.7532 46.4441 49.3399 46.3947C52.055 46.3452 54.6083 44.1136 54.5497 41.58C54.5273 40.5809 54.2204 38.5606 53.6595 37.7344C57.2173 37.8524 60.9258 38.1077 64.4669 37.7371L64.5729 45.4971C64.5729 45.4971 66.0463 44.8355 66.7272 44.7751C68.3177 44.6351 70.4887 45.0853 71.5574 46.348C72.682 47.6765 73.0475 51.0336 71.7304 52.7986C70.3185 54.6926 67.1401 54.5801 65.1673 54.2314C65.3738 57.3826 65.4798 63.567 65.4798 63.567L55.6435 63.5835C55.6435 63.5835 58.3475 59.9903 57.2676 56.5592C56.7625 54.9479 55.3142 53.6001 53.7795 53.1198C49.8143 51.879 45.9049 55.1565 46.3681 59.3068C46.569 61.1158 47.6433 62.8094 49.1976 63.7619C45.104 64.1818 40.4607 63.8717 36.3476 63.9513Z" fill="black"></path></mask><g mask="url(#mask53_673_14)"><path d="M56.4358 65.5903C60.1053 61.9725 63.8779 58.4617 67.765 55.0717C69.6653 53.4165 71.5935 51.7888 73.544 50.1912C75.5532 48.5443 77.8106 47.0346 79.6133 45.168C79.8365 44.9374 79.5519 44.5669 79.2644 44.7261C77.1521 45.9091 75.2797 47.6247 73.4157 49.1454C71.3759 50.8088 69.364 52.508 67.3799 54.2345C63.4091 57.6931 59.5583 61.2808 55.8163 64.9782C55.4173 65.3735 56.0368 65.9856 56.4358 65.5903Z" fill="#FAB81D"></path></g></g><mask id="mask54_673_14" style="mask-type:alpha" maskUnits="userSpaceOnUse" x="55" y="49" width="18" height="16"><path d="M55.1409 49.2578H72.9997V64.0146H55.1409V49.2578Z" fill="black"></path></mask><g mask="url(#mask54_673_14)"><mask id="mask55_673_14" style="mask-type:alpha" maskUnits="userSpaceOnUse" x="29" y="37" width="44" height="27"><path d="M36.3476 63.9513C36.4229 60.9648 36.1523 54.5197 36.1523 54.5197C36.1523 54.5197 32.8484 55.8812 31.428 54.5828C28.4534 51.8571 28.9111 49.9246 29.8319 47.7863C30.7081 45.7496 34.3496 45.2445 35.823 46.3178L35.4212 37.7344C35.4212 37.7344 41.7527 38.0034 43.8985 37.7344C43.3739 38.9202 43.2093 40.1005 43.4325 41.2259C44.1469 44.83 46.7532 46.4441 49.3399 46.3947C52.055 46.3452 54.6083 44.1136 54.5497 41.58C54.5273 40.5809 54.2204 38.5606 53.6595 37.7344C57.2173 37.8524 60.9258 38.1077 64.4669 37.7371L64.5729 45.4971C64.5729 45.4971 66.0463 44.8355 66.7272 44.7751C68.3177 44.6351 70.4887 45.0853 71.5574 46.348C72.682 47.6765 73.0475 51.0336 71.7304 52.7986C70.3185 54.6926 67.1401 54.5801 65.1673 54.2314C65.3738 57.3826 65.4798 63.567 65.4798 63.567L55.6435 63.5835C55.6435 63.5835 58.3475 59.9903 57.2676 56.5592C56.7625 54.9479 55.3142 53.6001 53.7795 53.1198C49.8143 51.879 45.9049 55.1565 46.3681 59.3068C46.569 61.1158 47.6433 62.8094 49.1976 63.7619C45.104 64.1818 40.4607 63.8717 36.3476 63.9513Z" fill="black"></path></mask><g mask="url(#mask55_673_14)"><path d="M55.8499 67.8959C58.9528 64.7914 62.1144 61.7472 65.3374 58.7662C68.5324 55.8154 72.1405 53.1089 75.0816 49.922C75.2713 49.7189 75.0202 49.3483 74.7663 49.5213C71.2419 51.8984 68.1473 55.1264 65.0499 58.0114C61.7572 61.0802 58.5315 64.2204 55.3671 67.421C55.0629 67.7284 55.5401 68.2033 55.8499 67.8959Z" fill="#FAB81D"></path></g></g><mask id="mask56_673_14" style="mask-type:alpha" maskUnits="userSpaceOnUse" x="59" y="52" width="14" height="13"><path d="M59.4271 52.7969H72.9998V64.0401H59.4271V52.7969Z" fill="black"></path></mask><g mask="url(#mask56_673_14)"><mask id="mask57_673_14" style="mask-type:alpha" maskUnits="userSpaceOnUse" x="29" y="37" width="44" height="27"><path d="M36.3476 63.9513C36.4229 60.9648 36.1523 54.5197 36.1523 54.5197C36.1523 54.5197 32.8484 55.8812 31.428 54.5828C28.4534 51.8571 28.9111 49.9246 29.8319 47.7863C30.7081 45.7496 34.3496 45.2445 35.823 46.3178L35.4212 37.7344C35.4212 37.7344 41.7527 38.0034 43.8985 37.7344C43.3739 38.9202 43.2093 40.1005 43.4325 41.2259C44.1469 44.83 46.7532 46.4441 49.3399 46.3947C52.055 46.3452 54.6083 44.1136 54.5497 41.58C54.5273 40.5809 54.2204 38.5606 53.6595 37.7344C57.2173 37.8524 60.9258 38.1077 64.4669 37.7371L64.5729 45.4971C64.5729 45.4971 66.0463 44.8355 66.7272 44.7751C68.3177 44.6351 70.4887 45.0853 71.5574 46.348C72.682 47.6765 73.0475 51.0336 71.7304 52.7986C70.3185 54.6926 67.1401 54.5801 65.1673 54.2314C65.3738 57.3826 65.4798 63.567 65.4798 63.567L55.6435 63.5835C55.6435 63.5835 58.3475 59.9903 57.2676 56.5592C56.7625 54.9479 55.3142 53.6001 53.7795 53.1198C49.8143 51.879 45.9049 55.1565 46.3681 59.3068C46.569 61.1158 47.6433 62.8094 49.1976 63.7619C45.104 64.1818 40.4607 63.8717 36.3476 63.9513Z" fill="black"></path></mask><g mask="url(#mask57_673_14)"><path d="M60.5826 64.9859C62.6252 62.9986 64.6873 61.0332 66.7801 59.0953C68.8395 57.1903 71.2253 55.4143 73.0363 53.276C73.201 53.0784 72.9861 52.7298 72.735 52.8945C70.4579 54.3905 68.5074 56.5151 66.5262 58.3679C64.3608 60.3909 62.2261 62.4469 60.1138 64.5248C59.8124 64.824 60.2784 65.2824 60.5826 64.9859Z" fill="#FAB81D"></path></g></g><mask id="mask58_673_14" style="mask-type:alpha" maskUnits="userSpaceOnUse" x="60" y="52" width="13" height="13"><path d="M60.1415 52.0859H72.9998V64.0319H60.1415V52.0859Z" fill="black"></path></mask><g mask="url(#mask58_673_14)"><mask id="mask59_673_14" style="mask-type:alpha" maskUnits="userSpaceOnUse" x="29" y="37" width="44" height="27"><path d="M36.3474 63.9513C36.4228 60.9648 36.1521 54.5197 36.1521 54.5197C36.1521 54.5197 32.8482 55.8812 31.4279 54.5828C28.4532 51.8571 28.9109 49.9246 29.8317 47.7863C30.7079 45.7496 34.3495 45.2445 35.8228 46.3178L35.421 37.7344C35.421 37.7344 41.7525 38.0034 43.8984 37.7344C43.3738 38.9202 43.2091 40.1005 43.4324 41.2259C44.1467 44.83 46.753 46.4441 49.3397 46.3947C52.0548 46.3452 54.6081 44.1136 54.5495 41.58C54.5272 40.5809 54.2202 38.5606 53.6593 37.7344C57.2171 37.8524 60.9256 38.1077 64.4667 37.7371L64.5728 45.4971C64.5728 45.4971 66.0461 44.8355 66.727 44.7751C68.3175 44.6351 70.4885 45.0853 71.5572 46.348C72.6818 47.6765 73.0473 51.0336 71.7302 52.7986C70.3183 54.6926 67.14 54.5801 65.1671 54.2314C65.3736 57.3826 65.4796 63.567 65.4796 63.567L55.6433 63.5835C55.6433 63.5835 58.3473 59.9903 57.2674 56.5592C56.7623 54.9479 55.3141 53.6001 53.7793 53.1198C49.8141 51.879 45.9047 55.1565 46.3679 59.3068C46.5688 61.1158 47.6431 62.8094 49.1974 63.7619C45.1038 64.1818 40.4605 63.8717 36.3474 63.9513Z" fill="black"></path></mask><g mask="url(#mask59_673_14)"><path d="M61.0987 66.507C65.6694 61.9312 70.6727 57.5366 74.836 52.5957C75.0676 52.3239 74.7132 51.9644 74.437 52.2032C69.537 56.4386 65.2174 61.4893 60.6996 66.1145C60.4485 66.3725 60.8447 66.7623 61.0987 66.507Z" fill="#FAB81D"></path></g></g><mask id="mask60_673_14" style="mask-type:alpha" maskUnits="userSpaceOnUse" x="28" y="37" width="19" height="18"><path d="M28.7098 37.3125H46.5686V54.1774H28.7098V37.3125Z" fill="black"></path></mask><g mask="url(#mask60_673_14)"><mask id="mask61_673_14" style="mask-type:alpha" maskUnits="userSpaceOnUse" x="29" y="37" width="44" height="27"><path d="M36.3474 63.9513C36.4228 60.9648 36.1521 54.5197 36.1521 54.5197C36.1521 54.5197 32.8482 55.8812 31.4279 54.5828C28.4532 51.8571 28.9109 49.9246 29.8317 47.7863C30.7079 45.7496 34.3495 45.2445 35.8228 46.3178L35.421 37.7344C35.421 37.7344 41.7525 38.0034 43.8984 37.7344C43.3738 38.9202 43.2091 40.1005 43.4324 41.2259C44.1467 44.83 46.753 46.4441 49.3397 46.3947C52.0548 46.3452 54.6081 44.1136 54.5495 41.58C54.5272 40.5809 54.2202 38.5606 53.6593 37.7344C57.2171 37.8524 60.9256 38.1077 64.4667 37.7371L64.5728 45.4971C64.5728 45.4971 66.0461 44.8355 66.727 44.7751C68.3175 44.6351 70.4885 45.0853 71.5572 46.348C72.6818 47.6765 73.0473 51.0336 71.7302 52.7986C70.3183 54.6926 67.14 54.5801 65.1671 54.2314C65.3736 57.3826 65.4796 63.567 65.4796 63.567L55.6433 63.5835C55.6433 63.5835 58.3473 59.9903 57.2674 56.5592C56.7623 54.9479 55.3141 53.6001 53.7793 53.1198C49.8141 51.879 45.9047 55.1565 46.3679 59.3068C46.5688 61.1158 47.6431 62.8094 49.1974 63.7619C45.1038 64.1818 40.4605 63.8717 36.3474 63.9513Z" fill="black"></path></mask><g mask="url(#mask61_673_14)"><path d="M25.4006 53.9967C32.1646 48.1582 39.1714 42.5915 45.902 36.7173C46.1057 36.5389 45.8155 36.2754 45.6118 36.4291C38.5129 41.8449 31.8242 47.8426 25.1466 53.7469C24.9736 53.9006 25.2276 54.1477 25.4006 53.9967Z" fill="#FAB81D"></path></g></g><mask id="mask62_673_14" style="mask-type:alpha" maskUnits="userSpaceOnUse" x="30" y="42" width="17" height="16"><path d="M30.1385 42.9453H46.5686V57.7021H30.1385V42.9453Z" fill="black"></path></mask><g mask="url(#mask62_673_14)"><mask id="mask63_673_14" style="mask-type:alpha" maskUnits="userSpaceOnUse" x="29" y="37" width="44" height="28"><path d="M36.3474 63.9747C36.4228 60.9882 36.1521 54.5431 36.1521 54.5431C36.1521 54.5431 32.8482 55.9046 31.4279 54.6062C28.4532 51.8805 28.9109 49.9481 29.8317 47.8098C30.7079 45.773 34.3495 45.268 35.8228 46.3412L35.421 37.7578C35.421 37.7578 41.7525 38.0268 43.8984 37.7578C43.3738 38.9436 43.2091 40.1239 43.4324 41.2494C44.1467 44.8535 46.753 46.4675 49.3397 46.4181C52.0548 46.3687 54.6081 44.137 54.5495 41.6035C54.5272 40.6043 54.2202 38.584 53.6593 37.7578C57.2171 37.8758 60.9256 38.1311 64.4667 37.7606L64.5728 45.5205C64.5728 45.5205 66.0461 44.859 66.727 44.7986C68.3175 44.6586 70.4885 45.1088 71.5572 46.3714C72.6818 47.7 73.0473 51.057 71.7302 52.822C70.3183 54.716 67.14 54.6035 65.1671 54.2549C65.3736 57.4061 65.4796 63.5904 65.4796 63.5904L55.6433 63.6069C55.6433 63.6069 58.3473 60.0138 57.2674 56.5826C56.7623 54.9713 55.3141 53.6236 53.7793 53.1432C49.8141 51.9025 45.9047 55.1799 46.3679 59.3303C46.5688 61.1392 47.6431 62.8328 49.1974 63.7853C45.1038 64.2053 40.4605 63.8951 36.3474 63.9747Z" fill="black"></path></mask><g mask="url(#mask63_673_14)"><path d="M30.5573 57.0126C33.2557 54.8743 35.8898 52.6399 38.5073 50.4055C41.1052 48.1876 43.8872 46.041 46.2563 43.5898C46.4656 43.3757 46.181 42.964 45.9215 43.1616C43.251 45.1627 40.8289 47.5453 38.3091 49.7302C35.6247 52.0552 32.9208 54.3664 30.2727 56.7326C30.0773 56.9083 30.3592 57.169 30.5573 57.0126Z" fill="#FAB81D"></path></g></g><mask id="mask64_673_14" style="mask-type:alpha" maskUnits="userSpaceOnUse" x="30" y="37" width="31" height="28"><path d="M30.8531 37.3125H60.8559V64.0153H30.8531V37.3125Z" fill="black"></path></mask><g mask="url(#mask64_673_14)"><mask id="mask65_673_14" style="mask-type:alpha" maskUnits="userSpaceOnUse" x="29" y="37" width="44" height="27"><path d="M36.3474 63.9513C36.4228 60.9648 36.1521 54.5197 36.1521 54.5197C36.1521 54.5197 32.8482 55.8812 31.4279 54.5828C28.4532 51.8571 28.9109 49.9246 29.8317 47.7863C30.7079 45.7496 34.3495 45.2445 35.8228 46.3178L35.421 37.7344C35.421 37.7344 41.7525 38.0034 43.8984 37.7344C43.3738 38.9202 43.2091 40.1005 43.4324 41.2259C44.1467 44.83 46.753 46.4441 49.3397 46.3947C52.0548 46.3452 54.6081 44.1136 54.5495 41.58C54.5272 40.5809 54.2202 38.5606 53.6593 37.7344C57.2171 37.8524 60.9256 38.1077 64.4667 37.7371L64.5728 45.4971C64.5728 45.4971 66.0461 44.8355 66.727 44.7751C68.3175 44.6351 70.4885 45.0853 71.5572 46.348C72.6818 47.6765 73.0473 51.0336 71.7302 52.7986C70.3183 54.6926 67.14 54.5801 65.1671 54.2314C65.3736 57.3826 65.4796 63.567 65.4796 63.567L55.6433 63.5835C55.6433 63.5835 58.3473 59.9903 57.2674 56.5592C56.7623 54.9479 55.3141 53.6001 53.7793 53.1198C49.8141 51.879 45.9047 55.1565 46.3679 59.3068C46.5688 61.1158 47.6431 62.8094 49.1974 63.7619C45.1038 64.1818 40.4605 63.8717 36.3474 63.9513Z" fill="black"></path></mask><g mask="url(#mask65_673_14)"><path d="M31.3637 63.6696C41.0773 54.7924 51.1647 46.2008 60.4569 36.8927C60.6746 36.6759 60.3509 36.3684 60.122 36.5606C50.082 45.0836 40.7145 54.4329 31.0847 63.3951C30.9005 63.568 31.1768 63.8398 31.3637 63.6696Z" fill="#FAB81D"></path></g></g><mask id="mask66_673_14" style="mask-type:alpha" maskUnits="userSpaceOnUse" x="31" y="40" width="21" height="20"><path d="M31.5673 40.8281H51.5692V59.8011H31.5673V40.8281Z" fill="black"></path></mask><g mask="url(#mask66_673_14)"><mask id="mask67_673_14" style="mask-type:alpha" maskUnits="userSpaceOnUse" x="29" y="37" width="44" height="28"><path d="M36.3478 63.9747C36.4232 60.9882 36.1525 54.5431 36.1525 54.5431C36.1525 54.5431 32.8486 55.9046 31.4283 54.6062C28.4537 51.8805 28.9113 49.9481 29.8322 47.8098C30.7084 45.773 34.3499 45.268 35.8232 46.3412L35.4214 37.7578C35.4214 37.7578 41.7529 38.0268 43.8988 37.7578C43.3742 38.9436 43.2095 40.1239 43.4328 41.2494C44.1471 44.8535 46.7534 46.4675 49.3401 46.4181C52.0553 46.3687 54.6085 44.137 54.5499 41.6035C54.5276 40.6043 54.2206 38.584 53.6598 37.7578C57.2176 37.8758 60.9261 38.1311 64.4671 37.7606L64.5732 45.5205C64.5732 45.5205 66.0465 44.859 66.7274 44.7986C68.318 44.6586 70.4889 45.1088 71.5577 46.3714C72.6822 47.7 73.0478 51.057 71.7307 52.822C70.3187 54.716 67.1404 54.6035 65.1675 54.2549C65.374 57.4061 65.4801 63.5904 65.4801 63.5904L55.6438 63.6069C55.6438 63.6069 58.3477 60.0138 57.2678 56.5826C56.7627 54.9713 55.3145 53.6236 53.7797 53.1432C49.8145 51.9025 45.9051 55.1799 46.3683 59.3303C46.5692 61.1392 47.6436 62.8328 49.1978 63.7853C45.1043 64.2053 40.461 63.8951 36.3478 63.9747Z" fill="black"></path></mask><g mask="url(#mask67_673_14)"><path d="M32.2317 59.1462C35.4519 56.2969 38.6637 53.4367 41.8364 50.5325C44.984 47.6504 48.366 44.8642 51.2625 41.735C51.4746 41.5044 51.1593 41.2052 50.9193 41.3974C47.5959 44.0957 44.585 47.2441 41.4429 50.1455C38.287 53.0606 35.1393 55.9867 31.9778 58.8964C31.8075 59.0528 32.0587 59.2971 32.2317 59.1462Z" fill="#FAB81D"></path></g></g><path d="M36.6498 63.5483C36.7835 60.5314 36.6331 57.496 36.5104 54.4791C36.5049 54.3419 36.3516 54.1888 36.1928 54.2495C35.4013 54.553 34.5124 54.7958 33.6568 54.8249C31.5891 54.9014 29.8306 52.8981 29.5993 51.0241C29.4405 49.7254 29.9839 47.9755 31.0986 47.1731C32.3443 46.2783 34.4204 46.0671 35.7608 46.8695C35.9726 46.9962 36.2791 46.8326 36.268 46.5924C36.215 45.4944 36.1621 44.3964 36.1119 43.2984C36.0451 41.9179 36.2708 40.1706 35.8974 38.835C35.8611 38.7057 35.8862 38.5447 35.8779 38.4101C35.8862 38.5447 35.3595 38.542 35.7497 38.674C36.346 38.8773 37.3437 38.7268 37.9679 38.7426C39.966 38.7928 42.0059 38.8773 43.9956 38.6714C43.8841 38.5315 43.7699 38.3916 43.6584 38.2517C42.0226 42.2478 44.7787 47.2866 49.6833 46.991C54.4654 46.7006 56.1653 41.7965 54.0529 38.1699C53.9498 38.3388 53.8467 38.5077 53.7436 38.6793C57.3441 38.7981 60.9417 39.0039 64.5366 38.6793C64.4168 38.5684 64.297 38.4549 64.1771 38.3414C64.2106 40.8278 64.244 43.3168 64.2774 45.8032C64.2802 46.0856 64.5784 46.207 64.8264 46.1015C67.8974 44.8002 71.7682 45.5868 72.2001 49.1791C72.4175 50.9871 71.9103 52.9535 69.9401 53.6714C68.5021 54.1967 66.8273 54.0779 65.342 53.8404C65.1051 53.8034 64.8264 53.938 64.8404 54.202C65.0215 57.1898 65.08 60.1883 65.133 63.1788C65.2723 63.0494 65.4089 62.9175 65.5482 62.7881C62.2738 62.7881 58.9994 62.7908 55.725 62.7934C55.8448 62.994 55.9674 63.1946 56.0872 63.3952C57.3831 61.7007 58.2414 59.4228 57.9739 57.3245C57.6172 54.5293 54.9503 52.3887 51.9852 52.4731C49.4242 52.5444 47.139 54.2125 46.3281 56.5009C45.3527 59.2539 46.5984 62.1204 49.0647 63.7251C49.1399 63.4665 49.2124 63.2078 49.2876 62.9491C45.0183 63.3319 40.7323 63.0679 36.4547 63.1234C35.8806 63.1313 35.8779 63.9812 36.4547 63.9706C40.7323 63.9099 45.0183 64.1686 49.2876 63.7832C49.7223 63.7436 49.8812 63.2474 49.5078 63.0072C47.2087 61.5133 46.1553 58.6732 47.3815 56.2106C48.4098 54.136 50.8872 52.8902 53.2754 53.4022C58.194 54.4606 57.7008 59.9243 55.3599 62.9914C55.1704 63.2448 55.4296 63.5932 55.725 63.5932C58.9994 63.5853 62.2738 63.58 65.5482 63.5721C65.7683 63.5721 65.969 63.3926 65.9634 63.1788C65.9077 60.1883 65.8352 57.1898 65.6318 54.202C65.4646 54.3234 65.2974 54.4422 65.133 54.5636C67.0391 54.8539 69.3075 54.9859 71.0213 53.9644C72.7463 52.935 73.1699 50.8815 72.9442 49.0788C72.4314 44.9559 68.0089 43.9978 64.4586 45.5049C64.6397 45.6052 64.8236 45.7029 65.0048 45.8032C64.9686 43.3168 64.9295 40.8278 64.8933 38.3414C64.8905 38.1699 64.7317 37.9851 64.5366 38.001C60.9417 38.3282 57.3441 38.1197 53.7436 38.001C53.4649 37.9904 53.3089 38.2939 53.4343 38.5104C55.3683 41.8308 53.6628 46.368 49.2263 46.3258C44.971 46.2836 42.9422 41.8387 44.3328 38.4285C44.4108 38.2385 44.2102 37.9851 43.9956 38.0089C41.2089 38.2992 38.3274 38.125 35.5295 38.0141C35.3512 38.0062 35.1784 38.1699 35.1867 38.3388C35.3233 41.0891 35.4571 43.8421 35.5908 46.5924C35.7636 46.5 35.9308 46.4076 36.1008 46.3153C34.1557 45.1565 30.9063 45.7557 29.7554 47.6931C28.3007 50.1478 29.0086 53.001 31.3494 54.7219C32.2272 55.366 33.2444 55.3924 34.3089 55.2393C34.752 55.1733 35.627 55.0941 36.0116 54.8196C36.3014 54.6164 36.1064 54.3841 36.0256 54.8302C35.8054 56.039 36.1314 57.5488 36.1677 58.7735C36.215 60.3651 36.2568 61.9567 36.2624 63.5483C36.2652 63.7832 36.6386 63.7806 36.6498 63.5483Z" fill="#211C1D"></path></svg>