<svg xmlns="http://www.w3.org/2000/svg" width="51" height="54" viewBox="0 0 51 54" fill="none"><path d="M15.9191 47.9975C34.8959 48.676 55.4744 20.2923 41.1173 4.40625L46.2393 9.50185C57.2698 20.517 47.2813 41.8335 35.0942 48.7421C27.9322 53.6307 16.1989 55.2917 9.87398 48.6871L4.75195 43.5915C7.49031 46.3166 11.3081 47.9402 15.9191 47.9975Z" fill="#419973"></path><path d="M29.948 0.00151909C17.893 -0.146083 4.9789 10.4813 1.10598 23.7325C-2.76913 36.9859 3.86417 47.8512 15.9191 47.9966C27.9763 48.1442 40.8904 37.519 44.7633 24.2634C48.6384 11.0122 42.0051 0.146919 29.948 0.00151909Z" fill="url(#paint0_linear_1_4568)"></path><path d="M15.6768 47.5827C27.734 47.7303 40.6481 37.1052 44.521 23.8496C46.3958 17.4388 45.8098 11.5853 43.3424 7.23438C46.0147 11.625 46.6976 17.6459 44.7656 24.2615C40.8904 37.5149 27.9785 48.1401 15.9214 47.9947C9.69783 47.9198 4.92168 44.9876 2.28687 40.3458C4.96354 44.7497 9.64056 47.51 15.6768 47.5827Z" fill="#C7F9CC"></path><path d="M23.3631 23.8004C24.035 23.807 24.6607 23.9061 25.2335 24.0868L25.1431 23.3906L26.7932 24.7389C27.095 24.957 27.3748 25.3359 27.6238 25.6113L27.626 25.6135C29.0491 27.1908 29.5756 29.6494 28.8266 32.4032L13.2578 32.2644L11.0063 30.2839C12.5903 26.01 19.3492 23.7651 23.3631 23.8004Z" fill="#419973"></path><path d="M20.4154 20.7673L19.4329 19.8883L19.7082 19.505C19.4042 18.6084 19.3778 17.5311 19.6928 16.3767C20.4969 13.4203 23.2419 11.019 25.945 10.8251L26.6566 9.83594L28.6437 11.5499C28.7693 11.6446 28.8882 11.746 28.9984 11.8561C30.0382 12.8827 30.4436 14.568 29.9281 16.467C29.0865 19.5645 26.1124 22.0583 23.2837 22.0319C22.4444 22.0253 21.713 21.794 21.1204 21.3952L21.116 21.3908C20.856 21.219 20.6203 21.0075 20.4154 20.7673Z" fill="#419973"></path><path d="M17.8907 14.7916C18.7323 11.692 21.7086 9.20033 24.5351 9.22677C27.3615 9.251 28.9697 11.7845 28.1282 14.8841C27.2866 17.9816 24.3126 20.4754 21.4839 20.449C18.6574 20.4225 17.0492 17.8891 17.8907 14.7916Z" fill="white"></path><path d="M21.1094 21.8206C25.4097 21.858 27.8551 25.7111 26.5751 30.4234L11.0063 30.2846C12.2885 25.5723 16.8113 21.7831 21.1094 21.8206Z" fill="white"></path><defs><linearGradient id="paint0_linear_1_4568" x1="36.2528" y1="46.6522" x2="12.1374" y2="8.09189" gradientUnits="userSpaceOnUse"><stop stop-color="#57CC99"></stop><stop offset="0.2184" stop-color="#63D699"></stop><stop offset="0.6903" stop-color="#78E799"></stop><stop offset="1" stop-color="#80ED99"></stop></linearGradient></defs></svg>